<?xml version="1.0" encoding="utf-8"?>
<!-- Generator: Adobe Illustrator 22.1.0, SVG Export Plug-In . SVG Version: 6.00 Build 0)  -->
<svg version="1.1" id="Layer_1" xmlns="http://www.w3.org/2000/svg" xmlns:xlink="http://www.w3.org/1999/xlink" x="0px" y="0px"
	 viewBox="0 0 24 24" style="enable-background:new 0 0 24 24;" xml:space="preserve">
<style type="text/css">
	.st0{fill:none;stroke:#000000;stroke-width:2;stroke-linecap:round;stroke-linejoin:round;}
</style>
<path class="st0" d="M9,19c-5,1.5-5-2.5-7-3 M16,22v-3.9c0.1-1-0.3-1.9-0.9-2.6c3.1-0.4,6.4-1.5,6.4-7c0-1.4-0.5-2.7-1.5-3.8
	c0.5-1.2,0.4-2.6-0.1-3.8c0,0-1.2-0.4-3.9,1.5c-2.3-0.6-4.7-0.6-7,0C6.3,0.6,5.1,1,5.1,1C4.6,2.2,4.5,3.5,5,4.8
	c-1,1-1.5,2.4-1.5,3.8c0,5.4,3.3,6.6,6.4,7c-0.7,0.7-1,1.6-0.9,2.6V22"/>
</svg>
