<?xml version="1.0" encoding="utf-8"?>
<!-- Generator: Adobe Illustrator 21.0.0, SVG Export Plug-In . SVG Version: 6.00 Build 0)  -->
<svg version="1.1" id="Layer_3" xmlns="http://www.w3.org/2000/svg" xmlns:xlink="http://www.w3.org/1999/xlink" x="0px" y="0px"
	 viewBox="0 0 1345.7 869.8" style="enable-background:new 0 0 1345.7 869.8;" xml:space="preserve">
<style type="text/css">
	.st0{fill:url(#SVGID_1_);}
	.st1{fill:#FFFFFF;fill-opacity:0.1;}
</style>
<title>11</title>
<linearGradient id="SVGID_1_" gradientUnits="userSpaceOnUse" x1="1762.837" y1="8124.1431" x2="1815.0232" y2="7095.3306" gradientTransform="matrix(8.000000e-02 1.38 -1.2 7.000000e-02 9668.0508 -2564.8701)">
	<stop  offset="0" style="stop-color:#74D1FB"/>
	<stop  offset="1" style="stop-color:#329EF7"/>
</linearGradient>
<path class="st0" d="M0,869.8V0h1345.7v873.1L0,869.8z"/>
<circle class="st1" cx="500.8" cy="1575" r="81.2"/>
<circle class="st1" cx="-74.8" cy="1373.8" r="201.2"/>
<circle class="st1" cx="1178.2" cy="1097.2" r="72.2"/>
<circle class="st1" cx="1137.8" cy="1764.9" r="124.6"/>
<circle class="st1" cx="406.5" cy="1263" r="36.5"/>
<circle class="st1" cx="1250.4" cy="1410.5" r="18.3"/>
<circle class="st1" cx="531.9" cy="36.5" r="50.2"/>
<circle class="st1" cx="-46" cy="341" r="161"/>
<circle class="st1" cx="363.2" cy="542.2" r="72.2"/>
<circle class="st1" cx="917" cy="362.5" r="24.7"/>
<circle class="st1" cx="666.5" cy="748.1" r="36.1"/>
<circle class="st1" cx="1301.6" cy="462.3" r="91.7"/>
<circle class="st1" cx="218.3" cy="801.5" r="17.3"/>
<circle class="st1" cx="1178.2" cy="120" r="17.3"/>
<circle class="st1" cx="819" cy="1238" r="98"/>
<circle class="st1" cx="1002.4" cy="645.8" r="31.4"/>
</svg>
