<?xml version="1.0" encoding="utf-8"?>
<!-- Generator: Adobe Illustrator 22.1.0, SVG Export Plug-In . SVG Version: 6.00 Build 0)  -->
<svg version="1.1" id="Layer_1" xmlns="http://www.w3.org/2000/svg" xmlns:xlink="http://www.w3.org/1999/xlink" x="0px" y="0px"
	 viewBox="0 0 24 24" style="enable-background:new 0 0 24 24;" xml:space="preserve">
<style type="text/css">
	.st0{fill:none;stroke:#FFC107;stroke-width:2;stroke-linecap:round;stroke-linejoin:round;}
</style>
<path class="st0" d="M12.9,1.4l8,4c0.7,0.3,1.1,1,1.1,1.8v9.5c0,0.8-0.4,1.5-1.1,1.8l-8,4c-0.6,0.3-1.2,0.3-1.8,0l-8-4
	c-0.7-0.3-1.1-1-1.1-1.8V7.2c0-0.8,0.4-1.5,1.1-1.8l8-4C11.7,1.2,12.3,1.2,12.9,1.4z"/>
<polyline class="st0" points="2.3,6.2 12,11 21.7,6.2 "/>
<line class="st0" x1="12" y1="22.8" x2="12" y2="11"/>
<line class="st0" x1="7" y1="3.5" x2="17" y2="8.5"/>
</svg>
