<?xml version="1.0" encoding="utf-8"?>
<!-- Generator: Adobe Illustrator 21.0.0, SVG Export Plug-In . SVG Version: 6.00 Build 0)  -->
<svg version="1.1" id="Layer_3" xmlns="http://www.w3.org/2000/svg" xmlns:xlink="http://www.w3.org/1999/xlink" x="0px" y="0px"
	 viewBox="0 0 1345.7 853.8" style="enable-background:new 0 0 1345.7 853.8;" xml:space="preserve">
<style type="text/css">
	.st0{fill:url(#SVGID_1_);}
	.st1{fill:#FFFFFF;fill-opacity:0.1;}
</style>
<title>11</title>
<linearGradient id="SVGID_1_" gradientUnits="userSpaceOnUse" x1="1416.8132" y1="8703.6172" x2="1468.9913" y2="7674.9658" gradientTransform="matrix(8.000000e-02 1.38 -1.2 7.000000e-02 10391.1709 -2137.55)">
	<stop  offset="3.610819e-04" style="stop-color:#6A72E4"/>
	<stop  offset="1" style="stop-color:#9199EE"/>
</linearGradient>
<path class="st0" d="M0,853.8V0h1345.7v853.8H0z"/>
<circle class="st1" cx="500.8" cy="1575" r="81.2"/>
<circle class="st1" cx="-74.8" cy="1373.8" r="201.2"/>
<circle class="st1" cx="1178.2" cy="1097.2" r="72.2"/>
<circle class="st1" cx="1137.8" cy="1764.9" r="124.6"/>
<circle class="st1" cx="406.5" cy="1263" r="36.5"/>
<circle class="st1" cx="1250.4" cy="1410.5" r="18.3"/>
<circle class="st1" cx="531.9" cy="36.5" r="50.2"/>
<circle class="st1" cx="-46" cy="341" r="161"/>
<circle class="st1" cx="363.2" cy="542.2" r="72.2"/>
<circle class="st1" cx="892.3" cy="395.3" r="24.7"/>
<circle class="st1" cx="666.5" cy="748.1" r="36.1"/>
<circle class="st1" cx="1301.6" cy="462.3" r="91.7"/>
<circle class="st1" cx="218.3" cy="801.5" r="17.3"/>
<circle class="st1" cx="1088.7" cy="197.3" r="17.3"/>
<circle class="st1" cx="819" cy="1238" r="98"/>
<circle class="st1" cx="1002.4" cy="645.8" r="31.4"/>
</svg>
