<svg xmlns="http://www.w3.org/2000/svg" width="3000" height="1000" viewBox="0 0 3000 1000"><defs><style>.cls-1 { fill: url(#linear-gradient); } .cls-2, .cls-3, .cls-4 { fill-rule: evenodd; } .cls-2 { fill: url(#linear-gradient-2); } .cls-3 { fill: url(#linear-gradient-3); } .cls-4 { fill: url(#linear-gradient-4); }</style><linearGradient id="linear-gradient" x1="976" y1="1010" x2="2008" y2="-22" gradientUnits="userSpaceOnUse"><stop offset="0" stop-color="#68bdff"/><stop offset="1" stop-color="#48a4fd"/></linearGradient><linearGradient id="linear-gradient-2" x1="327.361" y1="1029.03" x2="1443.423" y2="-87.031" gradientUnits="userSpaceOnUse"><stop offset="0" stop-color="#f7ce68"/><stop offset="1" stop-color="#f9b975"/></linearGradient><linearGradient id="linear-gradient-3" x1="-18.344" y1="14.266" x2="956.125" y2="988.734" gradientUnits="userSpaceOnUse"><stop offset="0" stop-color="#fad465"/><stop offset="1" stop-color="#fe6bbe"/></linearGradient><linearGradient id="linear-gradient-4" x1="2161.97" y1="507.673" x2="3086" y2="507.673" gradientUnits="userSpaceOnUse"><stop offset="0" stop-color="#8c54fe"/><stop offset="1" stop-color="#7b68fe"/></linearGradient></defs><path class="cls-1" d="M-30-22h3044v1032h-3044z"/><path id="Gradient_Fill_2" class="cls-2" d="M1385-18c-138.86 346.555-105.96 452.768 66 695 107.32 151.18 101.27 276.808-64 323-171.6 47.96-1175.308 21.2-1138.169 24.72l391.169-1082.72s795.85-86.914 745 40z"/><path id="Gradient_Fill_1" class="cls-3" d="M0 1005l264-4c146.769-385.308 329.852-278.472 499-531 103.5-154.517 197.2-349.809 193-472 0 0-892.629 1.129-973.65 1.928-4.805.047 17.65 1005.072 17.65 1005.072z"/><path id="Gradient_Fill_3" class="cls-4" d="M2427-17c4.29 243.925-316.02 363.138-258 653 30.01 149.906 192.85 248.409 377 371 318.09 211.75 529 75 529 75l11-1133s-662.3-153.3-659 34z"/></svg>
