<svg id="fa60aa3c-ac5a-409e-a10f-995c3361be0f" data-name="Layer 1" xmlns="http://www.w3.org/2000/svg" xmlns:xlink="http://www.w3.org/1999/xlink" width="1082.11" height="786.29" viewBox="0 0 1082.11 786.29"><defs><linearGradient id="07756d6b-d697-4796-9cb8-0fec65eafa70" x1="293.6" y1="830.63" x2="293.6" y2="297.37" gradientUnits="userSpaceOnUse"><stop offset="0" stop-color="gray" stop-opacity="0.25"/><stop offset="0.54" stop-color="gray" stop-opacity="0.12"/><stop offset="1" stop-color="gray" stop-opacity="0.1"/></linearGradient><linearGradient id="a0f1360f-e8eb-433a-a965-b39294bc38a0" x1="777.12" y1="611.55" x2="777.12" y2="68.19" xlink:href="#07756d6b-d697-4796-9cb8-0fec65eafa70"/></defs><title>design community</title><path d="M404.43,86.52c29.22-26,75.07-31.33,116.8-29.26C652.32,63.77,770.65,127.06,873,198.65c37.06,25.91,73.54,53.84,97.59,89.53,49,72.64,34.44,173.29-33.64,233.13-23.17,20.37-51.25,36-80.08,49.81-51.26,24.61-106.57,44.36-164.74,50-41.49,4-83.49.75-124.73-4.84C452.17,600.63,339.06,566.07,244.26,507c-41.58-25.94-80.78-58.17-97.92-100.13s-6.17-95.11,36.29-119.94c17.56-10.27,38.56-14.91,59.11-19.26,30.26-6.41,61-12.73,88.31-25.76,28.2-13.46,61.59-39.5,56-69.29C380.07,140.6,375.26,112.52,404.43,86.52Z" transform="translate(-58.95 -56.86)" fill="#ffc107" opacity="0.1"/><ellipse cx="850.44" cy="707.99" rx="109.46" ry="7.02" fill="#ffc107" opacity="0.1"/><ellipse cx="565.93" cy="661.01" rx="109.46" ry="7.02" fill="#ffc107" opacity="0.1"/><ellipse cx="164.07" cy="772.37" rx="109.46" ry="7.02" fill="#ffc107" opacity="0.1"/><ellipse cx="372.07" cy="783.4" rx="45.04" ry="2.89" fill="#ffc107" opacity="0.1"/><ellipse cx="1047" cy="708.99" rx="35.1" ry="2.25" fill="#ffc107" opacity="0.1"/><ellipse cx="724.85" cy="662.1" rx="29.76" ry="1.91" fill="#ffc107" opacity="0.1"/><path d="M1111,711.85s4.7,6.15-2.16,15.43-12.54,17.11-10.25,22.89c0,0,10.37-17.23,18.8-17.47S1120.29,722.22,1111,711.85Z" transform="translate(-58.95 -56.86)" fill="#ffc107"/><path d="M1111,711.85a7.76,7.76,0,0,1,1,1.93c8.23,9.67,12.61,18.69,4.7,18.92-7.37.21-16.21,13.39-18.33,16.72a6.59,6.59,0,0,0,.25.75s10.37-17.23,18.8-17.47S1120.29,722.22,1111,711.85Z" transform="translate(-58.95 -56.86)" opacity="0.1"/><path d="M1119.75,719.68c0,2.17-.24,3.92-.54,3.92s-.54-1.75-.54-3.92.3-1.14.6-1.14S1119.75,717.52,1119.75,719.68Z" transform="translate(-58.95 -56.86)" fill="#ffd037"/><path d="M1122.75,722.27c-1.9,1-3.55,1.66-3.7,1.4s1.28-1.32,3.18-2.36,1.15-.28,1.29,0S1124.65,721.23,1122.75,722.27Z" transform="translate(-58.95 -56.86)" fill="#ffd037"/><path d="M1086.19,711.85s-4.7,6.15,2.17,15.43,12.53,17.11,10.24,22.89c0,0-10.36-17.23-18.8-17.47S1076.91,722.22,1086.19,711.85Z" transform="translate(-58.95 -56.86)" fill="#ffc107"/><path d="M1086.19,711.85a7.57,7.57,0,0,0-1,1.93c-8.23,9.67-12.62,18.69-4.71,18.92,7.37.21,16.22,13.39,18.33,16.72a6.59,6.59,0,0,1-.25.75s-10.36-17.23-18.8-17.47S1076.91,722.22,1086.19,711.85Z" transform="translate(-58.95 -56.86)" opacity="0.1"/><path d="M1077.45,719.68c0,2.17.24,3.92.54,3.92s.55-1.75.55-3.92-.31-1.14-.61-1.14S1077.45,717.52,1077.45,719.68Z" transform="translate(-58.95 -56.86)" fill="#ffd037"/><path d="M1074.45,722.27c1.9,1,3.56,1.66,3.7,1.4s-1.28-1.32-3.18-2.36-1.15-.28-1.29,0S1072.55,721.23,1074.45,722.27Z" transform="translate(-58.95 -56.86)" fill="#ffd037"/><path d="M1079,749.37s13.14-.4,17.1-3.22,20.21-6.19,21.2-1.67,19.74,22.49,4.91,22.61-34.47-2.31-38.43-4.71S1079,749.37,1079,749.37Z" transform="translate(-58.95 -56.86)" fill="#a8a8a8"/><path d="M1122.42,765.52c-14.83.12-34.47-2.31-38.42-4.72-3-1.83-4.21-8.41-4.61-11.45l-.44,0s.83,10.6,4.78,13,23.59,4.83,38.43,4.71c4.28,0,5.76-1.55,5.68-3.81C1127.24,764.64,1125.61,765.49,1122.42,765.52Z" transform="translate(-58.95 -56.86)" opacity="0.2"/><path d="M789.08,672.79s4,5.25-1.86,13.19-10.72,14.64-8.76,19.59c0,0,8.86-14.74,16.08-15S797,681.65,789.08,672.79Z" transform="translate(-58.95 -56.86)" fill="#ffc107"/><path d="M789.08,672.79a6.61,6.61,0,0,1,.82,1.65c7,8.27,10.79,16,4,16.18-6.3.18-13.87,11.46-15.68,14.31a5.39,5.39,0,0,0,.22.64s8.86-14.74,16.08-15S797,681.65,789.08,672.79Z" transform="translate(-58.95 -56.86)" opacity="0.1"/><path d="M796.55,679.49c0,1.85-.21,3.35-.46,3.35s-.47-1.5-.47-3.35.26-1,.52-1S796.55,677.64,796.55,679.49Z" transform="translate(-58.95 -56.86)" fill="#ffd037"/><path d="M799.12,681.7c-1.63.88-3,1.42-3.17,1.19s1.1-1.12,2.72-2,1-.24,1.11,0S800.74,680.81,799.12,681.7Z" transform="translate(-58.95 -56.86)" fill="#ffd037"/><path d="M767.84,672.79s-4,5.25,1.85,13.19,10.73,14.64,8.77,19.59c0,0-8.87-14.74-16.09-15S759.9,681.65,767.84,672.79Z" transform="translate(-58.95 -56.86)" fill="#ffc107"/><path d="M767.84,672.79a6.4,6.4,0,0,0-.83,1.65c-7,8.27-10.79,16-4,16.18,6.31.18,13.87,11.46,15.68,14.31-.06.21-.13.43-.21.64,0,0-8.87-14.74-16.09-15S759.9,681.65,767.84,672.79Z" transform="translate(-58.95 -56.86)" opacity="0.1"/><path d="M760.36,679.49c0,1.85.21,3.35.47,3.35s.46-1.5.46-3.35-.26-1-.52-1S760.36,677.64,760.36,679.49Z" transform="translate(-58.95 -56.86)" fill="#ffd037"/><path d="M757.8,681.7c1.62.88,3,1.42,3.16,1.19s-1.09-1.12-2.72-2-1-.24-1.11,0S756.17,680.81,757.8,681.7Z" transform="translate(-58.95 -56.86)" fill="#ffd037"/><path d="M761.64,704.89s11.24-.35,14.63-2.76,17.3-5.3,18.14-1.43,16.89,19.25,4.2,19.35-29.49-2-32.87-4S761.64,704.89,761.64,704.89Z" transform="translate(-58.95 -56.86)" fill="#a8a8a8"/><path d="M798.84,718.7c-12.7.11-29.5-2-32.88-4-2.57-1.57-3.6-7.2-3.94-9.8l-.38,0s.71,9.06,4.1,11.12,20.18,4.14,32.87,4c3.66,0,4.93-1.33,4.86-3.26C803,718,801.56,718.68,798.84,718.7Z" transform="translate(-58.95 -56.86)" opacity="0.2"/><g opacity="0.8"><path d="M206.73,678.63a74.78,74.78,0,1,1-74.81,74.8A74.75,74.75,0,0,1,206.73,678.63Z" transform="translate(-58.95 -56.86)" fill="#e74d89"/><path d="M206.73,833.51a80.11,80.11,0,1,1,80.2-80.14,80.21,80.21,0,0,1-80.2,80.14Zm67.61-69.17a100.91,100.91,0,0,0-42.67-3A292,292,0,0,1,245,810.14,68.06,68.06,0,0,0,274.34,764.34Zm-40.85,52.12a285.28,285.28,0,0,0-14.6-51.87,1.26,1.26,0,0,1-.44.12c-38.66,13.47-52.51,40.23-53.76,42.73a68.24,68.24,0,0,0,42,14.41,66.81,66.81,0,0,0,26.76-5.39Zm-77.63-17.23c1.56-2.63,20.36-33.7,55.7-45.17.87-.31,1.81-.56,2.69-.81-1.69-3.89-3.57-7.77-5.58-11.59-34.2,10.21-67.41,9.77-70.42,9.71,0,.69-.06,1.38-.06,2.06a68.4,68.4,0,0,0,17.67,45.8Zm-16.17-59.77A253.2,253.2,0,0,0,203,731.13a438.41,438.41,0,0,0-25.38-39.54A68.66,68.66,0,0,0,139.69,739.46Zm51-52.5a359.84,359.84,0,0,1,25.57,40c24.37-9.14,34.64-22.93,35.9-24.68a68.29,68.29,0,0,0-45.43-17.23A71.19,71.19,0,0,0,190.69,687Zm69.05,23.24c-1.44,1.95-12.91,16.67-38.22,27,1.56,3.26,3.13,6.58,4.57,9.9.5,1.19,1,2.38,1.51,3.51,22.8-2.89,45.42,1.75,47.68,2.19a68.22,68.22,0,0,0-15.54-42.61Z" transform="translate(-58.95 -56.86)" fill="#b2215a"/></g><path d="M392.18,525.16c-1.81-2.27-3.87-17.88-3.87-17.88l-8-39.78-4.14-22.92s-1-28.95-19.12-43.31l-1.41-1.11c0-.26,0-.51,0-.77v0h0a26.26,26.26,0,0,0-1.81-8.15,5.78,5.78,0,0,1-.65-2.73,2.78,2.78,0,0,1,.36-1.06h0a8.9,8.9,0,0,1,3.26-2.74c3.29-2,6.09-5.15,6.85-8.88a2.17,2.17,0,0,1,0-.25c0-.16,0-.33.07-.5s0-.18,0-.28a4.53,4.53,0,0,0,0-.52v-.22c0-.2,0-.41,0-.62a.57.57,0,0,1,0-.13c0-.23-.05-.47-.09-.7v-.05h0a8.09,8.09,0,0,0-4.64-6.28,3,3,0,0,0,2.05-1.71h0a3.94,3.94,0,0,0,.29-.77v0a3.9,3.9,0,0,0,.13-.76s0-.08,0-.12a4.85,4.85,0,0,0,0-.66c0-.07,0-.14,0-.21a4.4,4.4,0,0,0-.14-.65,1,1,0,0,0,0-.17l-.06-.14h0c-.67-1.92-2.26-3.4-3.63-4.94-7.9-8.85-9.43-21.3-11.58-32.84-1.19-6.4-3.44-13.69-9.64-16.12a48,48,0,0,0-5.34-1.36c-5.5-1.46-10-5.3-15.38-7.18a23.22,23.22,0,0,0-11.31-.95c-2.89.48-5.31,1.9-8.1,2.57-6,1.47-13.28-.17-18,4.68-3.31,3.37-3.57,8.51-5.2,12.9C270,326,262,331.93,259.93,340.4c-1.33,5.46.05,11,1.5,16.49a60.32,60.32,0,0,1,2.2,11.3,25.49,25.49,0,0,1,0,2.9,28.16,28.16,0,0,1-1.89,8.22c-6.76,2.5-13.75,5.45-14.27,7.11-1,3.27-17.32,12.59-17.32,12.59s-6.2,5.29-6.2,7.3-2.06,8.31-3.36,8.31-3.87,25.43-3.87,25.43v26.44s-9.55,31.22-11.75,58.92c0,0-3.86,17.69,2.44,27.84a14.2,14.2,0,0,0,3.11,3.63l3.22,8.41a19.87,19.87,0,0,1,4.26-5c.16,1.05.34,2.28.56,3.65.27,1.72.59,3.67,1,5.76-2,3.13-6.83,9.68-12.63,12.13-5.36,2.26,1.62,8.24,6.44,11.73-1.28,6.37-3.13,14.19-4.63,15.21-2.59,1.76-10.85,23.92-10.85,23.92s-16.27,38,7.11,42.3,35.3-5.79,35.3-5.79h5.6s6.81-3.84,7-11.78c3.81-3.14,9.66-8.12,10.85-10.13s-2.09-8.55-4.17-12.12l.55-1s22.23-28.45,25.07-25.43,4.65,7.8,3.36,10.83L289.78,637v27.19s-3.19,12.34,0,13.6,0,6,0,6,1.19,5.54,1.41,7.3a67.44,67.44,0,0,1,0,6.8l-1.07,27.2-2.07,40.28s-2.32,3.28-.51,5.54,1,7.56.51,8.56-.77,9.32-.77,9.32-7.5,7.8-1.55,9.82l.23.07c-2.46,2.28-2.49,7.41-2.3,9s-1.58,8-2.91,11.63a9,9,0,0,1-1.22,2.59c-.91.64,0,7.69,0,7.69s29.06,2.39,31.52,0c1-.93.75-3.19.05-5.8a60,60,0,0,0-4.44-10.95c-1.69-3.14-.9-7.17-.9-7.17v-3c1.95.31,3.22.49,3.22.49s3.62-3,2.07-5.79S313.89,779,313.89,779s4.91-17.63,4.91-19.39,6.46-24.67,6.46-24.67,9.56-40.54,4.91-59.68c0,0,4.13-4.78,3.61-6s-1.72-6.55.05-8.81,9.26-30.47,11.33-35.25c.95-2.21,3.33-8.31,5.61-14.26,10.29-1.54,22.55-4.38,22.55-4.38s-1.83-7.79-3.19-15.75l1.12-5.47.4-1.89a17.7,17.7,0,0,1,2.45,3l2.06-10.07s.23-.35.62-1c2.41-3.77,11.19-17.32,15.4-21.43C397.09,549.08,394,527.42,392.18,525.16Z" transform="translate(-58.95 -56.86)" fill="url(#07756d6b-d697-4796-9cb8-0fec65eafa70)"/><rect x="242.04" y="299.83" width="28.5" height="32" fill="#925978"/><rect x="242.04" y="299.83" width="28.5" height="32" opacity="0.1"/><path d="M259.23,632.44s7.25,11.5,5.5,14.5S251,659.69,251,659.69l-3.54-24Z" transform="translate(-58.95 -56.86)" fill="#ff6484"/><path d="M236.73,669.44l5.29-.75h5.42s7.2-4.14,6.79-12.75,0-17,0-17Z" transform="translate(-58.95 -56.86)" fill="#575988"/><path d="M236.73,669.44l5.29-.75h5.42s7.2-4.14,6.79-12.75,0-17,0-17Z" transform="translate(-58.95 -56.86)" opacity="0.1"/><path d="M247.44,552.19l-30,33s-3.5,21.75-6,23.5S201,632.44,201,632.44s-15.73,37.75,6.88,42S242,668.69,242,668.69l19.2-34.75s21.51-28.25,24.26-25.25,4.5,7.75,3.25,10.75l1.17,17.25v27s-3.08,12.25,0,13.5,0,6,0,6,1.16,5.5,1.37,7.25,0,6.75,0,6.75l-1,27-2,40s-2.25,3.25-.5,5.5,1,7.5.5,8.5-.75,9.25-.75,9.25-7.25,7.75-1.5,9.75,22.5,4.5,22.5,4.5,3.5-3,2-5.75,2.75-18.25,2.75-18.25,4.75-17.5,4.75-19.25,6.25-24.5,6.25-24.5,9.25-40.25,4.75-59.25c0,0,4-4.75,3.5-6s-1.67-6.5,0-8.75,9-30.25,11-35S354,597.19,354,597.19v-42.5Z" transform="translate(-58.95 -56.86)" fill="#575988"/><path d="M337,401.44l-17.26,32.61-4.55,8.58-.69,1.31L270,445.69s-1.27-2.81-3.07-7.17c-3.11-7.55-7.81-19.77-10.18-30.08a61.86,61.86,0,0,1-1.3-7.49c-.66-6.24.34-10.69,4.34-11.07a7.84,7.84,0,0,1,3,.31,22.72,22.72,0,0,0,8.58.83c10.56-1.28,13.65-12.43,14.17-22.91,0-.74.07-1.48.08-2.21,0-2.27,0-4.47-.15-6.49a91,91,0,0,0-1.18-10.22,43.42,43.42,0,0,1,8.26-3.05c8.44-2.16,20.33-2.1,20.49,15.3a55.79,55.79,0,0,0,1.14,11.48,25.91,25.91,0,0,0,2.15,6.21c2.93,5.63,7,6.24,8.91,6.17a5,5,0,0,0,1.05-.11Z" transform="translate(-58.95 -56.86)" fill="#ffc5cb"/><path d="M292.58,420.32a16.78,16.78,0,0,1,.93,5.51,25,25,0,0,1-.14,5.93,8.41,8.41,0,0,1-2.78,5.13" transform="translate(-58.95 -56.86)" opacity="0.1"/><circle cx="246.22" cy="291.85" r="26.75" opacity="0.1"/><path d="M331.91,347.71a26.74,26.74,0,0,1-46.35,18.19,9.32,9.32,0,0,1-.66-.75,26.74,26.74,0,1,1,47-17.44Z" transform="translate(-58.95 -56.86)" fill="#ffc5cb"/><path d="M262.23,414.44s9.5,24.75,29.5,20.75c0,0,20.19,1.58,31.75-13.25s12.25,85,12.25,85l-4.5,66.25S299,592.44,285,589.94s-20.75-10-20.75-10-14.75-13.75-18.75-15.5,1.75-87,1.75-87l4.75-32Z" transform="translate(-58.95 -56.86)" opacity="0.1"/><path d="M262.23,412.44s9.5,24.75,29.5,20.75c0,0,20.19,1.58,31.75-13.25s12.25,85,12.25,85l-4.5,66.25S299,590.44,285,587.94s-20.75-10-20.75-10-14.75-13.75-18.75-15.5,1.75-87,1.75-87l4.75-32Z" transform="translate(-58.95 -56.86)" fill="#e8f4ff"/><path d="M261.23,552.19s21.5,24,20.25,26.5S260.73,559.44,261.23,552.19Z" transform="translate(-58.95 -56.86)" opacity="0.1"/><path d="M257.53,492.51s6.87,9.6,11.17,8.6" transform="translate(-58.95 -56.86)" opacity="0.1"/><path d="M272.38,390.19s0,.29-.07.83c-.23,3.07-1.09,14.2-2.25,26.6-.65,7-1.39,14.34-2.15,20.9-1.24,10.67-2.56,19.21-3.68,20.42-3.25,3.5-2,36.5-2,36.5v41.75s-2.74,13.25-5,16.25-7.78,14.25-12.2,15.75a15.47,15.47,0,0,0-4.13,3.29c-4,4-9.66,10.67-14,15.93-3.58,4.39-6.23,7.78-6.23,7.78s-17.5-11-10-14.25c5.61-2.43,10.25-8.93,12.22-12,.67-1,1-1.71,1-1.71a46.31,46.31,0,0,1,1.59-6.88,23.41,23.41,0,0,1,2.77-6,6.84,6.84,0,0,1,4.14-3.13c6.5-1.25,9.75-63,9.75-63l-20-43.64-2-4.36s2.5-25.25,3.75-25.25,3.25-6.25,3.25-8.25,6-7.25,6-7.25S249,391.19,250,387.94c.53-1.71,7.8-4.8,14.57-7.34,6.08-2.28,11.75-4.12,11.75-4.12C279.63,381.52,272.38,390.19,272.38,390.19Z" transform="translate(-58.95 -56.86)" opacity="0.1"/><path d="M271.38,390.19s0,.29-.07.83c-.23,3.07-1.09,14.2-2.25,26.6-.65,7-1.39,14.34-2.15,20.9-1.24,10.67-2.56,19.21-3.68,20.42-3.25,3.5-2,36.5-2,36.5v41.75s-2.74,13.25-5,16.25-7.78,14.25-12.2,15.75a15.47,15.47,0,0,0-4.13,3.29c-4,4-9.66,10.67-14,15.93-3.58,4.39-6.23,7.78-6.23,7.78s-17.5-11-10-14.25c5.61-2.43,10.25-8.93,12.22-12,.67-1,1-1.71,1-1.71a46.31,46.31,0,0,1,1.59-6.88,23.41,23.41,0,0,1,2.77-6,6.84,6.84,0,0,1,4.14-3.13c6.5-1.25,9.75-63,9.75-63l-20-43.64-2-4.36s2.5-25.25,3.75-25.25,3.25-6.25,3.25-8.25,6-7.25,6-7.25S248,391.19,249,387.94c.53-1.71,7.8-4.8,14.57-7.34,6.08-2.28,11.75-4.12,11.75-4.12C278.63,381.52,271.38,390.19,271.38,390.19Z" transform="translate(-58.95 -56.86)" fill="#ff6484"/><path d="M370.82,447.63l-21.59,25.31s18.75,97.25,16.5,101.75a3.89,3.89,0,0,0-.33,1.18,29.88,29.88,0,0,0,.13,7c.26,2.45.66,5.17,1.11,7.88,1.32,7.9,3.09,15.64,3.09,15.64s-25.25,6-33,5.25-3.25-13.25-2-19-8.5-13.8-8.5-13.8l-13.75-56.45s-1-12.5-4-18.5-.25-12.5-1.25-21c-.71-6.06,3.65-27.72,6.94-40.31,1.25-4.79,2.35-8.26,3-9.07a.63.63,0,0,1,.1-.12c2-1.75,0-12,0-12s4.75-27,4.25-29.25c-.28-1.28,1.29-4.42,2.7-6.89,1.07-1.87,2.05-3.36,2.05-3.36s9.67,6.13,26.25,19.53l1.5,1.22c17.5,14.25,18.5,43,18.5,43Z" transform="translate(-58.95 -56.86)" opacity="0.1"/><path d="M371.82,447.63l-21.59,25.31s18.75,97.25,16.5,101.75a3.89,3.89,0,0,0-.33,1.18,29.88,29.88,0,0,0,.13,7c.26,2.45.66,5.17,1.11,7.88,1.32,7.9,3.09,15.64,3.09,15.64s-25.25,6-33,5.25-3.25-13.25-2-19-8.5-13.8-8.5-13.8l-13.75-56.45s-1-12.5-4-18.5-.25-12.5-1.25-21c-.71-6.06,3.65-27.72,6.94-40.31,1.25-4.79,2.35-8.26,3-9.07a.63.63,0,0,1,.1-.12c2-1.75,0-12,0-12s4.75-27,4.25-29.25c-.28-1.28,1.29-4.42,2.7-6.89,1.07-1.87,2.05-3.36,2.05-3.36s9.67,6.13,26.25,19.53l1.5,1.22c17.5,14.25,18.5,43,18.5,43Z" transform="translate(-58.95 -56.86)" fill="#ff6484"/><path d="M326.23,461.19c-.25,2,6,108.25,12.5,114.5Z" transform="translate(-58.95 -56.86)" opacity="0.1"/><path d="M241.94,608.94c-7,4.4-12.34-7.18-16-20.53-1.71-6.27-3-12.93-4-18.51-.37-2.08-.68-4-.94-5.72-.69-4.46-1-7.38-1-7.38l7.36-1.48,8.14-1.63,1,9.19.47,4.17s1.28,2.12,3,5.43C244.8,582.16,253,602.05,241.94,608.94Z" transform="translate(-58.95 -56.86)" fill="#ffc5cb"/><path d="M370.48,576.74l-1.75,8.63-1.09,5.43-.06.27s-21.85,29.62-28.85,17.37c-5.35-9.36,7.7-24.71,14.14-31.42,2-2.08,3.36-3.33,3.36-3.33l10.17,2.18Z" transform="translate(-58.95 -56.86)" fill="#ffc5cb"/><path d="M310.48,827.94c-2.38,2.37-30.5,0-30.5,0s-.88-7,0-7.63a8.79,8.79,0,0,0,1.18-2.58c1.29-3.65,3-10,2.82-11.54-.25-2.12-.12-10.62,5.62-10,0,0,7.5-15.25,15.76,3.5v4.5a12.49,12.49,0,0,0,.87,7.12,60.62,60.62,0,0,1,4.3,10.87C311.21,824.77,311.41,827,310.48,827.94Z" transform="translate(-58.95 -56.86)" fill="#ff6484"/><path d="M310.48,827.94c-2.38,2.37-30.5,0-30.5,0s-.88-7,0-7.63a8.79,8.79,0,0,0,1.18-2.58c3.72-1.59,8.78-3.13,12.32-1.79,4.47,1.7,12.72,4.68,17,6.24C311.21,824.77,311.41,827,310.48,827.94Z" transform="translate(-58.95 -56.86)" fill="#e8f4ff"/><path d="M285.48,368.11c.71,2.86,1.69,5.75,1.73,8.67.06,4-1.67,7.86-3.51,11.46-2.1,4.12-4.47,8.54-3.77,13.11a38.55,38.55,0,0,0,1.49,5.1A22.39,22.39,0,0,1,280,422.57c-1.64,3.31-5,6.51-8.59,5.44-.27-3.53-.71-7.38-2.38-10.39a9.92,9.92,0,0,0-2.67-3.14c-2.6-2-6.19-2.42-8.55-4.68a7.18,7.18,0,0,1-1.11-1.36A10.44,10.44,0,0,1,255.3,402c0-.34.07-.68.13-1a27.06,27.06,0,0,1,2.42-7c.62-1.34,1.27-2.68,1.92-4a63.17,63.17,0,0,0,3.78-9.28c6.08-2.28,11.75-4.12,11.75-4.12,3.33,5-3.92,13.71-3.92,13.71s0,.29-.07.83C281.87,389.74,285,378.59,285.48,368.11Z" transform="translate(-58.95 -56.86)" opacity="0.1"/><path d="M300.46,330.49c-2.92.93-5.71,2.79-7,5.59-1.38,3.1-.67,6.68-1,10.06a12.63,12.63,0,0,1-.42,2.19c-1.24,4.15-5.13,7.08-6.66,11.08-.11.3-.21.6-.3.92a11.71,11.71,0,0,0-.21,4.82,26.73,26.73,0,1,1,33.9,5.58c1.13-3.37,2.32-6.73,3.24-10.17,2.16-8.09,2.53-17.44-2.56-24.09A17.81,17.81,0,0,0,300.46,330.49Z" transform="translate(-58.95 -56.86)" opacity="0.1"/><path d="M352.7,411.46c-.88,3.19-3.12,6.69-6.42,6.54-1.57-.07-3-1-4.57-1.15-2.23-.2-4.34,1.24-5.68,3a40.66,40.66,0,0,0-3.16,5.94c-2.46,4.78-7.28,9.08-12.6,8.33l-.55-.1a8.17,8.17,0,0,1-1.59-.49c-4.77-2-7.35-8.14-7.18-13.57.2-6.19,2.79-12.05,3.64-18.19.79-5.66.07-11.43.68-17.11a41.78,41.78,0,0,1,1-5.56c2.93,5.63,7,6.24,8.91,6.17,1.07-1.87,2.05-3.36,2.05-3.36s9.67,6.13,26.25,19.53A26.72,26.72,0,0,1,352.7,411.46Z" transform="translate(-58.95 -56.86)" opacity="0.1"/><path d="M315,300.77c5.19,1.87,9.56,5.68,14.88,7.13a45.07,45.07,0,0,1,5.17,1.34c6,2.41,8.18,9.65,9.33,16,2.07,11.46,3.56,23.82,11.2,32.61,1.36,1.56,2.94,3.06,3.57,5s-.22,4.62-2.25,5.05c3.48,1.47,5.19,5.77,4.46,9.48s-3.44,6.77-6.63,8.81c-1.49,1-3.29,2-3.49,3.76a5.86,5.86,0,0,0,.63,2.72,26.87,26.87,0,0,1,.85,16.74c-.88,3.18-3.12,6.69-6.42,6.54-1.57-.07-3-1-4.56-1.15-2.24-.2-4.34,1.24-5.69,3a40.16,40.16,0,0,0-3.16,5.94c-2.45,4.78-7.27,9.08-12.6,8.33-6.13-.87-9.51-8-9.32-14.16s2.8-12.05,3.65-18.19c.78-5.66.06-11.43.68-17.11.9-8.32,4.61-16.05,6.77-24.13s2.52-17.44-2.57-24.09a17.8,17.8,0,0,0-19-6c-2.93.93-5.71,2.79-7,5.59-1.68,3.78-.25,8.28-1.43,12.25-1.33,4.46-5.73,7.52-7,12-1.48,5.39,2,10.87,2.1,16.45.06,4-1.67,7.86-3.5,11.46-2.11,4.12-4.48,8.54-3.77,13.11a38.5,38.5,0,0,0,1.48,5.1A22.44,22.44,0,0,1,280,420.57c-1.64,3.31-5.06,6.51-8.59,5.44-.39-4.95-1.09-10.53-5.05-13.53-2.61-2-6.2-2.42-8.56-4.69a9.66,9.66,0,0,1-2.53-7.82,24.46,24.46,0,0,1,2.55-8.06c2.87-6.2,6.36-12.38,6.76-19.2.6-10.29-6-20.43-3.6-30.47,2-8.4,9.76-14.29,12.7-22.41,1.57-4.36,1.82-9.47,5-12.82,4.6-4.81,11.63-3.18,17.45-4.63,2.7-.68,5-2.08,7.84-2.55A21.64,21.64,0,0,1,315,300.77Z" transform="translate(-58.95 -56.86)" fill="#925978"/><path d="M244,514.17s0,22.5,0,32.5c0,1.34,0,2.73-.08,4.13-.34,9-1.71,18.37-1.71,18.37a30.16,30.16,0,0,0-5.72-6.29c-4.79-3.77-8.87-3.29-11.94-1.57a15,15,0,0,0-3.56,2.87c-.69-4.46-1-7.38-1-7.38l7.36-1.48a6.84,6.84,0,0,1,4.14-3.13c6.5-1.25,9.75-63,9.75-63l-20-43.64v-2.13L228,432.67c11.25-9.75,14,4.25,14,4.25s2,38,2,39S244,514.17,244,514.17Z" transform="translate(-58.95 -56.86)" opacity="0.1"/><path d="M242,511.94s0,22.5,0,32.5c0,1.34,0,2.73-.08,4.13-.34,9-1.71,18.37-1.71,18.37-14-19.75-23.88-1.4-23.88-1.4l-3.12-8.35a14.08,14.08,0,0,1-3-3.6c-6.09-10.08-2.36-27.65-2.36-27.65,2.13-27.5,11.37-58.5,11.37-58.5V441.19L226,430.44c11.25-9.75,16,4.25,16,4.25s0,38,0,39S242,511.94,242,511.94Z" transform="translate(-58.95 -56.86)" fill="#ff6484"/><path d="M241.94,547.57c-.34,9-1.71,18.37-1.71,18.37-14-19.75-23.88-1.4-23.88-1.4l-3.12-8.35a14.08,14.08,0,0,1-3-3.6C216.75,549,231.12,542.38,241.94,547.57Z" transform="translate(-58.95 -56.86)" opacity="0.1"/><path d="M241.94,548.57c-.34,9-1.71,18.37-1.71,18.37-14-19.75-23.88-1.4-23.88-1.4l-3.12-8.35a14.08,14.08,0,0,1-3-3.6C216.75,550,231.12,543.38,241.94,548.57Z" transform="translate(-58.95 -56.86)" fill="#ff6484"/><path d="M241.94,548.57c-.34,9-1.71,18.37-1.71,18.37-14-19.75-23.88-1.4-23.88-1.4l-3.12-8.35a14.08,14.08,0,0,1-3-3.6C216.75,550,231.12,543.38,241.94,548.57Z" transform="translate(-58.95 -56.86)" fill="#fff" opacity="0.1"/><path d="M223,480.94s4.5,24.75,9,32S223,480.94,223,480.94Z" transform="translate(-58.95 -56.86)" opacity="0.1"/><path d="M211.48,522.94s2.75,15,8.5,16.75S211.48,522.94,211.48,522.94Z" transform="translate(-58.95 -56.86)" opacity="0.1"/><path d="M366.4,575.87l4.08.87-1.75,8.63a19.89,19.89,0,0,0-2.2-2.45,21.46,21.46,0,0,0-13.66-5.9,26.2,26.2,0,0,0-6.64.42,56.12,56.12,0,0,0,1.88-10.39,6.71,6.71,0,0,0-.63-3.86c-2-2.75-3-28.25-3-28.25s1.75-13,2.75-15.5-4.5-15.28-4.25-19.14,3.25-37.11,3.25-38.86,6.5-36,20-23l5.25,7.25.34,1.94-21.59,25.31s18.75,97.25,16.5,101.75A3.89,3.89,0,0,0,366.4,575.87Z" transform="translate(-58.95 -56.86)" opacity="0.1"/><path d="M389,554.19c-4.08,4.08-12.57,17.54-14.9,21.28l-.6,1-2,10s-7-12-23.25-9a56.12,56.12,0,0,0,1.88-10.39,6.71,6.71,0,0,0-.63-3.86c-2-2.75-3-28.25-3-28.25s1.75-13,2.75-15.5-4.5-15.28-4.25-19.14,3.25-37.11,3.25-38.86,6.5-36,20-23l5.25,7.25,4,22.75,7.75,39.5s2,15.5,3.75,17.75S393.73,549.44,389,554.19Z" transform="translate(-58.95 -56.86)" fill="#ff6484"/><path d="M374.08,574.47l-.6,1-2,10s-7-12-23.25-9a56.12,56.12,0,0,0,1.88-10.39C355.68,566.43,366.9,568,374.08,574.47Z" transform="translate(-58.95 -56.86)" opacity="0.1"/><path d="M374.08,575.47l-.6,1-2,10s-7-12-23.25-9a56.12,56.12,0,0,0,1.88-10.39C355.68,567.43,366.9,569,374.08,575.47Z" transform="translate(-58.95 -56.86)" fill="#ff6484"/><path d="M374.08,575.47l-.6,1-2,10s-7-12-23.25-9a56.12,56.12,0,0,0,1.88-10.39C355.68,567.43,366.9,569,374.08,575.47Z" transform="translate(-58.95 -56.86)" fill="#fff" opacity="0.1"/><path d="M357.73,505.19s17-.21,19.5,8.64S357.73,505.19,357.73,505.19Z" transform="translate(-58.95 -56.86)" opacity="0.1"/><path d="M354.48,530.19s28.75-1.25,27.5,11.25S354.48,530.19,354.48,530.19Z" transform="translate(-58.95 -56.86)" opacity="0.1"/><path d="M356.23,549.44s2.25-.5,3.75,4.75S356.23,549.44,356.23,549.44Z" transform="translate(-58.95 -56.86)" opacity="0.1"/><path d="M298,671.69s6.85-2,10,0S298,671.69,298,671.69Z" transform="translate(-58.95 -56.86)" opacity="0.1"/><path d="M299.23,678.94s16.25.25,17.75,2S299.23,678.94,299.23,678.94Z" transform="translate(-58.95 -56.86)" opacity="0.1"/><g opacity="0.1"><path d="M264.62,369.71c.48-8.18-3.55-16.25-4.05-24.26-.52,8.08,3.58,16.22,4,24.46A1.5,1.5,0,0,0,264.62,369.71Z" transform="translate(-58.95 -56.86)"/><path d="M283.71,383.23c-2.08,4.06-4.4,8.4-3.8,12.91.43-3.43,2.19-6.75,3.8-9.9,1.83-3.6,3.56-7.42,3.51-11.46q0-.66-.09-1.32C286.78,376.88,285.28,380.14,283.71,383.23Z" transform="translate(-58.95 -56.86)"/><path d="M356.88,364.94a6.58,6.58,0,0,1,2,1.32,4.7,4.7,0,0,0,.26-3.36s0-.09-.05-.14A3.07,3.07,0,0,1,356.88,364.94Z" transform="translate(-58.95 -56.86)"/><path d="M280,417.56c-1.64,3.31-5.06,6.51-8.59,5.44-.39-4.95-1.09-10.53-5.05-13.53-2.61-2-6.2-2.42-8.55-4.68a8.79,8.79,0,0,1-2.48-5.3c0,.16-.05.32-.06.48a9.63,9.63,0,0,0,2.54,7.82c2.35,2.27,5.94,2.72,8.55,4.69,4,3,4.66,8.58,5.05,13.53,3.53,1.07,6.95-2.13,8.59-5.44a22.42,22.42,0,0,0,2.21-11.31A22.2,22.2,0,0,1,280,417.56Z" transform="translate(-58.95 -56.86)"/><path d="M361.34,374.42c-.73,3.7-3.44,6.77-6.62,8.81-1.5,1-3.3,2-3.5,3.76a4.35,4.35,0,0,0,.34,2,8.77,8.77,0,0,1,3.16-2.72c3.18-2,5.89-5.11,6.62-8.81a9.1,9.1,0,0,0,0-3.25A2,2,0,0,1,361.34,374.42Z" transform="translate(-58.95 -56.86)"/><path d="M352.7,406.45c-.88,3.18-3.11,6.69-6.42,6.54-1.57-.07-3-1-4.56-1.15-2.24-.2-4.34,1.24-5.69,3a39.67,39.67,0,0,0-3.15,5.94c-2.46,4.78-7.28,9.08-12.6,8.33s-8.73-6.48-9.25-12.09c0,.31-.07.62-.07.94-.2,6.19,3.18,13.29,9.32,14.16,5.32.75,10.14-3.55,12.6-8.33a39.19,39.19,0,0,1,3.15-5.94c1.35-1.79,3.45-3.23,5.69-3,1.56.15,3,1.08,4.56,1.15,3.31.15,5.54-3.36,6.42-6.54a26.38,26.38,0,0,0,.89-8.66A26.4,26.4,0,0,1,352.7,406.45Z" transform="translate(-58.95 -56.86)"/><path d="M319.48,334.47a21,21,0,0,1,4,12c.26-5.44-.76-10.8-4-15.06a17.8,17.8,0,0,0-19-6c-2.93.93-5.71,2.79-7,5.59-1.69,3.78-.26,8.29-1.44,12.25-1.33,4.46-5.73,7.52-7,12a11.48,11.48,0,0,0-.26,4.4,10,10,0,0,1,.26-1.39c1.23-4.48,5.63-7.54,7-12,1.18-4-.25-8.47,1.44-12.25,1.25-2.8,4-4.66,7-5.59A17.8,17.8,0,0,1,319.48,334.47Z" transform="translate(-58.95 -56.86)"/></g><g opacity="0.8"><circle id="c40b9370-e8cf-4f46-b0aa-8f4512275a8b" data-name="background" cx="567.86" cy="580.82" r="80.2" fill="#1769ff"/><path id="2e22f7a4-7c1b-458a-b567-b65e93177032" data-name="behance" d="M603.26,601.33a45.34,45.34,0,0,1,9.47.92,20.33,20.33,0,0,1,7.33,3,14.06,14.06,0,0,1,4.73,5.55,19.38,19.38,0,0,1,1.69,8.56,16,16,0,0,1-2.5,9.16,18.15,18.15,0,0,1-7.38,6,17.51,17.51,0,0,1,10,6.77,22.22,22.22,0,0,1,1.17,21.18,18.42,18.42,0,0,1-5.75,6.56,25.52,25.52,0,0,1-8.25,3.77,37.64,37.64,0,0,1-9.51,1.22H569.06V601.33Zm-2,29.42a11.52,11.52,0,0,0,7-2q2.76-2,2.75-6.62a8.47,8.47,0,0,0-.92-4.17,6.8,6.8,0,0,0-2.44-2.55,10.4,10.4,0,0,0-3.51-1.27,23.74,23.74,0,0,0-4.13-.35h-15v17Zm.92,30.84a21.1,21.1,0,0,0,4.48-.46,10.89,10.89,0,0,0,3.76-1.52,7.69,7.69,0,0,0,2.6-2.9,10.08,10.08,0,0,0,1-4.69c0-3.72-1.05-6.39-3.16-8a13.44,13.44,0,0,0-8.35-2.4h-17.4v20Zm47.9-1.53q3.26,3.16,9.36,3.16A12.91,12.91,0,0,0,667,661a9.08,9.08,0,0,0,3.87-4.63h12.72q-3.06,9.47-9.37,13.54A27.62,27.62,0,0,1,658.9,674a30.07,30.07,0,0,1-11.19-2,23.27,23.27,0,0,1-8.45-5.65,25.39,25.39,0,0,1-5.35-8.75,32.22,32.22,0,0,1-1.88-11.2,30.67,30.67,0,0,1,1.93-11,25.45,25.45,0,0,1,14-14.65,27.18,27.18,0,0,1,10.95-2.14,25.06,25.06,0,0,1,11.71,2.6,23.38,23.38,0,0,1,8.19,7,28.58,28.58,0,0,1,4.63,10,37.19,37.19,0,0,1,1,11.71h-38c.2,4.66,1.39,8.06,3.56,10.15Zm16.34-27.68q-2.6-2.85-7.89-2.85a12.55,12.55,0,0,0-5.75,1.17,10.76,10.76,0,0,0-3.66,2.9,10.64,10.64,0,0,0-1.94,3.66,17,17,0,0,0-.66,3.46H670q-1-5.49-3.62-8.34ZM644,605h29.37v8.15H644Z" transform="translate(-58.95 -56.86)" fill="#fff"/></g><g opacity="0.8"><path d="M989.23,684.65c0,.75,0,1.51,0,2.27a80.22,80.22,0,0,1-70.51,77.35,81.05,81.05,0,0,1-9.65.57,80.2,80.2,0,1,1,80.2-80.19Z" transform="translate(-58.95 -56.86)" fill="#b3bbc6"/><path d="M989.19,686.92a80.22,80.22,0,0,1-70.51,77.35L853.2,715.56l8.18-53,32.38,2L912.18,680l13.1-21.35,22,18.28,11.83,8.47V658.67l29.82,27.6C989,686.49,989.11,686.7,989.19,686.92Z" transform="translate(-58.95 -56.86)" fill="#666c76"/><polygon points="794.25 658.71 794.25 658.71 794.25 658.71 794.25 658.71" fill="#666c76"/><path d="M903.29,686.62c0-17-10.45-28.52-30.35-28.52H853.29v57.22h20.06C892.67,715.32,903.29,703.62,903.29,686.62Zm-14.27.09c0,12.27-6.3,17.58-16.41,17.58h-5.15V669.13h5.15c9.7,0,16.41,5.55,16.41,17.58Zm70.74,28.61V658.1H946.57v32l-21.06-32H911.74v57.21h13.19V681.07l22.55,34.24h12.28Z" transform="translate(-58.95 -56.86)" fill="#fff"/></g><path d="M928.93,599.33c-1-2-10.33-15.38-10.33-15.38h0l-.28-1.2-3.06-13.65-.21-1c2-.51,3.44-1.14,3.89-1.93,2.2-3.85-1.86-8.53-1.86-8.53l-.85-20.24-2.2-49s-4.57-16.4-5.25-20.24-6.94-11.88-6.94-11.88,1.35-4-.34-6.86-5.42-16.23-5.42-16.23l-3.21-37-1.53-36.4a22.74,22.74,0,0,1,4.57.43c.22.18.1-.27-.22-1.08a.64.64,0,0,1,.22.08c.52.42-.87-2.71-2.37-5.9l-.18-.37c.72-2.61,3.7-13.18,5.77-17,1.54-2.82-1.42-22.29-3.68-35.59-.16-.95-.32-1.86-.47-2.74,3.67-6.42,7.88-13.7,7.88-13.7s10.66-30.44,15.06-43.66,0-47.5,0-47.5h0s0-1.68-.24-4.3c-.69-7.08-3.33-20.93-13.47-26.31-13.88-7.36-18.28-16.39-18.28-16.39S868.61,130,866.42,135.29l-.15-.3a34.61,34.61,0,0,1-2.83-8.33c-.06-.3-.11-.6-.16-.89a26.8,26.8,0,0,0,5.7-6.18c0,.44-.07.88-.1,1.32h0c0,.28,0,.56,0,.83v.38a5.07,5.07,0,0,0,0,.55c0,.11,0,.22,0,.33a3.17,3.17,0,0,0,3.15-1.75,12.39,12.39,0,0,0,1.07-3.65,22.49,22.49,0,0,1,3.17-7.56c1.48-2.27,3.46-4.55,3.72-7.14a5.43,5.43,0,0,0,0-1.14c-.13-1.32-.75-2.55-.94-3.86a8.2,8.2,0,0,1,0-2h0c0-.39.09-.78.15-1.16s.16-1,.23-1.56.13-.87.18-1.31v-.05a14.39,14.39,0,0,0,0-3.47,6.71,6.71,0,0,0-3.24-5.22c-1-.51-2.15-.67-3.15-1.18-2.64-1.35-3.48-4.59-5-7.09a12.5,12.5,0,0,0-9.9-5.69c-4-.16-7.92,1.59-11.85,1-2.51-.4-4.82-1.76-7.36-1.94-3.71-.26-7.05,2-10.06,4.17-2.13,1.53-4.4,3.26-5.1,5.78-.56,2.06,0,4.43-1.16,6.23-.75,1.17-2.11,1.84-2.95,3a5,5,0,0,0-1,3.21c0,.1,0,.21,0,.32s0,.36,0,.54c.07.77.21,1.55.34,2.31a2.24,2.24,0,0,1,0,.24v0c.3,2.11-.38,3.59-1.14,5.65a8.65,8.65,0,0,0-.54,2.71s0,.09,0,.14,0,.13,0,.2a5.44,5.44,0,0,0,0,.58v0a3.43,3.43,0,0,0,.9,1.92,3,3,0,0,1,1-1c0,.3,0,.6,0,.91v.06a26.37,26.37,0,0,0,8,18.9c0,.29-.08.59-.12.88-.43,3-1,6.3-1.69,9.46l-.24,1h-5s.85-3.68-7.45.84-18.46,6.69-20,7.52-20.31,15.4-20.31,15.4-16.26,9.36-15.75,25.42v0l-1.86,18-1.35,33.62s-2.54,28.61,0,32.62,6.94,27.77,6.09,30.78c-.61,2.18,5.52,17.5,9.78,26.43a36.23,36.23,0,0,0-3.17,3.84s-1.7,6.7-1.7,7.37c0,0,0,.07.08.11-3.75,3.8-9.73,10.05-9.73,11.43,0,2,1.19,3.75-.67,3.63s-1.92,2.06-1.81,3.39-2.26-.66-2.09,1.84-17.27,41.82-17.27,41.82-7.95,19.24-11,22.42-7.28,17.23-6.94,22.41.51,6.7-.85,6.7-4.06,4.68-4.06,4.68l-13.37,41.15s-3.9,12.71-5.08,12.55S688,531.25,688,531.25s-2.87,6.52-3.38,6.52c-.1,0,.37.47,1.24,1.21l-.58.49a42.44,42.44,0,0,1-3.95,3c-.05,0-7.73-5.33-13-4.83s-16.08,1.83-21.51-2c-3-2.14-9.33-4-14.42-4.08-4.06-.06-7.35,1-7.58,4.08-.51,6.85,18.45,19.74,18.45,19.74s20,5.68,23.87,11S687,579.76,687,579.76s4.81-2.12,6.62-4.25h0a2.1,2.1,0,0,0,.66-1.59c-.34-2.51,6.6-12,6.6-12l1-4.71c.49-2.33,1.11-5.17,1.72-7.66q.12-.51.24-1a5.83,5.83,0,0,0,2.33-.36c6.77-2.67,7.45-10,7.45-10L723.75,517s4.4-12.21,5.75-14.39,11.85-24.08,11.85-24.08,1.86-9.37,3.56-12.21,1.86-9,1.86-9,3.55-9.37,7.28-13.05a49.35,49.35,0,0,0,6.94-9.53s15.4-24.26,25.9-31.11c0,0,25.23-30.78,26.75-33.46s6.26-9.7,12-3.35,11.84,14.56,11.84,14.56l10.34,28.1,11.51,36s5.41,8.69,5.08,10.53,8.8,18.24,8.8,18.24,3.55,6,2.88,9,2.54,6,2.54,6l1,12.21s3.73,12,2.71,13.89,3.56,13.38,3.56,13.38,0,10.2,1.69,13.55S891.34,559,891.17,560s0,10.21,0,10.21,1.19,0,3.08-.06l.08,1,.84,10.07.08.93a4,4,0,0,0-1.55,2.94c0,2.72.4,10.71.74,17,.08,1.67.17,3.21.25,4.5a3.31,3.31,0,0,0,3.7,3.09,44.61,44.61,0,0,1,14.45.54,53.07,53.07,0,0,0,16.08,1.18s.37-3.77.43-7.15C929.4,602.09,929.32,600.1,928.93,599.33Z" transform="translate(-58.95 -56.86)" fill="url(#a0f1360f-e8eb-433a-a965-b39294bc38a0)"/><polygon points="857.03 527.56 834.2 527.56 833.98 524.87 833.15 514.83 832.53 507.23 852.53 507.23 853.75 512.76 856.76 526.36 857.03 527.56" fill="#ffaab0"/><path d="M706.14,544.08c-.43.42-1.14,2.95-1.86,6-1.29,5.36-2.64,12.33-2.64,12.33l-.84.2L683,566.91s-9.33-21.33-5-21.83a11,11,0,0,0,4.23-1.88,40.7,40.7,0,0,0,4.09-3.1c2.37-2,4.18-3.86,4.18-3.86S707.31,542.91,706.14,544.08Z" transform="translate(-58.95 -56.86)" fill="#ffaab0"/><path d="M706.14,544.08c-.43.42-1.14,2.95-1.86,6-6.15-.36-15.45-7.66-18-10,2.37-2,4.18-3.86,4.18-3.86S707.31,542.91,706.14,544.08Z" transform="translate(-58.95 -56.86)" opacity="0.1"/><path d="M912.69,569.61c-5.48,1.48-15.53,1.93-20.6,2.07l-.62-7.6h20Z" transform="translate(-58.95 -56.86)" opacity="0.1"/><path d="M767.64,335.75s-12.5,12.33-12.5,14.33,1.17,3.73-.66,3.62-1.89,2.05-1.78,3.38-2.22-.67-2.06,1.83-17,41.67-17,41.67-7.83,19.17-10.83,22.33-7.17,17.17-6.83,22.34.5,6.66-.84,6.66-4,4.67-4,4.67l-13.16,41s-3.84,12.67-5,12.5-4,21.83-4,21.83-2.84,6.5-3.34,6.5,14.5,13,21.17,10.34,7.33-10,7.33-10l10-21s4.34-12.17,5.67-14.34,11.67-24,11.67-24,1.83-9.33,3.5-12.16,1.83-9,1.83-9,3.5-9.34,7.17-13a49.3,49.3,0,0,0,6.83-9.5s15.17-24.17,25.5-31c0,0,24.83-30.67,26.33-33.34s6.17-9.66,11.84-3.33,11.66,14.5,11.66,14.5l10.17,28,11.33,35.83s5.34,8.67,5,10.5,8.67,18.17,8.67,18.17,3.5,6,2.83,9,2.5,6,2.5,6l1,12.17s3.67,12,2.67,13.83,3.5,13.33,3.5,13.33,0,10.17,1.67,13.5,3.66,16.67,3.5,17.67,0,10.17,0,10.17,25.15-.17,27.32-4-1.83-8.5-1.83-8.5l-.84-20.17-2.16-48.83s-4.5-16.34-5.17-20.17-6.83-11.83-6.83-11.83,1.33-4-.34-6.84-5.33-16.16-5.33-16.16l-3.17-36.84L889,357.25Z" transform="translate(-58.95 -56.86)" fill="#dce6f2"/><path d="M893.64,361.58c-1-.84-42-1.17-42.5-1.17s-16-6.17-16-6.17-34.5-5.66-39.83-3.16-21.84-4.67-21.84-4.67v-3.17s-8.83-3-8.83-3.66,1.67-7.34,1.67-7.34l1-.35,3.82-1.31,117.17,18.83s1.55,3.18,3,6.29S894.15,362,893.64,361.58Z" transform="translate(-58.95 -56.86)" opacity="0.1"/><path d="M893.64,360.58c-1-.84-42-1.17-42.5-1.17s-16-6.17-16-6.17-34.5-5.66-39.83-3.16-21.84-4.67-21.84-4.67v-3.17s-8.83-3-8.83-3.66,1.67-7.34,1.67-7.34l1-.35,3.82-1.31,117.17,18.83s1.55,3.18,3,6.29S894.15,361,893.64,360.58Z" transform="translate(-58.95 -56.86)" fill="#f1faff"/><path d="M702.59,556.7l-1,4.71s-.33.46-.84,1.2L683,566.91s-9.33-21.33-5-21.83a11,11,0,0,0,4.23-1.88c-.91,6.68,4.27,13.71,4.27,13.71C693.81,562.41,702.59,556.7,702.59,556.7Z" transform="translate(-58.95 -56.86)" opacity="0.1"/><path d="M702.59,557.71l-1,4.71s-6.83,9.5-6.5,12a2.12,2.12,0,0,1-.65,1.59h0c-1.78,2.12-6.52,4.23-6.52,4.23s-15.66-8-19.5-13.33-23.5-11-23.5-11-18.66-12.84-18.16-19.67c.22-3,3.46-4.12,7.46-4.06,5,.06,11.23,1.93,14.2,4.06,5.34,3.83,16,2.5,21.17,2s12.77,4.82,12.77,4.82c-1.73,7,4.06,14.85,4.06,14.85C693.81,563.42,702.59,557.71,702.59,557.71Z" transform="translate(-58.95 -56.86)" fill="#575988"/><path d="M694.49,576h0c-1.78,2.12-6.52,4.23-6.52,4.23s-15.66-8-19.5-13.33-23.5-11-23.5-11-18.66-12.84-18.16-19.67c.22-3,3.46-4.12,7.46-4.06,3,5,7.43,11.95,10.7,13.89,5.34,3.17,15.84,9.17,15.84,9.17s16.66,10.5,17.83,11.67C679.6,567.87,689.25,574.25,694.49,576Z" transform="translate(-58.95 -56.86)" fill="#f1faff"/><path d="M916,584.41H893.14l-.22-2.69c2.88-2.71,9.05-4,9.05-4,4.28-1.31,12.17,4.31,13.73,5.47Z" transform="translate(-58.95 -56.86)" opacity="0.1"/><path d="M926.57,604.63c-.06,3.37-.43,7.12-.43,7.12a51.62,51.62,0,0,1-15.83-1.17,43.21,43.21,0,0,0-14.22-.54,3.27,3.27,0,0,1-3.65-3.08c-.07-1.28-.16-2.82-.24-4.48-.34-6.23-.73-14.19-.73-16.9,0-4.66,10.5-6.83,10.5-6.83,4.76-1.46,14,5.67,14,5.67s9.17,13.33,10.17,15.33C926.53,600.52,926.61,602.5,926.57,604.63Z" transform="translate(-58.95 -56.86)" fill="#575988"/><path d="M926.57,604.63c-.06,3.37-.43,7.12-.43,7.12a51.62,51.62,0,0,1-15.83-1.17,43.21,43.21,0,0,0-14.22-.54,3.27,3.27,0,0,1-3.65-3.08c-.07-1.28-.16-2.82-.24-4.48,3.84-.58,9.5-1.14,13.44-.23C910.22,603.31,920.74,604.2,926.57,604.63Z" transform="translate(-58.95 -56.86)" fill="#f1faff"/><path d="M698.89,504.5s-3.5,6,0,8.75S698.89,504.5,698.89,504.5Z" transform="translate(-58.95 -56.86)" opacity="0.1"/><path d="M886.89,527.75c1,2,3.66,5,3.2,8.5S886.89,527.75,886.89,527.75Z" transform="translate(-58.95 -56.86)" opacity="0.1"/><path d="M883.81,162.08s-15.27-1.55-31.1-3.65l-.65-.09c-18.38-2.45-37.24-5.62-33.59-7.93,1.63-1,3-3.54,4.13-6.74a59.33,59.33,0,0,0,1.77-6.25h0c.08-.33.15-.67.23-1,.69-3.15,1.24-6.44,1.67-9.42.85-6.07,1.2-10.91,1.2-10.91s39.17-14.84,34.34,3.66a20.2,20.2,0,0,0-.14,9.06,34.69,34.69,0,0,0,2.79,8.3C870.7,150.43,883.81,162.08,883.81,162.08Z" transform="translate(-58.95 -56.86)" fill="#ffaab0"/><path d="M861.81,119.74a20.2,20.2,0,0,0-.14,9.06,26.5,26.5,0,0,1-35.4-1.81c.85-6.07,1.2-10.91,1.2-10.91S866.64,101.24,861.81,119.74Z" transform="translate(-58.95 -56.86)" opacity="0.1"/><path d="M871.47,107.22a26.5,26.5,0,0,1-53,.06v-.06a26.5,26.5,0,0,1,53,0Z" transform="translate(-58.95 -56.86)" fill="#ffaab0"/><path d="M853.06,157.34a5.11,5.11,0,0,1-.35,1.09l-.65-.09c-18.38-2.45-37.24-5.62-33.59-7.93,1.63-1,3-3.54,4.13-6.74a59.33,59.33,0,0,0,1.77-6.25h0c.08-.33.15-.67.23-1h.77c.06.42,2,13.23,19.19,15.42l.58.07C851.85,152.66,853.56,154.86,853.06,157.34Z" transform="translate(-58.95 -56.86)" opacity="0.1"/><path d="M852.06,158.34c-.84,4.15-7.92,9.07-7.92,9.07l-19.67-3.67s-12.33-11-12.33-11.33,7.33-15,7.33-15h4.9c.06.42,2,13.23,19.19,15.42l.58.07C850.85,153.66,852.56,155.86,852.06,158.34Z" transform="translate(-58.95 -56.86)" fill="#f1faff"/><path d="M883.81,162.08s-15.69-1.59-31.75-3.74c-.84,4.15-7.92,9.07-7.92,9.07l-19.67-3.67s-12.33-11-12.33-11.33,7.33-15,7.33-15h.25a23.36,23.36,0,0,0,2.88,6.26c3.09,4.72,9,9.89,20,9.24l.92-.07c16.51-1.37,20.22-12.8,20.9-15.74C870.7,150.43,883.81,162.08,883.81,162.08Z" transform="translate(-58.95 -56.86)" opacity="0.1"/><path d="M891.3,354.7l-.33,1.21c-4-3-33.16-5-33.16-5s-7.67-.9-15-2.07c-5.32-.85-10.46-1.85-12.35-2.76a12.38,12.38,0,0,0-1.35-.51c-6.64-2.08-27-4.49-27-4.49s-10,4.5-15.33,2.5-20.5-11.34-20.5-11.34.33-.5,1-1.35l3.82-1.31,117.17,18.83S889.86,351.59,891.3,354.7Z" transform="translate(-58.95 -56.86)" opacity="0.1"/><path d="M893.18,302c2.23,13.26,5.14,32.65,3.63,35.46-2.34,4.33-5.84,17.5-5.84,17.5-4-3-33.16-5-33.16-5s-7.67-.9-15-2.07c-5.32-.85-10.46-1.85-12.35-2.76a12.38,12.38,0,0,0-1.35-.51c-6.64-2.08-27-4.49-27-4.49s-10,4.5-15.33,2.5-20.5-11.34-20.5-11.34a49.11,49.11,0,0,1,7.5-8.16c5.16-4.67,14.66-44.84,14.42-45.34s-2.59-13.33-1.92-20.83-2-44.17-2-44.17S757.47,202.41,757,186.41s15.5-25.33,15.5-25.33,18.5-14.5,20-15.34,11.5-3,19.67-7.5,7.33-.83,7.33-.83,3.34,17.67,23.17,16.5,22-16.5,22-16.5c2.13-5.33,19.21,10.5,19.21,10.5s4.33,9,18,16.33c10,5.36,12.58,19.16,13.26,26.21.25,2.61.24,4.29.24,4.29l-40.17,28.84L891,289.41S892,294.78,893.18,302Z" transform="translate(-58.95 -56.86)" fill="#575988"/><path d="M793.81,336.25s13.17,22.66,26.83,16.33a16,16,0,0,0,7.3-6.68c5.39-9.32,0-21.21-10.44-24-3.85-1-8-1.63-11.36-1C796.64,322.58,793.81,336.25,793.81,336.25Z" transform="translate(-58.95 -56.86)" fill="#ffaab0"/><path d="M793.81,336.25s13.17,22.66,26.83,16.33a16,16,0,0,0,7.3-6.68c5.39-9.32,0-21.21-10.44-24-3.85-1-8-1.63-11.36-1C796.64,322.58,793.81,336.25,793.81,336.25Z" transform="translate(-58.95 -56.86)" opacity="0.1"/><path d="M774.48,170.75s10.39,7,10.61,18Z" transform="translate(-58.95 -56.86)" opacity="0.1"/><path d="M790.81,176.08c0,.67-3,47,2.33,62.83S790.81,176.08,790.81,176.08Z" transform="translate(-58.95 -56.86)" opacity="0.1"/><path d="M871.47,107.22a26.31,26.31,0,0,1-4.29,14.46c0-.34,0-.67,0-1-.17-2.78-1.64-5.29-3.07-7.69a15.31,15.31,0,0,0-4-4.94,7.59,7.59,0,0,1-1.35-1c-.92-1-.82-2.59-1-4a8.93,8.93,0,0,0-7.19-7.5,3,3,0,0,0-2.24.32c-.68.48-1,1.37-1.57,1.92-.9.81-2.28.71-3.47.48-2.62-.52-5.35-1.47-7.89-.63-4.36,1.45-6,7.48-10.47,8.6a25.62,25.62,0,0,1-4,.28,5.53,5.53,0,0,0-2.44.75v-.06a26.5,26.5,0,0,1,53,0Z" transform="translate(-58.95 -56.86)" opacity="0.1"/><path d="M818.73,89.63c.83-1.11,2.16-1.78,2.91-2.95,1.14-1.79.58-4.15,1.14-6.2.68-2.51,2.92-4.23,5-5.76,3-2.16,6.25-4.41,9.9-4.16,2.5.18,4.77,1.54,7.25,1.94,3.87.63,7.75-1.11,11.67-1a12.26,12.26,0,0,1,9.74,5.68c1.55,2.48,2.37,5.71,5,7,1,.51,2.12.67,3.1,1.18a6.69,6.69,0,0,1,3.19,5.21,23.53,23.53,0,0,1-.44,6.31,11.25,11.25,0,0,0-.14,3.17c.18,1.31.8,2.53.93,3.85.3,3-2,5.63-3.67,8.2a22.76,22.76,0,0,0-3.11,7.54,12.31,12.31,0,0,1-1.06,3.64,3.14,3.14,0,0,1-3.1,1.75c-.19-1.81.26-3.64.14-5.46-.17-2.78-1.64-5.29-3.07-7.68a15.25,15.25,0,0,0-4-4.95,7.08,7.08,0,0,1-1.34-1c-.93-1-.83-2.58-1-4a8.93,8.93,0,0,0-7.19-7.49,3,3,0,0,0-2.24.31c-.68.48-1,1.37-1.57,1.92-.9.81-2.28.72-3.47.48-2.62-.51-5.35-1.47-7.89-.63-4.36,1.45-6,7.48-10.47,8.6a24.35,24.35,0,0,1-4,.28,4.22,4.22,0,0,0-3.44,1.79c-1.34-1.4-1.07-3.68-.41-5.5.77-2.13,1.47-3.64,1.09-5.88S817.3,91.54,818.73,89.63Z" transform="translate(-58.95 -56.86)" fill="#794f6a"/><path d="M721.39,453.25s-9.5,5-4.5,6S721.39,453.25,721.39,453.25Z" transform="translate(-58.95 -56.86)" opacity="0.1"/><path d="M877.89,465.25s5.25-7,11-2.75S877.89,465.25,877.89,465.25Z" transform="translate(-58.95 -56.86)" opacity="0.1"/><path d="M890.09,469.75s6.55-2.25,10.55,0Z" transform="translate(-58.95 -56.86)" opacity="0.1"/><path d="M760.64,356.25s14,13.5,18.5,14S760.64,356.25,760.64,356.25Z" transform="translate(-58.95 -56.86)" opacity="0.1"/><path d="M762.64,178.75,759,186.41l-1.84,18-1.33,33.5s-2.5,28.5,0,32.5,6.83,27.67,6,30.67,11,31,13.17,32.67,9.83,2,14.16,1.16l7.92,7.53,22.42-20.69-13.84-10.5s3.17-5.34-5.66-11.17c0,0-4-6.67-4.17-10.17a74.32,74.32,0,0,0-3.67-21c-3.16-9.33-5-61.16-5-61.16S779.64,169.91,762.64,178.75Z" transform="translate(-58.95 -56.86)" opacity="0.1"/><path d="M760.64,178.75,757,186.41l-1.84,18-1.33,33.5s-2.5,28.5,0,32.5,6.83,27.67,6,30.67,11,31,13.17,32.67,9.83,2,14.16,1.16l7.92,7.53,22.42-20.69-13.84-10.5s3.17-5.34-5.66-11.17c0,0-4-6.67-4.17-10.17a74.32,74.32,0,0,0-3.67-21c-3.16-9.33-5-61.16-5-61.16S777.64,169.91,760.64,178.75Z" transform="translate(-58.95 -56.86)" fill="#575988"/><path d="M795.48,304.08c-1,.5-21.17,19.17-13.67,19.67S795.48,304.08,795.48,304.08Z" transform="translate(-58.95 -56.86)" opacity="0.1"/><path d="M821.14,326.58s-28.83,3-27.33,14.67,22,22.91,28.5,19.37,12-6.92,12-6.92Z" transform="translate(-58.95 -56.86)" fill="#ffaab0"/><path d="M909.14,186.75l4.17,8s4.33,34.16,0,47.33-14.83,43.5-14.83,43.5-12.67,22.17-13,23.17-24.34,35.66-28.67,37.5-12.5.87-13-1.15-11.5,8.6-11.5,8.6-21.2-25.62-17.83-28.29,13.58-3.33,13.58-3.33.75,2.5,1.58-2.67,4.67-7.83,7.5-7.5,1.67-2.66,2.17-5.83,8.33-8.83,8.33-8.83,3.84-6.17,3.84-9.84,8-6.83,8.66-6.83.5-1.5.5-6.83,4-14.84,4-14.84l2.47-30,4.34-30.5S883.31,161.25,909.14,186.75Z" transform="translate(-58.95 -56.86)" opacity="0.1"/><path d="M891,289.41s1,5.37,2.21,12.54c-2,3.59-3.59,6.45-3.71,6.79-.33,1-24.33,35.67-28.66,37.5s-12.5.87-13-1.14c-.22-.9-2.51.69-5,2.74-3.1,2.56-6.51,5.85-6.51,5.85s-3.36-4.06-7.19-9.12c-5.8-7.64-12.67-17.55-10.65-19.16,3.37-2.67,13.59-3.33,13.59-3.33s.75,2.5,1.58-2.67,4.67-7.83,7.5-7.5,1.67-2.67,2.17-5.83,8.33-8.84,8.33-8.84,3.83-6.16,3.83-9.83,8-6.83,8.67-6.83.5-1.5.5-6.84,4-14.83,4-14.83l2.47-30,4.33-30.5s11.84-37.17,37.67-11.67l1.93,3.71c.25,2.61.24,4.29.24,4.29l-40.17,28.84Z" transform="translate(-58.95 -56.86)" opacity="0.1"/><path d="M911.14,186.75l4.17,8s4.33,34.16,0,47.33-14.83,43.5-14.83,43.5-12.67,22.17-13,23.17-24.34,35.66-28.67,37.5-12.5.87-13-1.15-11.5,8.6-11.5,8.6-21.2-25.62-17.83-28.29,13.58-3.33,13.58-3.33.75,2.5,1.58-2.67,4.67-7.83,7.5-7.5,1.67-2.66,2.17-5.83,8.33-8.83,8.33-8.83,3.84-6.17,3.84-9.84,8-6.83,8.66-6.83.5-1.5.5-6.83,4-14.84,4-14.84l2.47-30,4.34-30.5S885.31,161.25,911.14,186.75Z" transform="translate(-58.95 -56.86)" fill="#575988"/><path d="M836.81,320.68s1,2.25,5.5,3.07S836.81,320.68,836.81,320.68Z" transform="translate(-58.95 -56.86)" opacity="0.1"/><path d="M890.64,186.91c-.16.5-15,17.27-12,21.64S890.64,186.91,890.64,186.91Z" transform="translate(-58.95 -56.86)" opacity="0.1"/><path d="M873.81,263.91s8.5,8.34,6.83,12.34S873.81,263.91,873.81,263.91Z" transform="translate(-58.95 -56.86)" opacity="0.1"/><path d="M875.14,248.08c.5.83,18.84,3,19.84,10S875.14,248.08,875.14,248.08Z" transform="translate(-58.95 -56.86)" opacity="0.1"/><g opacity="0.1"><path d="M877,98.18c0-.38.09-.77.15-1.16a26.29,26.29,0,0,0,.48-5.79c-.08,1.27-.3,2.54-.48,3.79A11.21,11.21,0,0,0,877,98.18Z" transform="translate(-58.95 -56.86)"/><path d="M818.19,96.22a7,7,0,0,0,0-2.23c-.12-.71-.25-1.42-.32-2.13a13.49,13.49,0,0,0,.32,4.13Z" transform="translate(-58.95 -56.86)"/><path d="M877.89,103.63c-.43,2.38-2.22,4.51-3.59,6.62a22.41,22.41,0,0,0-3.11,7.53,12.84,12.84,0,0,1-1.06,3.64,3.12,3.12,0,0,1-3.1,1.75.38.38,0,0,0,0-.1,13.38,13.38,0,0,0,0,2.1,3.12,3.12,0,0,0,3.1-1.75,12.84,12.84,0,0,0,1.06-3.64,22.41,22.41,0,0,1,3.11-7.53c1.66-2.57,4-5.16,3.66-8.21C878,103.9,877.91,103.77,877.89,103.63Z" transform="translate(-58.95 -56.86)"/><path d="M867.17,117.72c-.17-2.78-1.64-5.3-3.07-7.69a15.35,15.35,0,0,0-4-5,7.54,7.54,0,0,1-1.35-1c-.92-1-.82-2.59-1-4a8.93,8.93,0,0,0-7.19-7.49,3,3,0,0,0-2.24.31c-.68.48-1,1.37-1.57,1.93a4.06,4.06,0,0,1-3.47.48c-2.62-.52-5.35-1.48-7.89-.63-4.36,1.44-6,7.47-10.48,8.59a25.41,25.41,0,0,1-4,.29,4.16,4.16,0,0,0-3.43,1.78,3.38,3.38,0,0,1-.87-1.75,4.3,4.3,0,0,0,.87,3.75,4.16,4.16,0,0,1,3.43-1.78,25.41,25.41,0,0,0,4-.29c4.46-1.12,6.12-7.15,10.48-8.59,2.54-.85,5.27.11,7.89.63a4.06,4.06,0,0,0,3.47-.48c.62-.56.89-1.45,1.57-1.93a3,3,0,0,1,2.24-.31,8.93,8.93,0,0,1,7.19,7.49c.17,1.38.07,2.93,1,4a7.54,7.54,0,0,0,1.35,1,15.35,15.35,0,0,1,4,5c1.39,2.33,2.8,4.77,3,7.46A13.07,13.07,0,0,0,867.17,117.72Z" transform="translate(-58.95 -56.86)"/></g><path d="M538.5,203.69V308.63a1.65,1.65,0,0,0,1.68,1.67c28.9-.9,53-24.79,53-54.14s-24.08-53.25-53-54.14A1.64,1.64,0,0,0,538.5,203.69Z" transform="translate(-58.95 -56.86)" fill="#61beec"/><path d="M466.33,347V260.15A63.55,63.55,0,0,1,479,221.6c7.87-10.34,20.12-19.7,38.64-19.58a1.9,1.9,0,0,1,1.91,1.89v89.4s3,48.86-52.16,54.64A1,1,0,0,1,466.33,347Z" transform="translate(-58.95 -56.86)" fill="#4064ac"/><circle cx="179.99" cy="103.86" r="31.5" fill="#ffc107" opacity="0.1"/><circle cx="113.99" cy="28.86" r="19.5" fill="#ffc107" opacity="0.1"/><circle cx="12" cy="72.36" r="12" fill="#ffc107" opacity="0.1"/><path d="M468.82,728.79a17.18,17.18,0,0,0-2.28,4.29c-.14.37-.28.8-.42,1.21a3.69,3.69,0,0,0-.79-.27,11.05,11.05,0,0,0-3.57-.31c0-.46.06-1,.07-1.46.15-5.27-.47-12.62-5.5-9.51-4.82,3-1.38,8,1.73,11.21l.8.78c-2.84,2-3.38,6.73-3.85,11.64s-4.64,10.29-7.41,13.34c-.28.31-.53.59-.78.85a10.1,10.1,0,0,0-8.05-2.07c-.11-.43-.23-.88-.37-1.36C436.17,749,431.52,735,425.58,732l.78-1c2.52-3.3,5.36-8.2,1.17-9.45s-4.57,4.25-4.34,8.37c0,.51.08,1,.12,1.46a6.14,6.14,0,0,0-4.38,2.14l-.65-.76c-3.4-4-9.63-10.37-11.52-5.56-1.75,4.48,3.73,10.29,7.59,13.66l.24.21c-2.59,10.52,8.72,19.09,14.81,22.84l.79.48c-8.4,9.9-13.59,28.45-13.59,28.45l23.53,4.2s15.59-13.46,13.59-26.09l.16,0c15.59-3.12,19.13-19.74,16.71-29.61.09,0,.18-.07.27-.12a17.7,17.7,0,0,0,7.22-5.45C482.44,729.68,473.3,722.84,468.82,728.79Z" transform="translate(-58.95 -56.86)" fill="#ffc107"/><path d="M468.82,728.79a17.18,17.18,0,0,0-2.28,4.29c-.14.37-.28.8-.42,1.21a3.69,3.69,0,0,0-.79-.27,11.05,11.05,0,0,0-3.57-.31c0-.46.06-1,.07-1.46.15-5.27-.47-12.62-5.5-9.51-4.82,3-1.38,8,1.73,11.21l.8.78c-2.84,2-3.38,6.73-3.85,11.64s-4.64,10.29-7.41,13.34c-.28.31-.53.59-.78.85a10.1,10.1,0,0,0-8.05-2.07c-.11-.43-.23-.88-.37-1.36C436.17,749,431.52,735,425.58,732l.78-1c2.52-3.3,5.36-8.2,1.17-9.45s-4.57,4.25-4.34,8.37c0,.51.08,1,.12,1.46a6.14,6.14,0,0,0-4.38,2.14l-.65-.76c-3.4-4-9.63-10.37-11.52-5.56-1.75,4.48,3.73,10.29,7.59,13.66l.24.21c-2.59,10.52,8.72,19.09,14.81,22.84l.79.48c-8.4,9.9-13.59,28.45-13.59,28.45l23.53,4.2s15.59-13.46,13.59-26.09l.16,0c15.59-3.12,19.13-19.74,16.71-29.61.09,0,.18-.07.27-.12a17.7,17.7,0,0,0,7.22-5.45C482.44,729.68,473.3,722.84,468.82,728.79Z" transform="translate(-58.95 -56.86)" opacity="0.1"/><path d="M422,735.57l-2.75,8s-1.53-1.08-3.46-2.78c-3.86-3.37-9.34-9.18-7.59-13.66,1.89-4.81,8.12,1.54,11.52,5.56C421.09,734.33,422,735.57,422,735.57Z" transform="translate(-58.95 -56.86)" fill="#ffc107"/><path d="M427.8,731a38.89,38.89,0,0,1-2.68,3.15,42.22,42.22,0,0,1-.49-4.23c-.23-4.12.21-9.59,4.34-8.37S430.32,727.68,427.8,731Z" transform="translate(-58.95 -56.86)" fill="#ffc107"/><path d="M463.27,732.25c-.08,2.65-.34,4.76-.34,4.76A34,34,0,0,1,459.5,734c-3.11-3.23-6.55-8.21-1.73-11.21C462.8,719.63,463.42,727,463.27,732.25Z" transform="translate(-58.95 -56.86)" fill="#ffc107"/><path d="M479.52,735.72a17.7,17.7,0,0,1-7.22,5.45,19.38,19.38,0,0,1-2.42.88l-3.24-4.55a33.05,33.05,0,0,1,1.34-4.42,17.18,17.18,0,0,1,2.28-4.29C474.74,722.84,483.88,729.68,479.52,735.72Z" transform="translate(-58.95 -56.86)" fill="#ffc107"/><path d="M419.72,732.74c1.37,1.59,2.28,2.83,2.28,2.83l-2.75,8s-1.53-1.08-3.46-2.78a15.75,15.75,0,0,1,3.1-7.07C419.16,733.4,419.45,733.05,419.72,732.74Z" transform="translate(-58.95 -56.86)" opacity="0.1"/><path d="M427.8,731a38.89,38.89,0,0,1-2.68,3.15,42.22,42.22,0,0,1-.49-4.23A5.46,5.46,0,0,1,427.8,731Z" transform="translate(-58.95 -56.86)" opacity="0.1"/><path d="M441.33,762.93l-6.85,3s-1.49-.72-3.64-2.05c-7.19-4.43-21.64-15.56-11.95-28.68s17.77,10.41,20.95,21.92C440.81,760.57,441.33,762.93,441.33,762.93Z" transform="translate(-58.95 -56.86)" fill="#ffc107"/><path d="M459.5,734a5.59,5.59,0,0,1,3.77-1.7c-.08,2.65-.34,4.76-.34,4.76A34,34,0,0,1,459.5,734Z" transform="translate(-58.95 -56.86)" opacity="0.1"/><path d="M472.3,741.17a19.38,19.38,0,0,1-2.42.88l-3.24-4.55a33.05,33.05,0,0,1,1.34-4.42C470.07,734.31,471.61,737.34,472.3,741.17Z" transform="translate(-58.95 -56.86)" opacity="0.1"/><path d="M455.32,770.9l-1.15.2c-22.93,3.49-7.56-8.89-7.56-8.89s1-1,2.43-2.5c2.77-3.05,6.93-8.4,7.41-13.34.72-7.43,1.55-14.4,10.32-12.35C475.38,736,477,766.55,455.32,770.9Z" transform="translate(-58.95 -56.86)" fill="#ffc107"/><rect x="352.14" y="771.13" width="43.81" height="11.52" fill="#d4dfec"/><rect x="345.18" y="733.69" width="57.24" height="40.2" fill="#d4dfec"/><rect x="352.14" y="771.13" width="43.81" height="11.52" opacity="0.1"/><rect x="345.18" y="733.69" width="57.24" height="40.2" opacity="0.1"/><rect x="355.02" y="771.13" width="43.81" height="11.52" fill="#d4dfec"/><path d="M439.84,757.13c1,3.44,1.49,5.8,1.49,5.8l-6.85,3s-1.49-.72-3.64-2.05C433.52,760.49,436.54,757.92,439.84,757.13Z" transform="translate(-58.95 -56.86)" opacity="0.1"/><path d="M455.32,770.9l-1.15.2c-22.93,3.49-7.56-8.89-7.56-8.89s1-1,2.43-2.5C453.32,763.14,455.09,767,455.32,770.9Z" transform="translate(-58.95 -56.86)" opacity="0.1"/><path d="M418,792.82s12.84-46,30.85-31.8-7.32,36-7.32,36Z" transform="translate(-58.95 -56.86)" fill="#ffc107"/><circle cx="365.58" cy="685.56" r="1.44" opacity="0.1"/><circle cx="365.46" cy="692.28" r="1.44" opacity="0.1"/><circle cx="407.22" cy="686.88" r="1.44" opacity="0.1"/><circle cx="373.62" cy="721.33" r="1.44" opacity="0.1"/><circle cx="404.22" cy="698.04" r="1.44" opacity="0.1"/><circle cx="389.34" cy="712.93" r="1.44" opacity="0.1"/><circle cx="370.5" cy="688.44" r="1.44" opacity="0.1"/><circle cx="403.26" cy="691.2" r="1.44" opacity="0.1"/><circle cx="398.34" cy="702.36" r="1.44" opacity="0.1"/><circle cx="383.22" cy="720.25" r="1.44" opacity="0.1"/><circle cx="380.1" cy="713.17" r="1.44" opacity="0.1"/><circle cx="372.66" cy="697.2" r="1.44" opacity="0.1"/><rect x="355.02" y="771.13" width="43.81" height="4.21" opacity="0.1"/><rect x="348.06" y="733.69" width="57.24" height="40.2" fill="#d4dfec"/><circle cx="385.14" cy="726.73" r="1.44" opacity="0.1"/><circle cx="376.5" cy="728.53" r="1.44" opacity="0.1"/></svg>