<svg id="ff89978a-9cc6-4db0-9bd2-e66489869078" data-name="Layer 1" xmlns="http://www.w3.org/2000/svg" xmlns:xlink="http://www.w3.org/1999/xlink" width="1048.67" height="812.54" viewBox="0 0 1048.67 812.54"><defs><linearGradient id="f178813a-ad61-42c1-bb1e-06eeb3501bc0" x1="913.26" y1="758.31" x2="913.26" y2="258.96" gradientTransform="matrix(-1, 0, 0, 1, 1739.33, 0)" gradientUnits="userSpaceOnUse"><stop offset="0" stop-color="gray" stop-opacity="0.25"/><stop offset="0.54" stop-color="gray" stop-opacity="0.12"/><stop offset="1" stop-color="gray" stop-opacity="0.1"/></linearGradient></defs><title>designer life</title><ellipse cx="550.86" cy="713.17" rx="130.58" ry="14.45" fill="#ffc107" opacity="0.1"/><ellipse cx="421.45" cy="786.72" rx="34.58" ry="3.83" fill="#ffc107" opacity="0.1"/><ellipse cx="757.45" cy="808.72" rx="34.58" ry="3.83" fill="#ffc107" opacity="0.1"/><ellipse cx="979.45" cy="724.72" rx="34.58" ry="3.83" fill="#ffc107" opacity="0.1"/><ellipse cx="142.89" cy="763.03" rx="130.58" ry="29.86" fill="#ffc107" opacity="0.1"/><path d="M135.75,350.12h91.93V475.45H142.47c-.22,1.29-.44,2.58-.68,3.87h85.89V580.37a3,3,0,0,1-.42-.16c-2.44-1-4.85-2-7.23-3.05l-1.55-.71q-3.66-1.71-7.23-3.63c-.84-.44-1.68-.9-2.51-1.37a150.83,150.83,0,0,1-36.17-28.17c-.31-.3-.6-.62-.89-.92-1.46-1.59-2.91-3.21-4.3-4.85l-1.55-1.85c-1.65-2-3.24-4.09-4.78-6.19-.23-.31-.45-.63-.68-.93a133.54,133.54,0,0,1-15.58-28.17c-.13-.3-.25-.62-.36-.92q-1.89-4.76-3.37-9.67c-.41-1.37-.82-2.75-1.16-4.14-.13-.41-.23-.83-.34-1.23-5.1-20.07-5.68-40.93-5.68-61.68q0-3.63,0-7.25,0-12.59.24-25.25c.05-2.18.09-4.36.14-6.55.13-5.56.3-11.13.54-16.69.06-1.54.13-3.09.21-4.62,0-.89.08-1.78.14-2.66C135.34,356.51,135.53,353.32,135.75,350.12Z" transform="translate(-75.67 -43.73)" fill="#ffc107" opacity="0.1"/><path d="M227.68,210.59H177.25a381.88,381.88,0,0,1,26.83-36.93c7.49-9.2,15.37-18.18,23.6-26.81Z" transform="translate(-75.67 -43.73)" fill="#ffc107" opacity="0.1"/><path d="M227.68,214.46V346.25H136c0-.38.06-.78.1-1.16.08-1,.16-2.07.25-3.11.09-1.21.21-2.43.32-3.66s.24-2.64.38-3.95.27-2.64.42-4,.29-2.63.45-3.93.31-2.63.48-3.93c.14-1.09.28-2.17.43-3.26q.31-2.3.66-4.59c0-.23.07-.46.1-.68a312.65,312.65,0,0,1,6.75-33.08,244.17,244.17,0,0,1,11.37-33.53,250.86,250.86,0,0,1,17.1-32.95Z" transform="translate(-75.67 -43.73)" fill="#ffc107" opacity="0.1"/><path d="M249.64,350.12V475.45H446V350.12Zm0,129.2V587c1.12.23,2.23.46,3.34.65,1.5.29,3,.55,4.51.78.29,0,.59.09.89.12.6.1,1.21.18,1.81.26,1.51.21,3,.38,4.55.52l2.16.19,1.75.13h0c.95.07,1.89.13,2.83.16.58,0,1.16,0,1.75.07l1.38,0,1.71,0c.78,0,1.56,0,2.33,0h1c.78,0,1.56,0,2.33-.07,0,0,0,0,0,0s0,0,0,0c.54,0,1.08,0,1.62-.07a3.55,3.55,0,0,0,.46,0c.45,0,.9,0,1.34-.06l.31,0,3-.24c1-.09,2-.2,3-.31l2.06-.25a180.35,180.35,0,0,0,24.87-5.29c18.32-5.11,36.2-12.26,54.55-17.49C397,559.29,423.16,556,446,564.19V479.32ZM446,210.59V43.74a252.19,252.19,0,0,0-63.8,7.48c-49.73,12.49-94.38,39.59-132.58,74.2v85.17h9.85v3.87h-9.85V346.25H446V214.46H300v-3.87Zm252.29-56.36c-12.3-.44-24.53-4.33-35.6-10.35-21.15-11.5-38.08-29.27-56.93-44.26C566.55,68.39,517.89,49.54,468,44.87V210.59H748.31l.69-.74Zm25.54-4.57,27.08,29.72v-37.5C741.82,143,733.88,145.7,723.85,149.66Zm27.08,464V479.32H693.19c-.15-.57-.31-1.15-.49-1.73.17.58.32,1.16.48,1.73H468v97.16c2.14,1.59,4.25,3.26,6.34,4.95h0c2.26,1.84,4.49,3.72,6.73,5.6l2.25,1.86c1.08.9,2.17,1.78,3.26,2.67q3.27,2.64,6.59,5.22c1.1.87,2.22,1.72,3.33,2.57a455.14,455.14,0,0,0,55.84,36.52q6.55,3.64,13.22,7.07,4.44,2.28,8.93,4.48,6.74,3.29,13.58,6.37h0a499.05,499.05,0,0,0,132.3,38.53q15.21,2.24,30.54,3.53V613.66l.9,0ZM468,214.46V346.25H750.93V214.46Zm0,135.66V475.45H750.93V350.12ZM772.89,141.7v41.92l34.56-37.93Q790.28,142.89,772.89,141.7Zm0,208.42V475.45h275.19V350.12Zm274.22,273.5,1-144.3H772.89v218a493.9,493.9,0,0,0,53.18-.64h0l.31,0q12.66-.81,25.25-2.32l.19,0a464.78,464.78,0,0,0,129.73-34.62m119.61-288.94q-1.56-3.66-3.21-7.26c-2-4.49-4.21-8.93-6.44-13.33h-21.47V475.45h54.28C1124.28,440,1115.3,403.71,1101.17,370.71Zm-31.12,108.61V603.45c15.29-14.65,28.21-31.42,37.51-50.59,11.19-23.09,16.29-48.08,16.73-73.54Zm0-165.72v32.65h19.46A353.94,353.94,0,0,0,1070.05,313.6ZM883.42,166.29c-1.43-.55-2.87-1.1-4.31-1.63a391.11,391.11,0,0,0-46.48-14l-52.89,58h0l-1,1.11.68.74H967.62A402.49,402.49,0,0,0,883.42,166.29Zm89.74,48.17H776.75L772.89,218V346.25h33.83l0,0,0,0h241.34V284.1A391.78,391.78,0,0,0,973.16,214.46Z" transform="translate(-75.67 -43.73)" fill="#ffc107" opacity="0.1"/><path d="M227.68,280.94v65.31H136c0-.38.06-.78.1-1.16.08-1,.16-2.07.25-3.11.09-1.21.21-2.43.32-3.66s.24-2.64.38-3.95.27-2.64.42-4,.29-2.63.45-3.93.31-2.63.48-3.93c.14-1.09.28-2.17.43-3.26q.31-2.3.66-4.59c0-.23.07-.46.1-.68a312.65,312.65,0,0,1,6.75-33.08Z" transform="translate(-75.67 -43.73)" fill="#ffc107" opacity="0.1"/><path d="M135.75,350.12h91.93V475.45H142.47c-.22,1.29-.44,2.58-.68,3.87h85.89V580.37a3,3,0,0,1-.42-.16c-2.44-1-4.85-2-7.23-3.05l-1.55-.71q-3.66-1.71-7.23-3.63c-.84-.44-1.68-.9-2.51-1.37a150.83,150.83,0,0,1-36.17-28.17c-.31-.3-.6-.62-.89-.92-1.46-1.59-2.91-3.21-4.3-4.85l-1.55-1.85c-1.65-2-3.24-4.09-4.78-6.19-.23-.31-.45-.63-.68-.93a133.54,133.54,0,0,1-15.58-28.17c-.13-.3-.25-.62-.36-.92q-1.89-4.76-3.37-9.67c-.41-1.37-.82-2.75-1.16-4.14-.13-.41-.23-.83-.34-1.23-5.1-20.07-5.68-40.93-5.68-61.68q0-3.63,0-7.25,0-12.59.24-25.25c.05-2.18.09-4.36.14-6.55.13-5.56.3-11.13.54-16.69.06-1.54.13-3.09.21-4.62,0-.89.08-1.78.14-2.66C135.34,356.51,135.53,353.32,135.75,350.12Z" transform="translate(-75.67 -43.73)" fill="#ffc107" opacity="0.1"/><polygon points="243.1 189.6 243.1 302.52 173.97 302.52 173.97 189.6 183.82 189.6 183.82 151.37 224.29 151.37 224.29 189.6 243.1 189.6" fill="#ffc107" opacity="0.1"/><rect x="173.98" y="306.39" width="69.13" height="125.33" fill="#ffc107" opacity="0.1"/><path d="M249.64,479.32h69.13V583.53a178.55,178.55,0,0,1-24.87,5.28c-.69.1-1.37.18-2.06.26-1,.11-2,.22-3,.31l-3,.24-.32,0c-.43,0-.88.05-1.33.06a3.55,3.55,0,0,1-.46,0c-.55,0-1.09.06-1.63.07a0,0,0,0,1,0,0s0,0,0,0c-.77,0-1.54.05-2.33.07h-1c-.77,0-1.54,0-2.33,0l-1.7,0c-.47,0-.93,0-1.39,0s-1.16,0-1.75-.07c-.94,0-1.88-.09-2.83-.16h0l-1.74-.13-2.17-.19c-1.52-.14-3-.32-4.55-.52-.59-.08-1.21-.16-1.81-.26-.3,0-.6-.08-.88-.12-1.51-.23-3-.49-4.51-.78-1.12-.19-2.23-.42-3.35-.65Z" transform="translate(-75.67 -43.73)" fill="#ffc107" opacity="0.1"/><rect x="618.26" y="176.27" width="57.01" height="126.25" fill="#ffc107" opacity="0.1"/><polygon points="675.27 306.39 675.27 431.72 392.32 431.72 392.32 377.67 543.03 377.67 543.03 409.55 618.26 409.55 618.26 306.39 675.27 306.39" fill="#ffc107" opacity="0.1"/><path d="M751.84,613.7l-.9,0v82.21q-15.33-1.29-30.54-3.53A498.8,498.8,0,0,1,588.07,653.8q-18.24-8.22-35.73-17.92a455.9,455.9,0,0,1-55.84-36.52q-6.67-5.11-13.17-10.45c-3-2.48-6-5-9-7.48-2.08-1.69-4.19-3.36-6.34-5V479.32H693.18c-.16-.57-.31-1.15-.47-1.73.17.58.33,1.16.48,1.73h57.75V613.64Z" transform="translate(-75.67 -43.73)" fill="#ffc107" opacity="0.1"/><path d="M899.6,210.59H862.47V199h16.64V164.66c1.44.53,2.88,1.08,4.31,1.63V199H899.6Z" transform="translate(-75.67 -43.73)" fill="#ffc107" opacity="0.1"/><path d="M989.11,346.25H806.74l.06,0-.08,0H772.89V220h9.59v93.32h43.8V258.09h36.19V214.46H899.6v43.63h36.18v55.23h53.33Z" transform="translate(-75.67 -43.73)" fill="#ffc107" opacity="0.1"/><path d="M772.89,350.12V475.45H989.11V350.12ZM1047.78,623l.3-99.2h-59V479.32H772.89v218a493.9,493.9,0,0,0,53.18-.64h0l.31,0q12.66-.81,25.25-2.32l.19,0a464.78,464.78,0,0,0,129.73-34.62" transform="translate(-75.67 -43.73)" fill="#ffc107" opacity="0.1"/><path d="M1073.86,479.32h50.44c-.44,25.46-5.55,50.45-16.74,73.54-9.29,19.17-22.22,35.94-37.5,50.59v-79.7h3.8Z" transform="translate(-75.67 -43.73)" fill="#ffc107" opacity="0.1"/><path d="M1124.33,475.45h-50.47V370.71h27.31C1115.3,403.71,1124.28,440,1124.33,475.45Z" transform="translate(-75.67 -43.73)" fill="#ffc107" opacity="0.1"/><rect x="644.73" y="211.36" width="30.54" height="39.58" fill="#ffc107" opacity="0.1"/><rect x="644.73" y="293.41" width="30.54" height="9.11" fill="#ffc107" opacity="0.1"/><rect x="644.73" y="306.39" width="30.54" height="26.59" fill="#ffc107" opacity="0.1"/><rect x="644.73" y="375.45" width="30.54" height="39.58" fill="#ffc107" opacity="0.1"/><rect x="644.73" y="457.5" width="30.54" height="39.58" fill="#ffc107" opacity="0.1"/><path d="M750.94,613.64l.9.06-.9,0v9.19H720.4V583.27h30.54Z" transform="translate(-75.67 -43.73)" fill="#ffc107" opacity="0.1"/><path d="M750.94,665.3v30.57q-15.33-1.29-30.54-3.53v-27Z" transform="translate(-75.67 -43.73)" fill="#ffc107" opacity="0.1"/><rect x="392.32" y="428.81" width="130.88" height="2.91" fill="#ffc107" opacity="0.1"/><rect x="392.32" y="435.59" width="130.88" height="11.14" fill="#ffc107" opacity="0.1"/><rect x="392.32" y="483.26" width="130.88" height="17.92" fill="#ffc107" opacity="0.1"/><path d="M598.87,581.44v17.92H496.5q-6.67-5.1-13.17-10.46c-3-2.47-6-5-9-7.46Z" transform="translate(-75.67 -43.73)" fill="#ffc107" opacity="0.1"/><path d="M598.87,635.88v17.93h-10.8q-18.24-8.22-35.73-17.93Z" transform="translate(-75.67 -43.73)" fill="#ffc107" opacity="0.1"/><rect x="750.41" y="318.54" width="25.76" height="25.76" fill="#ffc107" opacity="0.1"/><rect x="192.54" y="198.49" width="25.76" height="25.76" fill="#ffc107" opacity="0.1"/><rect x="192.54" y="258.33" width="25.76" height="25.76" fill="#ffc107" opacity="0.1"/><rect x="192.54" y="318.18" width="25.76" height="25.76" fill="#ffc107" opacity="0.1"/><rect x="192.54" y="378.03" width="25.76" height="25.76" fill="#ffc107" opacity="0.1"/><rect x="192.54" y="437.88" width="25.76" height="25.76" fill="#ffc107" opacity="0.1"/><rect x="192.54" y="497.73" width="25.76" height="25.76" fill="#ffc107" opacity="0.1"/><rect x="848.77" y="318.54" width="25.76" height="25.76" fill="#ffc107" opacity="0.1"/><rect x="750.41" y="382.09" width="25.76" height="25.76" fill="#ffc107" opacity="0.1"/><rect x="848.77" y="382.09" width="25.76" height="25.76" fill="#ffc107" opacity="0.1"/><rect x="750.41" y="445.64" width="25.76" height="25.76" fill="#ffc107" opacity="0.1"/><rect x="848.77" y="445.64" width="25.76" height="25.76" fill="#ffc107" opacity="0.1"/><rect x="750.41" y="509.19" width="25.76" height="25.76" fill="#ffc107" opacity="0.1"/><rect x="848.77" y="509.19" width="25.76" height="25.76" fill="#ffc107" opacity="0.1"/><rect x="750.41" y="572.74" width="25.76" height="25.76" fill="#ffc107" opacity="0.1"/><rect x="848.77" y="572.74" width="25.76" height="25.76" fill="#ffc107" opacity="0.1"/><polygon points="750.41 652.9 750.41 636.29 776.17 636.29 776.17 650.54 750.41 652.9" fill="#ffc107" opacity="0.1"/><path d="M139.51,314v14.74h88.17V314Zm8.78,13.82h-7.23V315h7.23Zm8.78,0h-7.23V315h7.23Zm8.76,0H158.6V315h7.23Zm8.78,0h-7.23V315h7.23Zm8.77,0h-7.23V315h7.23Zm8.78,0h-7.23V315h7.23Zm8.78,0h-7.23V315h7.23Zm8.77,0h-7.23V315h7.23Zm8.77,0h-7.23V315h7.23Zm8.77,0H220V315h7.23Z" transform="translate(-75.67 -43.73)" fill="#ffc107" opacity="0.1"/><path d="M139.51,356.93v14.74h88.17V356.93Zm8.78,13.81h-7.23V357.86h7.23Zm8.78,0h-7.23V357.86h7.23Zm8.76,0H158.6V357.86h7.23Zm8.78,0h-7.23V357.86h7.23Zm8.77,0h-7.23V357.86h7.23Zm8.78,0h-7.23V357.86h7.23Zm8.78,0h-7.23V357.86h7.23Zm8.77,0h-7.23V357.86h7.23Zm8.77,0h-7.23V357.86h7.23Zm8.77,0H220V357.86h7.23Z" transform="translate(-75.67 -43.73)" fill="#ffc107" opacity="0.1"/><path d="M139.51,399.84v14.73h88.17V399.84Zm8.78,13.8h-7.23V400.76h7.23Zm8.78,0h-7.23V400.76h7.23Zm8.76,0H158.6V400.76h7.23Zm8.78,0h-7.23V400.76h7.23Zm8.77,0h-7.23V400.76h7.23Zm8.78,0h-7.23V400.76h7.23Zm8.78,0h-7.23V400.76h7.23Zm8.77,0h-7.23V400.76h7.23Zm8.77,0h-7.23V400.76h7.23Zm8.77,0H220V400.76h7.23Z" transform="translate(-75.67 -43.73)" fill="#ffc107" opacity="0.1"/><path d="M139.51,442.74v14.73h88.17V442.74Zm8.78,13.81h-7.23V443.66h7.23Zm8.78,0h-7.23V443.66h7.23Zm8.76,0H158.6V443.66h7.23Zm8.78,0h-7.23V443.66h7.23Zm8.77,0h-7.23V443.66h7.23Zm8.78,0h-7.23V443.66h7.23Zm8.78,0h-7.23V443.66h7.23Zm8.77,0h-7.23V443.66h7.23Zm8.77,0h-7.23V443.66h7.23Zm8.77,0H220V443.66h7.23Z" transform="translate(-75.67 -43.73)" fill="#ffc107" opacity="0.1"/><path d="M139.89,485.64c.35,1.39.75,2.77,1.17,4.14v-3.21h7.23v12.88h-3.86c.11.3.23.62.35.92h82.9V485.64Zm17.18,13.81h-7.23V486.57h7.23Zm8.76,0H158.6V486.57h7.23Zm8.78,0h-7.23V486.57h7.23Zm8.77,0h-7.23V486.57h7.23Zm8.78,0h-7.23V486.57h7.23Zm8.78,0h-7.23V486.57h7.23Zm8.77,0h-7.23V486.57h7.23Zm8.77,0h-7.23V486.57h7.23Zm8.77,0H220V486.57h7.23Z" transform="translate(-75.67 -43.73)" fill="#ffc107" opacity="0.1"/><path d="M160.36,528.55c.23.29.45.61.68.92h4.79v6.19l1.55,1.85v-8h7.23v12.89h-2.93c.29.3.57.62.89.92h55.11V528.55Zm23,13.81h-7.23V529.47h7.23Zm8.78,0h-7.23V529.47h7.23Zm8.78,0h-7.23V529.47h7.23Zm8.77,0h-7.23V529.47h7.23Zm8.77,0h-7.23V529.47h7.23Zm8.77,0H220V529.47h7.23Z" transform="translate(-75.67 -43.73)" fill="#ffc107" opacity="0.1"/><path d="M208.73,571.45c.83.47,1.67.93,2.52,1.37v-.45h7.23v4.08l1.54.71v-4.79h7.23v7.84a3.16,3.16,0,0,0,.43.16v-8.92Z" transform="translate(-75.67 -43.73)" fill="#ffc107" opacity="0.1"/><path d="M806.74,346.25h0l0,0ZM750.93,613.64v0l.9,0Zm-58.23-136c.17.58.32,1.16.48,1.73h0C693,478.75,692.88,478.17,692.7,477.59Zm114-131.34h0l0,0ZM259.49,210.59v3.87H300v-3.87Zm491.44,403v0l.9,0Zm-58.23-136c.17.58.32,1.16.48,1.73h0C693,478.75,692.88,478.17,692.7,477.59Zm114-131.34h0l0,0ZM750.93,613.64v0l.9,0Zm-58.23-136c.17.58.32,1.16.48,1.73h0C693,478.75,692.88,478.17,692.7,477.59Z" transform="translate(-75.67 -43.73)" fill="#ffc107" opacity="0.1"/><polygon points="7.8 396.6 0.96 396.96 7.8 440.88 24.48 487.21 29.4 475.08 673.14 425.76 673.02 406.08 576.05 370.56 7.8 396.6" fill="#eec5cd"/><polygon points="585.65 512.17 578.66 508.96 543.89 492.97 543.41 485.77 576.49 500.52 583.25 503.53 585.65 512.17" fill="#d48a9b"/><polygon points="104.65 535.68 102.73 546.26 97.66 539.41 90.2 529.33 84.96 522.25 87.84 516.49 92.15 521.41 94.6 524.21 98.82 529.03 99.33 529.61 104.65 535.68" fill="#d48a9b"/><path d="M641.88,670c-.8,4.7-3.17,4.09-5.33,2.34a13,13,0,0,1-4.55-8.41L613.36,526.17l-.68-5-.8-5.95-.68-4.93-1.35-10L609,494l9.59-3.35,1.19,9,2.93,22,.65,4.91.7,5.23.13,1,.68,5,.2,1.54,16.82,126.29A15.29,15.29,0,0,1,641.88,670Z" transform="translate(-75.67 -43.73)" fill="#d48a9b"/><polygon points="585.65 512.17 578.66 508.96 576.87 501.97 576.49 500.52 583.25 503.53 585.65 512.17" opacity="0.1"/><path d="M709.72,715.42c-.48,4.15-2.72,4.65-5,4a9.56,9.56,0,0,1-6.43-6.9L657.6,554.18l-2.19-8.48-12.22-47.61-1.56-6,8.17-9.61,3.88,14.95,55.68,213.78A11.49,11.49,0,0,1,709.72,715.42Z" transform="translate(-75.67 -43.73)" fill="#d48a9b"/><polygon points="549.2 493.96 545.64 490.41 543.99 488.75 537.69 482.44 537.02 477.45 536.21 471.5 544.16 479.29 547.69 482.76 548.39 487.99 548.52 488.97 549.2 493.96" opacity="0.1"/><polygon points="570.28 500.65 560.2 500.65 559.87 500.32 548.52 488.97 546.87 487.31 537.02 477.45 517.24 457.67 513.17 453.6 519.88 451.21 525.88 457.1 535.53 466.57 547.04 477.85 564.87 495.33 570.28 500.65" fill="#d48a9b"/><path d="M176,519.89,173.78,529l-8.21,33.58-1.86,7.58L129.09,711.79a13.81,13.81,0,0,1-2.76,5.63c-3.33,4-5.42,2.1-6.6-.32a10.43,10.43,0,0,1-.65-7.07l44.43-180.37,2.4-9.77Z" transform="translate(-75.67 -43.73)" fill="#d48a9b"/><polygon points="151.7 475.69 145.3 482.14 119.89 507.78 118.13 509.56 114.6 513.12 104.78 523.01 103.04 524.77 99.55 528.28 98.82 529.03 96.97 530.89 92.65 526.09 94.6 524.21 101.36 517.63 104.82 514.27 106.55 512.6 116.44 502.97 119.94 499.57 121.69 497.87 137.32 482.67 144.5 475.69 151.7 475.69" fill="#d48a9b"/><polygon points="121.69 497.87 121.38 499.57 119.89 507.78 118.13 509.56 104.78 523.01 106.26 514.27 106.55 512.6 119.94 499.57 121.69 497.87" opacity="0.1"/><polygon points="99.33 529.61 104.65 535.68 102.73 546.26 97.66 539.41 98.86 532.37 99.33 529.61" opacity="0.1"/><polygon points="116.44 502.97 115.25 509.56 114.6 513.12 104.78 523.01 103.04 524.77 99.55 528.28 100.16 524.77 101.36 517.63 104.82 514.27 106.55 512.6 116.44 502.97" opacity="0.1"/><path d="M200.48,516.54l-2,10.81-2.89,15.95-1.81,10-39.88,219.1c-3.65,9-6.31,7-7.89,3.77a14.16,14.16,0,0,1-1.14-8.61l30.79-181.24,1.73-10.21,1.29-7.6,1.79-10.5,5-29.8,1-5.9Z" transform="translate(-75.67 -43.73)" fill="#d48a9b"/><polygon points="0.96 396.96 24.96 444.48 673.02 406.08 576.05 370.56 0.96 396.96" fill="#eec5cd"/><polygon points="0.96 396.96 0 435.84 24.48 487.21 24.96 444.48 0.96 396.96" fill="#d48a9b"/><polygon points="90.25 476.17 100.33 476.17 98.11 485.25 87.84 485.93 90.25 476.17" opacity="0.1"/><polygon points="110.89 478.57 124.81 472.81 122.84 483.63 109.88 484.47 110.89 478.57" opacity="0.1"/><polygon points="144.5 475.69 151.7 475.69 145.3 482.14 137.32 482.67 144.5 475.69" opacity="0.1"/><polygon points="519.88 451.21 525.88 457.1 517.24 457.67 513.17 453.6 519.88 451.21" opacity="0.1"/><polygon points="542.92 446.89 544.12 455.9 534.18 456.56 533.33 450.24 542.92 446.89" opacity="0.1"/><polygon points="578.02 453.67 567.52 454.36 565.96 448.33 574.13 438.72 578.02 453.67" opacity="0.1"/><polygon points="673.02 406.08 673.98 444.48 24.48 487.21 24.96 444.48 673.02 406.08" fill="#d48a9b"/><polygon points="34.56 452.64 183.86 445.92 184.34 472.32 35.52 478.56 34.56 452.64" opacity="0.1"/><polygon points="33.12 451.2 182.42 444.48 182.9 470.88 34.08 477.13 33.12 451.2" fill="#fff"/><polygon points="193.94 444.96 531.4 425.28 530.92 450.24 192.98 471.84 193.94 444.96" opacity="0.1"/><polygon points="192.5 443.52 529.97 423.84 529.49 448.8 191.54 470.4 192.5 443.52" fill="#fff"/><polygon points="537.17 424.32 665.82 416.16 666.78 440.64 538.61 449.28 537.17 424.32" opacity="0.1"/><polygon points="535.73 422.88 664.38 414.72 665.34 439.2 537.17 447.84 535.73 422.88" fill="#fff"/><rect x="175.99" y="506.45" width="18.25" height="1.44" transform="translate(-88.97 -38.67) rotate(-1.51)" opacity="0.1"/><rect x="175.99" y="505.01" width="18.25" height="1.44" transform="translate(-88.93 -38.67) rotate(-1.51)" fill="#d48a9b"/><rect x="529.3" y="485.81" width="18.25" height="1.44" transform="translate(-88.3 -29.37) rotate(-1.51)" opacity="0.1"/><rect x="529.3" y="484.37" width="18.25" height="1.44" transform="translate(-88.27 -29.37) rotate(-1.51)" fill="#d48a9b"/><rect x="331.05" y="497.33" width="18.25" height="1.44" transform="translate(-88.68 -34.59) rotate(-1.51)" opacity="0.1"/><rect x="331.05" y="495.89" width="18.25" height="1.44" transform="translate(-88.64 -34.59) rotate(-1.51)" fill="#d48a9b"/><rect x="670.91" y="476.21" width="18.25" height="1.44" transform="translate(-88 -25.64) rotate(-1.51)" opacity="0.1"/><rect x="670.91" y="474.77" width="18.25" height="1.44" transform="translate(-87.96 -25.64) rotate(-1.51)" fill="#d48a9b"/><polygon points="824.72 613.93 807.43 612.98 806.27 563.36 805.99 551.53 824.23 548.18 824.34 563.41 824.72 613.93" fill="#d48a9b"/><polygon points="811.27 605.3 722.46 660.5 720.54 677.3 730.14 677.78 730.14 665.78 788.23 633.14 718.14 720.03 718.14 733.47 729.66 733.47 728.7 718.59 809.83 626.42 819.91 627.38 905.36 724.35 907.28 740.67 918.8 741.15 916.88 724.35 849.19 639.86 894.32 671.06 895.28 684.5 904.4 684.98 903.44 668.66 817.51 602.42 811.27 605.3" fill="#d48a9b"/><path d="M775.37,554.59a158.41,158.41,0,0,0,21-34.07c6.11-13.52,12.81-29.13,13.32-33.75,1-8.64,25.44-25.92,52.32-26.88,17.53-.63,44.84-14.31,61.74-23.76a125.71,125.71,0,0,1,51.8-16c19.77-1.49,38.36,2.39,29,25.33L878.78,597.66S771.58,616.55,765,586.18a24.47,24.47,0,0,0-1.53-4.46C762.18,578.85,761.85,571.36,775.37,554.59Z" transform="translate(-75.67 -43.73)" fill="#ffc107"/><path d="M784.81,557.61a163.07,163.07,0,0,0,21.13-34.4c5.71-12.64,11.75-26.81,12.23-31.1.92-8.25,24.34-24.76,50.07-25.68,16.76-.6,42.89-13.66,59.06-22.69a120.32,120.32,0,0,1,49.57-15.27c18.92-1.42,36.71,2.29,27.78,24.2l-99.71,146s-123,17.45-129.5-11.42a29.62,29.62,0,0,0-1.54-4.48C772.76,579.94,772.6,572.93,784.81,557.61Z" transform="translate(-75.67 -43.73)" fill="#fff" opacity="0.2"/><path d="M900,607.14c-5.78,0-11.87,0-18.08-.06l-.27-11.82,18.23-3.36Z" transform="translate(-75.67 -43.73)" opacity="0.1"/><g opacity="0.1"><polygon points="894.32 668.18 849.19 636.98 854.37 643.44 894.32 671.06 895.28 684.5 904.4 684.98 904.23 682.09 895.28 681.62 894.32 668.18"/><polygon points="730.14 662.9 730.14 665.78 783.98 635.53 788.23 630.26 730.14 662.9"/><polygon points="718.14 730.59 718.14 733.47 729.66 733.47 729.48 730.59 718.14 730.59"/><polygon points="730.14 674.9 720.87 674.44 720.54 677.3 730.14 677.78 730.14 674.9"/><polygon points="907.28 737.79 905.36 721.47 819.91 624.5 809.83 623.54 728.7 715.71 728.88 718.39 809.83 626.42 819.91 627.38 905.36 724.35 907.28 740.67 918.8 741.15 918.47 738.25 907.28 737.79"/></g><path d="M576.24,674c15.75,12.56,25.61.93,25.61.93S628.41,656,629,653.34a25.23,25.23,0,0,1,1.52-4.69s4.37.75,4.37-1.31,4.55-2.81,7.2-4.5,19.36-16.31,19.36-16.31.57-3.18,8.23-5.62c5.39-1.71,16.86-12.42,23.2-18.63.39-2.51,1.68-10.15,3.1-12.49a3.44,3.44,0,0,1,2.49-1.09l.63-2.32a157.78,157.78,0,0,0,4.09-21.52c1.7-15,14.42-19.68,17.64-19.68s28.84-10.87,28.84-10.87l41.55-16.87s25.61-8.05,24.66-13.5a4.9,4.9,0,0,1,.06-1.74c.52-2.56,2.75-5.54,5-8a56.34,56.34,0,0,1,5-4.88l13.8-8.55,1.06-.66c-4.66-7.44-14.86-17.22-14.86-17.22s3-5.62,6.45-5.62c2.28,0,15-4,23.22-6.66-.85-9.1-2.53-36.83,7.9-42.45L876,401.41s-.44,1-1.09,2.5l1.85-1s-.22.47-.56,1.27c.37-.06.76-.1,1.16-.13,1.13-4,1.81-7.22,1.48-8.26-.83-2.61-1-20.44,6.52-29.62l-6-17.43a3.42,3.42,0,0,1,2.17-4.34l15.54-5.22a3.37,3.37,0,0,1,1.5-.15,3.48,3.48,0,0,1,3.74,2.29l4.41,12.83a52.52,52.52,0,0,1,5.63-1c1.31-2.36,2.89-4.64,2.65-7.26a12.65,12.65,0,0,0-1.59-4.3,49.17,49.17,0,0,1-4.22-12.41,5.45,5.45,0,0,1-.05-2.63c.65-2.11,3.41-2.84,4.59-4.72,1-1.54.67-3.53.19-5.27-.76-2.78-1.92-5.44-2.55-8.25s-.68-5.87.7-8.4a13.32,13.32,0,0,1,5-4.69c.53-2.48,2.32-4.82,1.75-7.28-.34-1.48-1.51-2.7-1.73-4.2-.38-2.71,2.33-4.77,4.71-6.17l21.07-12.45c1.88-1.11,3.83-2.24,5.84-3.17,3.8-2,7.83-3.42,12-2.9,5.35.67,9.77,4.49,13.07,8.7s5.89,9,9.59,12.86c6.76,7.09,16.61,10.5,24,17a16.57,16.57,0,0,1,4.77,6.29c3.08,8.17-4.51,16.6-4.46,25.32,0,7.64,5.9,14,12,18.71,2.59,2,5.5,4.21,6,7.42.4,2.48-.75,4.9-1.46,7.3a24,24,0,0,0,.73,15.09c4.79,3.16,8.21,5.3,8.21,5.3s19.73,16.5,30.74,20.25a2.14,2.14,0,0,1,1.12.67c3,1.85,11.37,7.08,12.92,9.82,1.9,3.38,14.8,16.12,6.45,20.62a46.53,46.53,0,0,1-15.56,5.25s-19.35,6-26.94,9.75a83,83,0,0,1-14.33,5,29,29,0,0,0,5.76,14.6h.21a23.79,23.79,0,0,0,3.19,3.47l-2.1.33.14.13c-5.5.88-11.16,1.75-16.58.51s-10.61-5.14-11.6-10.55c-1.06-5.83,2.58-12.82-1.38-17.25a8.62,8.62,0,0,0-5-2.55c-2.63,3.47-21.95,28.06-39.48,22.67,4,10.66,11.11,29.25,12.46,29.78,1.9.75-19.35,7.5-19.35,7.5s-4.18-.68-10.17-1.25c0,.72.08,1.47.13,2.26.41,7.36.68,17.25-.59,20a14.06,14.06,0,0,0-.76,2.12A36.93,36.93,0,0,1,931,544.57l-1.85,1.55a24.9,24.9,0,0,0-6,7.87,30.71,30.71,0,0,1-18,15.56,39.81,39.81,0,0,1-18.72,1.12s-42.66,4.13-66.18,6-49.14,12.75-49.14,12.75-11.84,8.37-20.23,19.19c-.63.82-1.23,1.65-1.82,2.48l3.65,6.44s-17.35,12.65-29,22.11c0,.61,0,1.19,0,1.7.57,12.56-16.13,30.18-16.13,30.18s-5.12,7.12-7.78,10.69,4.56,5.81,4.56,5.81-12,3.37-7.21,15.93,1.32,20.81,1.32,20.81l-7,33.55H676.79l2.85-23.24c-5.12-.38-18.78,20.61-18.78,20.61s-35.67-5.43-42.12-7.31-5.31-13.87,7-11.24a21.21,21.21,0,0,0,19.73-5.81s8.73-10.13,13.66-36a187.89,187.89,0,0,1,6.35-22.43c-6.77,10.28-10.52,25.36-12,26.18-2.09,1.12-28.26,30.74-28.26,30.74l-10.32-10.13,17.72-20.61s-16.13.18-22.77,4.68S594.45,706,594.45,706s-20.11-15.93-25-21.93S560.49,661.4,576.24,674Z" transform="translate(-75.67 -43.73)" fill="url(#f178813a-ad61-42c1-bb1e-06eeb3501bc0)"/><path d="M871.15,406.6s8.59-2.62,8.22,1.86,4.48,8.6,4.48,8.6L876,437.62l-17.56-6.36L864,413.7Z" transform="translate(-75.67 -43.73)" fill="#575989"/><path d="M871.15,406.6s8.59-2.62,8.22,1.86,4.48,8.6,4.48,8.6L876,437.62l-17.56-6.36L864,413.7Z" transform="translate(-75.67 -43.73)" fill="#ffd7e3"/><path d="M916.22,296.17c-2.66,1.52-5.47,3.17-6.92,5.87-1.36,2.52-1.31,5.59-.7,8.38s1.77,5.46,2.52,8.22c.47,1.74.76,3.72-.19,5.26-1.16,1.88-3.88,2.6-4.53,4.71a5.54,5.54,0,0,0,.06,2.62,49.65,49.65,0,0,0,4.15,12.37,12.48,12.48,0,0,1,1.57,4.29c.38,4.18-3.85,7.5-4.21,11.67-.2,2.25.76,4.43,1.7,6.48,1,2.28,2.16,4.66,4.21,6.08,2.54,1.75,6,1.62,8.93.78s5.74-2.3,8.73-3c2.76-.69,5.73-.78,8.24-2.11,4.27-2.26,6.05-7.34,7.3-12,.84-3.13,1.61-6.44.8-9.58a31.4,31.4,0,0,0-2.57-5.71c-1.13-2.36-1.93-4.91-3.46-7s-3.59-3.67-4.21-6.08c-.72-2.79.82-5.58,2.1-8.15a56.44,56.44,0,0,0,2.9-7,12.49,12.49,0,0,0,.85-6.05c-.74-4.22-5.1-6.78-9.23-7.91-3-.82-6.24-1.19-9.21-2.29-1.33-.49-2.51-1.41-3.93-1.49C919.37,294.4,917.69,295.33,916.22,296.17Z" transform="translate(-75.67 -43.73)" fill="#3f2b3b"/><path d="M697.72,593.85l34.65,4.66h.11s34.57-41.3,35.13-41.48l39.06-13.83,26.17-7.67,3.55-17-34.76-1.31-11.4,1.68L749.3,535.73s-25.23,10.84-28.41,10.84-15.7,4.67-17.38,19.62a156.47,156.47,0,0,1-4,21.45C698.48,591.5,697.72,593.85,697.72,593.85Z" transform="translate(-75.67 -43.73)" fill="#c77486"/><path d="M697.72,594.21l34.65,4.66h.11s34.57-41.3,35.13-41.48l39.06-13.83,26.17-7.67,3.55-17-34.76-1.31-11.4,1.68L749.3,536.09s-25.23,10.84-28.41,10.84-15.7,4.67-17.38,19.62a156.47,156.47,0,0,1-4,21.45C698.48,591.86,697.72,594.21,697.72,594.21Z" transform="translate(-75.67 -43.73)" opacity="0.05"/><path d="M802.19,518.16,800.5,521s12,6.44,11,8.92l17.36-7Z" transform="translate(-75.67 -43.73)" opacity="0.1"/><path d="M697.72,593.85l34.65,4.66c2.24-8,4-13.82,4-13.82l-23.92,4.12s-8.27-1.61-13-1.17C698.48,591.5,697.72,593.85,697.72,593.85Z" transform="translate(-75.67 -43.73)" opacity="0.1"/><path d="M712.48,591.05s-14.39-2.8-16.07,0-3.18,13.27-3.18,13.27S665,670.47,660.16,696.26s-13.46,35.88-13.46,35.88a20.76,20.76,0,0,1-19.44,5.8c-12.14-2.62-13.26,9.34-6.91,11.21s41.49,7.29,41.49,7.29,13.45-20.93,18.5-20.56l-2.8,23.18h14.39l6.91-33.46s3.36-8.22-1.31-20.74,7.1-15.89,7.1-15.89-7.1-2.24-4.48-5.79,7.66-10.65,7.66-10.65S724.26,655,723.7,642.44s12.7-55.5,12.7-55.5Z" transform="translate(-75.67 -43.73)" fill="#d4dfec"/><path d="M712.48,591.05s-14.39-2.8-16.07,0-3.18,13.27-3.18,13.27S665,670.47,660.16,696.26s-13.46,35.88-13.46,35.88a20.76,20.76,0,0,1-19.44,5.8c-12.14-2.62-13.26,9.34-6.91,11.21s41.49,7.29,41.49,7.29,13.45-20.93,18.5-20.56l-2.8,23.18h14.39l6.91-33.46s3.36-8.22-1.31-20.74,7.1-15.89,7.1-15.89-7.1-2.24-4.48-5.79,7.66-10.65,7.66-10.65S724.26,655,723.7,642.44s12.7-55.5,12.7-55.5Z" transform="translate(-75.67 -43.73)" opacity="0.1"/><path d="M683.52,693.09s-5,33.82-11.59,36.25S683.52,693.09,683.52,693.09Z" transform="translate(-75.67 -43.73)" opacity="0.1"/><path d="M697.16,666.36c-.56.56-16.07,20.75-22.24,20.93S697.16,666.36,697.16,666.36Z" transform="translate(-75.67 -43.73)" opacity="0.1"/><path d="M721.64,585.44s17,44.29,24.67,30.65a54.77,54.77,0,0,1,4.18-6.28c8.26-10.79,19.93-19.14,19.93-19.14s25.23-10.83,48.4-12.7S884,572,884,572l5.45-4.68c.56-30.27-60.55-44.47-60.55-44.47s-46.72,19.25-64.29,24.85-20.55,14-20.55,14l-17.53,18.55Z" transform="translate(-75.67 -43.73)" fill="#c77486"/><path d="M721.64,585.44s17,44.29,24.67,30.65a54.77,54.77,0,0,1,4.18-6.28l-2.8-5a83.33,83.33,0,0,0-15-19.59,36.9,36.9,0,0,0-6.12-5Z" transform="translate(-75.67 -43.73)" opacity="0.1"/><path d="M741.64,599.64s-15.7-19.24-20-17.19-23.92,16.63-23.92,16.63-19.67,20.56-27.21,23-8.11,5.61-8.11,5.61S646,642.25,643.34,643.94s-7.11,2.43-7.11,4.48-4.29,1.31-4.29,1.31a25.34,25.34,0,0,0-1.5,4.67c-.56,2.62-26.72,21.49-26.72,21.49S594,687.48,578.49,675s-11.59,4.11-6.73,10.09,24.67,21.87,24.67,21.87,8.59,2.24,15.14-2.25S634,700,634,700l-17.45,20.56,10.16,10.09s25.78-29.53,27.84-30.65,8.23-29,20.57-34.57c0,0,35.13-13.46,46.53-23s30.65-23.74,30.65-23.74Z" transform="translate(-75.67 -43.73)" fill="#d4dfec"/><path d="M625,666.36c1.12-.56,26,3.93,20.75,6.64S625,666.36,625,666.36Z" transform="translate(-75.67 -43.73)" opacity="0.1"/><path d="M651.93,654.4c1.12.75,14.39,3.93,11,7.48S651.93,654.4,651.93,654.4Z" transform="translate(-75.67 -43.73)" opacity="0.1"/><path d="M790.23,518.91s9,.19,37.93,6.17S884,572,884,572a39,39,0,0,0,18.44-1.12,30.38,30.38,0,0,0,17.75-15.52,24.76,24.76,0,0,1,5.89-7.85l1.82-1.54a36.85,36.85,0,0,0,11.26-18.39,13,13,0,0,1,.75-2.12c1.25-2.72,1-12.58.57-19.92-.25-4.77-.57-8.47-.57-8.47l-96.43-18.14L838,482.35l-13.59,8.53a54.15,54.15,0,0,0-4.95,4.87c-2.2,2.44-4.39,5.42-4.91,8a4.72,4.72,0,0,0-.05,1.75C815.45,510.88,790.23,518.91,790.23,518.91Z" transform="translate(-75.67 -43.73)" fill="#fff"/><path d="M935.06,336s9.34,13.09-2.24,37,49-13.83,49-13.83-22.8-34.39-19.44-40.74S935.06,336,935.06,336Z" transform="translate(-75.67 -43.73)" fill="#c77486"/><circle cx="867.99" cy="276.9" r="29.53" opacity="0.1"/><circle cx="867.99" cy="274.66" r="29.53" fill="#c77486"/><path d="M938.42,356.39s-9.71,15.44,20,6.85-23.36,58.68-23.36,58.68l-20.93-21.68,8.22-38.12Z" transform="translate(-75.67 -43.73)" opacity="0.1"/><path d="M938.42,357.88s-9.71,15.45,20,6.85-23.36,58.68-23.36,58.68l-20.93-21.67,8.22-38.13Z" transform="translate(-75.67 -43.73)" fill="#dce6f2"/><path d="M838,482.35a28.73,28.73,0,0,1,2.48,4.23c3.36,7.48,11.58,5.61,11.58,5.61,13.46,8.22,49,6,49,6s-7.85,13.08,7.1,8.59c9.19-2.75,23-2.12,32.34-1.23-.25-4.77-.57-8.47-.57-8.47l-96.43-18.14Z" transform="translate(-75.67 -43.73)" opacity="0.1"/><path d="M824.43,464.53s12.7,12.33,16.07,19.81,11.58,5.6,11.58,5.6c13.46,8.23,49,6,49,6s-7.85,13.08,7.1,8.59,42.23,0,42.23,0,20.94-6.73,19.07-7.47-15-37-15-37a15.36,15.36,0,0,1-1-6.21,12.8,12.8,0,0,1,3-7.88,18.57,18.57,0,0,1,7-5c14.57-6.35,40.36-22.42,40.36-22.42s65.79-9.72,54.95-13.46-30.28-20.18-30.28-20.18-30.65-19.44-36.63-27.66-18.31-10.84-18.31-10.84l-17.11,12.71-31.11,27.66v0L923.85,370s-3.37-11.22-7.85-14.21-21.17,2.93-22.36,3.34l-.07,0s-17.19,49.71-16.44,58.68c.19,2.36-.86,5.71-2.5,9.36-1.06,2.34-2.37,4.8-3.75,7.21A183.55,183.55,0,0,1,860.68,450s-26.54,9-29.9,9S824.43,464.53,824.43,464.53Z" transform="translate(-75.67 -43.73)" fill="#ffd7e3"/><polygon points="849.67 346.23 853.04 361 885.37 343.43 882.28 316.89 851.17 344.55 851.17 344.54 849.67 346.23" opacity="0.1"/><polygon points="848.18 344.74 851.54 359.5 883.88 341.94 880.79 315.4 849.67 343.06 849.67 343.04 848.18 344.74" fill="#ffd7e3"/><path d="M870.88,435.88c12.25,2.54,67,14,82.57,19.45a12.85,12.85,0,0,1,3-7.89C941,440.35,893.3,420,874.63,428.66,873.57,431,872.26,433.47,870.88,435.88Z" transform="translate(-75.67 -43.73)" opacity="0.1"/><path d="M870.88,432.89c12.25,2.54,67,14,82.57,19.45a12.85,12.85,0,0,1,3-7.89C941,437.36,893.3,417,874.63,425.67,873.57,428,872.26,430.48,870.88,432.89Z" transform="translate(-75.67 -43.73)" opacity="0.1"/><path d="M870.88,434.38c12.25,2.55,67,14.05,82.57,19.45a12.8,12.8,0,0,1,3-7.88c-15.49-7.1-63.15-27.45-81.82-18.78C873.57,429.51,872.26,432,870.88,434.38Z" transform="translate(-75.67 -43.73)" fill="#ffd7e3"/><circle cx="808.19" cy="397.63" r="3.83" fill="#feffff"/><circle cx="795.21" cy="424.44" r="3.83" fill="#feffff"/><circle cx="838.46" cy="405.29" r="3.83" fill="#feffff"/><circle cx="822.95" cy="433.32" r="3.83" fill="#feffff"/><circle cx="817.97" cy="368.1" r="3.83" fill="#feffff"/><path d="M938.05,452.85s15.7,38.59,12,43.82S938.05,452.85,938.05,452.85Z" transform="translate(-75.67 -43.73)" opacity="0.1"/><path d="M924.78,452.85c2.21-.55-9.34,10.37-10.65,20.37s-9.35,18.41-9.35,18.41l8-19.63S922.17,453.5,924.78,452.85Z" transform="translate(-75.67 -43.73)" opacity="0.1"/><path d="M874.71,449c-1.13,1.68-16.65,4.67-18.33,22.05Z" transform="translate(-75.67 -43.73)" opacity="0.1"/><path d="M979,421.36c-1.87,1.68-23,15.88-30.46,16.16S979,421.36,979,421.36Z" transform="translate(-75.67 -43.73)" opacity="0.1"/><path d="M945.53,429.21s-3.18,4.48-6.36,4.48S945.53,429.21,945.53,429.21Z" transform="translate(-75.67 -43.73)" opacity="0.1"/><path d="M814.57,503.71c13.51.45,58.86,1.78,65.45-.12.63-.18-40.08-2.06-49.61-3.93a37.28,37.28,0,0,1-10.93-3.91C817.28,498.19,815.09,501.17,814.57,503.71Z" transform="translate(-75.67 -43.73)" opacity="0.1"/><path d="M889.81,512.56s22.45,16.44,12.64,16.63S889.81,512.56,889.81,512.56Z" transform="translate(-75.67 -43.73)" opacity="0.1"/><path d="M938.55,353.21c-.91,2.33-.16,2.71-.69,4.8a15.83,15.83,0,0,0-.43,5.91c.27,2.8-1.49,6.13-.09,8.52a6.6,6.6,0,0,1,.56,1.09,3.23,3.23,0,0,1-1.4,3.28c-.94.74-2.07,1.3-2.65,2.42-1.37,2.66,1.26,6.44,0,9.2a5.34,5.34,0,0,1-1.89,2.05,24.2,24.2,0,0,1-6,3.16c-1.41-2.21.16-5.45-1.07-7.79a10.47,10.47,0,0,0-2.53-2.57c-2-1.9-3.08-4.84-3.6-7.71s-.59-5.82-1.16-8.68c-.93-4.7-3.14-9.1-3.64-13.85a2,2,0,0,1,.15-1.28,1.58,1.58,0,0,1,1.28-.56c4.35-.37,9.11.79,13.29,0C932.6,350.5,935.16,349.6,938.55,353.21Z" transform="translate(-75.67 -43.73)" fill="#3f2b3b"/><path d="M892.89,360.6c1.3,6,5.63,22.68,14.89,30.11,11.39,9.16,20,32.89,20,32.89l-2.61,6.17a18.65,18.65,0,0,0,5.6-2.62c2.62-1.87-6.17-38.87-6.17-38.87l-1.49-16.82s-3.36-11.21-7.85-14.2C910.92,354.37,894.08,360.18,892.89,360.6Z" transform="translate(-75.67 -43.73)" opacity="0.1"/><path d="M893.64,359.1c1.3,6,5.63,22.68,14.88,30.11,11.4,9.16,20,32.9,20,32.9l-2.62,6.16a18.59,18.59,0,0,0,5.61-2.61c2.62-1.87-6.17-38.87-6.17-38.87L923.85,370s-3.37-11.22-7.85-14.21S894.83,358.69,893.64,359.1Z" transform="translate(-75.67 -43.73)" fill="#ffd7e3"/><rect x="884.01" y="342.49" width="23" height="48.6" rx="1.7" ry="1.7" transform="translate(-146.06 263.9) rotate(-18.77)" fill="#464a5f"/><rect x="883.18" y="342.49" width="23" height="48.6" rx="1.7" ry="1.7" transform="translate(-146.11 263.64) rotate(-18.77)" fill="#d4dfec"/><circle cx="815.4" cy="313.63" r="3.61" fill="#939498"/><path d="M867.05,430.14v1.31l14-7.19,1.44-7.06L885,404.91s28.4-41.67,9.51-42.22-19,31.38-17.92,34.93c.8,2.55-4.43,18.12-7.46,26.77C867.91,427.81,867.05,430.14,867.05,430.14Z" transform="translate(-75.67 -43.73)" fill="#c77486"/><path d="M854.7,456.68s-4.86-38.5,7.48-45.23l12.33-6.72s-10.09,22.61-6,23.45,16.07-9.62,16.07-9.62v24.29Z" transform="translate(-75.67 -43.73)" opacity="0.1"/><path d="M867.05,430.14v1.31l14-7.19,1.44-7.06c-3.81,3-10.38,7.82-13.21,7.25a.85.85,0,0,1-.17-.06C867.91,427.81,867.05,430.14,867.05,430.14Z" transform="translate(-75.67 -43.73)" opacity="0.1"/><path d="M854,455.18s-4.86-38.49,7.48-45.22l12.33-6.73s-10.09,22.62-6,23.46,16.07-9.63,16.07-9.63v24.3Z" transform="translate(-75.67 -43.73)" fill="#ffd7e3"/><circle cx="848.18" cy="376.7" r="3.83" fill="#feffff"/><path d="M795.49,602.46s37.2-2.88,51.12-29.76c0,0,28.33-56.17,51.37-62.41s65.76-20.16,83.52-41.76,25.21-38.16,25.21-38.16,4.56,17.52-9.84,38.16-19.69,52.32-29.77,85.93-13.92,47-32.16,49c-13.75,1.45-86.45.72-121.21,0C802.37,603.19,795.49,602.46,795.49,602.46Z" transform="translate(-75.67 -43.73)" fill="#ffc107"/><path d="M795.49,602.46s37.2-2.88,51.12-29.76c0,0,28.33-56.17,51.37-62.41s65.76-20.16,83.52-41.76,25.21-38.16,25.21-38.16,4.56,17.52-9.84,38.16-19.69,52.32-29.77,85.93-13.92,47-32.16,49c-13.75,1.45-86.45.72-121.21,0C802.37,603.19,795.49,602.46,795.49,602.46Z" transform="translate(-75.67 -43.73)" fill="#fff" opacity="0.2"/><path d="M804.85,602.52s35.56-2.79,48.87-28.82c0,0,27.07-54.38,49.09-60.42s62.86-19.53,79.84-40.44,24.09-36.95,24.09-36.95,4.36,17-9.41,36.95S978.52,523.5,968.88,556s-13.3,45.55-30.74,47.41c-13.14,1.4-82.63.69-115.86,0C811.42,603.22,804.85,602.52,804.85,602.52Z" transform="translate(-75.67 -43.73)" fill="#ffc107"/><path d="M1011.31,428.27s-17.2,1.12-22.43,3.18c-2.78,1.09-9.86,2-15.88,2.67A32.21,32.21,0,0,0,951,446c-4.9,6.21-7.37,13.88,2.34,19.67,19.44,11.59,43-21.3,43-21.3l20.55-3Z" transform="translate(-75.67 -43.73)" fill="#c77486"/><path d="M1003.09,426.69c6.72-.47,14.2,30.74,14.2,30.74s12.33-2.62,19.81-6.36,26.54-9.71,26.54-9.71a45.4,45.4,0,0,0,15.32-5.24c8.22-4.48-4.49-17.19-6.35-20.55s-13.83-10.47-13.83-10.47l-9.35-1.87-42.23,7.48,27.28,6.35-3.4,1.05-9.15,2.8Z" transform="translate(-75.67 -43.73)" fill="#ffd7e3"/><path d="M1021.93,420.91l8.07,21.57c16.26,12.7,15-5,15-5l-13.87-19.41Z" transform="translate(-75.67 -43.73)" fill="#ffd7e3"/><path d="M1023.37,421.63l8.07,21.57c16.26,12.7,15-5,15-5l-13.87-19.41Z" transform="translate(-75.67 -43.73)" opacity="0.1"/><circle cx="964.14" cy="397.63" r="3.83" fill="#feffff"/><path d="M918.38,303.66a5.28,5.28,0,0,1-4.33-5.1c0-2.92,2.51-5.6,1.85-8.45-.33-1.47-1.48-2.69-1.7-4.19-.38-2.7,2.3-4.75,4.64-6.15l20.75-12.41c4.95-3,10.38-6,16.09-5.3,5.27.67,9.62,4.47,12.88,8.67s5.79,9,9.44,12.82c6.66,7.06,16.36,10.47,23.6,16.94a16.61,16.61,0,0,1,4.7,6.27c3,8.14-4.44,16.55-4.39,25.25,0,7.62,5.81,13.94,11.8,18.65,2.55,2,5.41,4.2,5.92,7.4.4,2.47-.73,4.88-1.43,7.28-3.58,12.22,4.22,25.16,14.23,33,3,2.35,6.37,4.69,7.46,8.32,1.62,5.32-2.39,10.53-5.8,14.93-6,7.7-11,16.47-12.44,26.11s1.16,20.26,8.43,26.77c-5.42.87-11,1.74-16.34.5s-10.45-5.12-11.42-10.51c-1.05-5.81,2.54-12.78-1.37-17.21-3-3.36-8.24-2.73-12.69-3.32a20.74,20.74,0,0,1-17.43-19c-.29-6.59,2.64-12.82,4.91-19s3.92-13.23,1.18-19.23c-4.42-9.66-18.81-13.69-19.43-24.29-.37-6.23,4.57-12.58,2-18.27-1.71-3.83-6.09-5.53-9.36-8.14-5.15-4.1-7.64-10.58-11-16.22a77.07,77.07,0,0,0-9.72-12.47c-1.17-1.26-3.39-4.56-5.15-5C922.2,301.9,920.61,304,918.38,303.66Z" transform="translate(-75.67 -43.73)" opacity="0.1"/><path d="M919.88,302.91a5.29,5.29,0,0,1-4.34-5.09c0-2.93,2.51-5.61,1.86-8.46-.34-1.47-1.49-2.69-1.7-4.19-.38-2.7,2.29-4.75,4.63-6.15l20.76-12.41c4.94-2.95,10.37-6,16.08-5.3,5.28.67,9.62,4.47,12.88,8.67s5.8,9,9.44,12.83c6.66,7.06,16.37,10.46,23.6,16.93a16.4,16.4,0,0,1,4.7,6.27c3,8.15-4.44,16.56-4.39,25.25.05,7.62,5.82,13.94,11.8,18.65,2.55,2,5.42,4.2,5.93,7.4.39,2.47-.74,4.88-1.44,7.28-3.58,12.23,4.23,25.16,14.23,33,3,2.35,6.37,4.69,7.47,8.32,1.61,5.33-2.39,10.53-5.8,14.93-6,7.7-11,16.47-12.45,26.11s1.17,20.27,8.43,26.77c-5.41.87-11,1.75-16.33.51s-10.45-5.13-11.43-10.52c-1-5.81,2.55-12.78-1.36-17.2-3-3.37-8.24-2.74-12.69-3.33a20.73,20.73,0,0,1-17.43-19c-.29-6.59,2.63-12.82,4.91-19S981.15,392,978.41,386c-4.41-9.66-18.8-13.68-19.43-24.29-.36-6.22,4.58-12.58,2-18.27-1.71-3.83-6.09-5.53-9.37-8.14-5.15-4.1-7.64-10.58-11-16.22a76.56,76.56,0,0,0-9.72-12.46c-1.17-1.27-3.39-4.57-5.16-5C923.69,301.16,922.11,303.26,919.88,302.91Z" transform="translate(-75.67 -43.73)" fill="#3f2b3b"/><path d="M917.83,289.65c-.34-1.48-1.49-2.69-1.7-4.19-.38-2.71,2.29-4.75,4.64-6.15l.48-.29a3.67,3.67,0,0,0-.26,2c.21,1.5,1.36,2.72,1.7,4.19.65,2.85-1.83,5.53-1.86,8.45a5.29,5.29,0,0,0,4.34,5.1c2.23.34,3.81-1.76,5.85-1.3,1.77.4,4,3.7,5.16,5a77.07,77.07,0,0,1,9.72,12.47c3.4,5.64,5.88,12.12,11,16.22,3.28,2.61,7.66,4.31,9.37,8.14,2.55,5.69-2.39,12-2,18.27.62,10.6,15,14.63,19.42,24.29,2.74,6,1.1,13-1.17,19.23s-5.2,12.42-4.91,19a20.73,20.73,0,0,0,17.43,19c4.45.59,9.72,0,12.69,3.33,3.91,4.42.32,11.39,1.36,17.2,1,5.39,6.09,9.27,11.43,10.51a28,28,0,0,0,8.33.53A23.86,23.86,0,0,0,1032,474c-5.41.88-11,1.75-16.33.51s-10.45-5.12-11.42-10.52c-1-5.81,2.54-12.78-1.37-17.2-3-3.37-8.24-2.73-12.69-3.32a20.74,20.74,0,0,1-17.43-19c-.29-6.59,2.63-12.83,4.91-19s3.92-13.23,1.17-19.23c-4.41-9.66-18.8-13.68-19.42-24.28-.37-6.23,4.57-12.58,2-18.28-1.71-3.82-6.09-5.52-9.37-8.13-5.15-4.11-7.63-10.59-11-16.23a77,77,0,0,0-9.72-12.46c-1.17-1.26-3.39-4.56-5.15-5-2-.46-3.63,1.64-5.86,1.3a5.3,5.3,0,0,1-4.34-5.1C916,295.18,918.48,292.5,917.83,289.65Z" transform="translate(-75.67 -43.73)" opacity="0.1"/><path d="M776.05,588.54s19.44,7.44,30.48,3.36,38.4-16.08,38.4-16.08S798.85,578.7,776.05,588.54Z" transform="translate(-75.67 -43.73)" opacity="0.1"/><path d="M610.76,383.17s-4.59,21.37,15.84,23.91l1.26-2.38S612,389.82,610.76,383.17Z" transform="translate(-75.67 -43.73)" fill="#ffc107"/><path d="M634.36,404.54l-4.75,1-.48.1s-12.67-10.29-12.51-33.25a57.13,57.13,0,0,0,6,9.57C627.7,388.62,633.41,397.49,634.36,404.54Z" transform="translate(-75.67 -43.73)" fill="#ffc107"/><path d="M636,406.74a3,3,0,0,1-2.55.34c-12.2-2.85-8.08-42.6-8.08-42.6.68.32,1.42,5.37,4.22,11.9C634.47,387.85,639.88,403.87,636,406.74Z" transform="translate(-75.67 -43.73)" fill="#ffc107"/><path d="M663,383.17s.79,21.37-19.64,23.91l-1.27-2.38S661.75,389.82,663,383.17Z" transform="translate(-75.67 -43.73)" fill="#ffc107"/><path d="M657.16,372.4c.15,23-16.31,33.25-16.31,33.25l-.48-.1-4.75-1c.94-7.05,6.66-15.92,11.68-22.57A51.62,51.62,0,0,1,657.16,372.4Z" transform="translate(-75.67 -43.73)" fill="#ffc107"/><path d="M640.3,404.66a7.46,7.46,0,0,1-2.72,2.08h0a5.13,5.13,0,0,1-1,.34c-3,.7-4.05-1.47-3.87-5.14.28-6.55,4.39-17.9,8.09-26.4,2.66-6.12,7-10.75,7.66-11.06C648.45,364.48,648.27,395.43,640.3,404.66Z" transform="translate(-75.67 -43.73)" fill="#ffc107"/><path d="M636.89,350.54s-13.62,48.3-1.9,55.59S639.9,354.82,636.89,350.54Z" transform="translate(-75.67 -43.73)" fill="#ffc107"/><path d="M610.76,383.17s-4.59,21.37,15.84,23.91l1.26-2.38S612,389.82,610.76,383.17Z" transform="translate(-75.67 -43.73)" opacity="0.1"/><path d="M634.36,404.54l-4.75,1-.48.1s-12.67-10.29-12.51-33.25a57.13,57.13,0,0,0,6,9.57C627.7,388.62,633.41,397.49,634.36,404.54Z" transform="translate(-75.67 -43.73)" opacity="0.1"/><path d="M636,406.74a3,3,0,0,1-2.55.34c-12.2-2.85-8.08-42.6-8.08-42.6.68.32,1.42,5.37,4.22,11.9C634.47,387.85,639.88,403.87,636,406.74Z" transform="translate(-75.67 -43.73)" opacity="0.1"/><path d="M663,383.17s.79,21.37-19.64,23.91l-1.27-2.38S661.75,389.82,663,383.17Z" transform="translate(-75.67 -43.73)" opacity="0.1"/><path d="M657.16,372.4c.15,23-16.31,33.25-16.31,33.25l-.48-.1-4.75-1c.94-7.05,6.66-15.92,11.68-22.57A51.62,51.62,0,0,1,657.16,372.4Z" transform="translate(-75.67 -43.73)" opacity="0.1"/><path d="M640.3,404.66a7.46,7.46,0,0,1-2.72,2.08h0a5.13,5.13,0,0,1-1,.34c-3,.7-4.05-1.47-3.87-5.14.28-6.55,4.39-17.9,8.09-26.4,2.66-6.12,7-10.75,7.66-11.06C648.45,364.48,648.27,395.43,640.3,404.66Z" transform="translate(-75.67 -43.73)" opacity="0.1"/><path d="M636.89,350.54s-13.62,48.3-1.9,55.59S639.9,354.82,636.89,350.54Z" transform="translate(-75.67 -43.73)" opacity="0.1"/><path d="M610.76,383.17s-2.69,21.37,17.74,23.91l1.26-2.38S612,389.82,610.76,383.17Z" transform="translate(-75.67 -43.73)" fill="#ffc107"/><path d="M636.26,404.54l-4.75,1-.48.1s-14.57-10.29-14.41-33.25c0,0,3.73,4,8,9.57C629.6,388.62,635.31,397.49,636.26,404.54Z" transform="translate(-75.67 -43.73)" fill="#ffc107"/><path d="M636.26,404.54l-4.75,1c-4.51-4-6.29-14.27-6.94-23.58C629.6,388.62,635.31,397.49,636.26,404.54Z" transform="translate(-75.67 -43.73)" opacity="0.1"/><path d="M637.86,406.74a3,3,0,0,1-2.55.34c-12.2-2.85-10-42.6-10-42.6.68.32,3.32,5.37,6.12,11.9C636.37,387.85,641.78,403.87,637.86,406.74Z" transform="translate(-75.67 -43.73)" fill="#ffc107"/><path d="M663,383.17s2.69,21.37-17.74,23.91L644,404.7S661.75,389.82,663,383.17Z" transform="translate(-75.67 -43.73)" fill="#ffc107"/><path d="M657.16,372.4c.15,23-14.41,33.25-14.41,33.25l-.48-.1-4.75-1c.94-7.05,6.66-15.92,11.68-22.57C653.43,376.4,657.16,372.4,657.16,372.4Z" transform="translate(-75.67 -43.73)" fill="#ffc107"/><path d="M649.2,382c-.61,8.68-2.2,18.23-6.05,22.69a7.41,7.41,0,0,1-.88.89l-4.75-1C638.46,397.49,644.18,388.62,649.2,382Z" transform="translate(-75.67 -43.73)" opacity="0.1"/><path d="M642.2,404.66a7.46,7.46,0,0,1-2.72,2.08h0a5.13,5.13,0,0,1-1,.34c-3,.7-4.05-1.47-3.87-5.14.28-6.55,4.39-17.9,8.09-26.4,2.66-6.12,5.11-10.75,5.76-11.06C648.45,364.48,650.17,395.43,642.2,404.66Z" transform="translate(-75.67 -43.73)" fill="#ffc107"/><path d="M637.86,406.74a3.38,3.38,0,0,1-1.92-.61c-5.74-3.58-5.86-17-4.49-29.75C636.37,387.85,641.78,403.87,637.86,406.74Z" transform="translate(-75.67 -43.73)" opacity="0.1"/><path d="M642.2,404.66c-.66,1.43-1.55,2.19-2.72,2.08h0a3.71,3.71,0,0,1-1.63-.61,8.66,8.66,0,0,1-3.24-4.19c.28-6.55,4.39-17.9,8.09-26.4C644,387.33,644.45,399.83,642.2,404.66Z" transform="translate(-75.67 -43.73)" opacity="0.1"/><path d="M636.89,350.54s-11.72,48.3,0,55.59S639.9,354.82,636.89,350.54Z" transform="translate(-75.67 -43.73)" fill="#ffc107"/><polygon points="583.71 360.02 534.93 360.02 534.93 368.1 542.38 368.1 542.56 369.05 545.54 384.73 573.89 384.73 576.88 369.05 577.06 368.1 583.71 368.1 583.71 360.02" fill="#4b4770"/><polygon points="583.71 360.02 534.93 360.02 534.93 368.1 542.38 368.1 542.56 369.05 545.54 384.73 573.89 384.73 576.88 369.05 577.06 368.1 583.71 368.1 583.71 360.02" opacity="0.1"/><polygon points="579.59 364.77 578.78 369.05 575.79 384.73 547.44 384.73 544.46 369.05 543.64 364.77 579.59 364.77" fill="#4b4770"/><polygon points="579.59 364.77 578.78 369.05 544.46 369.05 543.64 364.77 579.59 364.77" opacity="0.1"/><rect x="536.83" y="360.02" width="48.77" height="8.08" fill="#4b4770"/><path d="M241.19,706.15a16.86,16.86,0,0,0-2.27,4.29c-.15.37-.28.8-.42,1.21a4.65,4.65,0,0,0-.79-.28,11.32,11.32,0,0,0-3.57-.3c0-.47.05-1,.07-1.47.14-5.27-.48-12.61-5.5-9.5-4.83,3-1.39,8,1.72,11.2l.8.79c-2.83,2-3.37,6.73-3.85,11.64S222.74,734,220,737.07l-.78.84a10.15,10.15,0,0,0-8-2.07l-.37-1.35c-2.24-8.09-6.89-22.1-12.82-25.17.25-.31.51-.63.78-1,2.52-3.29,5.35-8.19,1.16-9.44s-4.56,4.25-4.33,8.36q0,.78.12,1.47a6.15,6.15,0,0,0-4.39,2.14l-.64-.77c-3.4-4-9.64-10.37-11.52-5.56-1.76,4.48,3.73,10.3,7.59,13.67l.24.21c-2.6,10.51,8.72,19.08,14.81,22.83l.78.48c-8.4,9.9-13.58,28.46-13.58,28.46l23.52,4.2s15.59-13.46,13.6-26.1a.9.9,0,0,0,.16,0c15.58-3.12,19.13-19.74,16.7-29.6l.28-.12a17.69,17.69,0,0,0,7.21-5.46C254.82,707,245.67,700.2,241.19,706.15Z" transform="translate(-75.67 -43.73)" fill="#ffc107"/><path d="M241.19,706.15a16.86,16.86,0,0,0-2.27,4.29c-.15.37-.28.8-.42,1.21a4.65,4.65,0,0,0-.79-.28,11.32,11.32,0,0,0-3.57-.3c0-.47.05-1,.07-1.47.14-5.27-.48-12.61-5.5-9.5-4.83,3-1.39,8,1.72,11.2l.8.79c-2.83,2-3.37,6.73-3.85,11.64S222.74,734,220,737.07l-.78.84a10.15,10.15,0,0,0-8-2.07l-.37-1.35c-2.24-8.09-6.89-22.1-12.82-25.17.25-.31.51-.63.78-1,2.52-3.29,5.35-8.19,1.16-9.44s-4.56,4.25-4.33,8.36q0,.78.12,1.47a6.15,6.15,0,0,0-4.39,2.14l-.64-.77c-3.4-4-9.64-10.37-11.52-5.56-1.76,4.48,3.73,10.3,7.59,13.67l.24.21c-2.6,10.51,8.72,19.08,14.81,22.83l.78.48c-8.4,9.9-13.58,28.46-13.58,28.46l23.52,4.2s15.59-13.46,13.6-26.1a.9.9,0,0,0,.16,0c15.58-3.12,19.13-19.74,16.7-29.6l.28-.12a17.69,17.69,0,0,0,7.21-5.46C254.82,707,245.67,700.2,241.19,706.15Z" transform="translate(-75.67 -43.73)" opacity="0.1"/><path d="M194.37,712.93,191.62,721s-1.52-1.08-3.45-2.78c-3.86-3.37-9.35-9.19-7.59-13.67,1.88-4.81,8.12,1.54,11.52,5.56C193.47,711.69,194.37,712.93,194.37,712.93Z" transform="translate(-75.67 -43.73)" fill="#ffc107"/><path d="M200.18,708.33a38.1,38.1,0,0,1-2.68,3.16,39,39,0,0,1-.49-4.24c-.23-4.11.2-9.59,4.33-8.36S202.7,705,200.18,708.33Z" transform="translate(-75.67 -43.73)" fill="#ffc107"/><path d="M235.65,709.6c-.09,2.65-.35,4.77-.35,4.77a34.68,34.68,0,0,1-3.43-3.07c-3.11-3.22-6.55-8.21-1.72-11.2C235.17,697,235.79,704.33,235.65,709.6Z" transform="translate(-75.67 -43.73)" fill="#ffc107"/><path d="M251.89,713.07a17.69,17.69,0,0,1-7.21,5.46,19.38,19.38,0,0,1-2.42.88L239,714.86a32.17,32.17,0,0,1,1.34-4.42,16.86,16.86,0,0,1,2.27-4.29C247.11,700.2,256.26,707,251.89,713.07Z" transform="translate(-75.67 -43.73)" fill="#ffc107"/><path d="M192.1,710.09c1.37,1.6,2.27,2.84,2.27,2.84L191.62,721s-1.52-1.08-3.45-2.78a15.68,15.68,0,0,1,3.09-7.07C191.54,710.75,191.83,710.41,192.1,710.09Z" transform="translate(-75.67 -43.73)" opacity="0.1"/><path d="M200.18,708.33a38.1,38.1,0,0,1-2.68,3.16,39,39,0,0,1-.49-4.24A5.55,5.55,0,0,1,200.18,708.33Z" transform="translate(-75.67 -43.73)" opacity="0.1"/><path d="M213.7,740.29l-6.84,3a41.38,41.38,0,0,1-3.64-2.06c-7.19-4.42-21.65-15.55-12-28.67s17.77,10.41,21,21.92C213.18,737.93,213.7,740.29,213.7,740.29Z" transform="translate(-75.67 -43.73)" fill="#ffc107"/><path d="M231.87,711.3a5.67,5.67,0,0,1,3.78-1.7c-.09,2.65-.35,4.77-.35,4.77A34.68,34.68,0,0,1,231.87,711.3Z" transform="translate(-75.67 -43.73)" opacity="0.1"/><path d="M244.68,718.53a19.38,19.38,0,0,1-2.42.88L239,714.86a32.17,32.17,0,0,1,1.34-4.42C242.45,711.66,244,714.7,244.68,718.53Z" transform="translate(-75.67 -43.73)" opacity="0.1"/><path d="M227.7,748.25c-.38.08-.76.15-1.15.21-22.93,3.48-7.56-8.89-7.56-8.89s1-1,2.43-2.5c2.76-3.06,6.93-8.4,7.4-13.34.72-7.43,1.56-14.4,10.33-12.36C247.76,713.39,249.4,743.91,227.7,748.25Z" transform="translate(-75.67 -43.73)" fill="#ffc107"/><rect x="107.79" y="761.61" width="43.81" height="11.52" fill="#d4dfec"/><rect x="100.83" y="724.17" width="57.24" height="40.2" fill="#d4dfec"/><rect x="107.79" y="761.61" width="43.81" height="11.52" opacity="0.1"/><rect x="100.83" y="724.17" width="57.24" height="40.2" opacity="0.1"/><rect x="110.67" y="761.61" width="43.81" height="11.52" fill="#d4dfec"/><path d="M212.22,734.49c1,3.44,1.48,5.8,1.48,5.8l-6.84,3a41.38,41.38,0,0,1-3.64-2.06C205.9,737.84,208.92,735.28,212.22,734.49Z" transform="translate(-75.67 -43.73)" opacity="0.1"/><path d="M227.7,748.25c-.38.08-.76.15-1.15.21-22.93,3.48-7.56-8.89-7.56-8.89s1-1,2.43-2.5C225.7,740.49,227.47,744.35,227.7,748.25Z" transform="translate(-75.67 -43.73)" opacity="0.1"/><path d="M190.42,770.18s12.84-46,30.84-31.8-7.32,36-7.32,36Z" transform="translate(-75.67 -43.73)" fill="#ffc107"/><circle cx="121.23" cy="676.05" r="1.44" opacity="0.1"/><circle cx="121.11" cy="682.77" r="1.44" opacity="0.1"/><circle cx="162.88" cy="677.37" r="1.44" opacity="0.1"/><circle cx="129.27" cy="711.81" r="1.44" opacity="0.1"/><circle cx="159.88" cy="688.53" r="1.44" opacity="0.1"/><circle cx="144.99" cy="703.41" r="1.44" opacity="0.1"/><circle cx="126.15" cy="678.93" r="1.44" opacity="0.1"/><circle cx="158.92" cy="681.69" r="1.44" opacity="0.1"/><circle cx="153.99" cy="692.85" r="1.44" opacity="0.1"/><circle cx="138.87" cy="710.73" r="1.44" opacity="0.1"/><circle cx="135.75" cy="703.65" r="1.44" opacity="0.1"/><circle cx="128.31" cy="687.69" r="1.44" opacity="0.1"/><rect x="110.67" y="761.61" width="43.81" height="4.21" opacity="0.1"/><rect x="103.71" y="724.17" width="57.24" height="40.2" fill="#d4dfec"/><circle cx="140.79" cy="717.21" r="1.44" opacity="0.1"/><circle cx="132.15" cy="719.01" r="1.44" opacity="0.1"/><path d="M706.82,440.45c0,4.34-9.33,9.45-20.85,9.45s-20.84-5.11-20.84-9.45,9.33-6.29,20.84-6.29S706.82,436.1,706.82,440.45Z" transform="translate(-75.67 -43.73)" fill="#e8eaf2"/><path d="M706.82,440.45c0,4.34-9.33,9.45-20.85,9.45s-20.84-5.11-20.84-9.45,9.33-6.29,20.84-6.29S706.82,436.1,706.82,440.45Z" transform="translate(-75.67 -43.73)" opacity="0.1"/><ellipse cx="610.31" cy="396.72" rx="20.85" ry="7.87" fill="#e8eaf2"/><ellipse cx="610.31" cy="396.72" rx="11.79" ry="4.45" opacity="0.1"/><path d="M703.05,431c-2,5.16-5.11,6.67-7.54,7a8.14,8.14,0,0,1-3.63-.37l1.44-3.08a4.88,4.88,0,0,0,2.78,0c1.27-.4,2.68-1.45,3.65-4,1.53-3.92-.38-4.49-1.71-4.47a5.25,5.25,0,0,0-.81.08l1.14-2.43a7.74,7.74,0,0,1,1.14-.2C701.67,423.32,705.88,423.73,703.05,431Z" transform="translate(-75.67 -43.73)" fill="#ffd7e3"/><path d="M693.84,441.77c-8.12,4.23-16.09,0-16.09,0l.12-1.17.08-.88,15.69-.3.12,1.4Z" transform="translate(-75.67 -43.73)" fill="#f1cec8"/><path d="M696.1,434.51a24.29,24.29,0,0,1-.59,3.47,8.14,8.14,0,0,1-3.63-.37l1.44-3.08A4.88,4.88,0,0,0,696.1,434.51Z" transform="translate(-75.67 -43.73)" opacity="0.1"/><path d="M699.51,423.53a3.39,3.39,0,0,1-.44.87l-.12.17c-.33.49-.63,1-.91,1.51a5.25,5.25,0,0,0-.81.08l1.14-2.43A7.74,7.74,0,0,1,699.51,423.53Z" transform="translate(-75.67 -43.73)" opacity="0.1"/><path d="M693.76,440.82c-2.78,1.49-13.21,1.92-15.89-.22l.08-.88,15.69-.3Z" transform="translate(-75.67 -43.73)" opacity="0.1"/><path d="M698.77,424.4l-.12.17a15.5,15.5,0,0,0-2.64,7.64c-.49,6.75-1.49,7.42-1.6,7.71-.81,2.05-14.81,2.85-16.91,0-1.74-2.36-3.43-7.47-2.65-10.34.42-1.55-.46-3.25-1.36-4.5a3.47,3.47,0,0,1,.93-4.95c4-2.55,11-2.69,11-2.69,6-.46,9.84.7,12.18,2l.3.18a3.45,3.45,0,0,1,.86,4.81Z" transform="translate(-75.67 -43.73)" fill="#ffd7e3"/><ellipse cx="610.09" cy="380.02" rx="10.63" ry="2.51" opacity="0.1"/><ellipse cx="610.09" cy="380.32" rx="10.63" ry="2.51" fill="#42312e"/><path d="M688,422.47s-7.64.25-7.42,3A19.26,19.26,0,0,1,688,422.47Z" transform="translate(-75.67 -43.73)" fill="#fff" opacity="0.2"/><path d="M690.15,423.17s-4.55,0-3.83,2.27c0,0,1.06-.17.91-.75s2.92-1.2,2.92-1.2Z" transform="translate(-75.67 -43.73)" fill="#fff" opacity="0.2"/><path d="M673.93,422.47s-.3,4.68,11.62,4.42,11.86-3.36,12-4.42h-.65s-.15,3.82-11.14,3.72-11.29-3.72-11.29-3.72Z" transform="translate(-75.67 -43.73)" fill="#f6e2df"/><path d="M699.28,421.71l-7.19,3.84a.68.68,0,0,1-.85-.18l-.12-.15a.89.89,0,0,1,.21-1.3l6.58-4.17A3.39,3.39,0,0,1,699.28,421.71Z" transform="translate(-75.67 -43.73)" opacity="0.1"/><path d="M691.33,423.69,710,411.86a2.8,2.8,0,0,1,1.4-.45c.94,0,2.27.15,1.85,1.66a2.82,2.82,0,0,1-1.41,1.71l-19.72,10.54a.68.68,0,0,1-.85-.17l-.12-.15A.9.9,0,0,1,691.33,423.69Z" transform="translate(-75.67 -43.73)" fill="#e8eaf2"/><path d="M691.33,423.69,710,411.86a2.8,2.8,0,0,1,1.4-.45c.94,0,2.27.15,1.85,1.66a2.82,2.82,0,0,1-1.41,1.71l-19.72,10.54a.68.68,0,0,1-.85-.17l-.12-.15A.9.9,0,0,1,691.33,423.69Z" transform="translate(-75.67 -43.73)" opacity="0.1"/><path d="M691.33,423.54,710,411.71a2.8,2.8,0,0,1,1.4-.45c.94,0,2.27.15,1.85,1.66a2.82,2.82,0,0,1-1.41,1.71l-19.72,10.54a.69.69,0,0,1-.85-.17l-.12-.15A.9.9,0,0,1,691.33,423.54Z" transform="translate(-75.67 -43.73)" fill="#e8eaf2"/><path d="M690.3,423.88s2-.43,1.73.1.86,1.19.86,1.19-2.06.49-2.37.19S690.3,423.88,690.3,423.88Z" transform="translate(-75.67 -43.73)" opacity="0.1"/><path d="M690.15,424s2-.42,1.73.1.86,1.2.86,1.2-2.06.49-2.37.19S690.15,424,690.15,424Z" transform="translate(-75.67 -43.73)" fill="#42312e"/><path d="M687,403.24a7.36,7.36,0,0,0-1.78,3.32,10.9,10.9,0,0,0,.11,3.46,19.36,19.36,0,0,0,.4,2.32c.11.44.4.92.61.62,0-1.08-.23-2.14-.18-3.22a7.38,7.38,0,0,1,1-3.18,16.06,16.06,0,0,0,1.36-2.79c.15-.47.73-4.71-.07-4-.16.15-.35,1.54-.5,1.89A7,7,0,0,1,687,403.24Z" transform="translate(-75.67 -43.73)" fill="#f2dcdc"/><path d="M687.34,410.22c.06.4.39.69.54,1.06a2.54,2.54,0,0,1,.13.73,5.34,5.34,0,0,1-.53,3.52,2.45,2.45,0,0,0,1.34-1.81,6.19,6.19,0,0,0,.18-1.22,11.42,11.42,0,0,0,0-1.17c0-.59.18-2.12-.55-2.41S687.34,409.66,687.34,410.22Z" transform="translate(-75.67 -43.73)" fill="#f2dcdc"/><path d="M675,428.74a4.48,4.48,0,0,0,3.43,1.54s-2.42.36-3.61-.42Z" transform="translate(-75.67 -43.73)" opacity="0.1"/><polygon points="391.65 341.08 391.65 389.28 341.7 390.72 341.7 342.52 391.65 341.08" fill="#464a5f"/><polygon points="391.39 383.25 391.65 390.72 341.7 390.72 341.61 386.13 391.39 383.25" opacity="0.1"/><path d="M482.58,435.37l-77.7,2.88h0a7.61,7.61,0,0,1,7.61-7.61L475,427.76a7.61,7.61,0,0,1,7.61,7.61Z" transform="translate(-75.67 -43.73)" fill="#464a5f"/><path d="M580.8,384l-275.41,8.64a4.82,4.82,0,0,1-4.83-4.82V222.34a4.82,4.82,0,0,1,4.83-4.82l275.41-8.64a4.82,4.82,0,0,1,4.83,4.82V379.13A4.82,4.82,0,0,1,580.8,384Z" transform="translate(-75.67 -43.73)" fill="#464a5f"/><polygon points="503.36 328.62 230.9 337.26 230.9 194.24 503.36 185.59 503.36 328.62" fill="#ffc107"/><ellipse cx="366.65" cy="180.12" rx="2.4" ry="2.37" fill="#fff"/><polygon points="391.6 348.48 341.81 349.92 341.81 348.98 391.6 347.54 391.6 348.48" opacity="0.1"/><polygon points="503.53 190.27 230.88 198.91 230.88 193.97 503.53 185.33 503.53 190.27" opacity="0.2"/><polygon points="80.72 386.74 83.37 391.53 169.6 373.25 166.19 367.83 80.72 386.74" fill="#464a5f"/><path d="M146.05,435.13,133,357.67a2.47,2.47,0,0,1,2.17-2.87l99-10.56a2.47,2.47,0,0,1,2.71,2.13l9.26,67.84Z" transform="translate(-75.67 -43.73)" fill="#464a5f"/><path d="M146.05,435.13,133,357.67a2.47,2.47,0,0,1,2.17-2.87l99-10.56a2.47,2.47,0,0,1,2.71,2.13l9.26,67.84Z" transform="translate(-75.67 -43.73)" opacity="0.1"/><path d="M147.57,435.13l-13.06-77.46a2.48,2.48,0,0,1,2.18-2.87l99-10.56a2.47,2.47,0,0,1,2.71,2.13l9.26,67.84Z" transform="translate(-75.67 -43.73)" fill="#464a5f"/><polygon points="65.72 317.4 76.44 383.21 165.94 364.8 157.62 306.31 65.72 317.4" fill="#ffc107"/><path d="M158.53,433.75l-.63-1.26-11.85,2.64,30.19,46.12a3.89,3.89,0,0,0,4.35,1.61l106-30.81a3.9,3.9,0,0,0,1.27-6.86l-41.08-31.11-8.57,2,.37.88Z" transform="translate(-75.67 -43.73)" fill="#9c9ca1"/><path d="M158.53,433.75l-.63-1.26-11.85,2.64,30.19,46.12a3.89,3.89,0,0,0,4.35,1.61l106-30.81a3.9,3.9,0,0,0,1.27-6.86l-41.08-31.11-8.57,2,.37.88Z" transform="translate(-75.67 -43.73)" opacity="0.1"/><path d="M160.05,433.75l-.63-1.26-11.85,2.64,30.18,46.12a3.9,3.9,0,0,0,4.36,1.61l106-30.81a3.9,3.9,0,0,0,1.27-6.86l-41.08-31.11-8.57,2,.38.88Z" transform="translate(-75.67 -43.73)" fill="#9c9ca1"/><path d="M207.33,452.64l34.06-8.85a.68.68,0,0,1,.61.15l15.13,13.73a.66.66,0,0,1-.26,1.12l-36,10.64a.67.67,0,0,1-.69-.21L207,453.71A.67.67,0,0,1,207.33,452.64Z" transform="translate(-75.67 -43.73)" opacity="0.1"/><path d="M208.08,451.89,242.15,443a.66.66,0,0,1,.61.15l15.13,13.72a.66.66,0,0,1-.26,1.12l-36,10.64a.67.67,0,0,1-.69-.21L207.75,453A.65.65,0,0,1,208.08,451.89Z" transform="translate(-75.67 -43.73)" fill="#939498"/><g opacity="0.1"><path d="M160.11,440.18l1.53,2.47a.31.31,0,0,0,.31.13l5.16-1.15a.3.3,0,0,0,.18-.46l-1.71-2.38a.3.3,0,0,0-.3-.12l-5,1.07A.29.29,0,0,0,160.11,440.18Z" transform="translate(-75.67 -43.73)"/><path d="M166.85,438.76l1.53,2.47a.3.3,0,0,0,.32.13l5.16-1.15a.3.3,0,0,0,.17-.46l-1.71-2.38a.29.29,0,0,0-.3-.12l-5,1.07A.3.3,0,0,0,166.85,438.76Z" transform="translate(-75.67 -43.73)"/><path d="M173.41,437.35l1.53,2.46a.29.29,0,0,0,.31.13l5.16-1.15a.3.3,0,0,0,.18-.46L178.88,436a.32.32,0,0,0-.3-.12l-5,1.07A.3.3,0,0,0,173.41,437.35Z" transform="translate(-75.67 -43.73)"/><path d="M179.85,436l1.51,2.43a.31.31,0,0,0,.33.14l5.12-1.14a.32.32,0,0,0,.19-.49l-1.68-2.35a.32.32,0,0,0-.33-.12l-4.94,1.06A.32.32,0,0,0,179.85,436Z" transform="translate(-75.67 -43.73)"/><path d="M179.33,439.71l1.53,2.46a.29.29,0,0,0,.32.13l5.16-1.15a.29.29,0,0,0,.17-.45l-1.71-2.39a.28.28,0,0,0-.3-.11l-5,1.07A.3.3,0,0,0,179.33,439.71Z" transform="translate(-75.67 -43.73)"/><path d="M172.65,441.13l1.53,2.46a.28.28,0,0,0,.31.13l5.17-1.15a.3.3,0,0,0,.17-.46l-1.71-2.38a.29.29,0,0,0-.3-.11l-5,1.07A.29.29,0,0,0,172.65,441.13Z" transform="translate(-75.67 -43.73)"/><path d="M177,444.15l1.53,2.47a.3.3,0,0,0,.31.13L184,445.6a.3.3,0,0,0,.17-.46l-1.71-2.38a.29.29,0,0,0-.3-.12l-5,1.07A.29.29,0,0,0,177,444.15Z" transform="translate(-75.67 -43.73)"/><path d="M183.15,446.8l1.53,2.46a.3.3,0,0,0,.31.14l5.16-1.15a.3.3,0,0,0,.18-.46l-1.71-2.38a.28.28,0,0,0-.3-.12l-5,1.07A.29.29,0,0,0,183.15,446.8Z" transform="translate(-75.67 -43.73)"/><path d="M184.21,451.08l2.47,3.1a.3.3,0,0,0,.31.1l5.2-1.35a.29.29,0,0,0,.15-.47l-2.55-3.12a.29.29,0,0,0-.3-.1l-5.12,1.38A.29.29,0,0,0,184.21,451.08Z" transform="translate(-75.67 -43.73)"/><path d="M191,449.38l2.53,3.19a.31.31,0,0,0,.31.1l6.79-1.88a.29.29,0,0,0,.14-.47l-2.55-3.13a.3.3,0,0,0-.31-.1l-6.76,1.82A.3.3,0,0,0,191,449.38Z" transform="translate(-75.67 -43.73)"/><path d="M177.56,452.72l2.47,3.1a.31.31,0,0,0,.31.1l5.2-1.35a.29.29,0,0,0,.15-.47L183.14,451a.28.28,0,0,0-.3-.09l-5.12,1.38A.29.29,0,0,0,177.56,452.72Z" transform="translate(-75.67 -43.73)"/><path d="M170.54,454.55l2.47,3.09a.29.29,0,0,0,.3.1l5.2-1.35a.3.3,0,0,0,.16-.47l-2.56-3.12a.29.29,0,0,0-.3-.1l-5.12,1.38A.29.29,0,0,0,170.54,454.55Z" transform="translate(-75.67 -43.73)"/><path d="M186.31,434.44l1.51,2.43a.31.31,0,0,0,.33.14l5.12-1.14a.32.32,0,0,0,.19-.49L191.78,433a.31.31,0,0,0-.32-.12l-5,1.06A.31.31,0,0,0,186.31,434.44Z" transform="translate(-75.67 -43.73)"/><path d="M185.9,438.22l1.51,2.43a.31.31,0,0,0,.33.14l5.12-1.14a.32.32,0,0,0,.19-.49l-1.68-2.35a.31.31,0,0,0-.32-.12l-5,1.06A.31.31,0,0,0,185.9,438.22Z" transform="translate(-75.67 -43.73)"/><path d="M192.58,433l1.51,2.43a.32.32,0,0,0,.34.14l5.12-1.14a.32.32,0,0,0,.18-.49l-1.68-2.35a.31.31,0,0,0-.32-.12l-4.95,1.06A.31.31,0,0,0,192.58,433Z" transform="translate(-75.67 -43.73)"/><path d="M210.92,429l2.13,2.26a.26.26,0,0,0,.24.07l4.57-1.06a.25.25,0,0,0,.12-.43l-2.4-2.26a.24.24,0,0,0-.23-.06l-4.3,1.06A.26.26,0,0,0,210.92,429Z" transform="translate(-75.67 -43.73)"/><path d="M216.79,427.66l2.12,2.26a.24.24,0,0,0,.24.07l4.57-1.05a.25.25,0,0,0,.12-.43l-2.4-2.27a.27.27,0,0,0-.23-.06l-4.3,1.06A.25.25,0,0,0,216.79,427.66Z" transform="translate(-75.67 -43.73)"/><path d="M211.05,432.67l2.13,2.26a.24.24,0,0,0,.24.08L218,434a.25.25,0,0,0,.11-.43l-2.39-2.26a.26.26,0,0,0-.24-.07l-4.3,1.07A.25.25,0,0,0,211.05,432.67Z" transform="translate(-75.67 -43.73)"/><path d="M205,434.07l2,2.16a.31.31,0,0,0,.3.09l4.42-1a.32.32,0,0,0,.15-.54l-2.29-2.16a.31.31,0,0,0-.29-.07l-4.17,1A.32.32,0,0,0,205,434.07Z" transform="translate(-75.67 -43.73)"/><path d="M209.61,440.88l2,2.16a.33.33,0,0,0,.3.09l4.42-1a.31.31,0,0,0,.15-.53l-2.29-2.16a.34.34,0,0,0-.29-.08l-4.17,1A.32.32,0,0,0,209.61,440.88Z" transform="translate(-75.67 -43.73)"/><path d="M203.34,442.3l2,2.16a.32.32,0,0,0,.3.09l4.42-1a.31.31,0,0,0,.15-.53L208,440.83a.32.32,0,0,0-.29-.08l-4.17,1A.31.31,0,0,0,203.34,442.3Z" transform="translate(-75.67 -43.73)"/><path d="M197,443.87l2,2.16a.31.31,0,0,0,.3.09l4.43-1a.32.32,0,0,0,.14-.54l-2.29-2.16a.3.3,0,0,0-.29-.07l-4.17,1A.31.31,0,0,0,197,443.87Z" transform="translate(-75.67 -43.73)"/><path d="M190.24,445.21l2.06,2.19a.32.32,0,0,0,.28.08l4.47-1a.29.29,0,0,0,.13-.5l-2.32-2.19a.29.29,0,0,0-.27-.07l-4.21,1A.29.29,0,0,0,190.24,445.21Z" transform="translate(-75.67 -43.73)"/><path d="M203.27,438.36l2,2.16a.31.31,0,0,0,.29.09l4.43-1a.31.31,0,0,0,.14-.53l-2.28-2.16a.34.34,0,0,0-.29-.08l-4.17,1A.32.32,0,0,0,203.27,438.36Z" transform="translate(-75.67 -43.73)"/><path d="M197.16,439.78l2,2.15a.31.31,0,0,0,.3.1l4.42-1a.31.31,0,0,0,.15-.53l-2.29-2.16a.29.29,0,0,0-.29-.08l-4.17,1A.32.32,0,0,0,197.16,439.78Z" transform="translate(-75.67 -43.73)"/><path d="M190.61,441.16l2,2.16a.29.29,0,0,0,.29.09l4.43-1a.32.32,0,0,0,.14-.54l-2.28-2.16a.31.31,0,0,0-.29-.07l-4.17,1A.3.3,0,0,0,190.61,441.16Z" transform="translate(-75.67 -43.73)"/><path d="M183.9,442.72l2.06,2.19a.32.32,0,0,0,.28.08l4.47-1a.29.29,0,0,0,.14-.5l-2.32-2.19a.32.32,0,0,0-.28-.07l-4.21,1A.3.3,0,0,0,183.9,442.72Z" transform="translate(-75.67 -43.73)"/><path d="M209.58,436.88l2,2.16a.32.32,0,0,0,.3.09l4.42-1a.31.31,0,0,0,.15-.53l-2.29-2.16a.32.32,0,0,0-.29-.08l-4.17,1A.31.31,0,0,0,209.58,436.88Z" transform="translate(-75.67 -43.73)"/><path d="M198.89,435.65l2,2.16a.33.33,0,0,0,.3.09l4.43-1a.31.31,0,0,0,.14-.53l-2.29-2.16a.3.3,0,0,0-.29-.08l-4.16,1A.31.31,0,0,0,198.89,435.65Z" transform="translate(-75.67 -43.73)"/><path d="M222.45,426.23l2.22,2.36a.21.21,0,0,0,.18.06l4.73-1.1a.19.19,0,0,0,.08-.32l-2.51-2.36a.16.16,0,0,0-.17-.05l-4.44,1.1A.18.18,0,0,0,222.45,426.23Z" transform="translate(-75.67 -43.73)"/><path d="M228.15,425l2.23,2.36a.19.19,0,0,0,.18.06l4.72-1.1a.19.19,0,0,0,.09-.32l-2.51-2.37a.18.18,0,0,0-.17,0l-4.45,1.1A.18.18,0,0,0,228.15,425Z" transform="translate(-75.67 -43.73)"/><path d="M234,423.62l2,2.19a.17.17,0,0,0,.18.06l4.41-1.2a.2.2,0,0,0,.07-.33l-2.28-1.91a.18.18,0,0,0-.16,0l-4.16.92A.19.19,0,0,0,234,423.62Z" transform="translate(-75.67 -43.73)"/><path d="M240.16,425.66l2,2.2a.2.2,0,0,0,.19.06l4.4-1.2a.19.19,0,0,0,.07-.33l-2.27-1.91a.16.16,0,0,0-.16,0l-4.16.92A.18.18,0,0,0,240.16,425.66Z" transform="translate(-75.67 -43.73)"/><path d="M239.42,429.66l1.93,2.08a.23.23,0,0,0,.25.07l4.24-1.15a.26.26,0,0,0,.1-.44l-2.16-1.81a.21.21,0,0,0-.21-.06l-4,.89A.25.25,0,0,0,239.42,429.66Z" transform="translate(-75.67 -43.73)"/><path d="M234.41,434.73l1.93,2.09a.25.25,0,0,0,.25.07l4.24-1.16a.25.25,0,0,0,.1-.43l-2.16-1.82a.23.23,0,0,0-.21-.05l-4,.88A.25.25,0,0,0,234.41,434.73Z" transform="translate(-75.67 -43.73)"/><path d="M228.39,436.31l1.93,2.08a.23.23,0,0,0,.25.07l4.24-1.15a.26.26,0,0,0,.1-.44l-2.16-1.81a.21.21,0,0,0-.21-.06l-4,.89A.25.25,0,0,0,228.39,436.31Z" transform="translate(-75.67 -43.73)"/><path d="M240.08,433.25l1.93,2.09a.28.28,0,0,0,.25.07l4.24-1.16a.25.25,0,0,0,.1-.44L244.45,432a.29.29,0,0,0-.22-.06l-4,.89A.26.26,0,0,0,240.08,433.25Z" transform="translate(-75.67 -43.73)"/><path d="M239.1,437.75l2.91,2.62a.28.28,0,0,0,.24.05l4.21-1.19a.25.25,0,0,0,.1-.43l-3.14-2.75a.25.25,0,0,0-.25-.05l-4,1.33A.24.24,0,0,0,239.1,437.75Z" transform="translate(-75.67 -43.73)"/><path d="M228.91,428.5l2,2.2a.19.19,0,0,0,.19.05l4.4-1.2a.18.18,0,0,0,.07-.32l-2.27-1.92a.24.24,0,0,0-.16,0l-4.16.92A.18.18,0,0,0,228.91,428.5Z" transform="translate(-75.67 -43.73)"/><path d="M223.22,429.91l1.93,2.08a.26.26,0,0,0,.25.08l4.24-1.16a.26.26,0,0,0,.1-.44l-2.15-1.81a.29.29,0,0,0-.22-.06l-4,.89A.26.26,0,0,0,223.22,429.91Z" transform="translate(-75.67 -43.73)"/><path d="M222.05,433.94,224,436a.24.24,0,0,0,.25.07l4.25-1.16a.25.25,0,0,0,.09-.43l-2.15-1.82a.25.25,0,0,0-.22-.05l-4,.88A.26.26,0,0,0,222.05,433.94Z" transform="translate(-75.67 -43.73)"/><path d="M216.06,435.39l1.93,2.09a.26.26,0,0,0,.26.07l4.24-1.16a.25.25,0,0,0,.09-.43l-2.15-1.82a.25.25,0,0,0-.22-.05l-4,.88A.26.26,0,0,0,216.06,435.39Z" transform="translate(-75.67 -43.73)"/><path d="M217.14,431.26l1.93,2.09a.23.23,0,0,0,.25.07l4.24-1.16a.25.25,0,0,0,.1-.43L221.5,430a.23.23,0,0,0-.21-.05l-4,.89A.24.24,0,0,0,217.14,431.26Z" transform="translate(-75.67 -43.73)"/><path d="M222.15,437.66l1.93,2.09a.25.25,0,0,0,.25.07l4.24-1.16a.25.25,0,0,0,.1-.43l-2.16-1.82a.23.23,0,0,0-.21-.05l-4,.88A.25.25,0,0,0,222.15,437.66Z" transform="translate(-75.67 -43.73)"/><path d="M216.26,439.25l1.84,2a.29.29,0,0,0,.31.09l4.09-1.11a.32.32,0,0,0,.12-.55l-2-1.72a.32.32,0,0,0-.27-.06l-3.88.85A.32.32,0,0,0,216.26,439.25Z" transform="translate(-75.67 -43.73)"/><path d="M234.71,427.05l2,2.2a.19.19,0,0,0,.19.05l4.4-1.2a.18.18,0,0,0,.07-.32l-2.27-1.92a.24.24,0,0,0-.16,0l-4.17.92A.19.19,0,0,0,234.71,427.05Z" transform="translate(-75.67 -43.73)"/><path d="M233.9,431l1.93,2.09a.26.26,0,0,0,.25.07l4.25-1.16a.25.25,0,0,0,.09-.43l-2.15-1.82a.25.25,0,0,0-.22-.05l-4,.88A.26.26,0,0,0,233.9,431Z" transform="translate(-75.67 -43.73)"/><path d="M228.14,432.59l1.92,2.08a.29.29,0,0,0,.26.08l4.24-1.16a.26.26,0,0,0,.1-.44l-2.16-1.81a.29.29,0,0,0-.22-.06l-4,.89A.25.25,0,0,0,228.14,432.59Z" transform="translate(-75.67 -43.73)"/><path d="M204.94,430.31l2.12,2.26a.27.27,0,0,0,.24.07l4.57-1.06a.25.25,0,0,0,.12-.43l-2.4-2.26a.24.24,0,0,0-.23-.06l-4.3,1.06A.25.25,0,0,0,204.94,430.31Z" transform="translate(-75.67 -43.73)"/><path d="M198.83,431.8l2,2.16a.31.31,0,0,0,.3.09l4.42-1a.32.32,0,0,0,.15-.54l-2.29-2.16a.31.31,0,0,0-.29-.07l-4.17,1A.31.31,0,0,0,198.83,431.8Z" transform="translate(-75.67 -43.73)"/><path d="M192.3,436.87l1.51,2.42a.3.3,0,0,0,.33.14l5.12-1.14a.31.31,0,0,0,.19-.49l-1.69-2.34a.32.32,0,0,0-.32-.13l-4.94,1.06A.32.32,0,0,0,192.3,436.87Z" transform="translate(-75.67 -43.73)"/><path d="M158.79,437.77l5.05-1.17a.31.31,0,0,1,.3.11l.89,1.17a.29.29,0,0,1-.17.46l-5.23,1.22a.29.29,0,0,1-.32-.14l-.71-1.22A.29.29,0,0,1,158.79,437.77Z" transform="translate(-75.67 -43.73)"/><path d="M165.74,436.26l5-1.17a.28.28,0,0,1,.3.11l.89,1.16a.3.3,0,0,1-.17.47l-5.23,1.22a.3.3,0,0,1-.32-.14l-.71-1.22A.29.29,0,0,1,165.74,436.26Z" transform="translate(-75.67 -43.73)"/><path d="M172.45,434.81l5.05-1.16a.29.29,0,0,1,.3.1l.89,1.17a.29.29,0,0,1-.17.46l-5.23,1.22a.28.28,0,0,1-.32-.13l-.71-1.22A.3.3,0,0,1,172.45,434.81Z" transform="translate(-75.67 -43.73)"/><path d="M179,433.33l5.06-1.17a.28.28,0,0,1,.3.11l.88,1.16a.3.3,0,0,1-.16.47l-5.24,1.21a.3.3,0,0,1-.32-.13l-.71-1.22A.3.3,0,0,1,179,433.33Z" transform="translate(-75.67 -43.73)"/><path d="M185.64,431.85l5-1.16a.33.33,0,0,1,.32.12l.86,1.13a.32.32,0,0,1-.18.5l-5.19,1.21a.31.31,0,0,1-.34-.15l-.69-1.18A.32.32,0,0,1,185.64,431.85Z" transform="translate(-75.67 -43.73)"/><path d="M192.09,430.51l5-1.16a.31.31,0,0,1,.32.11l.86,1.14a.31.31,0,0,1-.18.49l-5.19,1.21a.32.32,0,0,1-.34-.15l-.69-1.18A.32.32,0,0,1,192.09,430.51Z" transform="translate(-75.67 -43.73)"/><path d="M198.41,429.19l4.63-1.12a.31.31,0,0,1,.3.09l.9.94a.32.32,0,0,1-.15.52l-4.58,1.15a.3.3,0,0,1-.3-.08l-1-1A.32.32,0,0,1,198.41,429.19Z" transform="translate(-75.67 -43.73)"/><path d="M204.54,427.78l4.77-1.16a.26.26,0,0,1,.25.07l1,1.05a.24.24,0,0,1-.12.41l-4.71,1.19a.26.26,0,0,1-.24-.07l-1.06-1.07A.25.25,0,0,1,204.54,427.78Z" transform="translate(-75.67 -43.73)"/><path d="M210.67,426.34l4.77-1.16a.22.22,0,0,1,.24.07l1,1a.25.25,0,0,1-.12.42l-4.71,1.19a.26.26,0,0,1-.24-.07l-1-1.07A.25.25,0,0,1,210.67,426.34Z" transform="translate(-75.67 -43.73)"/><path d="M216.79,425.08l4.77-1.16a.27.27,0,0,1,.24.07l1,1.05a.26.26,0,0,1-.13.42L218,426.64a.26.26,0,0,1-.24-.06l-1.05-1.07A.26.26,0,0,1,216.79,425.08Z" transform="translate(-75.67 -43.73)"/><path d="M222.59,423.69l4.91-1.19a.17.17,0,0,1,.18.05l1.1,1.15a.18.18,0,0,1-.09.31l-4.85,1.22a.17.17,0,0,1-.18-.05L222.5,424A.19.19,0,0,1,222.59,423.69Z" transform="translate(-75.67 -43.73)"/><path d="M228.45,422.44l4.92-1.2a.18.18,0,0,1,.17.06l1.1,1.15a.18.18,0,0,1-.09.31L229.7,424a.17.17,0,0,1-.18-.05l-1.16-1.18A.19.19,0,0,1,228.45,422.44Z" transform="translate(-75.67 -43.73)"/><path d="M234.29,421.1l4.55-1a.2.2,0,0,1,.19.07l.88,1.08a.18.18,0,0,1-.1.29l-4.27,1.13a.17.17,0,0,1-.18-.05l-1.16-1.17A.19.19,0,0,1,234.29,421.1Z" transform="translate(-75.67 -43.73)"/><path d="M239.87,419.82l4.55-1a.18.18,0,0,1,.19.06l.87,1.08a.19.19,0,0,1-.09.3l-4.27,1.13a.25.25,0,0,1-.19-.05l-1.15-1.18A.19.19,0,0,1,239.87,419.82Z" transform="translate(-75.67 -43.73)"/><path d="M162.33,443.79l1.68,2.39a.28.28,0,0,0,.3.12l8.75-2.05a.29.29,0,0,0,.17-.46l-1.86-2.45a.29.29,0,0,0-.3-.1l-8.57,2.09A.3.3,0,0,0,162.33,443.79Z" transform="translate(-75.67 -43.73)"/><path d="M165,447l1.67,2.66a.3.3,0,0,0,.32.13l10.57-2.51a.29.29,0,0,0,.16-.47l-2.09-2.59a.29.29,0,0,0-.3-.1l-10.15,2.44A.29.29,0,0,0,165,447Z" transform="translate(-75.67 -43.73)"/><path d="M167.37,450.52l2,2.89a.29.29,0,0,0,.31.12l14-3.46a.3.3,0,0,0,.16-.47l-2.25-2.89a.31.31,0,0,0-.3-.11l-13.84,3.47A.29.29,0,0,0,167.37,450.52Z" transform="translate(-75.67 -43.73)"/><path d="M199.42,447.36l2.56,3.09a.3.3,0,0,0,.31.1l30.81-7.69a.31.31,0,0,0,.14-.52l-3.14-3.13a.33.33,0,0,0-.3-.08l-30.22,7.73A.31.31,0,0,0,199.42,447.36Z" transform="translate(-75.67 -43.73)"/><path d="M231.22,439.39l3,3a.26.26,0,0,0,.25.07l6.31-1.69a.25.25,0,0,0,.11-.42l-3.13-3.07a.26.26,0,0,0-.24-.06L231.33,439A.26.26,0,0,0,231.22,439.39Z" transform="translate(-75.67 -43.73)"/><path d="M246.46,437.49l1.38,1.45a.17.17,0,0,0,.18.05l4.67-1.26a.18.18,0,0,0,.08-.31l-1.66-1.57a.2.2,0,0,0-.18,0l-4.39,1.37A.19.19,0,0,0,246.46,437.49Z" transform="translate(-75.67 -43.73)"/><path d="M250.44,434.37l1.64,1.72a.19.19,0,0,0,.2.05l4.29-1.49a.18.18,0,0,0,.07-.31L255,432.89a.17.17,0,0,0-.17,0l-4.33,1.21A.19.19,0,0,0,250.44,434.37Z" transform="translate(-75.67 -43.73)"/><path d="M253.61,437.35l-1.18-1a.19.19,0,0,1,0-.32l4.28-1.48a.17.17,0,0,1,.19,0l1.34,1.29a.19.19,0,0,1-.09.32l-4.43,1.15A.18.18,0,0,1,253.61,437.35Z" transform="translate(-75.67 -43.73)"/><path d="M258,434.71c.37.35,1,1.06,1.26,1.3a.22.22,0,0,0,.19.05l4.45-1.21a.19.19,0,0,0,.08-.32l-1.58-1.42a.19.19,0,0,0-.19,0l-4.13,1.33A.18.18,0,0,0,258,434.71Z" transform="translate(-75.67 -43.73)"/><path d="M245.5,431.89l2.38,2.3a.18.18,0,0,0,.18.05l11.48-3a.19.19,0,0,0,.08-.32l-2.79-2.31a.17.17,0,0,0-.17,0l-11.08,3A.18.18,0,0,0,245.5,431.89Z" transform="translate(-75.67 -43.73)"/><path d="M244.72,428.35l2.46,2.19a.2.2,0,0,0,.17,0l8.64-2a.19.19,0,0,0,.07-.33l-2.83-2.37a.16.16,0,0,0-.16,0L244.8,428A.19.19,0,0,0,244.72,428.35Z" transform="translate(-75.67 -43.73)"/><path d="M245.51,424.58l2.33,2.08a.18.18,0,0,0,.17,0l4.43-1a.19.19,0,0,0,.08-.33L249.76,423a.17.17,0,0,0-.17,0l-4,1.28A.19.19,0,0,0,245.51,424.58Z" transform="translate(-75.67 -43.73)"/><path d="M239.44,422.51l2.25,2.05a.21.21,0,0,0,.17,0l7-1.67a.18.18,0,0,0,.07-.32l-2.68-2.25a.22.22,0,0,0-.17,0l-6.61,1.87A.19.19,0,0,0,239.44,422.51Z" transform="translate(-75.67 -43.73)"/></g><path d="M160.11,439.43l1.53,2.46a.29.29,0,0,0,.31.13l5.16-1.15a.3.3,0,0,0,.18-.46L165.58,438a.32.32,0,0,0-.3-.12l-5,1.07A.3.3,0,0,0,160.11,439.43Z" transform="translate(-75.67 -43.73)" fill="#464a5f"/><path d="M166.85,438l1.53,2.46a.29.29,0,0,0,.32.13l5.16-1.15A.3.3,0,0,0,174,439l-1.71-2.38a.29.29,0,0,0-.3-.11l-5,1.07A.3.3,0,0,0,166.85,438Z" transform="translate(-75.67 -43.73)" fill="#464a5f"/><path d="M173.41,436.59l1.53,2.46a.28.28,0,0,0,.31.13l5.16-1.15a.29.29,0,0,0,.18-.45l-1.71-2.39a.29.29,0,0,0-.3-.11l-5,1.07A.29.29,0,0,0,173.41,436.59Z" transform="translate(-75.67 -43.73)" fill="#464a5f"/><path d="M179.85,435.2l1.51,2.42a.3.3,0,0,0,.33.14l5.12-1.14a.31.31,0,0,0,.19-.49l-1.68-2.34a.35.35,0,0,0-.33-.13l-4.94,1.06A.32.32,0,0,0,179.85,435.2Z" transform="translate(-75.67 -43.73)" fill="#464a5f"/><path d="M179.33,439l1.53,2.47a.32.32,0,0,0,.32.13l5.16-1.15a.3.3,0,0,0,.17-.46l-1.71-2.38a.29.29,0,0,0-.3-.12l-5,1.07A.3.3,0,0,0,179.33,439Z" transform="translate(-75.67 -43.73)" fill="#464a5f"/><path d="M172.65,440.37l1.53,2.46a.3.3,0,0,0,.31.14l5.17-1.15a.3.3,0,0,0,.17-.46L178.12,439a.29.29,0,0,0-.3-.12l-5,1.07A.29.29,0,0,0,172.65,440.37Z" transform="translate(-75.67 -43.73)" fill="#464a5f"/><path d="M177,443.4l1.53,2.46a.28.28,0,0,0,.31.13l5.17-1.15a.3.3,0,0,0,.17-.46L182.47,442a.29.29,0,0,0-.3-.11l-5,1.07A.29.29,0,0,0,177,443.4Z" transform="translate(-75.67 -43.73)" fill="#464a5f"/><path d="M183.15,446l1.53,2.47a.29.29,0,0,0,.31.13l5.16-1.15a.3.3,0,0,0,.18-.46l-1.71-2.38a.3.3,0,0,0-.3-.12l-5,1.07A.29.29,0,0,0,183.15,446Z" transform="translate(-75.67 -43.73)" fill="#464a5f"/><path d="M184.21,450.33l2.47,3.09a.3.3,0,0,0,.31.1l5.2-1.35a.29.29,0,0,0,.15-.47l-2.55-3.12a.29.29,0,0,0-.3-.1l-5.12,1.38A.3.3,0,0,0,184.21,450.33Z" transform="translate(-75.67 -43.73)" fill="#464a5f"/><path d="M191,448.62l2.53,3.19a.31.31,0,0,0,.31.1l6.79-1.88a.29.29,0,0,0,.14-.47l-2.55-3.12a.3.3,0,0,0-.31-.1l-6.76,1.82A.29.29,0,0,0,191,448.62Z" transform="translate(-75.67 -43.73)" fill="#464a5f"/><path d="M177.56,452l2.47,3.09a.31.31,0,0,0,.31.1l5.2-1.35a.29.29,0,0,0,.15-.47l-2.55-3.12a.29.29,0,0,0-.3-.1l-5.12,1.38A.3.3,0,0,0,177.56,452Z" transform="translate(-75.67 -43.73)" fill="#464a5f"/><path d="M170.54,453.79l2.47,3.1a.29.29,0,0,0,.3.1l5.2-1.35a.3.3,0,0,0,.16-.47l-2.56-3.12a.29.29,0,0,0-.3-.1l-5.12,1.38A.29.29,0,0,0,170.54,453.79Z" transform="translate(-75.67 -43.73)" fill="#464a5f"/><path d="M186.31,433.68l1.51,2.43a.31.31,0,0,0,.33.14l5.12-1.14a.32.32,0,0,0,.19-.49l-1.68-2.35a.31.31,0,0,0-.32-.12l-5,1.06A.32.32,0,0,0,186.31,433.68Z" transform="translate(-75.67 -43.73)" fill="#464a5f"/><path d="M185.9,437.46l1.51,2.43a.31.31,0,0,0,.33.14l5.12-1.14a.31.31,0,0,0,.19-.49l-1.68-2.34a.32.32,0,0,0-.32-.13l-5,1.06A.32.32,0,0,0,185.9,437.46Z" transform="translate(-75.67 -43.73)" fill="#464a5f"/><path d="M192.58,432.26l1.51,2.43a.32.32,0,0,0,.34.14l5.12-1.14a.32.32,0,0,0,.18-.49l-1.68-2.34a.32.32,0,0,0-.32-.13l-4.95,1.06A.32.32,0,0,0,192.58,432.26Z" transform="translate(-75.67 -43.73)" fill="#464a5f"/><path d="M210.92,428.26l2.13,2.26a.24.24,0,0,0,.24.07l4.57-1.06a.25.25,0,0,0,.12-.42l-2.4-2.27a.24.24,0,0,0-.23-.06l-4.3,1.06A.26.26,0,0,0,210.92,428.26Z" transform="translate(-75.67 -43.73)" fill="#464a5f"/><path d="M216.79,426.91l2.12,2.25a.25.25,0,0,0,.24.08l4.57-1.06a.25.25,0,0,0,.12-.43l-2.4-2.26a.24.24,0,0,0-.23-.06l-4.3,1.06A.25.25,0,0,0,216.79,426.91Z" transform="translate(-75.67 -43.73)" fill="#464a5f"/><path d="M211.05,431.92l2.13,2.26a.26.26,0,0,0,.24.07l4.57-1.06a.25.25,0,0,0,.11-.43l-2.39-2.26a.26.26,0,0,0-.24-.06l-4.3,1.06A.26.26,0,0,0,211.05,431.92Z" transform="translate(-75.67 -43.73)" fill="#464a5f"/><path d="M205,433.32l2,2.15a.29.29,0,0,0,.3.09l4.42-1a.31.31,0,0,0,.15-.53l-2.29-2.16a.29.29,0,0,0-.29-.08l-4.17,1A.32.32,0,0,0,205,433.32Z" transform="translate(-75.67 -43.73)" fill="#464a5f"/><path d="M209.61,440.12l2,2.16a.31.31,0,0,0,.3.09l4.42-1a.32.32,0,0,0,.15-.54l-2.29-2.16a.31.31,0,0,0-.29-.07l-4.17,1A.31.31,0,0,0,209.61,440.12Z" transform="translate(-75.67 -43.73)" fill="#464a5f"/><path d="M203.34,441.54l2,2.16a.3.3,0,0,0,.3.09l4.42-1a.32.32,0,0,0,.15-.54L208,440.07a.31.31,0,0,0-.29-.07l-4.17,1A.31.31,0,0,0,203.34,441.54Z" transform="translate(-75.67 -43.73)" fill="#464a5f"/><path d="M197,443.12l2,2.16a.33.33,0,0,0,.3.09l4.43-1a.31.31,0,0,0,.14-.53l-2.29-2.16a.31.31,0,0,0-.29-.08l-4.17,1A.32.32,0,0,0,197,443.12Z" transform="translate(-75.67 -43.73)" fill="#464a5f"/><path d="M190.24,444.45l2.06,2.19a.29.29,0,0,0,.28.08l4.47-1a.29.29,0,0,0,.13-.5L194.86,443a.3.3,0,0,0-.27-.08l-4.21,1A.29.29,0,0,0,190.24,444.45Z" transform="translate(-75.67 -43.73)" fill="#464a5f"/><path d="M203.27,437.6l2,2.16a.29.29,0,0,0,.29.09l4.43-1a.32.32,0,0,0,.14-.54l-2.28-2.16a.31.31,0,0,0-.29-.07l-4.17,1A.32.32,0,0,0,203.27,437.6Z" transform="translate(-75.67 -43.73)" fill="#464a5f"/><path d="M197.16,439l2,2.16a.33.33,0,0,0,.3.09l4.42-1a.31.31,0,0,0,.15-.53l-2.29-2.16a.34.34,0,0,0-.29-.08l-4.17,1A.32.32,0,0,0,197.16,439Z" transform="translate(-75.67 -43.73)" fill="#464a5f"/><path d="M190.61,440.41l2,2.16a.31.31,0,0,0,.29.09l4.43-1a.31.31,0,0,0,.14-.53l-2.28-2.16a.32.32,0,0,0-.29-.08l-4.17,1A.31.31,0,0,0,190.61,440.41Z" transform="translate(-75.67 -43.73)" fill="#464a5f"/><path d="M183.9,442l2.06,2.19a.27.27,0,0,0,.28.08l4.47-1a.29.29,0,0,0,.14-.5l-2.32-2.19a.32.32,0,0,0-.28-.08l-4.21,1A.3.3,0,0,0,183.9,442Z" transform="translate(-75.67 -43.73)" fill="#464a5f"/><path d="M209.58,436.12l2,2.16a.32.32,0,0,0,.3.09l4.42-1a.31.31,0,0,0,.15-.53l-2.29-2.16a.34.34,0,0,0-.29-.08l-4.17,1A.31.31,0,0,0,209.58,436.12Z" transform="translate(-75.67 -43.73)" fill="#464a5f"/><path d="M198.89,434.89l2,2.16a.31.31,0,0,0,.3.09l4.43-1a.32.32,0,0,0,.14-.54l-2.29-2.16a.3.3,0,0,0-.29-.07l-4.16,1A.32.32,0,0,0,198.89,434.89Z" transform="translate(-75.67 -43.73)" fill="#464a5f"/><path d="M222.45,425.47l2.22,2.37a.18.18,0,0,0,.18.05l4.73-1.09a.19.19,0,0,0,.08-.32l-2.51-2.37a.21.21,0,0,0-.17-.05l-4.44,1.1A.19.19,0,0,0,222.45,425.47Z" transform="translate(-75.67 -43.73)" fill="#464a5f"/><path d="M228.15,424.21l2.23,2.37a.19.19,0,0,0,.18.05l4.72-1.09a.19.19,0,0,0,.09-.32l-2.51-2.37a.18.18,0,0,0-.17-.05l-4.45,1.1A.18.18,0,0,0,228.15,424.21Z" transform="translate(-75.67 -43.73)" fill="#464a5f"/><path d="M234,422.86l2,2.2a.18.18,0,0,0,.18.05l4.41-1.2a.19.19,0,0,0,.07-.32l-2.28-1.92a.18.18,0,0,0-.16,0l-4.16.92A.19.19,0,0,0,234,422.86Z" transform="translate(-75.67 -43.73)" fill="#464a5f"/><path d="M240.16,424.91l2,2.2a.19.19,0,0,0,.19.05l4.4-1.2a.18.18,0,0,0,.07-.32l-2.27-1.92a.19.19,0,0,0-.16,0l-4.16.92A.19.19,0,0,0,240.16,424.91Z" transform="translate(-75.67 -43.73)" fill="#464a5f"/><path d="M239.42,428.9l1.93,2.09a.25.25,0,0,0,.25.07l4.24-1.16a.25.25,0,0,0,.1-.43l-2.16-1.82a.23.23,0,0,0-.21,0l-4,.88A.26.26,0,0,0,239.42,428.9Z" transform="translate(-75.67 -43.73)" fill="#464a5f"/><path d="M234.41,434l1.93,2.09a.23.23,0,0,0,.25.07l4.24-1.15a.26.26,0,0,0,.1-.44l-2.16-1.82a.23.23,0,0,0-.21-.05l-4,.89A.24.24,0,0,0,234.41,434Z" transform="translate(-75.67 -43.73)" fill="#464a5f"/><path d="M228.39,435.55l1.93,2.09a.28.28,0,0,0,.25.07l4.24-1.16a.26.26,0,0,0,.1-.44l-2.16-1.81a.23.23,0,0,0-.21-.05l-4,.88A.26.26,0,0,0,228.39,435.55Z" transform="translate(-75.67 -43.73)" fill="#464a5f"/><path d="M240.08,432.49l1.93,2.09a.23.23,0,0,0,.25.07l4.24-1.16a.25.25,0,0,0,.1-.43l-2.15-1.82a.25.25,0,0,0-.22-.05l-4,.89A.25.25,0,0,0,240.08,432.49Z" transform="translate(-75.67 -43.73)" fill="#464a5f"/><path d="M239.1,437l2.91,2.61a.23.23,0,0,0,.24.05l4.21-1.19a.25.25,0,0,0,.1-.43l-3.14-2.75a.25.25,0,0,0-.25-.05l-4,1.33A.25.25,0,0,0,239.1,437Z" transform="translate(-75.67 -43.73)" fill="#464a5f"/><path d="M228.91,427.74l2,2.2a.2.2,0,0,0,.19.06l4.4-1.2a.19.19,0,0,0,.07-.33l-2.27-1.91a.17.17,0,0,0-.16,0l-4.16.92A.18.18,0,0,0,228.91,427.74Z" transform="translate(-75.67 -43.73)" fill="#464a5f"/><path d="M223.22,429.15l1.93,2.09a.25.25,0,0,0,.25.07l4.24-1.16a.25.25,0,0,0,.1-.43l-2.15-1.82a.25.25,0,0,0-.22,0l-4,.88A.26.26,0,0,0,223.22,429.15Z" transform="translate(-75.67 -43.73)" fill="#464a5f"/><path d="M222.05,433.19l1.93,2.08a.24.24,0,0,0,.25.07l4.25-1.15a.26.26,0,0,0,.09-.44l-2.15-1.81a.23.23,0,0,0-.22-.06l-4,.89A.25.25,0,0,0,222.05,433.19Z" transform="translate(-75.67 -43.73)" fill="#464a5f"/><path d="M216.06,434.64l1.93,2.08a.26.26,0,0,0,.26.07l4.24-1.15a.26.26,0,0,0,.09-.44l-2.15-1.82a.25.25,0,0,0-.22-.05l-4,.89A.26.26,0,0,0,216.06,434.64Z" transform="translate(-75.67 -43.73)" fill="#464a5f"/><path d="M217.14,430.51l1.93,2.08a.26.26,0,0,0,.25.08l4.24-1.16a.26.26,0,0,0,.1-.44l-2.16-1.81a.27.27,0,0,0-.21-.06l-4,.89A.25.25,0,0,0,217.14,430.51Z" transform="translate(-75.67 -43.73)" fill="#464a5f"/><path d="M222.15,436.9l1.93,2.09a.23.23,0,0,0,.25.07l4.24-1.15a.26.26,0,0,0,.1-.44l-2.16-1.82a.23.23,0,0,0-.21,0l-4,.89A.24.24,0,0,0,222.15,436.9Z" transform="translate(-75.67 -43.73)" fill="#464a5f"/><path d="M216.26,438.5l1.84,2a.31.31,0,0,0,.31.09l4.09-1.12a.31.31,0,0,0,.12-.54l-2-1.72a.29.29,0,0,0-.27-.07l-3.88.86A.32.32,0,0,0,216.26,438.5Z" transform="translate(-75.67 -43.73)" fill="#464a5f"/><path d="M234.71,426.3l2,2.19a.2.2,0,0,0,.19.06l4.4-1.2a.19.19,0,0,0,.07-.33l-2.27-1.91a.17.17,0,0,0-.16,0l-4.17.92A.18.18,0,0,0,234.71,426.3Z" transform="translate(-75.67 -43.73)" fill="#464a5f"/><path d="M233.9,430.25l1.93,2.09a.24.24,0,0,0,.25.07l4.25-1.15a.26.26,0,0,0,.09-.44L238.27,429a.25.25,0,0,0-.22-.05l-4,.89A.25.25,0,0,0,233.9,430.25Z" transform="translate(-75.67 -43.73)" fill="#464a5f"/><path d="M228.14,431.83l1.92,2.09a.28.28,0,0,0,.26.07l4.24-1.16a.25.25,0,0,0,.1-.43l-2.16-1.82a.25.25,0,0,0-.22-.05l-4,.88A.25.25,0,0,0,228.14,431.83Z" transform="translate(-75.67 -43.73)" fill="#464a5f"/><path d="M204.94,429.55l2.12,2.26a.25.25,0,0,0,.24.08l4.57-1.06a.25.25,0,0,0,.12-.43l-2.4-2.26a.25.25,0,0,0-.23-.07l-4.3,1.07A.24.24,0,0,0,204.94,429.55Z" transform="translate(-75.67 -43.73)" fill="#464a5f"/><path d="M198.83,431.05l2,2.15a.31.31,0,0,0,.3.1l4.42-1a.31.31,0,0,0,.15-.53l-2.29-2.16a.29.29,0,0,0-.29-.08l-4.17,1A.32.32,0,0,0,198.83,431.05Z" transform="translate(-75.67 -43.73)" fill="#464a5f"/><path d="M192.3,436.11l1.51,2.43a.31.31,0,0,0,.33.14l5.12-1.14a.32.32,0,0,0,.19-.49l-1.69-2.35a.3.3,0,0,0-.32-.12l-4.94,1.06A.31.31,0,0,0,192.3,436.11Z" transform="translate(-75.67 -43.73)" fill="#464a5f"/><path d="M158.79,437l5.05-1.17a.31.31,0,0,1,.3.11l.89,1.17a.29.29,0,0,1-.17.46l-5.23,1.22a.28.28,0,0,1-.32-.14l-.71-1.21A.3.3,0,0,1,158.79,437Z" transform="translate(-75.67 -43.73)" fill="#464a5f"/><path d="M165.74,435.5l5-1.17a.31.31,0,0,1,.3.11l.89,1.17a.29.29,0,0,1-.17.46l-5.23,1.22a.29.29,0,0,1-.32-.14l-.71-1.22A.29.29,0,0,1,165.74,435.5Z" transform="translate(-75.67 -43.73)" fill="#464a5f"/><path d="M172.45,434.06l5.05-1.17a.29.29,0,0,1,.3.11l.89,1.16a.3.3,0,0,1-.17.47l-5.23,1.22a.29.29,0,0,1-.32-.14l-.71-1.22A.29.29,0,0,1,172.45,434.06Z" transform="translate(-75.67 -43.73)" fill="#464a5f"/><path d="M179,432.57,184,431.4a.31.31,0,0,1,.3.11l.88,1.17a.29.29,0,0,1-.16.46l-5.24,1.22a.3.3,0,0,1-.32-.14l-.71-1.22A.3.3,0,0,1,179,432.57Z" transform="translate(-75.67 -43.73)" fill="#464a5f"/><path d="M185.64,431.1l5-1.16a.33.33,0,0,1,.32.11l.86,1.14a.31.31,0,0,1-.18.49l-5.19,1.21a.31.31,0,0,1-.34-.15l-.69-1.18A.31.31,0,0,1,185.64,431.1Z" transform="translate(-75.67 -43.73)" fill="#464a5f"/><path d="M192.09,429.75l5-1.16a.31.31,0,0,1,.32.12l.86,1.13a.31.31,0,0,1-.18.49l-5.19,1.21a.32.32,0,0,1-.34-.15l-.69-1.18A.32.32,0,0,1,192.09,429.75Z" transform="translate(-75.67 -43.73)" fill="#464a5f"/><path d="M198.41,428.44l4.63-1.13a.33.33,0,0,1,.3.09l.9,1a.32.32,0,0,1-.15.52L199.51,430a.3.3,0,0,1-.3-.08l-1-1A.31.31,0,0,1,198.41,428.44Z" transform="translate(-75.67 -43.73)" fill="#464a5f"/><path d="M204.54,427l4.77-1.16a.29.29,0,0,1,.25.07l1,1.05a.25.25,0,0,1-.12.42l-4.71,1.18a.24.24,0,0,1-.24-.07l-1.06-1.07A.25.25,0,0,1,204.54,427Z" transform="translate(-75.67 -43.73)" fill="#464a5f"/><path d="M210.67,425.58l4.77-1.16a.27.27,0,0,1,.24.07l1,1.05a.25.25,0,0,1-.12.42l-4.71,1.18a.24.24,0,0,1-.24-.07l-1-1.07A.25.25,0,0,1,210.67,425.58Z" transform="translate(-75.67 -43.73)" fill="#464a5f"/><path d="M216.79,424.33l4.77-1.16a.24.24,0,0,1,.24.07l1,1.05a.25.25,0,0,1-.13.41L218,425.89a.27.27,0,0,1-.24-.07l-1.05-1.07A.25.25,0,0,1,216.79,424.33Z" transform="translate(-75.67 -43.73)" fill="#464a5f"/><path d="M222.59,422.94l4.91-1.2a.17.17,0,0,1,.18.05l1.1,1.16a.19.19,0,0,1-.09.31l-4.85,1.22a.22.22,0,0,1-.18-.05l-1.16-1.18A.19.19,0,0,1,222.59,422.94Z" transform="translate(-75.67 -43.73)" fill="#464a5f"/><path d="M228.45,421.68l4.92-1.19a.16.16,0,0,1,.17.05l1.1,1.15a.19.19,0,0,1-.09.32l-4.85,1.21a.17.17,0,0,1-.18-.05L228.36,422A.19.19,0,0,1,228.45,421.68Z" transform="translate(-75.67 -43.73)" fill="#464a5f"/><path d="M234.29,420.34l4.55-1a.18.18,0,0,1,.19.06l.88,1.08a.19.19,0,0,1-.1.3l-4.27,1.13a.22.22,0,0,1-.18-.05l-1.16-1.18A.19.19,0,0,1,234.29,420.34Z" transform="translate(-75.67 -43.73)" fill="#464a5f"/><path d="M239.87,419.06l4.55-1a.2.2,0,0,1,.19.06l.87,1.08a.18.18,0,0,1-.09.3l-4.27,1.13a.19.19,0,0,1-.19-.05l-1.15-1.17A.19.19,0,0,1,239.87,419.06Z" transform="translate(-75.67 -43.73)" fill="#464a5f"/><path d="M162.33,443l1.68,2.39a.28.28,0,0,0,.3.12l8.75-2.05a.29.29,0,0,0,.17-.46l-1.86-2.44a.29.29,0,0,0-.3-.11l-8.57,2.1A.29.29,0,0,0,162.33,443Z" transform="translate(-75.67 -43.73)" fill="#464a5f"/><path d="M165,446.24l1.67,2.67a.31.31,0,0,0,.32.13l10.57-2.52a.29.29,0,0,0,.16-.47l-2.09-2.59a.31.31,0,0,0-.3-.1l-10.15,2.44A.29.29,0,0,0,165,446.24Z" transform="translate(-75.67 -43.73)" fill="#464a5f"/><path d="M167.37,449.77l2,2.89a.29.29,0,0,0,.31.11l14-3.46a.29.29,0,0,0,.16-.46l-2.25-2.9a.29.29,0,0,0-.3-.1l-13.84,3.46A.3.3,0,0,0,167.37,449.77Z" transform="translate(-75.67 -43.73)" fill="#464a5f"/><path d="M199.42,446.61l2.56,3.08a.3.3,0,0,0,.31.1l30.81-7.68a.32.32,0,0,0,.14-.53l-3.14-3.12a.3.3,0,0,0-.3-.08l-30.22,7.72A.32.32,0,0,0,199.42,446.61Z" transform="translate(-75.67 -43.73)" fill="#464a5f"/><path d="M231.22,438.64l3,3a.26.26,0,0,0,.25.06l6.31-1.69a.25.25,0,0,0,.11-.42l-3.13-3.06a.24.24,0,0,0-.24-.07l-6.21,1.72A.26.26,0,0,0,231.22,438.64Z" transform="translate(-75.67 -43.73)" fill="#464a5f"/><path d="M246.46,436.73l1.38,1.45a.17.17,0,0,0,.18.05l4.67-1.25a.19.19,0,0,0,.08-.32l-1.66-1.56a.18.18,0,0,0-.18-.05l-4.39,1.37A.19.19,0,0,0,246.46,436.73Z" transform="translate(-75.67 -43.73)" fill="#464a5f"/><path d="M250.44,433.62l1.64,1.72a.18.18,0,0,0,.2,0l4.29-1.48a.19.19,0,0,0,.07-.32L255,432.14a.15.15,0,0,0-.17,0l-4.33,1.21A.19.19,0,0,0,250.44,433.62Z" transform="translate(-75.67 -43.73)" fill="#464a5f"/><path d="M253.61,436.59l-1.18-.95a.19.19,0,0,1,0-.33l4.28-1.48a.19.19,0,0,1,.19,0l1.34,1.3a.19.19,0,0,1-.09.31l-4.43,1.15A.18.18,0,0,1,253.61,436.59Z" transform="translate(-75.67 -43.73)" fill="#464a5f"/><path d="M258,434c.37.36,1,1.06,1.26,1.3a.19.19,0,0,0,.19.05l4.45-1.2a.19.19,0,0,0,.08-.32l-1.58-1.43a.21.21,0,0,0-.19,0l-4.13,1.33A.19.19,0,0,0,258,434Z" transform="translate(-75.67 -43.73)" fill="#464a5f"/><path d="M245.5,431.14l2.38,2.3a.2.2,0,0,0,.18,0l11.48-3a.19.19,0,0,0,.08-.33l-2.79-2.3a.21.21,0,0,0-.17,0l-11.08,3A.19.19,0,0,0,245.5,431.14Z" transform="translate(-75.67 -43.73)" fill="#464a5f"/><path d="M244.72,427.59l2.46,2.19a.17.17,0,0,0,.17,0l8.64-2a.18.18,0,0,0,.07-.32l-2.83-2.37a.16.16,0,0,0-.16,0l-8.27,2.22A.19.19,0,0,0,244.72,427.59Z" transform="translate(-75.67 -43.73)" fill="#464a5f"/><path d="M245.51,423.82l2.33,2.09a.21.21,0,0,0,.17,0l4.43-1a.18.18,0,0,0,.08-.32l-2.76-2.38a.15.15,0,0,0-.17,0l-4,1.29A.18.18,0,0,0,245.51,423.82Z" transform="translate(-75.67 -43.73)" fill="#464a5f"/><path d="M239.44,421.75l2.25,2.05a.18.18,0,0,0,.17,0l7-1.66a.19.19,0,0,0,.07-.33l-2.68-2.25a.18.18,0,0,0-.17,0l-6.61,1.86A.19.19,0,0,0,239.44,421.75Z" transform="translate(-75.67 -43.73)" fill="#464a5f"/></svg>