<svg id="7e38527c-c439-4ac8-ab59-5870f5db8019" data-name="Layer 1" xmlns="http://www.w3.org/2000/svg" xmlns:xlink="http://www.w3.org/1999/xlink" width="938" height="435.27" viewBox="0 0 938 435.27"><defs><linearGradient id="8486a354-4ded-4b3d-9732-2a2c7667bec2" x1="306" y1="619" x2="306" y2="328" gradientUnits="userSpaceOnUse"><stop offset="0" stop-color="gray" stop-opacity="0.25"/><stop offset="0.54" stop-color="gray" stop-opacity="0.12"/><stop offset="1" stop-color="gray" stop-opacity="0.1"/></linearGradient><linearGradient id="3853e85e-ee5a-4f32-bbd3-7efdaca8fe8a" x1="722.61" y1="411.26" x2="722.61" y2="295.87" xlink:href="#8486a354-4ded-4b3d-9732-2a2c7667bec2"/><linearGradient id="e85ddcbd-1b93-4455-9e1f-7c80d0490ef6" x1="832.3" y1="300.61" x2="832.3" y2="232.85" xlink:href="#8486a354-4ded-4b3d-9732-2a2c7667bec2"/><linearGradient id="7e77ab0e-bbf3-4bc7-8363-6b91148be3a0" x1="938.33" y1="372.89" x2="938.33" y2="303.17" xlink:href="#8486a354-4ded-4b3d-9732-2a2c7667bec2"/><linearGradient id="e949ee8b-be62-4c37-a074-25d4b153f007" x1="843.27" y1="475.46" x2="843.27" y2="409" xlink:href="#8486a354-4ded-4b3d-9732-2a2c7667bec2"/><linearGradient id="3aaaa841-8400-43be-a827-94f5c76752eb" x1="754.6" y1="503.32" x2="754.6" y2="434.16" xlink:href="#8486a354-4ded-4b3d-9732-2a2c7667bec2"/><linearGradient id="a635f348-18db-43de-86ad-53f13a869e1a" x1="754.6" y1="610.26" x2="754.6" y2="541.1" xlink:href="#8486a354-4ded-4b3d-9732-2a2c7667bec2"/><linearGradient id="cb024692-e676-4733-81ed-cdcd66700928" x1="906.34" y1="668.12" x2="906.34" y2="598.42" xlink:href="#8486a354-4ded-4b3d-9732-2a2c7667bec2"/><linearGradient id="38df677c-957a-4721-8e86-d40d682183d9" x1="1002.31" y1="597.39" x2="1002.31" y2="455.26" xlink:href="#8486a354-4ded-4b3d-9732-2a2c7667bec2"/><linearGradient id="9cd64173-10f6-4cb0-8058-bf8fe6a2764b" x1="265.81" y1="579.26" x2="265.81" y2="482.51" gradientTransform="translate(-164.4 122.26) rotate(-19.56)" xlink:href="#8486a354-4ded-4b3d-9732-2a2c7667bec2"/></defs><title>email capture</title><g opacity="0.5"><path d="M279.69,395.15H477V328H279.69C200.11,328,135,393.47,135,473.5h0c0,80,65.11,145.5,144.69,145.5H477V551.85H279.69a77.1,77.1,0,0,1-55-23.07,78.05,78.05,0,0,1,0-110.55A77.1,77.1,0,0,1,279.69,395.15Z" transform="translate(-135 -232.85)" fill="url(#8486a354-4ded-4b3d-9732-2a2c7667bec2)"/></g><path d="M226.18,527.82A77,77,0,0,1,280.5,396.5h121v-66h-121c-78.65,0-143,64.35-143,143h0c0,78.65,64.35,143,143,143h121v-66h-121A76.41,76.41,0,0,1,226.18,527.82Z" transform="translate(-135 -232.85)" fill="#535461"/><rect x="265.5" y="317.65" width="75" height="66" fill="#e0e0e0"/><rect x="265.5" y="97.65" width="75" height="66" fill="#e0e0e0"/><g opacity="0.5"><path d="M743,382.26c25.3,0,37-13.58,37-31.78,0-31.78-25.61-54.61-57.39-54.61a57.7,57.7,0,0,0,0,115.39,56.74,56.74,0,0,0,32.66-10.69,4.36,4.36,0,0,0,1.78-2.86,2.85,2.85,0,0,0-.89-2.66,3.62,3.62,0,0,0-5.27.62c-2.1,2.76-8.37,7.43-26.92,7.85-28.07.64-51.56-21.71-51.65-49.79-.09-27.85,22.78-49.84,50.29-50.15s49.67,19.13,49.67,46.28c0,17.28-12,25.3-26.53,25-4.63.31-5.55-1.54-4.94-8,.51-5.32,5.59-27.5,7.39-35.26a4.29,4.29,0,0,0-4.32-5.3l-.31,0a4.28,4.28,0,0,0-3.74,3.75,32.62,32.62,0,0,0-.26,3.76c-2.78-5.55-9.26-9.87-17-10.18-16.35.31-30.54,15.12-31.16,36.72,0,14.5,7.71,22.83,21,22.83,9.26,0,16-5.55,19.75-10.8C732.18,372.39,731.87,381.64,743,382.26Zm-29.31-6.48c-8.33,0-13.27-6.17-13.27-16,0-17,11.42-27.77,22.21-27.77,9.56,0,13.27,6.48,13.58,15.12C736.19,361,727.24,375.78,713.67,375.78Z" transform="translate(-135 -232.85)" fill="url(#3853e85e-ee5a-4f32-bbd3-7efdaca8fe8a)"/></g><path d="M742.07,381c24.18,0,35.38-13,35.38-30.37,0-30.37-24.47-52.19-54.84-52.19a55.14,55.14,0,0,0,0,110.28,54.22,54.22,0,0,0,31.21-10.21,4.16,4.16,0,0,0,1.71-2.73,2.72,2.72,0,0,0-.85-2.54,3.46,3.46,0,0,0-5,.59c-2,2.63-8,7.1-25.73,7.5-26.83.61-49.27-20.75-49.36-47.59-.09-26.61,21.77-47.63,48.06-47.92s47.47,18.28,47.47,44.23c0,16.51-11.5,24.18-25.36,23.88-4.42.29-5.31-1.47-4.72-7.67.48-5.09,5.34-26.28,7.07-33.69a4.1,4.1,0,0,0-4.13-5.06l-.3,0a4.09,4.09,0,0,0-3.57,3.59,31.17,31.17,0,0,0-.25,3.6c-2.65-5.31-8.85-9.44-16.22-9.73-15.63.29-29.19,14.45-29.78,35.09,0,13.86,7.37,21.82,20.05,21.82,8.85,0,15.33-5.31,18.87-10.32C731.75,371.55,731.46,380.4,742.07,381Zm-28-6.19c-8,0-12.68-5.9-12.68-15.33,0-16.22,10.91-26.54,21.23-26.54,9.14,0,12.68,6.19,13,14.45C735.59,360.64,727,374.8,714.06,374.8Z" transform="translate(-135 -232.85)" fill="#6c63ff"/><g opacity="0.5"><path d="M844.26,283.58c14.86,0,21.74-8,21.74-18.66,0-18.66-15-32.07-33.7-32.07a33.88,33.88,0,0,0,0,67.76,33.32,33.32,0,0,0,19.18-6.28,2.56,2.56,0,0,0,1-1.68,1.67,1.67,0,0,0-.52-1.56,2.13,2.13,0,0,0-3.1.36c-1.23,1.62-4.92,4.36-15.81,4.61a29.54,29.54,0,0,1-30.33-29.24c-.05-16.35,13.38-29.27,29.53-29.45s29.17,11.23,29.17,27.18c0,10.15-7.07,14.86-15.58,14.68-2.72.18-3.26-.91-2.9-4.71.3-3.12,3.28-16.15,4.34-20.7a2.52,2.52,0,0,0-2.54-3.11l-.18,0a2.51,2.51,0,0,0-2.19,2.2,19.15,19.15,0,0,0-.15,2.21,11.64,11.64,0,0,0-10-6c-9.6.18-17.94,8.88-18.3,21.56,0,8.52,4.53,13.41,12.32,13.41a14.37,14.37,0,0,0,11.6-6.34S837.73,283.22,844.26,283.58ZM827,279.78c-4.89,0-7.79-3.62-7.79-9.42,0-10,6.7-16.31,13-16.31,5.62,0,7.79,3.8,8,8.88C840.27,271.08,835,279.78,827,279.78Z" transform="translate(-135 -232.85)" fill="url(#e85ddcbd-1b93-4455-9e1f-7c80d0490ef6)"/></g><path d="M843.65,282.73c14.1,0,20.64-7.57,20.64-17.72,0-17.72-14.28-30.44-32-30.44a32.16,32.16,0,0,0,0,64.33,31.63,31.63,0,0,0,18.21-6,2.43,2.43,0,0,0,1-1.59,1.59,1.59,0,0,0-.49-1.48,2,2,0,0,0-2.94.35c-1.17,1.54-4.67,4.14-15,4.38a28,28,0,0,1-28.79-27.76c-.05-15.52,12.7-27.78,28-28S860,249.53,860,264.67c0,9.63-6.71,14.1-14.79,13.93-2.58.17-3.1-.86-2.75-4.47.28-3,3.12-15.33,4.12-19.65a2.39,2.39,0,0,0-2.41-3H844a2.38,2.38,0,0,0-2.08,2.09,18.18,18.18,0,0,0-.15,2.1A11,11,0,0,0,832.3,250c-9.12.17-17,8.43-17.37,20.47,0,8.08,4.3,12.73,11.7,12.73a13.64,13.64,0,0,0,11-6S837.46,282.38,843.65,282.73Zm-16.34-3.61c-4.64,0-7.4-3.44-7.4-8.94,0-9.46,6.36-15.48,12.38-15.48,5.33,0,7.4,3.61,7.57,8.43C839.87,270.86,834.88,279.12,827.31,279.12Z" transform="translate(-135 -232.85)" fill="#6c63ff"/><g opacity="0.5"><path d="M950.63,355.36c15.28,0,22.37-8.2,22.37-19.2,0-19.2-15.47-33-34.67-33a34.86,34.86,0,0,0,0,69.71,34.28,34.28,0,0,0,19.73-6.46,2.63,2.63,0,0,0,1.08-1.73,1.72,1.72,0,0,0-.54-1.61,2.19,2.19,0,0,0-3.18.38c-1.27,1.66-5.06,4.49-16.27,4.74a30.39,30.39,0,0,1-31.21-30.08c-.06-16.82,13.76-30.11,30.38-30.3s30,11.56,30,28c0,10.44-7.27,15.28-16,15.1-2.8.19-3.36-.93-3-4.85.31-3.21,3.38-16.61,4.47-21.3a2.59,2.59,0,0,0-2.61-3.2l-.19,0a2.58,2.58,0,0,0-2.26,2.27,19.71,19.71,0,0,0-.16,2.27,12,12,0,0,0-10.25-6.15c-9.88.19-18.45,9.13-18.83,22.18,0,8.76,4.66,13.79,12.68,13.79a14.78,14.78,0,0,0,11.93-6.52S943.92,355,950.63,355.36Zm-17.71-3.91c-5,0-8-3.73-8-9.69,0-10.25,6.9-16.78,13.42-16.78,5.78,0,8,3.91,8.2,9.13C946.53,342.5,941.13,351.45,932.92,351.45Z" transform="translate(-135 -232.85)" fill="url(#7e77ab0e-bbf3-4bc7-8363-6b91148be3a0)"/></g><path d="M949.68,354c14.1,0,20.64-7.57,20.64-17.72,0-17.72-14.28-30.44-32-30.44a32.16,32.16,0,0,0,0,64.33,31.63,31.63,0,0,0,18.21-6,2.43,2.43,0,0,0,1-1.59,1.59,1.59,0,0,0-.49-1.48,2,2,0,0,0-2.94.35c-1.17,1.54-4.67,4.14-15,4.38a28,28,0,0,1-28.79-27.76c-.05-15.52,12.7-27.78,28-28S966,320.83,966,336c0,9.63-6.71,14.1-14.79,13.93-2.58.17-3.1-.86-2.75-4.47.28-3,3.12-15.33,4.12-19.65a2.39,2.39,0,0,0-2.41-3H950a2.38,2.38,0,0,0-2.08,2.09,18.18,18.18,0,0,0-.15,2.1,11,11,0,0,0-9.46-5.68c-9.12.17-17,8.43-17.37,20.47,0,8.08,4.3,12.73,11.7,12.73a13.64,13.64,0,0,0,11-6S943.49,353.68,949.68,354Zm-16.34-3.61c-4.64,0-7.4-3.44-7.4-8.94,0-9.46,6.36-15.48,12.38-15.48,5.33,0,7.4,3.61,7.57,8.43C945.9,342.16,940.91,350.41,933.34,350.41Z" transform="translate(-135 -232.85)" fill="#6c63ff"/><g opacity="0.5"><path d="M855,458.76c14.57,0,21.32-7.82,21.32-18.3,0-18.3-14.75-31.45-33.05-31.45a33.23,33.23,0,0,0,0,66.46,32.68,32.68,0,0,0,18.81-6.16,2.51,2.51,0,0,0,1-1.65,1.64,1.64,0,0,0-.51-1.53,2.09,2.09,0,0,0-3,.36c-1.21,1.59-4.82,4.28-15.51,4.52a29,29,0,0,1-29.75-28.68c-.05-16,13.12-28.71,29-28.88s28.61,11,28.61,26.66c0,10-6.93,14.57-15.28,14.39-2.67.18-3.2-.89-2.84-4.62C854,446.81,857,434,858,429.57a2.47,2.47,0,0,0-2.49-3.05h-.18a2.46,2.46,0,0,0-2.15,2.16,18.79,18.79,0,0,0-.15,2.17,11.41,11.41,0,0,0-9.77-5.86c-9.42.18-17.59,8.71-17.95,21.15,0,8.35,4.44,13.15,12.08,13.15a14.09,14.09,0,0,0,11.37-6.22S848.6,458.4,855,458.76ZM838.11,455c-4.8,0-7.64-3.55-7.64-9.24,0-9.77,6.58-16,12.79-16,5.51,0,7.64,3.73,7.82,8.71C851.09,446.5,845.93,455,838.11,455Z" transform="translate(-135 -232.85)" fill="url(#e949ee8b-be62-4c37-a074-25d4b153f007)"/></g><path d="M854.62,458.23c14.1,0,20.64-7.57,20.64-17.72,0-17.72-14.28-30.44-32-30.44a32.16,32.16,0,0,0,0,64.33,31.63,31.63,0,0,0,18.21-6,2.43,2.43,0,0,0,1-1.59,1.59,1.59,0,0,0-.49-1.48,2,2,0,0,0-2.94.35c-1.17,1.54-4.67,4.14-15,4.38a28,28,0,0,1-28.79-27.76c-.05-15.52,12.7-27.78,28-28S871,425,871,440.17c0,9.63-6.71,14.1-14.79,13.93-2.58.17-3.1-.86-2.75-4.47.28-3,3.12-15.33,4.12-19.65a2.39,2.39,0,0,0-2.41-3H855a2.38,2.38,0,0,0-2.08,2.09,18.18,18.18,0,0,0-.15,2.1,11,11,0,0,0-9.46-5.68c-9.12.17-17,8.43-17.37,20.47,0,8.08,4.3,12.73,11.7,12.73a13.64,13.64,0,0,0,11-6S848.43,457.88,854.62,458.23Zm-16.34-3.61c-4.64,0-7.4-3.44-7.4-8.94,0-9.46,6.36-15.48,12.38-15.48,5.33,0,7.4,3.61,7.57,8.43C850.84,446.36,845.85,454.61,838.28,454.61Z" transform="translate(-135 -232.85)" fill="#6c63ff"/><g opacity="0.5"><path d="M766.81,485.94c15.16,0,22.19-8.14,22.19-19,0-19-15.35-32.73-34.4-32.73a34.58,34.58,0,0,0,0,69.16,34,34,0,0,0,19.57-6.41,2.61,2.61,0,0,0,1.07-1.71,1.71,1.71,0,0,0-.53-1.59,2.17,2.17,0,0,0-3.16.37c-1.26,1.65-5,4.45-16.14,4.7a30.15,30.15,0,0,1-31-29.84c-.05-16.69,13.65-29.87,30.14-30.06s29.77,11.47,29.77,27.74c0,10.36-7.21,15.16-15.9,15-2.77.18-3.33-.92-3-4.81.3-3.19,3.35-16.48,4.43-21.13a2.57,2.57,0,0,0-2.59-3.18l-.19,0a2.56,2.56,0,0,0-2.24,2.25,19.55,19.55,0,0,0-.16,2.26,11.88,11.88,0,0,0-10.17-6.1c-9.8.18-18.31,9.06-18.68,22,0,8.69,4.62,13.68,12.57,13.68A14.67,14.67,0,0,0,760.34,480S760.15,485.57,766.81,485.94Zm-17.57-3.88c-5,0-8-3.7-8-9.62,0-10.17,6.84-16.64,13.31-16.64,5.73,0,8,3.88,8.14,9.06C762.74,473.18,757.38,482.05,749.24,482.05Z" transform="translate(-135 -232.85)" fill="url(#3aaaa841-8400-43be-a827-94f5c76752eb)"/></g><path d="M766,484.73c14.1,0,20.64-7.57,20.64-17.72,0-17.72-14.28-30.44-32-30.44a32.16,32.16,0,0,0,0,64.33,31.63,31.63,0,0,0,18.21-6,2.43,2.43,0,0,0,1-1.59,1.59,1.59,0,0,0-.49-1.48,2,2,0,0,0-2.94.35c-1.17,1.54-4.67,4.14-15,4.38a28,28,0,0,1-28.79-27.76c-.05-15.52,12.7-27.78,28-28s27.69,10.66,27.69,25.8c0,9.63-6.71,14.1-14.79,13.93-2.58.17-3.1-.86-2.75-4.47.28-3,3.12-15.33,4.12-19.65a2.39,2.39,0,0,0-2.41-3h-.17a2.38,2.38,0,0,0-2.08,2.09,18.18,18.18,0,0,0-.15,2.1,11,11,0,0,0-9.46-5.68c-9.12.17-17,8.43-17.37,20.47,0,8.08,4.3,12.73,11.7,12.73a13.64,13.64,0,0,0,11-6S759.76,484.39,766,484.73Zm-16.34-3.61c-4.64,0-7.4-3.44-7.4-8.94,0-9.46,6.36-15.48,12.38-15.48,5.33,0,7.4,3.61,7.57,8.43C762.17,472.87,757.18,481.12,749.62,481.12Z" transform="translate(-135 -232.85)" fill="#6c63ff"/><g opacity="0.5"><path d="M766.81,592.88c15.16,0,22.19-8.14,22.19-19,0-19-15.35-32.73-34.4-32.73a34.58,34.58,0,0,0,0,69.16,34,34,0,0,0,19.57-6.41,2.61,2.61,0,0,0,1.07-1.71,1.71,1.71,0,0,0-.53-1.59,2.17,2.17,0,0,0-3.16.37c-1.26,1.65-5,4.45-16.14,4.7a30.15,30.15,0,0,1-31-29.84c-.05-16.69,13.65-29.87,30.14-30.06s29.77,11.47,29.77,27.74c0,10.36-7.21,15.16-15.9,15-2.77.18-3.33-.92-3-4.81.3-3.19,3.35-16.48,4.43-21.13a2.57,2.57,0,0,0-2.59-3.18l-.19,0a2.56,2.56,0,0,0-2.24,2.25,19.55,19.55,0,0,0-.16,2.26,11.88,11.88,0,0,0-10.17-6.1c-9.8.18-18.31,9.06-18.68,22,0,8.69,4.62,13.68,12.57,13.68A14.67,14.67,0,0,0,760.34,587S760.15,592.51,766.81,592.88ZM749.24,589c-5,0-8-3.7-8-9.62,0-10.17,6.84-16.64,13.31-16.64,5.73,0,8,3.88,8.14,9.06C762.74,580.12,757.38,589,749.24,589Z" transform="translate(-135 -232.85)" fill="url(#a635f348-18db-43de-86ad-53f13a869e1a)"/></g><path d="M766,591.68c14.1,0,20.64-7.57,20.64-17.72,0-17.72-14.28-30.44-32-30.44a32.16,32.16,0,0,0,0,64.33,31.63,31.63,0,0,0,18.21-6,2.43,2.43,0,0,0,1-1.59,1.59,1.59,0,0,0-.49-1.48,2,2,0,0,0-2.94.35c-1.17,1.54-4.67,4.14-15,4.38a28,28,0,0,1-28.79-27.76c-.05-15.52,12.7-27.78,28-28s27.69,10.66,27.69,25.8c0,9.63-6.71,14.1-14.79,13.93-2.58.17-3.1-.86-2.75-4.47.28-3,3.12-15.33,4.12-19.65a2.39,2.39,0,0,0-2.41-3h-.17a2.38,2.38,0,0,0-2.08,2.09,18.18,18.18,0,0,0-.15,2.1A11,11,0,0,0,754.6,559c-9.12.17-17,8.43-17.37,20.47,0,8.08,4.3,12.73,11.7,12.73a13.64,13.64,0,0,0,11-6S759.76,591.33,766,591.68Zm-16.34-3.61c-4.64,0-7.4-3.44-7.4-8.94,0-9.46,6.36-15.48,12.38-15.48,5.33,0,7.4,3.61,7.57,8.43C762.17,579.81,757.18,588.07,749.62,588.07Z" transform="translate(-135 -232.85)" fill="#6c63ff"/><g opacity="0.5"><path d="M918.64,650.6c15.28,0,22.36-8.2,22.36-19.19,0-19.19-15.47-33-34.66-33a34.85,34.85,0,0,0,0,69.7,34.27,34.27,0,0,0,19.73-6.46,2.63,2.63,0,0,0,1.08-1.73,1.72,1.72,0,0,0-.54-1.61,2.19,2.19,0,0,0-3.18.38c-1.27,1.66-5.06,4.49-16.26,4.74A30.39,30.39,0,0,1,876,633.37c-.06-16.82,13.76-30.1,30.38-30.29s30,11.55,30,28c0,10.44-7.27,15.28-16,15.09-2.8.19-3.35-.93-3-4.85.31-3.21,3.38-16.61,4.47-21.29a2.59,2.59,0,0,0-2.61-3.2l-.19,0a2.58,2.58,0,0,0-2.26,2.27,19.7,19.7,0,0,0-.16,2.27,12,12,0,0,0-10.25-6.15c-9.88.19-18.45,9.13-18.82,22.18,0,8.76,4.66,13.79,12.67,13.79a14.78,14.78,0,0,0,11.93-6.52S911.93,650.23,918.64,650.6Zm-17.7-3.91c-5,0-8-3.73-8-9.69,0-10.25,6.9-16.77,13.42-16.77,5.78,0,8,3.91,8.2,9.13C914.54,637.74,909.13,646.69,900.93,646.69Z" transform="translate(-135 -232.85)" fill="url(#cb024692-e676-4733-81ed-cdcd66700928)"/></g><path d="M917.69,649.26c14.1,0,20.64-7.57,20.64-17.72,0-17.72-14.28-30.44-32-30.44a32.16,32.16,0,0,0,0,64.33,31.63,31.63,0,0,0,18.21-6,2.43,2.43,0,0,0,1-1.59,1.59,1.59,0,0,0-.49-1.48,2,2,0,0,0-2.94.35c-1.17,1.54-4.67,4.14-15,4.38a28,28,0,0,1-28.79-27.76c-.05-15.52,12.7-27.78,28-28S934,616.07,934,631.2c0,9.63-6.71,14.1-14.79,13.93-2.58.17-3.1-.86-2.75-4.47.28-3,3.12-15.33,4.12-19.65a2.39,2.39,0,0,0-2.41-3H918a2.38,2.38,0,0,0-2.08,2.09,18.18,18.18,0,0,0-.15,2.1,11,11,0,0,0-9.46-5.68c-9.12.17-17,8.43-17.37,20.47,0,8.08,4.3,12.73,11.7,12.73a13.64,13.64,0,0,0,11-6S911.5,648.92,917.69,649.26Zm-16.34-3.61c-4.64,0-7.4-3.44-7.4-8.94,0-9.46,6.36-15.48,12.38-15.48,5.33,0,7.4,3.61,7.57,8.43C913.91,637.4,908.92,645.65,901.35,645.65Z" transform="translate(-135 -232.85)" fill="#6c63ff"/><path d="M859.6,548.72c10.07,0,14.74-5.41,14.74-12.65,0-12.65-10.2-21.75-22.85-21.75a23,23,0,0,0,0,45.95,22.59,22.59,0,0,0,13-4.26,1.73,1.73,0,0,0,.71-1.14,1.13,1.13,0,0,0-.35-1.06,1.44,1.44,0,0,0-2.1.25c-.83,1.1-3.33,3-10.72,3.13a19.9,19.9,0,1,1-.54-39.8c10.93-.12,19.78,7.62,19.78,18.43,0,6.88-4.79,10.07-10.57,10-1.84.12-2.21-.61-2-3.19.2-2.12,2.23-10.95,2.94-14a1.71,1.71,0,0,0-1.72-2.11h-.12a1.7,1.7,0,0,0-1.49,1.49,13,13,0,0,0-.1,1.5,7.89,7.89,0,0,0-6.76-4.05c-6.51.12-12.16,6-12.41,14.62,0,5.77,3.07,9.09,8.35,9.09a9.74,9.74,0,0,0,7.86-4.3S855.18,548.47,859.6,548.72Zm-11.67-2.58c-3.32,0-5.28-2.46-5.28-6.39,0-6.76,4.55-11.06,8.85-11.06,3.81,0,5.28,2.58,5.41,6C856.9,540.24,853.34,546.14,847.93,546.14Z" transform="translate(-135 -232.85)" fill="#6c63ff" opacity="0.5"/><path d="M665.82,587.11c10.07,0,14.74-5.41,14.74-12.65,0-12.65-10.2-21.75-22.85-21.75a23,23,0,0,0,0,45.95,22.59,22.59,0,0,0,13-4.26,1.73,1.73,0,0,0,.71-1.14,1.13,1.13,0,0,0-.35-1.06,1.44,1.44,0,0,0-2.1.25c-.83,1.1-3.33,3-10.72,3.13a19.9,19.9,0,1,1-.54-39.8c10.93-.12,19.78,7.62,19.78,18.43,0,6.88-4.79,10.07-10.57,10-1.84.12-2.21-.61-2-3.19.2-2.12,2.23-10.95,2.94-14a1.71,1.71,0,0,0-1.72-2.11h-.12a1.7,1.7,0,0,0-1.49,1.49,13,13,0,0,0-.1,1.5,7.89,7.89,0,0,0-6.76-4.05c-6.51.12-12.16,6-12.41,14.62,0,5.77,3.07,9.09,8.35,9.09a9.74,9.74,0,0,0,7.86-4.3S661.4,586.86,665.82,587.11Zm-11.67-2.58c-3.32,0-5.28-2.46-5.28-6.39,0-6.76,4.55-11.06,8.85-11.06,3.81,0,5.28,2.58,5.41,6C663.12,578.63,659.56,584.53,654.15,584.53Z" transform="translate(-135 -232.85)" fill="#6c63ff" opacity="0.5"/><path d="M642.06,416.18c10.07,0,14.74-5.41,14.74-12.65,0-12.65-10.2-21.75-22.85-21.75a23,23,0,0,0,0,45.95,22.59,22.59,0,0,0,13-4.26,1.73,1.73,0,0,0,.71-1.14,1.13,1.13,0,0,0-.35-1.06,1.44,1.44,0,0,0-2.1.25c-.83,1.1-3.33,3-10.72,3.13a19.9,19.9,0,1,1-.54-39.8c10.93-.12,19.78,7.62,19.78,18.43,0,6.88-4.79,10.07-10.57,10-1.84.12-2.21-.61-2-3.19.2-2.12,2.23-10.95,2.94-14a1.71,1.71,0,0,0-1.72-2.11h-.12a1.7,1.7,0,0,0-1.49,1.49,13,13,0,0,0-.1,1.5,7.89,7.89,0,0,0-6.76-4.05c-6.51.12-12.16,6-12.41,14.62,0,5.77,3.07,9.09,8.35,9.09a9.74,9.74,0,0,0,7.86-4.3S637.64,415.93,642.06,416.18Zm-11.67-2.58c-3.32,0-5.28-2.46-5.28-6.39,0-6.76,4.55-11.06,8.85-11.06,3.81,0,5.28,2.58,5.41,6C639.36,407.7,635.79,413.6,630.39,413.6Z" transform="translate(-135 -232.85)" fill="#6c63ff" opacity="0.5"/><path d="M1026,421.66c10.07,0,14.74-5.41,14.74-12.65,0-12.65-10.2-21.75-22.85-21.75a23,23,0,0,0,0,45.95,22.59,22.59,0,0,0,13-4.26,1.73,1.73,0,0,0,.71-1.14,1.13,1.13,0,0,0-.35-1.06,1.44,1.44,0,0,0-2.1.25c-.83,1.1-3.33,3-10.72,3.13a19.9,19.9,0,1,1-.54-39.8c10.93-.12,19.78,7.62,19.78,18.43,0,6.88-4.79,10.07-10.57,10-1.84.12-2.21-.61-2-3.19.2-2.12,2.23-10.95,2.94-14a1.71,1.71,0,0,0-1.72-2.11h-.12a1.7,1.7,0,0,0-1.49,1.49,13,13,0,0,0-.1,1.5,7.89,7.89,0,0,0-6.76-4.05c-6.51.12-12.16,6-12.41,14.62,0,5.77,3.07,9.09,8.35,9.09a9.74,9.74,0,0,0,7.86-4.3S1021.54,421.42,1026,421.66Zm-11.67-2.58c-3.32,0-5.28-2.46-5.28-6.39,0-6.76,4.55-11.06,8.85-11.06,3.81,0,5.28,2.58,5.41,6C1023.26,413.19,1019.69,419.08,1014.29,419.08Z" transform="translate(-135 -232.85)" fill="#6c63ff" opacity="0.5"/><path d="M661.34,466.91c5.64,0,8.26-3,8.26-7.09,0-7.09-5.71-12.18-12.8-12.18a12.87,12.87,0,0,0,0,25.73,12.65,12.65,0,0,0,7.28-2.38,1,1,0,0,0,.4-.64.63.63,0,0,0-.2-.59.81.81,0,0,0-1.18.14c-.47.61-1.87,1.66-6,1.75a11.15,11.15,0,1,1-.3-22.29c6.12-.07,11.08,4.27,11.08,10.32,0,3.85-2.68,5.64-5.92,5.57-1,.07-1.24-.34-1.1-1.79.11-1.19,1.25-6.13,1.65-7.86a1,1,0,0,0-1-1.18h-.07a1,1,0,0,0-.83.84,7.27,7.27,0,0,0-.06.84,4.42,4.42,0,0,0-3.78-2.27c-3.65.07-6.81,3.37-6.95,8.19,0,3.23,1.72,5.09,4.68,5.09a5.46,5.46,0,0,0,4.4-2.41A2.23,2.23,0,0,0,661.34,466.91Zm-6.54-1.44c-1.86,0-3-1.38-3-3.58,0-3.78,2.55-6.19,5-6.19,2.13,0,3,1.44,3,3.37C659.83,462.16,657.83,465.47,654.81,465.47Z" transform="translate(-135 -232.85)" fill="#6c63ff" opacity="0.3"/><path d="M727.15,520.84c5.64,0,8.26-3,8.26-7.09,0-7.09-5.71-12.18-12.8-12.18a12.87,12.87,0,0,0,0,25.73,12.65,12.65,0,0,0,7.28-2.38,1,1,0,0,0,.4-.64.63.63,0,0,0-.2-.59.81.81,0,0,0-1.18.14c-.47.61-1.87,1.66-6,1.75a11.15,11.15,0,1,1-.3-22.29c6.12-.07,11.08,4.27,11.08,10.32,0,3.85-2.68,5.64-5.92,5.57-1,.07-1.24-.34-1.1-1.79.11-1.19,1.25-6.13,1.65-7.86a1,1,0,0,0-1-1.18h-.07a1,1,0,0,0-.83.84,7.27,7.27,0,0,0-.06.84,4.42,4.42,0,0,0-3.78-2.27c-3.65.07-6.81,3.37-6.95,8.19,0,3.23,1.72,5.09,4.68,5.09a5.46,5.46,0,0,0,4.4-2.41A2.23,2.23,0,0,0,727.15,520.84Zm-6.54-1.44c-1.86,0-3-1.38-3-3.58,0-3.78,2.55-6.19,5-6.19,2.13,0,3,1.44,3,3.37C725.64,516.09,723.65,519.39,720.62,519.39Z" transform="translate(-135 -232.85)" fill="#6c63ff" opacity="0.3"/><path d="M923.67,455c5.64,0,8.26-3,8.26-7.09,0-7.09-5.71-12.18-12.8-12.18a12.87,12.87,0,0,0,0,25.73,12.65,12.65,0,0,0,7.28-2.38,1,1,0,0,0,.4-.64.63.63,0,0,0-.2-.59.81.81,0,0,0-1.18.14c-.47.61-1.87,1.66-6,1.75a11.15,11.15,0,1,1-.3-22.29c6.12-.07,11.08,4.27,11.08,10.32,0,3.85-2.68,5.64-5.92,5.57-1,.07-1.24-.34-1.1-1.79.11-1.19,1.25-6.13,1.65-7.86a1,1,0,0,0-1-1.18h-.07a1,1,0,0,0-.83.84,7.27,7.27,0,0,0-.06.84,4.42,4.42,0,0,0-3.78-2.27c-3.65.07-6.81,3.37-6.95,8.19,0,3.23,1.72,5.09,4.68,5.09a5.46,5.46,0,0,0,4.4-2.41A2.23,2.23,0,0,0,923.67,455Zm-6.54-1.44c-1.86,0-3-1.38-3-3.58,0-3.78,2.55-6.19,5-6.19,2.13,0,3,1.44,3,3.37C922.16,450.28,920.17,453.58,917.14,453.58Z" transform="translate(-135 -232.85)" fill="#6c63ff" opacity="0.3"/><path d="M791.14,398.36c5.64,0,8.26-3,8.26-7.09,0-7.09-5.71-12.18-12.8-12.18a12.87,12.87,0,0,0,0,25.73,12.65,12.65,0,0,0,7.28-2.38,1,1,0,0,0,.4-.64.63.63,0,0,0-.2-.59.81.81,0,0,0-1.18.14c-.47.61-1.87,1.66-6,1.75a11.15,11.15,0,1,1-.3-22.29c6.12-.07,11.08,4.27,11.08,10.32,0,3.85-2.68,5.64-5.92,5.57-1,.07-1.24-.34-1.1-1.79.11-1.19,1.25-6.13,1.65-7.86a1,1,0,0,0-1-1.18h-.07a1,1,0,0,0-.83.84,7.27,7.27,0,0,0-.06.84,4.42,4.42,0,0,0-3.78-2.27c-3.65.07-6.81,3.37-6.95,8.19,0,3.23,1.72,5.09,4.68,5.09a5.46,5.46,0,0,0,4.4-2.41A2.23,2.23,0,0,0,791.14,398.36Zm-6.54-1.44c-1.86,0-3-1.38-3-3.58,0-3.78,2.55-6.19,5-6.19,2.13,0,3,1.44,3,3.37C789.62,393.61,787.63,396.91,784.6,396.91Z" transform="translate(-135 -232.85)" fill="#6c63ff" opacity="0.3"/><path d="M859.6,354.94c10.07,0,14.74-5.41,14.74-12.65,0-12.65-10.2-21.75-22.85-21.75a23,23,0,0,0,0,45.95,22.59,22.59,0,0,0,13-4.26,1.73,1.73,0,0,0,.71-1.14,1.13,1.13,0,0,0-.35-1.06,1.44,1.44,0,0,0-2.1.25c-.83,1.1-3.33,3-10.72,3.13a19.9,19.9,0,1,1-.54-39.8c10.93-.12,19.78,7.62,19.78,18.43,0,6.88-4.79,10.07-10.57,10-1.84.12-2.21-.61-2-3.19.2-2.12,2.23-10.95,2.94-14a1.71,1.71,0,0,0-1.72-2.11h-.12a1.7,1.7,0,0,0-1.49,1.49,13,13,0,0,0-.1,1.5,7.89,7.89,0,0,0-6.76-4.05c-6.51.12-12.16,6-12.41,14.62,0,5.77,3.07,9.09,8.35,9.09a9.74,9.74,0,0,0,7.86-4.3S855.18,354.69,859.6,354.94Zm-11.67-2.58c-3.32,0-5.28-2.46-5.28-6.39,0-6.76,4.55-11.06,8.85-11.06,3.81,0,5.28,2.58,5.41,6C856.9,346.46,853.34,352.36,847.93,352.36Z" transform="translate(-135 -232.85)" fill="#6c63ff" opacity="0.5"/><g opacity="0.5"><path d="M1027.4,561.67c31.16,0,45.6-16.72,45.6-39.14,0-39.14-31.54-67.27-70.69-67.27s-70.69,31.92-70.69,71.07,31.54,71.07,70.69,71.07a69.89,69.89,0,0,0,40.23-13.17,5.37,5.37,0,0,0,2.2-3.52,3.51,3.51,0,0,0-1.09-3.27,4.46,4.46,0,0,0-6.49.77c-2.58,3.39-10.31,9.15-33.16,9.67-34.58.78-63.51-26.75-63.62-61.33-.11-34.3,28.06-61.39,61.95-61.77s61.19,23.56,61.19,57c0,21.28-14.82,31.16-32.68,30.78-5.7.38-6.84-1.9-6.08-9.88.62-6.55,6.89-33.87,9.11-43.43a5.29,5.29,0,0,0-5.32-6.53l-.38,0a5.27,5.27,0,0,0-4.6,4.62,40.18,40.18,0,0,0-.32,4.63c-3.42-6.84-11.4-12.16-20.9-12.54-20.14.38-37.62,18.62-38.38,45.22,0,17.86,9.5,28.12,25.84,28.12,11.4,0,19.76-6.84,24.32-13.3C1014.09,549.51,1013.71,560.91,1027.4,561.67Zm-36.1-8c-10.26,0-16.34-7.6-16.34-19.76,0-20.9,14.06-34.2,27.36-34.2,11.78,0,16.34,8,16.72,18.62C1019,535.44,1008,553.69,991.29,553.69Z" transform="translate(-135 -232.85)" fill="url(#38df677c-957a-4721-8e86-d40d682183d9)"/></g><path d="M1026.51,560.42c30.06,0,44-16.13,44-37.76,0-37.76-30.43-64.89-68.19-64.89s-68.19,30.79-68.19,68.55,30.43,68.55,68.19,68.55a67.42,67.42,0,0,0,38.8-12.7,5.18,5.18,0,0,0,2.12-3.4,3.38,3.38,0,0,0-1.05-3.16,4.3,4.3,0,0,0-6.26.74c-2.49,3.27-9.95,8.83-32,9.33-33.36.76-61.26-25.8-61.37-59.16-.11-33.09,27.06-59.22,59.76-59.59s59,22.73,59,55c0,20.53-14.3,30.06-31.53,29.69-5.5.37-6.6-1.83-5.87-9.53.6-6.32,6.64-32.67,8.78-41.89a5.1,5.1,0,0,0-5.13-6.29l-.37,0a5.08,5.08,0,0,0-4.44,4.46,38.75,38.75,0,0,0-.31,4.47c-3.3-6.6-11-11.73-20.16-12.1-19.43.37-36.29,18-37,43.63,0,17.23,9.16,27.13,24.93,27.13,11,0,19.06-6.6,23.46-12.83C1013.68,548.69,1013.31,559.68,1026.51,560.42Zm-34.83-7.7c-9.9,0-15.76-7.33-15.76-19.06,0-20.16,13.56-33,26.4-33,11.36,0,15.76,7.7,16.13,18C1018.44,535.12,1007.81,552.72,991.68,552.72Z" transform="translate(-135 -232.85)" fill="#6c63ff"/><path d="M499.35,356c.87-4.23,6.45-5.81,10.56-4.48s7.3,4.52,11,6.8,8.66,3.6,12.14,1c3.34-2.44,3.81-7.28,6.45-10.45s7.54-4.29,11.77-3.58,8.07,2.86,11.81,5L586,363.22" transform="translate(-135 -232.85)" fill="none" stroke="#535461" stroke-miterlimit="10" stroke-width="3" opacity="0.2"/><path d="M491.35,381c.87-4.23,6.45-5.81,10.56-4.48s7.3,4.52,11,6.8,8.66,3.6,12.14,1c3.34-2.44,3.81-7.28,6.45-10.45s7.54-4.29,11.77-3.58,8.07,2.86,11.81,5L578,388.22" transform="translate(-135 -232.85)" fill="none" stroke="#535461" stroke-miterlimit="10" stroke-width="3" opacity="0.2"/><path d="M499.35,591c.87,4.23,6.45,5.81,10.56,4.48s7.3-4.52,11-6.8,8.66-3.6,12.14-1c3.34,2.44,3.81,7.28,6.45,10.45s7.54,4.29,11.77,3.58,8.07-2.86,11.81-5L586,583.78" transform="translate(-135 -232.85)" fill="none" stroke="#535461" stroke-miterlimit="10" stroke-width="3" opacity="0.2"/><path d="M491.35,566c.87,4.23,6.45,5.81,10.56,4.48s7.3-4.52,11-6.8,8.66-3.6,12.14-1c3.34,2.44,3.81,7.28,6.45,10.45s7.54,4.29,11.77,3.58,8.07-2.86,11.81-5L578,558.78" transform="translate(-135 -232.85)" fill="none" stroke="#535461" stroke-miterlimit="10" stroke-width="3" opacity="0.2"/><g opacity="0.7"><path d="M296.37,567.28a5.86,5.86,0,0,0-2.45,2.44l-1.26-1.43,0,0c-.18-1.55-4-33.52-11.61-33.7-5.83-.14-12.14-.63-16.37,1h0l-.22-.62-2.26-6.35,6-2.13-.09-.25,4.74-1.68c.68-1-.8-.95-2.37-.7a1.43,1.43,0,0,0,.08-.28l2.75-16.3s.73-3.49-.88-4.46-1.5,4.46-1.5,4.46l-3,11.19s-8.62-4.32-13.78-6.16a7.43,7.43,0,0,0-1.89-.6c-.91-.23-1.55-.29-1.79-.1h0a7.41,7.41,0,0,0-2,.41l-.5.18-.27-.77-.09-.25a8.48,8.48,0,0,0,3.28-6.43,9.53,9.53,0,0,0-2.07-8.07.55.55,0,0,0,.18-.15.81.81,0,0,0,0-.81,5.89,5.89,0,0,0-4.36-3.34,6.29,6.29,0,0,1-2.22-.49c-.57-.33-1-.93-1.59-1.14a2.5,2.5,0,0,0-2.17.58,8.15,8.15,0,0,0-1.83,1.82,10.48,10.48,0,0,1-1.8,2.31c-.55.43-1.23.66-1.79,1.08a3.44,3.44,0,0,0-1.36,2.78,4.49,4.49,0,0,0,.39,1.65,9.47,9.47,0,0,0-.17,2.35l-.11.13.11-.11a9.52,9.52,0,0,0,5.78,8.25,8.48,8.48,0,0,0,4.8,1.36l.09.25.35,1a10,10,0,0,0-2.61,2.34h0l-.17.22,0,0c-.7,1-3,4.34-2,6.77q0,.14.1.29a10.08,10.08,0,0,0,.52,2.27l5.66,15.94.21.58.5,1.41a9.35,9.35,0,0,0,3.83,4.79c3.52.35,11.08,2.66,11.81,2.36l9.41,3.32-5,23s-2.8,4.36.54,4.3a68.41,68.41,0,0,0,9.72-1.49s.38-2.1-1.26-2.36a5.86,5.86,0,0,0-3.37.78l-.28-1.58s14.11-24.66,7.75-29.14c-1.22-.86-2.45-1.75-3.68-2.62l3.3-.84,10.46,27.13.08-.06c0,.6.16,5.12,2.78,3.42a68.41,68.41,0,0,0,7.46-6.4S297.89,566.64,296.37,567.28Zm-29-42.78-6.6.39L259,519.77l9,4.59Z" transform="translate(-135 -232.85)" fill="url(#9cd64173-10f6-4cb0-8058-bf8fe6a2764b)"/></g><circle cx="241.94" cy="503.53" r="9.31" transform="translate(-289.62 -122.79) rotate(-19.56)"/><path d="M259.07,520.09l9.22,4.73a1.39,1.39,0,0,0,2-1L273,507.87h-2.33l-3,10.94s-16.6-7.4-18-6.24S259.07,520.09,259.07,520.09Z" transform="translate(-135 -232.85)" fill="#6c63ff"/><path d="M254.24,578.34" transform="translate(-135 -232.85)" fill="none" stroke="#bdbdbd" stroke-miterlimit="10" stroke-width="5"/><path d="M255,549.25" transform="translate(-135 -232.85)" fill="none" stroke="#bdbdbd" stroke-miterlimit="10" stroke-width="5"/><path d="M251.76,512.8h0a8.77,8.77,0,0,1,8.77,8.77v17.61a0,0,0,0,1,0,0H239.85a0,0,0,0,1,0,0V524.72A11.92,11.92,0,0,1,251.76,512.8Z" transform="translate(-296.67 -118.73) rotate(-19.56)" fill="#6c63ff"/><path d="M268.12,545.55l-8.89,3.16a11.25,11.25,0,0,1-14.37-6.83h0L264.35,535Z" transform="translate(-135 -232.85)" fill="#4d8af0"/><path d="M240.94,525.16l13.9,6.18L268,526.66l-.61-1.71-12.5.74-11.06-6.76c-1.76-1.08-2.1,1.14-2.82,3.07h0C240.36,523.78,239.21,524.39,240.94,525.16Z" transform="translate(-135 -232.85)" opacity="0.05"/><path d="M240.7,524.84l14.05,6.25,13.16-4.68-.61-1.71-12.5.74-10.91-6.67c-1.88-1.15-2.19,1.13-2.89,3.22h0C240.47,523.65,239.11,524.14,240.7,524.84Z" transform="translate(-135 -232.85)" fill="#6c63ff"/><path d="M267.3,524.71s6.51-1.76,5.24.06l-4.63,1.65Z" transform="translate(-135 -232.85)" fill="#fda57d"/><path d="M270.65,507.88s-.1-5.31,1.47-4.36.86,4.36.86,4.36Z" transform="translate(-135 -232.85)" fill="#fda57d"/><polygon points="109.86 309.03 110.06 309.6 129.57 302.71 129.35 302.1 109.86 309.03" opacity="0.05"/><path d="M264,547.77l13.54-3.46,10.23,26.52,4.15-3.2s-3.76-32.83-11.36-33-16-1-19.38,3.31S264,547.77,264,547.77Z" transform="translate(-135 -232.85)" fill="#4d8af0"/><path d="M261.9,539.25s8.49,1.1,10.93,4.9" transform="translate(-135 -232.85)" opacity="0.1"/><path d="M256.87,549.41,270,554.06l-4.92,22.47,5.23-.35s13.8-24.11,7.58-28.49-12.79-9.73-17.95-8S256.87,549.41,256.87,549.41Z" transform="translate(-135 -232.85)" fill="#4d8af0"/><polygon points="128.38 283.92 132.5 287.4 132.68 285.96 128.38 283.92" opacity="0.05"/><path d="M265.13,576.53s-2.74,4.27.53,4.2a66.9,66.9,0,0,0,9.5-1.45s.37-2.05-1.23-2.31a5.73,5.73,0,0,0-3.3.76l-.28-1.55Z" transform="translate(-135 -232.85)" fill="#333"/><path d="M287.87,570.7s0,5.19,2.72,3.41a66.9,66.9,0,0,0,7.29-6.26s-.77-1.94-2.27-1.31a5.73,5.73,0,0,0-2.4,2.39l-1.24-1.4Z" transform="translate(-135 -232.85)" fill="#333"/><rect x="242.97" y="509.07" width="5.17" height="7.76" rx="2.59" ry="2.59" transform="translate(-292.57 -121.03) rotate(-19.56)" fill="#fda57d"/><path d="M244.35,509.54a2.59,2.59,0,0,0-1.57,3.3l.29.83a8.28,8.28,0,0,0,4.87-1.73l-.29-.83A2.59,2.59,0,0,0,244.35,509.54Z" transform="translate(-135 -232.85)" opacity="0.05"/><circle cx="242.79" cy="505.15" r="8.28" transform="translate(-290.12 -122.41) rotate(-19.56)" fill="#fda57d"/><path d="M234.86,507.57a2.9,2.9,0,0,0,2.44-2.8c.31-2.61.73-4.12,5.71-4.41s5.94-.46,5.71-1.77c-.15-.9-2.49-2.38-3.95-3.23a3.06,3.06,0,0,0-2.54-.17L237.15,497l-2.55,2.49-1.6,2.84.48,2.89Z" transform="translate(-135 -232.85)" opacity="0.05"/><path d="M234.78,507.33a2.9,2.9,0,0,0,2.44-2.8c.31-2.61.73-4.12,5.71-4.41s5.94-.46,5.71-1.77c-.15-.9-2.49-2.38-3.95-3.23a3.06,3.06,0,0,0-2.54-.17l-5.09,1.81-2.55,2.49-1.6,2.84.48,2.89Z" transform="translate(-135 -232.85)"/><ellipse cx="235.56" cy="507.03" rx="0.84" ry="1.68" transform="translate(-291.16 -124.72) rotate(-19.56)" fill="#fda57d"/><path d="M233.55,503.16a6.66,6.66,0,0,1-1.12-3.06,3.36,3.36,0,0,1,1.33-2.71c.55-.41,1.21-.64,1.75-1.06a10.25,10.25,0,0,0,1.76-2.26,8,8,0,0,1,1.79-1.78,2.45,2.45,0,0,1,2.13-.56c.61.21,1,.79,1.56,1.12a6.15,6.15,0,0,0,2.17.47,5.76,5.76,0,0,1,4.26,3.26.79.79,0,0,1,0,.79.84.84,0,0,1-.42.24c-3.13,1.06-6.27,2.13-9.47,2.94a23.78,23.78,0,0,0-3,.87,10.07,10.07,0,0,0-3.84,2.72" transform="translate(-135 -232.85)"/></svg>