<svg id="7cb65ff9-83d6-4c27-84bd-175819b7b352" data-name="Layer 1" xmlns="http://www.w3.org/2000/svg" xmlns:xlink="http://www.w3.org/1999/xlink" width="1144" height="774.71" viewBox="0 0 1144 774.71"><defs><linearGradient id="98b21c62-7d99-43a8-afc3-391cbfa317a4" x1="158.36" y1="837.36" x2="158.36" y2="581.62" gradientUnits="userSpaceOnUse"><stop offset="0" stop-color="gray" stop-opacity="0.25"/><stop offset="0.54" stop-color="gray" stop-opacity="0.12"/><stop offset="1" stop-color="gray" stop-opacity="0.1"/></linearGradient><linearGradient id="cac3e8da-e13c-4a6e-8683-059d4d6396e6" x1="-1003.13" y1="469.49" x2="-1003.13" y2="167.61" gradientTransform="matrix(-1, 0, 0, 1, -573.82, 0)" xlink:href="#98b21c62-7d99-43a8-afc3-391cbfa317a4"/><linearGradient id="3d39174d-c81e-4005-9f1d-e2bf56b40b54" x1="980.32" y1="824.83" x2="980.32" y2="557.01" xlink:href="#98b21c62-7d99-43a8-afc3-391cbfa317a4"/></defs><title>group chat</title><path d="M1172,524c0-71.09-30.06-133.88-76-171.64q.95-10.77,1-21.85c0-115.43-79.24-209-177-209-31.18,0-60.47,9.54-85.91,26.25-69.19-53-159.52-85.08-258.34-85.08-160.79,0-299.1,84.93-360.46,206.72-3.41-.23-6.84-.36-10.3-.36-97.74,0-177,93.57-177,209,0,42.44,10.72,81.92,29.12,114.88h0c0,103.85,84.19,188,188,188H998.24a147.64,147.64,0,0,0,147.64-147.64h0C1162.44,601.48,1172,564,1172,524Z" transform="translate(-28 -62.64)" fill="#4285f4" opacity="0.1"/><path d="M679.52,727.27s-12.29-8.11-24.47-2.34c0,0,3.75,7.23,19.17,6.54Z" transform="translate(-28 -62.64)" fill="#4285f4"/><path d="M681,727.7s3.74,14.25-5.64,23.93c0,0-5.64-5.87,0-20.25Z" transform="translate(-28 -62.64)" fill="#4285f4"/><path d="M696.35,714s-.9-12.11-28.25-8.09c0,0-.13,7.81,9.47,11.52S691.56,718,696.35,714Z" transform="translate(-28 -62.64)" fill="#4285f4"/><path d="M698,714s11.56,3.72,1.25,29.36c0,0-7.63-1.7-9-11.9S693,717.67,698,714Z" transform="translate(-28 -62.64)" fill="#4285f4"/><path d="M713.52,696.77s1.56-19.93-26.38-17.88c0,0-2,18,21.45,22.67Z" transform="translate(-28 -62.64)" fill="#4285f4"/><path d="M732,674.27s-3.83-22.58-31.77-15.85c0,0-.1,19.52,27.21,21.23Z" transform="translate(-28 -62.64)" fill="#4285f4"/><path d="M745.48,651s-6.41-22-34.09-15.41c0,0,6.59,19.78,32.26,19.47Z" transform="translate(-28 -62.64)" fill="#4285f4"/><path d="M758.31,628.3s-6.28-22.84-33-16c0,0,8.91,21.69,31.23,19.86Z" transform="translate(-28 -62.64)" fill="#4285f4"/><path d="M766.57,606.72s-4.82-27.93-29.74-21.75c0,0,7.24,25.4,27.91,25.81Z" transform="translate(-28 -62.64)" fill="#4285f4"/><path d="M774.32,580.64s-5.79-28.14-31-20c0,0,9.89,26.6,29.22,23.85Z" transform="translate(-28 -62.64)" fill="#4285f4"/><path d="M779.12,556.38s-9.19-28.14-28.68-27.38c0,0,9.39,29.72,27,33Z" transform="translate(-28 -62.64)" fill="#4285f4"/><path d="M782.16,532.7s-10-33.88-25.86-31.26c0,0,6.92,25.89,25.3,36.54Z" transform="translate(-28 -62.64)" fill="#4285f4"/><path d="M783.89,504.42s-9.37-28.23-25-29.35c0,0,6.38,27.77,24.69,36.69Z" transform="translate(-28 -62.64)" fill="#4285f4"/><path d="M785.79,478.09s-11.69-28.26-22-28.9c0,0,5.08,27.83,21,33.54Z" transform="translate(-28 -62.64)" fill="#4285f4"/><path d="M787.09,453.57s-7.19-30.69-17.53-33.24c0,0,1.42,25.11,16.49,35.54Z" transform="translate(-28 -62.64)" fill="#4285f4"/><path d="M791,421.49S783.42,397,775.05,393.3c0,0,1.65,28.84,14,34.17Z" transform="translate(-28 -62.64)" fill="#4285f4"/><path d="M794.21,400.41l1.52-43.14s-15.62,32.56-2.67,50.75Z" transform="translate(-28 -62.64)" fill="#4285f4"/><path d="M806.29,357.54s11.27-31.5,14-33.25c0,0-22.09,20.43-19.94,46.72Z" transform="translate(-28 -62.64)" fill="#4285f4"/><path d="M714.28,696.62S734.1,694,733.51,722c0,0-17.91,2.92-23.76-20.24Z" transform="translate(-28 -62.64)" fill="#4285f4"/><path d="M732.93,673.52s22.9-.08,21,28.59c0,0-19.22,3.44-25.56-23.18Z" transform="translate(-28 -62.64)" fill="#4285f4"/><path d="M745.71,652.87s20.79-9.75,34.09,15.41c0,0-19.2,8.13-35.93-11.35Z" transform="translate(-28 -62.64)" fill="#4285f4"/><path d="M758.77,628.51s21.29-10.38,33.79,14.21c0,0-22.18,7.63-35.55-10.33Z" transform="translate(-28 -62.64)" fill="#4285f4"/><path d="M766.3,607.32s20.49-19.57,36.84.22c0,0-20.93,16.11-37.78,4.14Z" transform="translate(-28 -62.64)" fill="#4285f4"/><path d="M773.16,580s20.61-20,36.83.93c0,0-23.14,16.42-37.57,3.28Z" transform="translate(-28 -62.64)" fill="#4285f4"/><path d="M777,555.58s15.88-25,34.58-19.41c0,0-16.48,26.46-34.4,25.28Z" transform="translate(-28 -62.64)" fill="#4285f4"/><path d="M781.69,532.55s16-31.49,31.14-26c0,0-11.54,24.19-31.55,31.31Z" transform="translate(-28 -62.64)" fill="#4285f4"/><path d="M782.79,502.82s16.46-24.79,31.86-21.76c0,0-13.44,25.13-33.45,28.93Z" transform="translate(-28 -62.64)" fill="#4285f4"/><path d="M784.05,477.54s12.75-27.8,23.11-28.05c0,0-6.12,27.62-22.25,32.72Z" transform="translate(-28 -62.64)" fill="#4285f4"/><path d="M786.58,453s14.17-28.16,24.81-28.22c0,0-7.25,24.08-24.34,30.7Z" transform="translate(-28 -62.64)" fill="#4285f4"/><path d="M788.71,423.22s10.6-23.31,19.37-26c0,0-5.3,28.4-18.21,32.13Z" transform="translate(-28 -62.64)" fill="#4285f4"/><path d="M795.47,399.6l23.69-36.09s-6.07,35.6-27.15,43Z" transform="translate(-28 -62.64)" fill="#4285f4"/><path d="M811.73,360.44s27.53-19,28.53-22.07c0,0-14,26.62-40,31.32Z" transform="translate(-28 -62.64)" fill="#4285f4"/><path d="M813.38,351.9s31.61-30.39,39.68-30.36c0,0-26.07,1.2-40.44,28.74Z" transform="translate(-28 -62.64)" fill="#4285f4"/><path d="M789,427.73l1.16.14c5.94-46.49,14.6-74,24.38-77.37l-.38-1.1C803.8,353,795.1,380.09,789,427.73Z" transform="translate(-28 -62.64)" fill="#444053"/><path d="M780.28,538.9l1.74.15c.37-4.35.65-8.79.84-13.21,1.66-38.49,4.23-73.82,7.61-100.32l-1-1.24c-3.39,26.54-6.68,63-8.34,101.48C780.93,530.16,780.65,534.58,780.28,538.9Z" transform="translate(-28 -62.64)" fill="#444053"/><path d="M647.06,749.4c.3-.13,30.93-13.81,62.72-46.43a252.22,252.22,0,0,0,45.85-65c14.7-29.92,23.66-66.71,26.66-102.44l-1.81.86c-6.75,80.19-43.26,135-72.29,164.84-31.48,32.34-61.77,45.87-62.07,46Z" transform="translate(-28 -62.64)" fill="#444053"/><path d="M695.27,166.91v98.18c0,5.18-5,9.4-11.17,9.4H447.7c-6.17,0-11.17-4.22-11.17-9.4V166.91c0-5.19,5-10.48,11.17-10.48H684.1C690.28,156.43,695.27,161.72,695.27,166.91Z" transform="translate(-28 -62.64)" fill="#fff"/><path d="M695.27,167.59V195H436.53v-27.4a11.16,11.16,0,0,1,11.17-11.16H684.1A11.15,11.15,0,0,1,695.27,167.59Z" transform="translate(-28 -62.64)" fill="#4285f4" opacity="0.2"/><circle cx="422.72" cy="113.06" r="7.47" fill="#fff"/><circle cx="444.45" cy="113.06" r="7.47" fill="#fff"/><circle cx="466.18" cy="113.06" r="7.47" fill="#fff"/><circle cx="459.79" cy="171.46" r="29.2" fill="#4285f4" opacity="0.2"/><rect x="522.08" y="151.81" width="123.14" height="4.35" fill="#4285f4"/><rect x="522.08" y="162.41" width="123.14" height="4.35" fill="#4285f4" opacity="0.2"/><rect x="522.08" y="173" width="123.14" height="4.35" fill="#4285f4" opacity="0.2"/><rect x="522.08" y="183.59" width="123.14" height="4.35" fill="#4285f4" opacity="0.2"/><path d="M991.59,109.14V283.38c0,5.18-5,9.4-11.17,9.4H744c-6.17,0-11.17-4.22-11.17-9.4V109.14c0-5.19,5-10.48,11.17-10.48H980.42C986.59,98.66,991.59,104,991.59,109.14Z" transform="translate(-28 -62.64)" fill="#fff"/><path d="M991.59,109.83v27.39H732.84V109.83A11.17,11.17,0,0,1,744,98.66H980.42A11.17,11.17,0,0,1,991.59,109.83Z" transform="translate(-28 -62.64)" fill="#4285f4" opacity="0.2"/><circle cx="719.03" cy="55.29" r="7.47" fill="#fff"/><circle cx="740.76" cy="55.29" r="7.47" fill="#fff"/><circle cx="762.49" cy="55.29" r="7.47" fill="#fff"/><circle cx="756.1" cy="113.69" r="29.2" fill="#4285f4" opacity="0.2"/><rect x="818.39" y="94.05" width="123.14" height="4.35" fill="#4285f4"/><rect x="818.39" y="104.64" width="123.14" height="4.35" fill="#4285f4" opacity="0.2"/><rect x="818.39" y="115.23" width="123.14" height="4.35" fill="#4285f4" opacity="0.2"/><rect x="818.39" y="125.83" width="123.14" height="4.35" fill="#4285f4" opacity="0.2"/><circle cx="756.1" cy="182.01" r="29.2" fill="#4285f4" opacity="0.2"/><rect x="818.39" y="162.36" width="123.14" height="4.35" fill="#4285f4"/><rect x="818.39" y="172.96" width="123.14" height="4.35" fill="#4285f4" opacity="0.2"/><rect x="818.39" y="183.55" width="123.14" height="4.35" fill="#4285f4" opacity="0.2"/><rect x="818.39" y="194.14" width="123.14" height="4.35" fill="#4285f4" opacity="0.2"/><path d="M657.68,364.76V742.55c0,11.23-10.84,20.37-24.22,20.37H120.89c-13.38,0-24.22-9.14-24.22-20.37V364.76c0-11.25,10.84-22.72,24.22-22.72H633.46C646.84,342,657.68,353.51,657.68,364.76Z" transform="translate(-28 -62.64)" fill="#fff"/><path d="M657.68,366.26v59.38h-561V366.26A24.21,24.21,0,0,1,120.89,342H633.46A24.21,24.21,0,0,1,657.68,366.26Z" transform="translate(-28 -62.64)" fill="#4285f4" opacity="0.2"/><circle cx="99.44" cy="321.2" r="16.19" fill="#fff"/><circle cx="146.56" cy="321.2" r="16.19" fill="#fff"/><circle cx="193.67" cy="321.2" r="16.19" fill="#fff"/><path d="M486.24,628a16.15,16.15,0,0,1,2.2-8.13,23.43,23.43,0,0,1,1.4-2.07,108,108,0,0,0,18.41-60.22c.2-61.49-51.69-111.38-115.84-111.38-56,0-102.64,38.08-113.58,88.63a107.28,107.28,0,0,0-2.47,22.81c0,61.56,49.89,112.78,114.05,112.78,10.2,0,23.94-3.07,31.47-5.13s15-4.81,16.94-5.54a17.75,17.75,0,0,1,6.21-1.13,17.27,17.27,0,0,1,6.73,1.33l37.82,13.41a9.09,9.09,0,0,0,2.6.66,5.3,5.3,0,0,0,5.33-5.33,8.59,8.59,0,0,0-.33-1.8Z" transform="translate(-28 -62.64)" fill="#4285f4"/><path d="M411.21,676c-2.4.66-5.47,1.4-8.8,2.13-7,1.47-15.94,3-22.68,3-64.15,0-114-51.22-114-112.78a126.93,126.93,0,0,1,1-14.27c.4-2.87.87-5.73,1.53-8.53.67-3,1.47-6,2.34-8.94l-5.34,4.73A99.28,99.28,0,0,0,230.81,616a98.16,98.16,0,0,0,16.54,54.69c1.53,2.34,2.4,4.14,2.13,5.34s-7.93,41.35-7.93,41.35a5.34,5.34,0,0,0,1.8,5.13,5.43,5.43,0,0,0,3.4,1.2,4.7,4.7,0,0,0,1.93-.4l37.42-14.74a10.42,10.42,0,0,1,8,.14,112.36,112.36,0,0,0,40.48,8,104.76,104.76,0,0,0,80.1-36.75s2.14-2.93,4.6-6.4c-2.46.87-5.27,1.73-8.07,2.47Z" transform="translate(-28 -62.64)" fill="#4285f4"/><path d="M232.78,762.23S217.13,766,210.93,773.1a21.25,21.25,0,0,1-8.34,5.3V767.68c3.58-6,7.2-12.7,7.2-12.7.16-.33,1.46-4.94,1.46-4.94,2.94-2.31-.16-10.38-.16-10.38s1.79-5.11.82-6.1-.17-3.62.65-4.77a6,6,0,0,0,.65-3.63c0-1-1.3-2.47-3.42-3.29s.16-2.14,1.46-2.47,1.63-3.46.17-5.11.16-2.63,1-4.45-2.6-1.48-2.6-1.48V691.73h0s-1-5.44-2-15-4.73-10.54-4.73-10.54a42.37,42.37,0,0,1-5.87-2.31,40.63,40.63,0,0,0-6.2-2.3,31.66,31.66,0,0,1-8-1.11,24.65,24.65,0,0,0-5.46-1.18L177,659a21.4,21.4,0,0,1-9.9-10.49c-.1-.22-.19-.45-.28-.67a23.94,23.94,0,0,0,2.61-3.46v0c0,.17,0,.34,0,.51v.21c0,.41,0,.81,0,1.22h0v0c2.61-4.6,10.15-5.65,10.87-10.89a5.81,5.81,0,0,0,.05-.72v0c0-.18,0-.36,0-.53-.1-1.47-.6-2.93-.7-4.41a9,9,0,0,1,0-1.27v0c.33-4.07,3.41-7.61,4.81-11.57a14.46,14.46,0,0,0,.74-3.3v0c0-.34.06-.68.07-1a2.09,2.09,0,0,1,0-.25c0-.24,0-.48,0-.71a15.44,15.44,0,0,0-5.09-11.14c-2.6-2.26-6-3.68-7.84-6.63-.84-1.37-1.25-3-2.17-4.32-1.72-2.49-4.89-3.51-7.88-3.87s-6.08-.24-8.95-1.19c-2-.66-3.88-1.84-5.93-2.44a11.34,11.34,0,0,0-12.19,4.4c-1.08,1.58-1.79,3.47-3.25,4.7-3,2.52-8.06,1.43-10.68,4.34-1.44,1.6-1.6,3.78-1.43,6v.08c0,.17,0,.35,0,.52s0,.16,0,.24l0,.26c.09.8.21,1.59.31,2.36,0,.12,0,.24,0,.35s.06.48.08.72,0,.35,0,.52,0,.43,0,.65,0,.34,0,.51a35,35,0,0,1-3.74,17.56c-2.46,4.85-6.13,9.31-6.77,14.72a14.9,14.9,0,0,0-.07,2.67c0,.1,0,.21,0,.31s0,.32,0,.48l.06.55c0,.11,0,.21,0,.32s.07.48.11.73l0,.15c.65,3.69,2.12,7.33,2.9,11a30.61,30.61,0,0,1,.58,4.16v0c0,.45,0,.89.06,1.34s0,1.21,0,1.81a30.19,30.19,0,0,1-3.81,1.17c-2.28.33-9,6.26-8.48,7.74s-3,11.88-3.09,12.18h0l-5.5,37.89s-2.91,2.8-2,4.61-.17,4.94-.17,4.94-4.91,2.14-3.82,3.46.59,3.79-.16,5.44-2,4.61,0,5.1.34,6.92.34,6.92,6.88-.79,6.38,3.3c-.16,1.3,4.81,4.88,6.89,6.31v19.68a59.65,59.65,0,0,1-8.16-2.77c-4.24-2-28.05-5.76-33.27,5.6s7.18,26.52,10.28,28.17a21.3,21.3,0,0,1,3.58,3.46c.66,1.15,4.41,1.48,4.41,1.48s3.91,1.82,4.89,2.8c.72.73,6.68,2.63,13.76,4.1h0s-5.7,13.14,3.61,12.06,13.85-5.67,20.42-5.67c2.62,0,7.49-.36,12.4-.8a31.72,31.72,0,0,1,3.65.86,47.24,47.24,0,0,0,8.48,1.81s7.34,4,11.25,3a2.57,2.57,0,0,0,.89-.47l.09,0a5.27,5.27,0,0,0,2.36-2c4.9.5,10.48,1.21,12.58,2,4.06,1.57,33.07-.6,33.07-.6s18.75.37,24.12,2,3.46-16.58-6.45-18.63a39.9,39.9,0,0,0-8.06-.71,18.59,18.59,0,0,0,1.87-2.28c3.57-.33,5.92-.53,5.92-.53s9.46-4.61,14.84-7.41a34,34,0,0,0,9.14-7.25s4.73-3,6.68-4.11,2.94-5,2.94-5C270.46,757.78,232.78,762.23,232.78,762.23Zm-42.47-42.16v-1.66C190.83,718.79,190.76,719.38,190.31,720.07Zm.15,11.65c.4.52.78,1,1.06,1.35,1,1.35-.86,2-.72,4.28,0,.51.08,1.21.12,2h0C190.72,736.1,190.56,733.4,190.46,731.72Z" transform="translate(-28 -62.64)" fill="url(#98b21c62-7d99-43a8-afc3-391cbfa317a4)"/><path d="M105.56,783.71s-9.14-2.12-13.38-4.08-28.05-5.71-33.27,5.55,7.18,26.26,10.28,27.89,33.27-20.72,33.27-20.72l23.81,10,4.57-15.58Z" transform="translate(-28 -62.64)" fill="#65617d"/><rect x="87.63" y="724.16" width="103.62" height="36.05" rx="16.59" ry="16.59" fill="#65617d"/><path d="M219.25,804.83a18,18,0,0,1-18,18H133.65a18,18,0,0,1,0-36.05h67.57a18,18,0,0,1,18,18Z" transform="translate(-28 -62.64)" opacity="0.1"/><path d="M162.83,805.88s-10.39,2.67-18.87,2.55-48.14,16.36-48.14,16.36-5.7,13,3.61,11.94,13.85-5.61,20.42-5.61,27.22-2.27,27.22-2.27L167,814.16Z" transform="translate(-28 -62.64)" fill="#fbbebe"/><path d="M169.33,683.07l-18.63,3.68-1.21.24s-14.74-3.92-15.23-4.25-13.86-18.35-13.86-18.35,6.76.08,12.08-3a6.42,6.42,0,0,0,.56-.34,11.75,11.75,0,0,0,5-6.15c.09-.27.18-.55.26-.84a16.64,16.64,0,0,0-.16-8c-1.8-7.6,2.37-9.69,7.94-9.51,8,.26,19,5.28,19,5.28a22.24,22.24,0,0,0,1.72,7.43c.09.23.19.45.28.67a21.27,21.27,0,0,0,9.9,10.38l.59.29a19.83,19.83,0,0,0,1.87.8C193.64,666.76,169.33,683.07,169.33,683.07Z" transform="translate(-28 -62.64)" fill="#fbbebe"/><path d="M167.09,649.91a23.49,23.49,0,0,1-29,5,15.8,15.8,0,0,0,.1-8.87c-4.4-18.59,26.91-4.23,26.91-4.23A22.71,22.71,0,0,0,167.09,649.91Z" transform="translate(-28 -62.64)" opacity="0.1"/><path d="M173,633.39a23.49,23.49,0,0,1-22.06,23.44c-.47,0-.95,0-1.42,0A23.49,23.49,0,1,1,173,633.39Z" transform="translate(-28 -62.64)" fill="#fbbebe"/><path d="M169.33,683.07l-18.63,3.68-1.21.24s-14.74-3.92-15.23-4.25-13.86-18.35-13.86-18.35,6.76.08,12.08-3a6.42,6.42,0,0,0,.56-.34,21.9,21.9,0,0,0,15.9,7,22.94,22.94,0,0,0,3.32-.27c2.62-.4,5.26-.66,7.9-.93,5.05-.53,12.78-2.06,16.83-6.53l.59.29a19.83,19.83,0,0,0,1.87.8C193.64,666.76,169.33,683.07,169.33,683.07Z" transform="translate(-28 -62.64)" opacity="0.1"/><path d="M190.38,730.7c.16,3.59,2.77,44,2.77,44H111.76l.55-25.47.44-20.37.15-6.68.65-23.16L111.2,697l-12.82-11.3h0c.1-.31,3.57-10.62,3.09-12.07s6.2-7.34,8.48-7.66a30.21,30.21,0,0,0,3.83-1.17c3.85-1.35,9-3.34,9.55-3,.8.43,8.8-.31,9.14-.35h0A21.8,21.8,0,0,0,148.94,669a21.56,21.56,0,0,0,3.32-.26c2.62-.4,5.26-.66,7.9-.93,5.3-.56,13.55-2.22,17.42-7.22a24.88,24.88,0,0,1,5.46,1.17,31.93,31.93,0,0,0,8,1.1,40.7,40.7,0,0,1,6.2,2.28,43.13,43.13,0,0,0,5.87,2.28s3.75,1,4.73,10.44,2,14.85,2,14.85l-19.41,16.8S190.21,727.11,190.38,730.7Z" transform="translate(-28 -62.64)" fill="#4285f4"/><polygon points="70.38 696.27 73.23 700.84 83.92 704.61 91.26 691.22 84.49 686.65 73.64 682.41 67.45 686 70.38 696.27" fill="#fbbebe"/><path d="M189.56,781.43s15.17-1.15,21.37-8.16,21.85-10.76,21.85-10.76,37.68-4.41,22.84,28.87c0,0-1,3.75-2.94,4.89s-6.68,4.08-6.68,4.08l-57.9-5.06Z" transform="translate(-28 -62.64)" fill="#65617d"/><path d="M219.25,804.83a18,18,0,0,1-3,10c-9.74.87-31.31,2.9-35.82,4.15-5.55,1.54-16.77-1.14-18-1.44l-.11,0s-2.16-6.56-3.19-10.76c-.47-1.9-.7-3.32-.4-3.43,1-.32,10-2.77,9.79-1.39s26.91-10.52,26.91-10.52l.83,10.44C199,805,219.25,800.3,219.25,804.83Z" transform="translate(-28 -62.64)" opacity="0.1"/><path d="M247.14,796.11,246,800.35a33.9,33.9,0,0,1-9.14,7.17c-5.38,2.78-14.84,7.34-14.84,7.34s-34.74,2.94-40.62,4.57S163.3,818,163.3,818s-4.57-13.86-3.59-14.19,9.95-2.77,9.79-1.38,26.91-10.52,26.91-10.52Z" transform="translate(-28 -62.64)" fill="#65617d"/><path d="M150.41,832.67s17.08,1.2,21.14,2.75,33.07-.6,33.07-.6,18.75.37,24.12,2,3.46-16.42-6.45-18.45-23.88,1-23.88,1L180.74,817c-1.91-.24-14.5.12-14.5.12Z" transform="translate(-28 -62.64)" fill="#fbbebe"/><path d="M83.31,787.66s22.57,2,28.77,5.73Z" transform="translate(-28 -62.64)" opacity="0.1"/><path d="M224.08,772.85s-17.67,4.3-24.59,10.63Z" transform="translate(-28 -62.64)" opacity="0.1"/><path d="M84.62,782.52c.36.12,10.39,1.44,10.15,2.39S84.62,782.52,84.62,782.52Z" transform="translate(-28 -62.64)" opacity="0.1"/><path d="M68.86,807.69l1.3,4.89s2.94,2.28,3.59,3.43,4.41,1.46,4.41,1.46,3.91,1.8,4.89,2.78,11.58,4.07,21.53,5.38,28.38,3.75,32.3,5a46.76,46.76,0,0,0,8.48,1.8s7.34,3.91,11.25,2.93,10.6-18.75,10.6-18.75-25.77-6-26.58-8S115,797.58,115,797.58l-14.68.35Z" transform="translate(-28 -62.64)" opacity="0.1"/><path d="M67.88,808.18l1.31,4.89a21.06,21.06,0,0,1,3.58,3.42c.66,1.15,4.41,1.47,4.41,1.47s3.91,1.8,4.89,2.78,11.58,4.07,21.53,5.38,28.38,3.75,32.3,5a46.76,46.76,0,0,0,8.48,1.8s7.34,3.91,11.25,2.93,10.61-18.75,10.61-18.75-25.78-6-26.59-8-37.19-16.8-37.19-16.8L91,789.74Z" transform="translate(-28 -62.64)" fill="#65617d"/><path d="M101.23,684.05l-2.85,1.63-5.5,37.52s-2.91,2.77-2,4.56-.17,4.9-.17,4.9-4.91,2.12-3.82,3.42.59,3.75-.16,5.38-2,4.57,0,5.06.34,6.85.34,6.85,6.88-.78,6.38,3.26c-.21,1.63,7.78,6.85,7.78,6.85S92.15,747,112.49,749.29l1.75-9.28s1.75-5.23,0-6.86.4-9.38.4-9.38l.38-33.68Z" transform="translate(-28 -62.64)" fill="#4285f4"/><path d="M96.8,732.5c.36.59,11.34,1.81,12.06,3.77S96.8,732.5,96.8,732.5Z" transform="translate(-28 -62.64)" opacity="0.1"/><path d="M93.34,741.81s1.49-4.66,5-3.82S93.34,741.81,93.34,741.81Z" transform="translate(-28 -62.64)" opacity="0.1"/><path d="M91.43,748.61s2.63-6.2,6.21-5.73S91.43,748.61,91.43,748.61Z" transform="translate(-28 -62.64)" opacity="0.1"/><path d="M210.93,748.48l-1.14,6.85S198,776.86,195.92,777.19s-13.7-14.36-13.7-14.36l-3.1-14.35,12.2-2.31,5.42-5.36S210.44,742.12,210.93,748.48Z" transform="translate(-28 -62.64)" fill="#fbbebe"/><path d="M205.38,689.6l4.41,3.1v16.47s3.42-.33,2.6,1.47-2.44,2.77-1,4.4,1.14,4.73-.17,5.06-3.59,1.63-1.46,2.44,3.42,2.29,3.42,3.27a5.88,5.88,0,0,1-.65,3.58c-.82,1.15-1.63,3.76-.65,4.73s-.82,6-.82,6,3.1,8,.16,10.28c0,0-1.3,4.56-1.46,4.89,0,0,2.05-15.88-18.47-9.16l-.52-8.3c-.14-2.24,1.77-2.9.72-4.23s-3.7-4.41-2.45-5.22.82-2.29.33-3.43-2.22-1.14-.66-2.53,2.49-2.69,1.57-3.34-2.51-2.78-1.24-3.75,1.31-15.17,1.31-15.17S195.59,679.32,205.38,689.6Z" transform="translate(-28 -62.64)" fill="#4285f4"/><path d="M203.31,717.66s6.27-1.7,6.48,0S203.31,717.66,203.31,717.66Z" transform="translate(-28 -62.64)" opacity="0.1"/><path d="M196.26,722.35s8.6-2.15,9.67-.48S196.26,722.35,196.26,722.35Z" transform="translate(-28 -62.64)" opacity="0.1"/><path d="M194.35,726.88s12.9-1.79,13.73.84S194.35,726.88,194.35,726.88Z" transform="translate(-28 -62.64)" opacity="0.1"/><path d="M196.26,732.5c.48.11,12.42,1,12.66,3.22S196.26,732.5,196.26,732.5Z" transform="translate(-28 -62.64)" opacity="0.1"/><rect x="72.34" y="677.2" width="102.25" height="58.08" rx="10.47" ry="10.47" fill="#3f3d56"/><circle cx="123.47" cy="706.24" r="3.77" fill="#e7effd"/><path d="M117.47,704.25s9.8,7.49,17.37,1.78C134.84,706,122,707.2,117.47,704.25Z" transform="translate(-28 -62.64)" opacity="0.1"/><path d="M167.09,706.27s9.8,7.49,17.38,1.78C184.47,708.05,171.66,709.21,167.09,706.27Z" transform="translate(-28 -62.64)" opacity="0.1"/><path d="M173,633.39a23.42,23.42,0,0,1-3.55,12.43,35.86,35.86,0,0,0-5.3-18.55c-3.26-5-13.16-13.78-20-11.33a4.86,4.86,0,0,0-3,3.2c-.67,2.56,1.31,3.63,2.57,5.67a17.39,17.39,0,0,1,2.38,11.72,14.58,14.58,0,0,1-.35,1.62c-1.07,4-3.52,8.63-1,11.93,1.77,2.3,5.56,3.09,6.08,5.95a3.62,3.62,0,0,1,0,.8c-.12,1.92-1.76,3.62-2.47,5.5-.85,2.23-.37,4.43.5,6.66,1.13,2.92,2.94,5.86,3.38,8.93s-.51,5.93-1.62,8.83a39.26,39.26,0,0,0-2.7,8.3c-.78,5.42,1.2,11.69-2.21,16a2.34,2.34,0,0,1-1.49,1c-2.19.23-1.81-3.69-3.57-5,.18,2.29.36,4.67-.47,6.81s-3,3.94-5.25,3.59c-.26-1.71-.52-3.42-.77-5.13a14.93,14.93,0,0,1-5.44,3.4,39.72,39.72,0,0,1,5.67-15.35c-5.74,2.77-9.09,8.75-12.08,14.38-1.87,3.52-3.79,7.37-3.14,11.3.26,1.6,1,3.12,1.1,4.73s-.43,3.5-1.93,4.11a3.51,3.51,0,0,1-3.79-1.17l-.16-.2-.26-.36a5.93,5.93,0,0,1-.43-.78,14.68,14.68,0,0,1-.92-3l-.11-.44c-1.51-6.67-2.88-13.54-1.77-20.29.41-2.48,1.16-4.94,1.07-7.46a13.7,13.7,0,0,0-.85-4.17c-1.33-3.73-3.9-7.16-5.36-10.91a.32.32,0,0,1,0-.09c-.77-2-1.15-4.47.27-6.07a12.16,12.16,0,0,1,2.72-1.84c2.84-1.85,4.12-5.36,4.63-8.71a29.35,29.35,0,0,0,.36-4.58c3.85-1.35,9-3.34,9.55-3,.8.43,8.8-.31,9.14-.35a11.92,11.92,0,0,0,5.6-6.49c.09-.27.18-.55.26-.84A23.49,23.49,0,1,1,173,633.39Z" transform="translate(-28 -62.64)" opacity="0.1"/><path d="M145.77,637.17c-1.07,4-3.52,8.63-1,11.93,1.77,2.3,5.56,3.09,6.08,5.95.4,2.26-1.61,4.16-2.42,6.31-1.94,5.12,3.11,10.16,3.87,15.58.84,5.89-3.45,11.25-4.31,17.13-.78,5.42,1.2,11.69-2.21,16a2.39,2.39,0,0,1-1.49,1c-2.19.23-1.82-3.7-3.57-5,.19,2.28.36,4.66-.47,6.8s-3,3.95-5.25,3.59l-.77-5.13a14.93,14.93,0,0,1-5.44,3.4,39.77,39.77,0,0,1,5.67-15.35c-5.74,2.77-9.09,8.75-12.08,14.38-1.87,3.52-3.79,7.37-3.14,11.29.26,1.61,1,3.13,1.1,4.74s-.43,3.5-1.93,4.11a3.57,3.57,0,0,1-4-1.36,10.26,10.26,0,0,1-1.61-4.15c-1.56-6.8-3-13.83-1.88-20.73.41-2.48,1.16-4.94,1.07-7.46-.2-5.51-4.26-10-6.25-15.16-.77-2-1.14-4.48.28-6.08a12.33,12.33,0,0,1,2.73-1.84c2.83-1.85,4.11-5.36,4.63-8.71a30.21,30.21,0,0,0-.31-10.89c-1.15-5.37-3.77-10.6-3.12-16s4.31-9.77,6.77-14.57a34.43,34.43,0,0,0,3.5-20.15c-.43-3.21-1.17-6.94,1-9.34,2.62-2.88,7.69-1.8,10.68-4.3,1.46-1.22,2.17-3.09,3.25-4.66a11.41,11.41,0,0,1,12.19-4.35c2.05.59,3.9,1.76,5.93,2.42,2.87.93,5.95.81,8.95,1.17s6.16,1.37,7.88,3.84c.92,1.31,1.33,2.92,2.17,4.28,1.8,2.92,5.24,4.32,7.84,6.56a15.23,15.23,0,0,1,4.28,16.25c-1.55,4.33-5.14,8.15-4.84,12.73.13,1.89.93,3.73.67,5.6-.72,5.2-8.26,6.23-10.87,10.79.21-7.47-1.22-15.16-5.3-21.41-3.26-5-13.16-13.78-20-11.34a4.86,4.86,0,0,0-3,3.2c-.67,2.56,1.3,3.63,2.57,5.67A17.26,17.26,0,0,1,145.77,637.17Z" transform="translate(-28 -62.64)" fill="#3f3d56"/><g opacity="0.2"><path d="M113.78,663a30.34,30.34,0,0,0-.65-7c-1-4.56-3-9-3.2-13.61-.26,5.1,2.12,10,3.2,15.08A30,30,0,0,1,113.78,663Z" transform="translate(-28 -62.64)"/><path d="M133.22,700.07c.4-.73.81-1.45,1.25-2.15-5.74,2.76-9.09,8.75-12.08,14.38-1.73,3.25-3.5,6.79-3.24,10.42.22-3.11,1.75-6.14,3.24-9C125.16,708.56,128.23,703.05,133.22,700.07Z" transform="translate(-28 -62.64)"/><path d="M120.33,729.57a3.49,3.49,0,0,1-1.91,2.87,3.58,3.58,0,0,1-4-1.37,10.42,10.42,0,0,1-1.61-4.14,74.13,74.13,0,0,1-2.27-14.81c-.11,5.44,1,10.93,2.27,16.28a10.42,10.42,0,0,0,1.61,4.14,3.56,3.56,0,0,0,4,1.36c1.5-.61,2.09-2.49,1.94-4.11Z" transform="translate(-28 -62.64)"/><path d="M146.3,632.27a15.75,15.75,0,0,1-.53,3.47c-.79,3-2.34,6.28-2.06,9.13.22-2.48,1.4-5.18,2.06-7.67A16.37,16.37,0,0,0,146.3,632.27Z" transform="translate(-28 -62.64)"/><path d="M120.56,610.49a33.45,33.45,0,0,0-.28-5.2c-.17-1.27-.38-2.62-.45-3.94a29.86,29.86,0,0,0,.45,5.41A33.25,33.25,0,0,1,120.56,610.49Z" transform="translate(-28 -62.64)"/><path d="M150.86,655.08l0-.11c-.35,1.7-1.75,3.25-2.39,4.95a6.92,6.92,0,0,0-.4,3.19,6.31,6.31,0,0,1,.4-1.72C149.25,659.24,151.26,657.34,150.86,655.08Z" transform="translate(-28 -62.64)"/><path d="M112.05,698.73c-.2-5.51-4.26-10-6.24-15.16a9.75,9.75,0,0,1-.64-2.51,8.35,8.35,0,0,0,.64,4c2,5.05,5.9,9.5,6.22,14.89C112.05,699.53,112.06,699.13,112.05,698.73Z" transform="translate(-28 -62.64)"/><path d="M164.13,624.86c-3.26-5-13.17-13.78-20-11.34a4.82,4.82,0,0,0-3,3.2,3.51,3.51,0,0,0-.06,1.72,1.83,1.83,0,0,1,.06-.25,4.82,4.82,0,0,1,3-3.2c6.81-2.44,16.72,6.33,20,11.34,3.69,5.66,5.2,12.51,5.3,19.29C169.54,638.36,168.08,630.94,164.13,624.86Z" transform="translate(-28 -62.64)"/><path d="M180.29,635.48c-.71,5.19-8.23,6.23-10.85,10.76,0,.5,0,1,0,1.5,2.61-4.55,10.15-5.59,10.87-10.79a6.61,6.61,0,0,0,0-1.54S180.3,635.46,180.29,635.48Z" transform="translate(-28 -62.64)"/><path d="M184.46,617.16c-1.55,4.32-5.14,8.14-4.84,12.73l0,.2c.33-4,3.41-7.55,4.81-11.47a14.12,14.12,0,0,0,.8-5.58A13.87,13.87,0,0,1,184.46,617.16Z" transform="translate(-28 -62.64)"/><path d="M145.79,708.61a2.37,2.37,0,0,1-1.49,1c-2.19.23-1.81-3.7-3.57-5,0,.52.08,1,.11,1.57,1.62,1.41,1.33,5.14,3.46,4.92a2.37,2.37,0,0,0,1.49-1c2-2.45,2.14-5.54,2.09-8.75C147.83,704,147.44,706.54,145.79,708.61Z" transform="translate(-28 -62.64)"/><path d="M140.26,711.4c-.82,2.14-3,4-5.24,3.59l-.78-5.13a14.89,14.89,0,0,1-5.16,3.3c-.1.52-.2,1.05-.28,1.57a14.93,14.93,0,0,0,5.44-3.4l.78,5.13c2.26.36,4.42-1.45,5.24-3.59a11.52,11.52,0,0,0,.61-4.64A9.75,9.75,0,0,1,140.26,711.4Z" transform="translate(-28 -62.64)"/><path d="M148,692.64a25.83,25.83,0,0,0-.2,4.15,19.65,19.65,0,0,1,.2-2.68c.81-5.61,4.74-10.75,4.39-16.31C152.08,682.81,148.75,687.53,148,692.64Z" transform="translate(-28 -62.64)"/></g><path d="M767,268.49v98.18c0,5.18-5,9.4-11.17,9.4H519.42c-6.17,0-11.17-4.22-11.17-9.4V268.49c0-5.2,5-10.49,11.17-10.49H755.83C762,258,767,263.29,767,268.49Z" transform="translate(-28 -62.64)" fill="#fff"/><path d="M767,269.17v27.39H508.25V269.17A11.17,11.17,0,0,1,519.42,258H755.83A11.17,11.17,0,0,1,767,269.17Z" transform="translate(-28 -62.64)" fill="#4285f4" opacity="0.2"/><circle cx="494.44" cy="214.64" r="7.47" fill="#fff"/><circle cx="516.17" cy="214.64" r="7.47" fill="#fff"/><circle cx="537.9" cy="214.64" r="7.47" fill="#fff"/><circle cx="688.04" cy="273.04" r="29.2" fill="#4285f4"/><rect x="530.6" y="316.04" width="123.14" height="4.35" transform="translate(1156.35 573.77) rotate(-180)" fill="#4285f4"/><rect x="530.6" y="326.63" width="123.14" height="4.35" transform="translate(1156.35 594.96) rotate(-180)" fill="#4285f4" opacity="0.2"/><rect x="530.6" y="337.22" width="123.14" height="4.35" transform="translate(1156.35 616.15) rotate(-180)" fill="#4285f4" opacity="0.2"/><rect x="530.6" y="347.82" width="123.14" height="4.35" transform="translate(1156.35 637.33) rotate(-180)" fill="#4285f4" opacity="0.2"/><path d="M291.73,466.55c6.89,4.62,17.34,2.42,17.34,2.42s15.77-7.47,20.44-7.47,16-4.62,16-4.62l-.38-3.11L344,444.39c7.19,5.6,15.17,3.67,19.1,3.26,4.22-.44,26.78-13.85,28.94-14.73a5.67,5.67,0,0,0,2-2h0a50.54,50.54,0,0,0,3.81-7h0c1.42-1.24,2.45-2.24,2.37-2.46a16.29,16.29,0,0,1,1.39-3.69,18.11,18.11,0,0,0,6.84-2.46,6,6,0,0,0,2.22-4.84s22-22.2,19.11-31.43,7.11-9.45,7.11-9.45,15.34-6.59,17.47-10.55c1.32-2.43,12.82-7.77,21.47-11.53l1.07-.46c3.36,7.37,20.42,1.7,23.78-1.42,3.55-3.29,14-4.83,14-4.83s.44-43.08,3.78-48.58c1.58-2.6,2-11.11,1.92-19.32,0-.3,0-.59,0-.88,4.67-.91,15.78-3,20.94-3.53,3.27-.33,6.67-2.37,9.29-4.35l.3.39a6.45,6.45,0,0,0,2.85.47,4.45,4.45,0,0,0,2.49-.47c2-1.1,9.33-3.3,12-4.4s-.45-9-2.45-10.55-3.33-3.51-2.22-4.39-2.67-3.08-4.89-3.52-8.89-3.52-8.89-3.52-2.44-5.05-6.44-5.05-9.34-4-9.34-4c-.22-1.76-4.44-2-4.44-2s-16-12.3-18.67-10.77-10-2.41-10-2.41-9,1-11.11-.65h0a2.53,2.53,0,0,0-.54-1.49c-.48-1.49-2.8-3.53-5-5.23a20.65,20.65,0,0,0,.25-3.17c0-.46,0-.93-.05-1.38a1.79,1.79,0,0,0,0-.23c.11-1,.21-2.06.32-3.09a6.34,6.34,0,0,1,.77-2.91c.38-.58.93-1,1.35-1.59a3.62,3.62,0,0,0,.27-.41l.07-.12c.06-.11.11-.22.16-.33a.54.54,0,0,0,.05-.11,4.63,4.63,0,0,0,.29-.94s0,0,0-.08.05-.29.06-.44v-.06a9.38,9.38,0,0,0-.5-3.77c-.67-2.08-1.71-4.08-1.82-6.25a20.28,20.28,0,0,0-.11-3.22c-.54-2.4-3-3.93-5.39-4.93-3.28-1.38-4.94-2.88-7.58-4.93-2.24-1.74-5.94-.86-8.77-.68-6.44.41-12.81,2.35-18.87,4.36a18.74,18.74,0,0,0-6.6,3.27,7.29,7.29,0,0,0-2.41,4.08h0a5.19,5.19,0,0,0-.08,1.11s0,.07,0,.1,0,.28.05.42a.59.59,0,0,0,0,.14,4.7,4.7,0,0,0,.12.51h0c.25.81.73,1.54,1,2.35a5.44,5.44,0,0,1,.15.54l0,.06.09.53h0c.24,2-.5,4.08-.82,6.12a8.46,8.46,0,0,0-.1.88h0a10.63,10.63,0,0,0,.3,3.51v0c0,.14.09.27.13.41l.06.18c0,.12.09.23.13.35a2.29,2.29,0,0,1,.1.23c0,.1.09.2.14.3s.09.17.13.25.1.18.16.27l.16.26.16.24.2.25c.06.07.11.15.18.22l.23.24.18.19.28.23.19.16.34.23.17.11a4.25,4.25,0,0,0,.56.29c1.28.59,2.88.79,3.66,1.91a2.71,2.71,0,0,1,.37.88v.42a17.69,17.69,0,0,0,.11,1.93,9.05,9.05,0,0,0,.05,1,3.23,3.23,0,0,0,.22.75,20,20,0,0,0,6.74,11.32c.07.34.14.74.23,1.19a22.14,22.14,0,0,1-6.47,3.38C439.52,224.83,432,232,432,232s-3.75,27-4.65,30.33-1.57,16.05-1.57,16.05-.89,5.27-2.22,7.91c-.94,1.86-.77,9.85,1.86,14.7a12.18,12.18,0,0,1-1.64,2.66c-5.33,6.16-21.33,5.94-26.67,5.94-4.91,0-6.43,3-6.63,3.45-9.77,2.77-41.4,11.8-45.15,13.44-4.44,1.94-6.89,21.13-6.89,21.13s-9.33,31.87-8.89,36.07-3.11,15.8-3.11,15.8,0,13.15-1.51,14.05l-.05,0c-1.55.66-1.33,7-1.33,7s1.14.34,2.93.79c-.47,3.22-2.22,7.73-3.6,10.93-.69-.88-1.37-1.25-1.77-.22-1.11,2.79-17.78,22.57-22,22.57-2,0-5.33,1.65-7.52,3.88C289.14,461,288.13,464.14,291.73,466.55ZM368.18,352c18.89,1.76,39.12-1.34,39.12-1.34s-1.56,5.51-2.89,7.71-5.12,14.73-5.12,17.37-6,25.27-7.77,26.37a6.59,6.59,0,0,0-1.94,2.8,26.36,26.36,0,0,0-1.17,3.36,13.52,13.52,0,0,0,.15,1.62c-1.33,1.22-2.73,2.5-4,3.63h0S376.63,418,374,420.4s-15.11,5.38-15.11,5.38a76.79,76.79,0,0,0-9,4.56c-3.85,2.33-7.71,5.28-8.72,8.19.44-4.91,1.15-10.82,1.62-14.59.25,0,.48,0,.71,0,6.23-.38,5.3-6.33,5-7.8a2.82,2.82,0,0,0-.08-.33c4.45-4.84,14.45-40.88,13.11-44.84s1.12-7.47,1.64-7.47,1.25-4.4.14-6.82S368.18,352,368.18,352Zm152.76-97-1.18.29c0-.16,0-.25,0-.25S520.19,255.11,520.94,255.07Zm-64.57-33.16c-.18.22-.36.43-.55.64l-.23.24v-1.22Zm-22.26,42.64.08,1.24s-.12.75-.35,2Zm102.13-12.28-3.88.66c.55-.2,1.09-.43,1.62-.68a3.68,3.68,0,0,1,1.23-.33,6.61,6.61,0,0,1,1.45.31A2,2,0,0,0,536.24,252.27Z" transform="translate(-28 -62.64)" fill="url(#cac3e8da-e13c-4a6e-8683-059d4d6396e6)"/><path d="M405.08,411s-4.46,9.24-4.24,9.89-9.6,8.51-9.6,8.51l-10.69-7.64,1.09-5.23s12-10.81,12.87-12.06S405.08,411,405.08,411Z" transform="translate(-28 -62.64)" fill="#be6f72"/><path d="M344.12,442.23c7.42,7.2,16.15,5,20.29,4.58s26.28-13.74,28.41-14.62a5.66,5.66,0,0,0,1.94-2h0a49.93,49.93,0,0,0,3.75-6.92c-.15,0-7.4,2.11-9.23,0,0,0-3.06-3.75-3.71-3.75s-.05-6.57-.05-6.57-7.8,4.39-10.42,6.79-14.83,5.34-14.83,5.34a74.93,74.93,0,0,0-8.78,4.53C345.7,433.16,339.91,438.14,344.12,442.23Z" transform="translate(-28 -62.64)" fill="#3f3d56"/><path d="M344.12,442.23c7.42,7.2,16.15,5,20.29,4.58s26.28-13.74,28.41-14.62a5.66,5.66,0,0,0,1.94-2c-2.58-1.54-19.44,9.18-24.16,11.14s-16.66.88-23.42-2c-3.38-1.41,0-5.76,4.31-9.76C345.7,433.16,339.91,438.14,344.12,442.23Z" transform="translate(-28 -62.64)" opacity="0.1"/><path d="M345,419.54s-3.11,23.34-2.32,26.4-19.5-10.47-19.5-10.47,7.1-14.63,5-18S345,419.54,345,419.54Z" transform="translate(-28 -62.64)" fill="#be6f72"/><path d="M325.58,420s12.65,3.71,19.63,3.27c6.12-.38,5.2-6.28,4.88-7.74a2.82,2.82,0,0,0-.08-.33c4.37-4.8,14.18-40.57,12.87-44.5s1.09-7.41,1.61-7.41,1.23-4.37.14-6.77,4.8-4.58,4.8-4.58c18.54,1.75,38.39-1.33,38.39-1.33s-1.53,5.48-2.84,7.66-5,14.61-5,17.23-5.89,25.09-7.63,26.18a6.52,6.52,0,0,0-1.9,2.77,26.12,26.12,0,0,0-1.15,3.33c.65,14.62,17.23,8.95,19.63,7a6.39,6.39,0,0,0,.93-.95,6.07,6.07,0,0,0,1.25-3.85s21.59-22,18.76-31.19,7-9.38,7-9.38,15.05-6.54,17.14-10.47c1.29-2.41,12.58-7.71,21.08-11.44,5.32-2.33,9.55-4,9.55-4l-3.54-12.69-2.79-10-5.25-2-16.78-6.32-30.13-4.14-2.76.36-29.28,3.78S351.32,324.66,347,326.59s-6.76,21-6.76,21-9.16,31.63-8.73,35.79S328.42,399,328.42,399s0,13-1.48,13.93l-.05,0C325.37,413.65,325.58,420,325.58,420Z" transform="translate(-28 -62.64)" fill="#3f3d56"/><path d="M369.43,351.92c18.54,1.75,38.39-1.33,38.39-1.33,1.31-4.12,19.64-15.46,19.64-15.46C412.42,331.42,369.43,351.92,369.43,351.92Z" transform="translate(-28 -62.64)" opacity="0.1"/><path d="M389.28,407.76c.65,14.62,17.23,8.95,19.63,7a6.39,6.39,0,0,0,.93-.95c-5.8,2.14-16.07,3.78-19.41-9.36A26.12,26.12,0,0,0,389.28,407.76Z" transform="translate(-28 -62.64)" fill="#444053"/><path d="M325.58,420s12.65,3.71,19.63,3.27c6.12-.38,5.2-6.28,4.88-7.74-6.4-.2-17.43-.81-23.15-2.54l-.05,0C325.37,413.65,325.58,420,325.58,420Z" transform="translate(-28 -62.64)" fill="#444053"/><path d="M389.28,407.76c.65,14.62,17.23,8.95,19.63,7a6.39,6.39,0,0,0,.93-.95c-5.8,2.14-16.07,3.78-19.41-9.36A26.12,26.12,0,0,0,389.28,407.76Z" transform="translate(-28 -62.64)" opacity="0.1"/><path d="M325.58,420s12.65,3.71,19.63,3.27c6.12-.38,5.2-6.28,4.88-7.74-6.4-.2-17.43-.81-23.15-2.54l-.05,0C325.37,413.65,325.58,420,325.58,420Z" transform="translate(-28 -62.64)" opacity="0.1"/><path d="M294.39,465.57c6.76,4.58,17,2.4,17,2.4s15.48-7.42,20.06-7.42S347.18,456,347.18,456l-.38-3.09-1.8-14.8s-17-.43-17.67-2c0,0-3.06-7.51-4.15-4.74s-17.45,22.41-21.59,22.41c-2,0-5.24,1.63-7.39,3.84C291.85,460.06,290.85,463.17,294.39,465.57Z" transform="translate(-28 -62.64)" fill="#3f3d56"/><path d="M353.07,336.65s14.18,9,10.25,10.91S353.07,336.65,353.07,336.65Z" transform="translate(-28 -62.64)" opacity="0.1"/><path d="M347.18,353.89s12.21,11.59,7.63,11.9S347.18,353.89,347.18,353.89Z" transform="translate(-28 -62.64)" opacity="0.1"/><path d="M334.09,390.75s6.2,11.66,3.86,13.68S334.09,390.75,334.09,390.75Z" transform="translate(-28 -62.64)" opacity="0.1"/><path d="M402.36,402.53c-2.18,2.18,20.73-7.2,15.49-7.64S402.36,402.53,402.36,402.53Z" transform="translate(-28 -62.64)" opacity="0.1"/><path d="M448.17,238.93l.73-.11c2.71-.41,12.55-1.95,21.37-3.87,2.15-.47,4.23-.95,6.14-1.46,6.76-1.77,11.29-3.68,8.41-5.24-3.83-2.08-5.85-5.85-6.91-9.1-.1-.32-.2-.63-.28-.93a23.91,23.91,0,0,1-.89-5s-24.64-8.73-19.84,0c2.35,4.27.77,7.77-1.46,10.22a19.08,19.08,0,0,1-5.31,4Z" transform="translate(-28 -62.64)" fill="#be6f72"/><path d="M474.56,232.17s-8.81,6.33-17.82,1.09S436,279.51,436,279.51l-12.22,30.1s-7.91,6.54,1.93,9.38,31.7-2.84,37.24,5.45S479,334,480,334s5.23-31.2,5.23-31.2l1.08-45.15Z" transform="translate(-28 -62.64)" opacity="0.1"/><path d="M426.11,317.24c9.85,2.84,31.69-2.83,37.24,5.45a21.32,21.32,0,0,0,9.38,7.56,24.54,24.54,0,0,0,7.74,2c.14,0,.35-.57.59-1.56,1.53-6.31,4.64-29.63,4.64-29.63L486.78,256l-10.37-22.46L475,230.43a18.87,18.87,0,0,1-4.49,2.18,15.82,15.82,0,0,1-13.34-1.09c-2.64-1.54-5.52,1.81-8.27,7.3-6.63,13.24-12.51,38.94-12.51,38.94l-12.21,30.1a10.5,10.5,0,0,0-.83.8C421.61,310.48,418.36,315,426.11,317.24Z" transform="translate(-28 -62.64)" fill="#f3f5f9"/><path d="M473,318.76a56.85,56.85,0,0,0-.29,11.49,134.75,134.75,0,0,0,2,16.22,6,6,0,0,0,.27,1c5.32-2.33,9.55-4,9.55-4l-3.54-12.69c1.53-6.31,4.64-29.63,4.64-29.63L486.78,256l-10.37-22.46c6.76-1.77,11.29-3.68,8.41-5.24-4.2-2.28-6.22-6.6-7.19-10a37.08,37.08,0,0,1-6.2,6.67l-.14.11-.78,7.61-.24,2.34-.51,4.86s2.4,57.36,4.15,60.64.87,9.59-.66,17C473.17,317.88,473.09,318.31,473,318.76Z" transform="translate(-28 -62.64)" opacity="0.1"/><path d="M474.13,316.59c-1.53,7.41-.22,19.63,1.52,29s20.29,3.27,23.78,0,13.74-4.8,13.74-4.8.44-42.75,3.71-48.21c1.55-2.58,1.93-11,1.89-19.18,0-7.32-.39-14.41-.53-16.82,0-.56,0-.86,0-.86s14.18-24,14-25.74-4.36-2-4.36-2-15.71-12.22-18.33-10.69-9.81-2.4-9.81-2.4-9.12,1-11-.72a1,1,0,0,1-.33-.81c.21-2.79-9.3-8.75-9.59-8.94,8,7.22-5,18.33-6.42,19.54l-.14.12-1.52,14.8s2.4,57.37,4.14,60.64S475.65,309.17,474.13,316.59Z" transform="translate(-28 -62.64)" fill="#67647e"/><circle cx="446.97" cy="191.63" r="1.09" fill="#444053"/><path d="M472.74,224.89l6.62,6.41,9.72-16.21a1,1,0,0,1-.34-.8c.22-2.8-9.29-8.76-9.59-8.94C487.17,212.56,474.21,223.67,472.74,224.89Z" transform="translate(-28 -62.64)" opacity="0.1"/><circle cx="449.15" cy="226.53" r="1.09" opacity="0.1"/><circle cx="449.15" cy="226.09" r="1.09" fill="#444053"/><path d="M472.3,224l6.63,6.42,9.71-16.21a1,1,0,0,1-.33-.81c.21-2.79-9.3-8.75-9.59-8.94C486.73,211.69,473.77,222.8,472.3,224Z" transform="translate(-28 -62.64)" fill="#67647e"/><rect x="465.78" y="253.19" width="15.18" height="32.08" rx="1.7" ry="1.7" transform="translate(912.48 486.54) rotate(-178.69)" fill="#3f3d56"/><rect x="465.78" y="253.19" width="15.18" height="32.08" rx="1.7" ry="1.7" transform="translate(912.48 486.54) rotate(-178.69)" opacity="0.1"/><rect x="465.86" y="253.9" width="15.18" height="32.08" rx="1.7" ry="1.7" transform="translate(912.63 487.96) rotate(-178.69)" fill="#3f3d56"/><circle cx="445.86" cy="200.64" r="2.39" fill="#67647e"/><path d="M391.68,314.62c5.45,2.4,41.22-3.92,46.46-5.45s12.87-13.31,9.16-21.81,1.31-16.8,1.31-16.8,7.85-16.79,9.59-20.07a153.46,153.46,0,0,0,5.89-14.39,1.28,1.28,0,0,0-.31-1c-1.41-2.16-6.88-6-6.88-6-1.54.56-1.74-3.85-1.68-7.1,0-1.81.15-3.26.15-3.26s-.73.74-1.91,1.74c-.43.36-.92.77-1.47,1.18a22.56,22.56,0,0,1-6.87,3.76c-5.24,1.54-12.65,8.7-12.65,8.7l2.18,33.49s-5,31.51-10.26,37.61-20.94,5.89-26.17,5.89S391.68,314.62,391.68,314.62Z" transform="translate(-28 -62.64)" opacity="0.1"/><path d="M391.24,313.31c5.45,2.4,41.23-3.92,46.46-5.45s12.87-13.3,9.16-21.81,1.31-16.8,1.31-16.8,7.85-16.79,9.6-20.06,5.38-12.8,5.89-14.4a1.32,1.32,0,0,0-.31-1c-1.42-2.16-6.89-6-6.89-6-1.54.56-1.73-3.85-1.67-7.09,0-1.82.14-3.27.14-3.27s-.72.74-1.9,1.74c-.44.37-.93.77-1.47,1.18a22.62,22.62,0,0,1-6.88,3.76c-5.23,1.55-12.65,8.7-12.65,8.7l2.18,33.5s-5,31.5-10.25,37.61-20.94,5.88-26.18,5.88S391.24,313.31,391.24,313.31Z" transform="translate(-28 -62.64)" fill="#67647e"/><path d="M450.57,218.33s.2,1.15.55,2.91c1.17,6,4,19.07,6,18.57,1.45-.37,3.9-2.93,5.8-5.15-1.42-2.16-6.89-6-6.89-6-1.54.56-1.73-3.85-1.67-7.09l-1.76-1.52Z" transform="translate(-28 -62.64)" opacity="0.1"/><path d="M451,217.45s.2,1.15.55,2.92c1.17,6,4,19.07,6,18.56,1.45-.36,3.9-2.92,5.8-5.14-1.42-2.16-6.89-6-6.89-6-1.54.56-1.73-3.85-1.67-7.09L453,219.19Z" transform="translate(-28 -62.64)" fill="#67647e"/><path d="M437.05,281.69s10.9-2.18,14-7,23.82-8.95,21.29-3.93S451,292.21,451,292.21l-8.13,11.64L432,301.1l-4.57-8.89Z" transform="translate(-28 -62.64)" fill="#be6f72"/><path d="M462.85,294.13s-10.56,3.93-12.15,9.16S462.85,294.13,462.85,294.13Z" transform="translate(-28 -62.64)" opacity="0.1"/><path d="M469.33,300.23s1,5.45-12.28,5Z" transform="translate(-28 -62.64)" opacity="0.1"/><path d="M526.48,230.43l4.8-.44s5.23,3.93,9.16,3.93,6.32,5,6.32,5,6.55,3.06,8.73,3.49,5.89,2.62,4.8,3.49.21,2.84,2.18,4.37,5,9.38,2.4,10.47-9.82,3.27-11.78,4.36a5.41,5.41,0,0,1-4.36,0s-11.56-15.05-17.45-12.22-14,2.84-14,2.84L511,242.42Z" transform="translate(-28 -62.64)" opacity="0.1"/><path d="M426.11,302.2a5.85,5.85,0,0,0,4.06,2.83,30.82,30.82,0,0,0,12.71-1.18s-22-7-.82-24h-5.67l-1.89-.72.87-4.52,1.24-40.74L432,232.83s-3.69,26.83-4.57,30.1-1.54,15.92-1.54,15.92-.87,5.24-2.18,7.85C422.75,288.67,423,297.54,426.11,302.2Z" transform="translate(-28 -62.64)" fill="#67647e"/><path d="M427,302.2a5.87,5.87,0,0,0,4.07,2.83,30.79,30.79,0,0,0,12.7-1.18s-22-7-.81-24h-5.68l-1.89-.72C432.27,284.68,427.38,294.47,427,302.2Z" transform="translate(-28 -62.64)" opacity="0.1"/><path d="M426.11,302.2a5.85,5.85,0,0,0,4.06,2.83,30.82,30.82,0,0,0,12.71-1.18s-22-7-.82-24h-5.67l-1.89-.72C431.4,284.68,426.51,294.47,426.11,302.2Z" transform="translate(-28 -62.64)" fill="none"/><path d="M426.11,302.2a5.85,5.85,0,0,0,4.06,2.83,30.82,30.82,0,0,0,12.71-1.18s-22-7-.82-24h-5.67l-1.89-.72C431.4,284.68,426.51,294.47,426.11,302.2Z" transform="translate(-28 -62.64)" fill="#67647e"/><path d="M455.44,223.42a19.88,19.88,0,0,0,22.47-4.27c-.1-.32-.2-.63-.28-.93a23.91,23.91,0,0,1-.89-5s-24.64-8.73-19.84,0C459.25,217.47,457.67,221,455.44,223.42Z" transform="translate(-28 -62.64)" opacity="0.1"/><path d="M443.81,204.47v.19c0,.65,0,1.28.11,1.91a18,18,0,0,0,.27,1.79,19.85,19.85,0,0,0,38.24,2.56c.13-.38.26-.77.36-1.16a19.69,19.69,0,0,0,.72-5.29c0-.46,0-.92-.05-1.37a19.85,19.85,0,0,0-39.65,1.37Z" transform="translate(-28 -62.64)" fill="#be6f72"/><path d="M443.81,204.66a8.58,8.58,0,0,1,.11,1.91,8.94,8.94,0,0,0,.05,1,2.92,2.92,0,0,0,.22.75c.8,1.88,3.42,3.1,5.14,1.89a5.51,5.51,0,0,0,1.55-2c1.84-3.41,4.39-7.33,8.4-7.4,1.71,0,3.32.69,5,1.12s3.62.47,4.86-.66c.94-.86,1.39-2.34,2.67-2.65s2.44.87,3,2,1.05,2.49,2.23,3.08c.53.26,1.14.33,1.66.61,2.37,1.3,1.28,5.85,3.74,6.59a2.1,2.1,0,0,0,.24.06l.12-1.22c.22-2.22.45-4.43.67-6.66a19.85,19.85,0,0,0-39.65,1.37Z" transform="translate(-28 -62.64)" opacity="0.1"/><path d="M479.07,174.84c2.33,1,4.76,2.51,5.28,4.89a19,19,0,0,1,.11,3.2c.11,2.15,1.14,4.14,1.79,6.2s.89,4.46-.42,6.21c-.41.55-.95,1-1.32,1.58a6.38,6.38,0,0,0-.76,2.89l-1.08,10.73c-2.77-.51-1.54-5.31-4-6.65-.51-.28-1.12-.35-1.65-.61-1.18-.59-1.64-1.94-2.23-3.08s-1.73-2.31-3-2-1.72,1.78-2.66,2.65c-1.24,1.12-3.21,1.07-4.86.65s-3.26-1.14-5-1.12c-4,.07-6.57,4-8.4,7.4a5.43,5.43,0,0,1-1.55,2c-1.94,1.37-5-.35-5.36-2.64-.18-1.28.21-2.71-.52-3.79s-2.34-1.32-3.59-1.9c-3.19-1.47-4.18-5.45-3.65-8.79.38-2.4,1.34-4.88.56-7.19-.27-.8-.74-1.53-1-2.33-.7-2.25.44-4.73,2.24-6.32a18.31,18.31,0,0,1,6.48-3.25c5.95-2,12.19-3.92,18.52-4.33,2.77-.18,6.41-1.05,8.61.68C474.22,172,475.84,173.47,479.07,174.84Z" transform="translate(-28 -62.64)" fill="#3f3d56"/><circle cx="445.88" cy="174.39" r="1.09" opacity="0.1"/><circle cx="445.88" cy="173.96" r="1.09" fill="#444053"/><circle cx="452.86" cy="242.88" r="1.09" opacity="0.1"/><circle cx="452.86" cy="242.45" r="1.09" fill="#444053"/><circle cx="449.15" cy="260.99" r="1.09" opacity="0.1"/><circle cx="449.15" cy="260.55" r="1.09" fill="#444053"/><path d="M439.66,254.27s-2.4,16.29,0,19.13S439.66,254.27,439.66,254.27Z" transform="translate(-28 -62.64)" opacity="0.1"/><path d="M511,284.52s4.58,9.87,0,19.33-7.42,13.31-5.89,19.35S511,284.52,511,284.52Z" transform="translate(-28 -62.64)" opacity="0.1"/><path d="M294.39,465.57c6.76,4.58,17,2.4,17,2.4s15.48-7.42,20.06-7.42S347.18,456,347.18,456l-.38-3.09c-4.52.87-14.79,2.95-16,4-1.53,1.31-20.29,7.64-20.29,7.64s-12.77-1.6-16.33-6.85C291.85,460.06,290.85,463.17,294.39,465.57Z" transform="translate(-28 -62.64)" opacity="0.1"/><g opacity="0.1"><path d="M484.46,181.18c0-.23,0-.47,0-.71,0,.27,0,.55,0,.82A.41.41,0,0,0,484.46,181.18Z" transform="translate(-28 -62.64)"/><path d="M439.86,199.74c1.25.57,2.83.78,3.59,1.89s.34,2.51.52,3.79c.34,2.29,3.42,4,5.36,2.65a5.46,5.46,0,0,0,1.55-2c1.83-3.4,4.39-7.32,8.4-7.39,1.71,0,3.32.69,5,1.11s3.62.48,4.86-.65c.94-.86,1.39-2.34,2.66-2.65s2.45.86,3,2,1.05,2.48,2.23,3.07c.53.26,1.14.34,1.65.62,2.45,1.34,1.22,6.13,4,6.65l1.08-10.74a6.41,6.41,0,0,1,.76-2.89c.37-.57.91-1,1.32-1.57a4.8,4.8,0,0,0,.89-2.31,5.53,5.53,0,0,1-.89,4.05c-.41.55-.95,1-1.32,1.58a6.38,6.38,0,0,0-.76,2.89l-1.08,10.73c-2.77-.51-1.54-5.31-4-6.65-.51-.28-1.12-.35-1.65-.61-1.18-.59-1.64-1.94-2.23-3.08s-1.73-2.31-3-2-1.72,1.78-2.66,2.65c-1.24,1.12-3.21,1.07-4.86.65s-3.26-1.14-5-1.12c-4,.07-6.57,4-8.4,7.4a5.43,5.43,0,0,1-1.55,2c-1.94,1.37-5-.35-5.36-2.64-.18-1.28.21-2.71-.52-3.79s-2.34-1.32-3.59-1.9c-2.92-1.34-4-4.79-3.75-7.92C436.33,196.15,437.48,198.64,439.86,199.74Z" transform="translate(-28 -62.64)"/><path d="M435.78,181.42c.25.8.72,1.53,1,2.33a7,7,0,0,1,.25,2.87,6.24,6.24,0,0,0-.25-1.12c-.27-.8-.74-1.53-1-2.33a4.9,4.9,0,0,1-.13-2.28C435.69,181.07,435.73,181.24,435.78,181.42Z" transform="translate(-28 -62.64)"/></g><path d="M499.87,278.41c5-1.1,16.79-4.58,16.79-4.58l2.11-.42c0-7.32-.39-14.41-.53-16.82h0s-10,3.27-12.43,5-9.82,1.31-9.82,1.31-11.56.65-21.16,11.34S494.85,279.51,499.87,278.41Z" transform="translate(-28 -62.64)" opacity="0.1"/><path d="M548.89,258.94a2.91,2.91,0,0,1,.66,4.89c-2.66,2.2-6.54,4.83-10.24,5.21-6.18.62-21,3.6-22.53,3.9a1,1,0,0,0-.23.06c-1.23.36-12,3.5-16.68,4.53-5,1.1-34.69,6.56-25.09-4.13a33.91,33.91,0,0,1,21-11.33h.38c1.12.06,7.46.27,9.65-1.31a20.37,20.37,0,0,1,3.6-1.8,69.52,69.52,0,0,1,14.75-4.25l10.26-1.79a2.93,2.93,0,0,1,1.73.22Z" transform="translate(-28 -62.64)" fill="#be6f72"/><path d="M527.35,230.43l4.8-.44s5.23,3.93,9.16,3.93,6.33,5,6.33,5,6.54,3.06,8.72,3.49,5.89,2.62,4.8,3.49.22,2.84,2.18,4.37,5,9.38,2.4,10.47S555.92,264,554,265.11a5.41,5.41,0,0,1-4.36,0S538,250.06,532.15,252.89s-14,2.84-14,2.84l-6.33-13.31Z" transform="translate(-28 -62.64)" fill="#67647e"/><path d="M672.57,514.29s-8.68-2-14.36,3.85c0,0,3.66,3.3,12.24-.35Z" transform="translate(-28 -62.64)" fill="#4285f4"/><path d="M673.51,514.22s5.13,7.27,1.88,14.74c0,0-4.44-2.13-4.31-11.46Z" transform="translate(-28 -62.64)" fill="#4285f4"/><path d="M679.3,503.23s-3.07-6.67-17.71,1.4c0,0,1.58,4.45,7.8,4.51S677.44,506.51,679.3,503.23Z" transform="translate(-28 -62.64)" fill="#4285f4"/><path d="M680.24,502.83s7.33-.34,6.92,16.36c0,0-4.68.65-7.6-4.84S678.18,506,680.24,502.83Z" transform="translate(-28 -62.64)" fill="#4285f4"/><path d="M685.37,489.82s-3.33-11.61-18.72-4.54c0,0,2.69,10.63,16.94,8.3Z" transform="translate(-28 -62.64)" fill="#4285f4"/><path d="M691.07,473.17s-7-12-21.35-2.25c0,0,4.08,11.08,19.91,6.27Z" transform="translate(-28 -62.64)" fill="#4285f4"/><path d="M693.79,457.15s-8.3-11.13-22.57-1.52c0,0,7.92,9.81,22.39,4.21Z" transform="translate(-28 -62.64)" fill="#4285f4"/><path d="M696.25,441.57s-8.39-11.6-22.07-2.07c0,0,9.64,10.4,21.89,4.64Z" transform="translate(-28 -62.64)" fill="#4285f4"/><path d="M696.36,427.6s-8.64-14.79-21.44-6c0,0,9.47,12.85,21.26,8.71Z" transform="translate(-28 -62.64)" fill="#4285f4"/><path d="M695.23,411.2s-9.23-14.72-21.76-4.75c0,0,11.22,13,21.59,7.32Z" transform="translate(-28 -62.64)" fill="#4285f4"/><path d="M692.81,396.44s-11.15-14-22-9.44c0,0,11.61,14.85,22.31,13Z" transform="translate(-28 -62.64)" fill="#4285f4"/><path d="M689.53,382.39s-12.83-17.07-21.26-12.24c0,0,9.4,13.2,22.06,15.35Z" transform="translate(-28 -62.64)" fill="#4285f4"/><path d="M684.53,366s-11.28-14-20.39-11.33c0,0,9.49,14.38,21.74,15.55Z" transform="translate(-28 -62.64)" fill="#4285f4"/><path d="M680,350.69s-12.6-13.53-18.6-11.7c0,0,8.77,14.68,19,14.55Z" transform="translate(-28 -62.64)" fill="#4285f4"/><path d="M675.58,336.53s-10.57-15.86-17-15.11c0,0,6.11,13.92,16.85,16.63Z" transform="translate(-28 -62.64)" fill="#4285f4"/><path d="M671,317.54s-9.46-12.25-15-12.6c0,0,7,16,15.16,16.4Z" transform="translate(-28 -62.64)" fill="#4285f4"/><path d="M668.36,304.92l-8.26-24.75s-2,21.74,9.22,29.3Z" transform="translate(-28 -62.64)" fill="#4285f4"/><path d="M666.13,278.09s-.28-20.23.88-21.79c0,0-8.19,16.24-1.41,30.68Z" transform="translate(-28 -62.64)" fill="#4285f4"/><path d="M685.77,489.58s10.68-5.66,16.27,10.33c0,0-9.53,5.44-17.74-6.44Z" transform="translate(-28 -62.64)" fill="#4285f4"/><path d="M691.44,472.55s13-4.89,18,11.74c0,0-10.16,6-19.39-7.72Z" transform="translate(-28 -62.64)" fill="#4285f4"/><path d="M694.31,458.15s9.71-9.92,22.57,1.52c0,0-9.16,8.66-22.75,1.17Z" transform="translate(-28 -62.64)" fill="#4285f4"/><path d="M696.55,441.59s9.86-10.38,22.14.9c0,0-10.94,9-22.31,1.67Z" transform="translate(-28 -62.64)" fill="#4285f4"/><path d="M696.33,428s7.47-15.42,20.92-7.67c0,0-8.45,13.55-20.53,10.34Z" transform="translate(-28 -62.64)" fill="#4285f4"/><path d="M694.43,411.06s7.44-15.69,21.06-7.27c0,0-9.63,14.2-20.59,9.81Z" transform="translate(-28 -62.64)" fill="#4285f4"/><path d="M691.45,396.43s3.71-17.51,15.48-18.31c0,0-3.73,18.48-14.13,21.6Z" transform="translate(-28 -62.64)" fill="#4285f4"/><path d="M689.23,382.4s2.41-21.22,12.13-21.33c0,0-1.42,16.15-11.24,24.41Z" transform="translate(-28 -62.64)" fill="#4285f4"/><path d="M683.56,365.33s4.08-17.52,13.44-19.06c0,0-2.29,17.07-12.82,23.46Z" transform="translate(-28 -62.64)" fill="#4285f4"/><path d="M678.93,350.75s1.33-18.44,7.15-20.78c0,0,2.38,16.94-5.68,23.24Z" transform="translate(-28 -62.64)" fill="#4285f4"/><path d="M675.16,336.3s2.07-18.95,8.08-21.23c0,0,1,15.17-7.29,22.53Z" transform="translate(-28 -62.64)" fill="#4285f4"/><path d="M670.07,319s1.07-15.44,5.48-18.79c0,0,3,17.2-3.51,22Z" transform="translate(-28 -62.64)" fill="#4285f4"/><path d="M668.9,304.19l5.78-25.44s4.1,21.44-6.28,30.07Z" transform="translate(-28 -62.64)" fill="#4285f4"/><path d="M669.83,278.58S681.4,262,681.31,260c0,0-2.32,18-16,26.2Z" transform="translate(-28 -62.64)" fill="#4285f4"/><path d="M669,273.39s11.47-23.9,16-25.59c0,0-14.51,6.2-16.82,24.83Z" transform="translate(-28 -62.64)" fill="#4285f4"/><path d="M671.2,321.49l.68-.16c-6.47-27.59-7.38-45-2.56-49l-.45-.54C663.76,276,664.57,293.22,671.2,321.49Z" transform="translate(-28 -62.64)" fill="#444053"/><path d="M689.78,386.29l1-.28c-.71-2.54-1.49-5.11-2.32-7.66-7.2-22.14-13.22-42.7-16.91-58.42l-.84-.49c3.7,15.75,9.53,37.06,16.75,59.24C688.29,381.21,689.07,383.77,689.78,386.29Z" transform="translate(-28 -62.64)" fill="#444053"/><path d="M658.87,533.69c.14-.14,14.59-14.36,25.69-39.56a152.7,152.7,0,0,0,12.23-46.49c2-20.06-.72-42.78-6.58-63.65l-.85.86c13.15,46.85,4.07,85.62-6.06,108.65-11,25-25.27,39-25.41,39.19Z" transform="translate(-28 -62.64)" fill="#444053"/><path d="M1092.82,779l-27.67-40.12s-.51-9.93-2.32-12.25-.39-7.49-.39-7.49,1.94-2.83.26-3.09-.26-6.58-.26-6.58l-.13-10.06s1.55-9.68.26-12a3.79,3.79,0,0,1,.13-4.13s1.55-5.54,0-7-1.17-10.06-.78-16.9-2.72-10.71-2.72-11.74-10.21-11.09-10.21-12-6.47-4.64-10.35-5.67-5.81-1.81-5.68-2.32-6.08-2.58-6.08-2.58-5.43-.39-7.5-3.1-8.4-3.49-8.58-3.52l-.12-.54c0-.19-.08-.39-.11-.58.48-.82.94-1.66,1.35-2.53.12-.26.24-.52.35-.79a11,11,0,0,0,6.37-2,8.69,8.69,0,0,0,3.1-6.19,13.53,13.53,0,0,0-1.52-6.87c-1.13-2.32-2.8-4.73-2.22-7.25.25-1.09.9-2,1.23-3.11a8.15,8.15,0,0,0-.92-6.11c-1-1.87-2.35-3.52-3.44-5.33a21.22,21.22,0,0,1-2.73-7.55,11.5,11.5,0,0,0-1-4.11,7.59,7.59,0,0,0-2.26-2.29,22.71,22.71,0,0,0-13.9-4.21c-3.52.12-7,1.07-10.53.64a38.81,38.81,0,0,1-6.14-1.61c-4.34-1.28-9.34-1.81-13.12.67s-5.28,7.37-7.84,11.19c-2.26,3.37-5.57,6.2-7.3,9.78l.06-.21a11.82,11.82,0,0,0-1,2.61c-.66,2.81-.11,5.75.57,8.56.35,1.44.83,3,2.09,3.82s3,.62,4.52.88c-.06.25-.12.49-.17.74a28.94,28.94,0,0,0-.65,6.14,29.56,29.56,0,0,0,21.15,28.31c0,.27,0,.53,0,.79,0,.77-.06,1.5-.14,2.21h0s-13-2.67-16.49-.86-10.35,3.22-11.38,4.25-3.62.26-5.95,6.32-2.59,12.26-5.56,15.1-4.53,4.77-4.66,6.83.39,2.58-.77,3.23-2.85,3.35-2.33,4.38c0,0,.65,2.58-1.42,3.87a4.31,4.31,0,0,0-1.81,3.87s-.78,2.84-2.59,3.49-3,4.9-3,4.9l-5.87,6.74L903.1,682.84a4.89,4.89,0,0,0-6.91-.36l-5.71,5.13a11.38,11.38,0,0,0-5.71,3.4,15,15,0,0,0-3,4.41l-3.13,2.81a7.93,7.93,0,0,0-.8,8.76l7.45,8.24,0,.07a13.14,13.14,0,0,0-7.2,2.93c-11.11,9.8-11.25,18.84-9.56,23s15.77,20,15.77,20,8.19,10.64,20,16.3l0,0-.09.09q-.35.38-.69.81l-.19.24-.18.25-.21.31-.17.26c-.07.12-.15.24-.22.37l-.14.24-.27.5a1.3,1.3,0,0,1-.08.17c-.11.23-.22.46-.32.7l-.11.27-.2.51c0,.11-.08.22-.11.33s-.12.33-.17.51-.08.24-.11.36-.11.37-.16.57l-.09.35c-.07.3-.14.6-.2.92l-.06.37-.12.66-.06.47c0,.21-.06.42-.08.64s0,.33-.05.49l-.06.74,0,.45c0,.41,0,.82,0,1.25-.26,15.09.62,17.29.62,17.29s1.83,4.8,6.86,5.15a9,9,0,0,0,2.22-.12c6.72-1.16,22.49-3.87,28-2.84,3.35.62,9.53-.3,13.94-1.13l1.16-.22.81,2.56,2.56-.7c.82.48,1.56.91,2.17,1.25l1.37.79c2.55,8.66,12.91,5.7,12.91,5.7l2.46,1.42,25,.65a50.93,50.93,0,0,0,8.83,4.24,7.76,7.76,0,0,0,1.26.27,55.48,55.48,0,0,0,6.95.13c1.91,0,3.39-.13,3.39-.13s-.25-6.77-.61-14.36c9.53-.39,18-1,23.11-1.89,13.32-2.34,18.89-14.46,20.93-20.94a59.88,59.88,0,0,1,1.31,8,59.09,59.09,0,0,0,2.07,7,23.71,23.71,0,0,0,2.84,5.16c9.83-3.36,3.88-8.39,1.82-10.58s1.42-4,1.42-4,2.71-1.81,2.45-3.48-.38-3.49,8.41-3.36S1092.82,779,1092.82,779ZM956.29,696.62c.11.74,1.33,8.68,2.44,10.78a13.93,13.93,0,0,1,.29,4.24c-5.2-.41-10.63-.63-10.63-.63a1.32,1.32,0,0,1,.28.66l-.82-.18-1.19-.3,9.6-14.59Zm-19,30.25,9,1.43.76.12a28.7,28.7,0,0,0-.47,4.26c0,.13.2.3.49.48a11.67,11.67,0,0,0-.17,2.13c.14.72,4.36,2.26,9.19,3.54-.06.26-.13.51-.2.74h0c-4.27-2.25-11-3.3-11.77-5s-23.66-9.66-23.66-9.66-.84-.45-2.28-1.14l6,1.14,1.65-.17A89.89,89.89,0,0,0,937.27,726.87Z" transform="translate(-28 -62.64)" fill="url(#3d39174d-c81e-4005-9f1d-e2bf56b40b54)"/><path d="M1063.39,784.6s-3.59,21.66-21.78,24.86S962.66,812,962.66,812s-34.73-5-47.28-34.34-20.64-41-9.87-41.52,68.82,19.6,72.15,19.86S1066.6,711.42,1063.39,784.6Z" transform="translate(-28 -62.64)" fill="#65617d"/><path d="M1063.39,784.6s-3.59,21.66-21.78,24.86S962.66,812,962.66,812s-34.73-5-47.28-34.34-20.64-41-9.87-41.52,68.82,19.6,72.15,19.86S1066.6,711.42,1063.39,784.6Z" transform="translate(-28 -62.64)" opacity="0.05"/><path d="M900.49,808.69s1.81,4.78,6.8,5.12a8.77,8.77,0,0,0,2.19-.12c6.66-1.15,22.3-3.85,27.81-2.82,3.31.62,9.44-.29,13.81-1.12,2.9-.55,5-1.06,5-1.06s-5.13-17-5.77-17.56-23.07-14-23.07-14l-17.76-1.28h0a9.35,9.35,0,0,0-6,3.53c-1.88,2.27-3.48,6-3.59,12.1C899.61,806.51,900.49,808.69,900.49,808.69Z" transform="translate(-28 -62.64)" fill="#3f3d56"/><path d="M900.49,808.69s1.81,4.78,6.8,5.12a75,75,0,0,1-4.83-7l.1-12.43a21.89,21.89,0,0,1,7-18.45h0s-9.35.63-9.61,15.63S900.49,808.69,900.49,808.69Z" transform="translate(-28 -62.64)" opacity="0.05"/><path d="M977.53,781.52l16.53-12.94,26-25.63s-2.81-.14-7.05-.32c-1.06.67-4,2.79-4.12,5.36-.13,3.13-7,.21-10.62,2s-21.14,24.26-24.22,24.11-5.51-1.56-6.79.62l-.1.14Z" transform="translate(-28 -62.64)" opacity="0.1"/><path d="M903.46,779.42c.59.29,1.18.56,1.79.82,12.56,5.38,28.07,16.66,29.22,18.71.7,1.25,9.69,6.71,16.63,10.8,2.9-.55,5-1.06,5-1.06s-5.13-17-5.77-17.56-23.07-14-23.07-14l-17.76-1.28h0A9.35,9.35,0,0,0,903.46,779.42Z" transform="translate(-28 -62.64)" opacity="0.1"/><path d="M868.6,742.69c1.67,4.1,15.63,19.87,15.63,19.87s8.85,11.53,21.41,16.91,28.06,16.66,29.21,18.71c.75,1.32,10.75,7.35,17.81,11.49l1.58.92c1.38.81,2.58,1.51,3.5,2l1.85,1.07s4.29-3.45,8.56-6.91,8.42-6.87,8.48-7.06c.13-.38,1.8-4.74,1.41-5-.2-.13-1.08-1.9-2.7-4a18.06,18.06,0,0,0-6.53-5.39c-5.89-2.7-8.45-8.82-8.45-8.82s-.57-.41-1.41-.95a17.09,17.09,0,0,0-5.77-2.57c-2.82-.35-8.07-6.12-8.07-6.12s-3.59-2.3-5-5.25-21.22-16.46-23.06-17.72l48.18,30.94,11.53,7.41,16.53-12.94,26-25.63s-3.5-.17-8.59-.39c-12.64-.55-35.1-1.4-37.93-.77a21.64,21.64,0,0,1-7,.47s-6.4.28-10.63-1.95-10.9-3.28-11.67-4.93S920,726.54,920,726.54s-30.89-16.4-41.91-6.66S866.93,738.59,868.6,742.69Z" transform="translate(-28 -62.64)" fill="#65617d"/><path d="M968.18,648.63l4,13.2,5.12,29.73,18.84,1.28,5.46-9,5.44-9s3.39-12,5.82-23.63c2.16-10.29,3.57-20.27,1.22-21.35-2.08-1-3.44-4.42-4.33-8.15-.11-.46-.22-.93-.31-1.39a71.87,71.87,0,0,1-1.25-9.56s-39.47-2.05-34,14.23a25.78,25.78,0,0,1,1.48,8.65,19.6,19.6,0,0,1-.13,2.21A18.48,18.48,0,0,1,968.18,648.63Z" transform="translate(-28 -62.64)" fill="#ee8e9e"/><path d="M960,646.45l1.41,22.42,3.21,19.1,3.59,8.84,3.2,48.38s30.9,3.58,38.41-.06a3.26,3.26,0,0,0,1.36-1.06c9.08-13.71,6.11-53.41,6.11-53.41l3.46-25.63-2.31-13.3-5.58-.59-4.29-.46s-1,1.19-2.36,3c-3.8,5-10.79,14.88-10.32,19,.64,5.64-.77,11.41-3,12.3s-4,2.44-4.36.9-.77-1.92-.38-4.1S986.5,673,986.5,673s-3.46-7.82-3.2-11.15-.39-7.18-1.41-8.08-2.44-1.79-1.28-5.89-5.06-12.08-5.06-12.08Z" transform="translate(-28 -62.64)" fill="#e3e8f4"/><path d="M1000.79,702.46l1.28,38.32,7.4,4.1a3.18,3.18,0,0,0,1.36-1.06c9.08-13.71,6.11-53.41,6.11-53.41l3.46-25.63-2.31-13.3-5.58-.59c2.16-10.29,3.57-20.26,1.22-21.35-2.08-1-3.45-4.42-4.33-8.14h0l-4,27.11s.34,2.44.46,5a14.3,14.3,0,0,1-.33,4.78c-.9,2.3-.25,6.4-.25,6.4-2.32,4.08-3.47,11.62-4,18.9C1000.5,693.23,1000.79,702.46,1000.79,702.46Z" transform="translate(-28 -62.64)" opacity="0.1"/><path d="M1009.52,620.78s6.46.81,8.51,3.5,7.43,3.07,7.43,3.07,6.15,2,6,2.57,1.8,1.28,5.64,2.3,10.25,4.75,10.25,5.64,10.13,10.9,10.13,11.92,3.07,4.87,2.69,11.66-.77,15.38.77,16.79,0,6.92,0,6.92a3.79,3.79,0,0,0-.13,4.1c1.28,2.31-.26,11.92-.26,11.92l.13,10s-1.41,6.28.26,6.53-.26,3.08-.26,3.08-1.41,5.12.39,7.43,2.3,12.18,2.3,12.18l27.43,39.85s.38,7.31-8.33,7.18-8.59,1.66-8.33,3.33-2.44,3.46-2.44,3.46-3.46,1.79-1.41,4,8,7.18-1.79,10.51a23.34,23.34,0,0,1-2.82-5.12,58.5,58.5,0,0,1-2-6.93s-.9-9.73-2.69-11-1.54-7.43-1.54-7.43,2.56-5-1-7.05-55.61-30.88-55.61-30.88l-1.29-38.32s-.89-28.32,4.49-37.81c0,0-.64-4.1.26-6.4s-.13-9.74-.13-9.74Z" transform="translate(-28 -62.64)" fill="#3f3d56"/><path d="M975.93,636.16s-12.88-2.65-16.34-.86-10.25,3.2-11.28,4.23-3.59.25-5.89,6.28-2.57,12.17-5.51,15-4.49,4.74-4.62,6.79.39,2.57-.77,3.21-2.82,3.33-2.3,4.36,26.65,23.58,26.65,23.58,1.28,8.58,2.44,10.76-1.28,32.17-3.85,34.22,17.3,1.86,17.3,1.86.9-19.68,1.67-20.7-.51-22-.51-22-.13-17.94,1.53-22.69,1.48-20.5,1.48-20.5,1.48-9.46,3.27-11.66S975.93,636.16,975.93,636.16Z" transform="translate(-28 -62.64)" opacity="0.1"/><path d="M975.55,635.78s-12.89-2.66-16.35-.86-10.25,3.2-11.27,4.22-3.59.26-5.9,6.28-2.56,12.18-5.51,15-4.48,4.74-4.61,6.79.38,2.56-.77,3.2-2.82,3.34-2.31,4.36,26.66,23.58,26.66,23.58,1.28,8.59,2.43,10.77-1.28,32.16-3.84,34.21,17.3,1.86,17.3,1.86.9-19.67,1.66-20.7-.51-22-.51-22-.13-17.94,1.54-22.68,1.48-20.51,1.48-20.51,1.47-9.46,3.26-11.66S975.55,635.78,975.55,635.78Z" transform="translate(-28 -62.64)" fill="#3f3d56"/><path d="M974.2,624.92a25.78,25.78,0,0,1,1.48,8.65,29.05,29.05,0,0,0,8.39,1.22,29.35,29.35,0,0,0,25.34-14.54,71.87,71.87,0,0,1-1.25-9.56S968.69,608.64,974.2,624.92Z" transform="translate(-28 -62.64)" opacity="0.1"/><path d="M954.72,604.67a29.35,29.35,0,1,0,.64-6.1A29.35,29.35,0,0,0,954.72,604.67Z" transform="translate(-28 -62.64)" fill="#ee8e9e"/><path d="M935.88,672.59l-7,2.18a3.67,3.67,0,0,1-1.41,3.85,4.27,4.27,0,0,0-1.79,3.84s-.77,2.82-2.57,3.46-2.94,4.87-2.94,4.87l-5.9,6.79s-2.18,1.8-1.79,2.69-2.31,1.16-2.31,1.16l1.41,22.81,12.18,2.3,7.56-.76,6.15-2.31,5.38-3.2,2.44-6.28L956,697.58Z" transform="translate(-28 -62.64)" fill="#3f3d56"/><path d="M911.92,703.22s-15.64-22.55-27.3-10.38,4.74,31.91,8.58,31.27,22.18-1.67,22.18-1.67Z" transform="translate(-28 -62.64)" fill="#ee8e9e"/><rect x="858.91" y="672.36" width="81.83" height="63.54" rx="1.54" ry="1.54" transform="translate(390.39 -394.71) rotate(27.04)" fill="#3f3d56"/><rect x="865.54" y="678.14" width="68.78" height="51.83" transform="translate(390.37 -394.77) rotate(27.04)" fill="#4285f4"/><circle cx="838.91" cy="624.56" r="1.13" fill="#e6e8ec"/><circle cx="905.22" cy="658.54" r="1.86" fill="#e6e8ec"/><path d="M901.79,708c-.13,16.92,34.86,20.51,34.86,20.51l8.94,1.41,4,.64L951.26,714s-1.83-.28-4.13-.81c-3.38-.79-7.77-2.15-8.69-4.06C936.9,705.91,901.92,691.05,901.79,708Z" transform="translate(-28 -62.64)" fill="#ee8e9e"/><path d="M955.36,598.57a3.5,3.5,0,0,1,2.14,1c1,1.05,1,2.91,2.34,3.56a2.57,2.57,0,0,0,1.53.17c3.4-.48,5.38-4.33,8.65-5.38a8.61,8.61,0,0,1,5.73.49,4.33,4.33,0,0,1,1.9,1.22c1.09,1.42.33,3.5.83,5.21.71,2.38,3.55,3.33,6,3.64s5.23.49,6.87,2.34a6.24,6.24,0,0,1,1.23,5,3.82,3.82,0,0,0,0,1.84c.68,1.92,4,1.63,4.87.12.64-1.11.44-2,1.94-2.33a6.32,6.32,0,0,1,3.14.54,23.05,23.05,0,0,0,8.11,1.25,29.35,29.35,0,1,0-55.27-18.59Z" transform="translate(-28 -62.64)" opacity="0.1"/><path d="M992.57,616.81a4,4,0,0,1,0-1.84,6.19,6.19,0,0,0-1.22-5c-1.64-1.85-4.41-2-6.87-2.34s-5.3-1.25-6-3.63c-.5-1.72.26-3.81-.83-5.22a4.33,4.33,0,0,0-1.9-1.22,8.67,8.67,0,0,0-5.73-.49c-3.27,1-5.25,4.9-8.65,5.38a2.57,2.57,0,0,1-1.53-.17c-1.29-.65-1.35-2.51-2.34-3.56-1.55-1.65-4.5-.58-6.41-1.81-1.24-.79-1.72-2.35-2.07-3.79-.68-2.79-1.22-5.71-.57-8.5,1.12-4.77,5.38-8,8.1-12.11,2.53-3.79,4-8.59,7.77-11.1s8.7-2,13-.67a38.47,38.47,0,0,0,6.09,1.6c3.47.42,7-.52,10.43-.64a22.41,22.41,0,0,1,13.78,4.19,7.61,7.61,0,0,1,2.25,2.27,12,12,0,0,1,1,4.08,20.92,20.92,0,0,0,2.7,7.5c1.08,1.8,2.43,3.44,3.4,5.3a8.08,8.08,0,0,1,.92,6.07c-.33,1.06-1,2-1.22,3.09-.57,2.5,1.08,4.89,2.2,7.2a13.47,13.47,0,0,1,1.5,6.83,8.57,8.57,0,0,1-3.07,6.14,11,11,0,0,1-6.5,2,22.8,22.8,0,0,1-8.27-1.24,6.43,6.43,0,0,0-3.14-.54c-1.5.31-1.3,1.22-1.94,2.33C996.57,618.44,993.25,618.73,992.57,616.81Z" transform="translate(-28 -62.64)" fill="#3f3d56"/><path d="M976.76,782.29l16.53-12.94,26-25.63s-3.5-.17-8.59-.39a5.61,5.61,0,0,0-1.81,3.5c-.13,3.14-7,.22-10.62,2S977.15,773.11,974.07,773s-5.51-1.56-6.79.62l-.1.14a3.65,3.65,0,0,1-1.95,1.16Z" transform="translate(-28 -62.64)" opacity="0.1"/><path d="M943.44,781.39l8.31,26.52,1.3,4.16,4-1.08,8.73-2.39,38.84-10.67a33.8,33.8,0,0,0,14-3.73,42.36,42.36,0,0,1,24.14-5.27c5.13.49,10.84-1.73,15.58-10.48,0,0,10.76-31.78-16.41-40.88s-28.46,4.83-28.46,4.83l-.37.23c-1.06.67-4,2.79-4.12,5.36-.13,3.13-7,.21-10.62,2s-21.14,24.26-24.22,24.11-5.51-1.56-6.79.62l-.1.14c-.95,1.31-3.8,1.62-5.69,1.67-1,0-1.77,0-1.77,0l-.24.08-2,.58Z" transform="translate(-28 -62.64)" fill="#65617d"/><path d="M945.59,729.88l4,.64L951.26,714s-1.83-.28-4.13-.81C947.74,715.49,946.37,724.4,945.59,729.88Z" transform="translate(-28 -62.64)" opacity="0.1"/><path d="M1050.38,652.64s11.92-3.46,9,30.37-25,55.23-25,55.23-25.37,11.15-36.78,9.36-19.74-2.18-19.74-2.18a29,29,0,0,0-11.53-3.08c-6.41-.25-19.86-4.23-20.12-5.51s3.33-20.12,1.8-21.53c0,0,17.94.74,19.73,2s4.36.36,6.28,0,7.82-5.5,19.48-1c0,0,4,.38,5.51-.64s4-.26,4-.26a11.29,11.29,0,0,0,2.78-1.41c.39-.51,3.46,0,3.46,0a1.36,1.36,0,0,0,1.92-.89,8.46,8.46,0,0,1,1.8-2.82s3.46-19.48,10-26.79c0,0,1.92-1.66,1.4-3.71S1035,648.54,1050.38,652.64Z" transform="translate(-28 -62.64)" opacity="0.1"/><path d="M1050.06,650s11.92-3.46,9,30.37-25,55.23-25,55.23-25.38,11.15-36.78,9.36-19.74-2.18-19.74-2.18A29,29,0,0,0,966,739.74c-6.41-.25-19.87-4.22-20.12-5.51s3.33-20.12,1.79-21.53c0,0,17.94.74,19.74,2s4.35.37,6.28,0,7.81-5.5,19.47-1c0,0,4,.38,5.52-.64s4-.26,4-.26a11.14,11.14,0,0,0,2.79-1.41c.38-.51,3.46,0,3.46,0a1.36,1.36,0,0,0,1.92-.89,8.34,8.34,0,0,1,1.79-2.82s3.46-19.48,10-26.79c0,0,1.92-1.66,1.41-3.71S1034.69,645.94,1050.06,650Z" transform="translate(-28 -62.64)" fill="#3f3d56"/><path d="M957.5,777.18l16.93,20.49.11-.12c.13-.39,1.79-4.75,1.41-5s-3.33-6.67-9.23-9.36a17.48,17.48,0,0,1-7.24-6.59Z" transform="translate(-28 -62.64)" opacity="0.1"/><path d="M957.74,812.62l1.85,1.07s4.29-3.45,8.56-6.91,8.42-6.87,8.48-7.06c.13-.38,1.8-4.74,1.41-5-.2-.13-1.08-1.9-2.7-4-11.47-3.21-4.17,4.75-3.19,5.12,0,0-14-3.21-14.74,12A18,18,0,0,0,957.74,812.62Z" transform="translate(-28 -62.64)" opacity="0.1"/><path d="M971.89,819.07l2.44,1.41,24.73.64s5.31,3.21,8.75,4.21a7.76,7.76,0,0,0,1.25.28,56.41,56.41,0,0,0,6.89.13c1.89,0,3.36-.13,3.36-.13s-1.17-31.19-2-34.48c-.43-1.57-2.5-1.22-4.54-.44a30.66,30.66,0,0,0-4.43,2.25s-10.51,1-12.18,1.92-6.4-.52-9.35,0-8.2-3.47-8.2-3.47c-14.36-4.74-6.29,4.1-5.26,4.49,0,0-14-3.21-14.74,12S971.89,819.07,971.89,819.07Z" transform="translate(-28 -62.64)" fill="#3f3d56"/><path d="M1007.64,807c.27,6.45,5.31,14.47,8.31,18.71,1.89,0,3.36-.13,3.36-.13s-1.17-31.19-2-34.48c-.43-1.57-2.5-1.22-4.54-.44C1010.23,795.35,1007.43,801.82,1007.64,807Z" transform="translate(-28 -62.64)" fill="#565387"/><path d="M1007.64,807c.27,6.45,5.31,14.47,8.31,18.71,1.89,0,3.36-.13,3.36-.13s-1.17-31.19-2-34.48c-.43-1.57-2.5-1.22-4.54-.44C1010.23,795.35,1007.43,801.82,1007.64,807Z" transform="translate(-28 -62.64)" opacity="0.1"/><path d="M1003.42,807.88c1.7,6.24,1.68,13.23,4.39,17.45a7.76,7.76,0,0,0,1.25.28,56.41,56.41,0,0,0,6.89.13c1.89,0,3.36-.13,3.36-.13s-1.17-31.19-2-34.48c-.43-1.57-2.5-1.22-4.54-.44a30.66,30.66,0,0,0-4.43,2.25S1001.24,799.9,1003.42,807.88Z" transform="translate(-28 -62.64)" opacity="0.05"/><path d="M918.09,744.65s12.28,4,22.69,18.16Z" transform="translate(-28 -62.64)" opacity="0.1"/><g opacity="0.1"><path d="M1017.92,590.88c0,.09,0,.18-.08.27a8.78,8.78,0,0,1-.42,1.07A7,7,0,0,1,1017.92,590.88Z" transform="translate(-28 -62.64)"/><path d="M948.41,584.66a12.18,12.18,0,0,1,1-2.59c-.07.22-.14.44-.19.67-.65,2.79-.11,5.71.57,8.5.35,1.43.82,3,2.07,3.79,1.9,1.23,4.86.16,6.41,1.81,1,1,1,2.91,2.34,3.55a2.57,2.57,0,0,0,1.53.18c3.4-.48,5.37-4.33,8.65-5.39a8.68,8.68,0,0,1,5.73.5,4.25,4.25,0,0,1,1.9,1.22c1.09,1.41.32,3.5.83,5.21.71,2.38,3.54,3.33,6,3.64s5.23.48,6.87,2.34a6.19,6.19,0,0,1,1.22,5,4,4,0,0,0,0,1.84c.68,1.92,4,1.63,4.87.11.63-1.1.44-2,1.94-2.32a6.32,6.32,0,0,1,3.14.54,23,23,0,0,0,8.27,1.24,11.06,11.06,0,0,0,6.5-2,7.64,7.64,0,0,0,2-2.42,8.1,8.1,0,0,1-2.76,4.34,11,11,0,0,1-6.5,2,22.8,22.8,0,0,1-8.27-1.24,6.43,6.43,0,0,0-3.14-.54c-1.5.31-1.31,1.22-1.94,2.33-.87,1.51-4.19,1.8-4.87-.12a4,4,0,0,1,0-1.84,6.19,6.19,0,0,0-1.22-5c-1.64-1.85-4.41-2-6.87-2.34s-5.3-1.25-6-3.63c-.51-1.72.26-3.81-.83-5.22a4.33,4.33,0,0,0-1.9-1.22,8.67,8.67,0,0,0-5.73-.49c-3.27,1-5.25,4.9-8.65,5.38a2.57,2.57,0,0,1-1.53-.17c-1.29-.65-1.35-2.51-2.34-3.56-1.55-1.65-4.5-.58-6.41-1.81-1.24-.79-1.72-2.35-2.07-3.79C948.3,590.37,947.76,587.45,948.41,584.66Z" transform="translate(-28 -62.64)"/></g><path d="M1019.9,687.23c-2.34,3.17-5,6.1-7.1,9.46s-3.55,7.26-3.12,11.18c2.15-2.2,3.14-5.25,4.49-8,2.3-4.69,5.73-8.66,8.63-13,.55-.82,4.09-5.57,2.3-5.8C1023.62,680.9,1020.7,686.15,1019.9,687.23Z" transform="translate(-28 -62.64)" opacity="0.1"/></svg>