<svg id="a72efc3b-c8ca-4ac7-8d6e-ec44610d5e5f" data-name="Layer 1" xmlns="http://www.w3.org/2000/svg" xmlns:xlink="http://www.w3.org/1999/xlink" width="1177.82" height="836.94" viewBox="0 0 1177.82 836.94"><defs><linearGradient id="ea2a8d95-0699-482c-91e0-ca0cacc7c232" x1="232.43" y1="292.26" x2="232.43" y2="247.6" gradientUnits="userSpaceOnUse"><stop offset="0" stop-color="gray" stop-opacity="0.25"/><stop offset="0.54" stop-color="gray" stop-opacity="0.12"/><stop offset="1" stop-color="gray" stop-opacity="0.1"/></linearGradient><linearGradient id="b656a8ae-b549-4f4b-a44e-d2f1362afc31" x1="408.15" y1="247.13" x2="408.15" y2="202.46" xlink:href="#ea2a8d95-0699-482c-91e0-ca0cacc7c232"/><linearGradient id="b10a0065-53c1-4d9e-b99d-b718a629214b" x1="616.5" y1="333.84" x2="616.5" y2="289.17" xlink:href="#ea2a8d95-0699-482c-91e0-ca0cacc7c232"/><linearGradient id="bfbeeaf2-a683-44d0-8e10-e16cdf93710e" x1="829.09" y1="363.41" x2="829.09" y2="318.75" xlink:href="#ea2a8d95-0699-482c-91e0-ca0cacc7c232"/><linearGradient id="fb4cfe3a-7af2-4b22-b7a9-00d134c7f93e" x1="886.06" y1="392.32" x2="886.06" y2="347.66" xlink:href="#ea2a8d95-0699-482c-91e0-ca0cacc7c232"/><linearGradient id="bf81fb29-ed39-4b28-8488-01fed2cfb575" x1="957.49" y1="315.08" x2="957.49" y2="270.41" xlink:href="#ea2a8d95-0699-482c-91e0-ca0cacc7c232"/><linearGradient id="b71406f3-4257-4384-ba99-31ba324d4435" x1="943.03" y1="377.73" x2="943.03" y2="333.07" xlink:href="#ea2a8d95-0699-482c-91e0-ca0cacc7c232"/><linearGradient id="eb943baf-c412-4f05-8efc-9ee158cc9537" x1="471.08" y1="247.13" x2="471.08" y2="202.46" xlink:href="#ea2a8d95-0699-482c-91e0-ca0cacc7c232"/><linearGradient id="b69c398c-54a9-47dd-afd9-5e0a5757f9a8" x1="255.53" y1="355.4" x2="255.53" y2="310.73" xlink:href="#ea2a8d95-0699-482c-91e0-ca0cacc7c232"/><linearGradient id="e3af3aa4-a222-4e60-9637-0eaa2901e9f3" x1="441.44" y1="311.5" x2="441.44" y2="266.84" xlink:href="#ea2a8d95-0699-482c-91e0-ca0cacc7c232"/><linearGradient id="ad37da05-9f52-438b-b0f9-c6be067943d0" x1="681.87" y1="284.81" x2="681.87" y2="240.15" xlink:href="#ea2a8d95-0699-482c-91e0-ca0cacc7c232"/><linearGradient id="a265d039-0f6d-45fd-ab7e-3e2cd81e15a7" x1="925.27" y1="253.49" x2="925.27" y2="208.83" xlink:href="#ea2a8d95-0699-482c-91e0-ca0cacc7c232"/><linearGradient id="babc5ba7-c6fe-48e2-92bf-72856f98d351" x1="742.73" y1="247.13" x2="742.73" y2="202.46" xlink:href="#ea2a8d95-0699-482c-91e0-ca0cacc7c232"/><linearGradient id="ec9e310d-9a5b-45f6-8698-da6dc9c57588" x1="740.12" y1="333.84" x2="740.12" y2="289.17" xlink:href="#ea2a8d95-0699-482c-91e0-ca0cacc7c232"/><linearGradient id="b3661b6d-d573-4e01-a978-b086bfcbdc08" x1="533.02" y1="268.69" x2="533.02" y2="224.03" xlink:href="#ea2a8d95-0699-482c-91e0-ca0cacc7c232"/><linearGradient id="b8b14048-6787-4a2b-bd44-c1ec7ea7272f" x1="287.92" y1="283.06" x2="287.92" y2="238.4" xlink:href="#ea2a8d95-0699-482c-91e0-ca0cacc7c232"/><linearGradient id="fe094bed-fd2f-41a8-9bb1-a3b86eba6c14" x1="310.98" y1="333.84" x2="310.98" y2="289.17" xlink:href="#ea2a8d95-0699-482c-91e0-ca0cacc7c232"/><linearGradient id="b9692457-795f-4873-987a-fd1d41e3d8dd" x1="502.32" y1="341.08" x2="502.32" y2="296.42" xlink:href="#ea2a8d95-0699-482c-91e0-ca0cacc7c232"/><linearGradient id="b4b795d7-efc6-49d3-84fc-f260d7c9dd5c" x1="839.93" y1="253.49" x2="839.93" y2="208.83" xlink:href="#ea2a8d95-0699-482c-91e0-ca0cacc7c232"/><linearGradient id="e5745201-e903-41b8-9c5c-e2d7c4777962" x1="880.75" y1="315.08" x2="880.75" y2="270.41" xlink:href="#ea2a8d95-0699-482c-91e0-ca0cacc7c232"/><linearGradient id="b3cc34d3-f838-4603-bb51-088152e015c9" x1="620.53" y1="247.13" x2="620.53" y2="202.46" xlink:href="#ea2a8d95-0699-482c-91e0-ca0cacc7c232"/><linearGradient id="b3771d5f-6b05-4923-81a0-f9623be616e8" x1="676.65" y1="377.73" x2="676.65" y2="333.07" xlink:href="#ea2a8d95-0699-482c-91e0-ca0cacc7c232"/><linearGradient id="a5464100-bfa1-4039-8123-dc9b79f8f7ac" x1="378.28" y1="850.01" x2="378.28" y2="245.95" gradientTransform="matrix(-1, 0, 0, 1, 1188.16, 0)" xlink:href="#ea2a8d95-0699-482c-91e0-ca0cacc7c232"/><linearGradient id="f7a9ddad-0622-4a2a-ab1d-dd2f922ca980" x1="499.11" y1="829.74" x2="499.11" y2="228.24" gradientTransform="matrix(-1, 0, 0, 1, 1014.03, 0)" xlink:href="#ea2a8d95-0699-482c-91e0-ca0cacc7c232"/></defs><title>scrum board</title><path d="M1188.91,569.07a320.15,320.15,0,0,1-7.07,67.29q-2.38,11.11-5.53,21.78-3.9,13.3-8.92,25.79-2.55,6.36-5.39,12.5A190.7,190.7,0,0,1,1149.83,764c-14.35,38-40.48,69-73.18,87.11A137,137,0,0,1,1010,868.47H234.68c-41.44,0-79.85-14.73-111.34-39.83a205.27,205.27,0,0,1-25.57-24.35A217.49,217.49,0,0,1,69.66,764c-18.14-33.35-28.59-72.61-28.59-114.63C22.12,611,11.09,565,11.09,515.5c0-62.39,17.56-119.29,46.41-162.38a222.06,222.06,0,0,1,19.71-25.33,192.82,192.82,0,0,1,22.54-21.32,171.51,171.51,0,0,1,20-13.86c2.89-1.7,5.79-3.3,8.74-4.79q3.88-2,7.86-3.73,4.77-2.1,9.66-3.85t9.65-3.07A136.49,136.49,0,0,1,169.91,274c4-.69,8-1.2,12-1.53q4.77-.39,9.62-.45c.59,0,1.16,0,1.75,0,3.56,0,7.1.17,10.61.44.37-.86.77-1.72,1.14-2.58,1.4-3.08,2.85-6.14,4.31-9.16a.35.35,0,0,0,0-.08c.25-.52.5-1,.76-1.55,1.18-2.46,2.41-4.9,3.67-7.32.58-1.12,1.15-2.23,1.74-3.34.13-.26.26-.51.41-.77.6-1.15,1.21-2.29,1.83-3.43q4.63-8.53,9.63-16.8c.29-.47.56-.94.85-1.4.52-.85,1-1.7,1.58-2.54,1.38-2.24,2.8-4.47,4.23-6.68,1-1.56,2-3.12,3.08-4.66q3.9-5.85,8-11.55t8.52-11.4c.4-.52.8-1,1.22-1.55l4.27-5.37h0l.59-.73h0l1.55-1.89c2.29-2.79,4.64-5.55,7-8.28a402.78,402.78,0,0,1,38.3-38.55c.53-.49,1.07-1,1.6-1.42,2.54-2.21,5.12-4.39,7.7-6.53a403.55,403.55,0,0,1,44.41-32c1.06-.68,2.14-1.34,3.23-2a403.86,403.86,0,0,1,42.49-22.6Q418,62.76,430.25,58.06c5.42-2.06,10.86-4,16.37-5.84Q459.4,48,472.5,44.57a404.94,404.94,0,0,1,78.24-12.32q12-.72,24.27-.72A406.42,406.42,0,0,1,692,48.62a4.08,4.08,0,0,0,3.63,2.18H699c1.46.46,2.91.94,4.37,1.42q12.23,4.06,24.11,8.89l2,.82a405.55,405.55,0,0,1,104.56,62.86q3.51,2.89,6.92,5.87,4.14-3.07,8.42-5.87a154,154,0,0,1,34.88-17.18,138.67,138.67,0,0,1,78.24-3.54c33.25,8.15,63.35,28.37,87.66,57.12a234.54,234.54,0,0,1,26.29,38.56c.55,1,1.1,2,1.63,3a271.55,271.55,0,0,1,16.74,38.55c.17.48.34,1,.49,1.44a298.58,298.58,0,0,1,10.3,38.53c.12.66.26,1.33.38,2a317.85,317.85,0,0,1,4.92,38.55c0,.47,0,.94.08,1.41q.63,10.06.64,20.34,0,9.2-.51,18.22c0,.67-.08,1.35-.13,2-.09,1.75-.22,3.5-.35,5.24a205.42,205.42,0,0,1,21.38,23.28q4.37,5.53,8.46,11.45a249.89,249.89,0,0,1,21.8,38.55C1179.19,479.26,1188.91,522.64,1188.91,569.07Z" transform="translate(-11.09 -31.53)" fill="#ffc107" opacity="0.1"/><path d="M1083.91,829.83c0,14.85-45.92,28.4-121.38,38.64h-708c-75.45-10.24-121.37-23.79-121.37-38.64,0-11.31,26.64-21.87,72.7-30.79h0l1.3-.25c13-2.49,27.53-4.85,43.41-7.06l1.21-.17h0q18.9-2.61,40.21-4.93l1.34-.14q8.22-.9,16.78-1.74h0l2.2-.21c41.55-4,88.78-7.24,140-9.41h.06q10.76-.45,21.75-.84,12.22-.45,24.74-.8c6.37-.19,12.82-.35,19.29-.5h.15c29.19-.69,59.35-1.05,90.19-1.05,76.26,0,148.34,2.19,212.21,6.08h.18c9.82.6,19.46,1.23,28.86,1.91l8,.59q15.91,1.2,31,2.54h0C1007.07,793.59,1083.91,810.62,1083.91,829.83Z" transform="translate(-11.09 -31.53)" fill="#ffc107" opacity="0.1"/><path d="M328,136.85v30.33a4.1,4.1,0,0,1-4.1,4.11H268.38a402.78,402.78,0,0,1,38.3-38.55h17.23A4.1,4.1,0,0,1,328,136.85Z" transform="translate(-11.09 -31.53)" fill="none" stroke="#fff" stroke-miterlimit="10" opacity="0.03"/><path d="M1007.4,136.79V592.41a12,12,0,0,1-12,12H181.91a12,12,0,0,1-12-12V274c4-.69,8-1.2,12-1.53q4.77-.39,9.62-.45c.59,0,1.16,0,1.75,0,3.56,0,7.1.17,10.61.44.37-.86.77-1.72,1.14-2.58,1.4-3.08,2.85-6.14,4.31-9.16a.35.35,0,0,0,0-.08c.25-.52.5-1,.76-1.55,1.18-2.46,2.41-4.9,3.67-7.32.58-1.12,1.15-2.23,1.74-3.34.13-.26.26-.51.41-.77.6-1.15,1.21-2.29,1.83-3.43q4.63-8.53,9.63-16.8c.29-.47.56-.94.85-1.4.52-.85,1-1.7,1.58-2.54,1.38-2.24,2.8-4.47,4.23-6.68,1-1.56,2-3.12,3.08-4.66q3.9-5.85,8-11.55t8.52-11.4c.4-.52.8-1,1.22-1.55l4.27-5.37h0l.59-.73h0l1.55-1.89c2.29-2.79,4.64-5.55,7-8.28a402.78,402.78,0,0,1,38.3-38.55c.53-.49,1.07-1,1.6-1.42,2.54-2.21,5.12-4.39,7.7-6.53H834.07q3.51,2.89,6.92,5.87,4.14-3.07,8.42-5.87h146A12,12,0,0,1,1007.4,136.79Z" transform="translate(-11.09 -31.53)" fill="#fff"/><path d="M959.43,212.09v11.34H229.88c1.38-2.24,2.8-4.47,4.24-6.68,1-1.56,2-3.12,3.07-4.66Z" transform="translate(-11.09 -31.53)" fill="#3f3d56"/><rect x="581.36" y="366.94" width="431.85" height="11.34" transform="translate(1158.8 -456.2) rotate(90)" fill="#3f3d56"/><rect x="372.73" y="366.94" width="431.85" height="11.34" transform="translate(950.17 -247.57) rotate(90)" fill="#3f3d56"/><rect x="164.1" y="366.94" width="431.85" height="11.34" transform="translate(741.54 -38.94) rotate(90)" fill="#3f3d56"/><path d="M255.49,247.6v44.66H209.37v-31.6s0-.05,0-.08c.25-.52.5-1,.76-1.55,1.19-2.46,2.41-4.9,3.68-7.32.57-1.12,1.14-2.23,1.73-3.34.13-.26.27-.51.41-.77Z" transform="translate(-11.09 -31.53)" fill="url(#ea2a8d95-0699-482c-91e0-ca0cacc7c232)"/><path d="M254.7,248.37v43.12H210.17V259c1.19-2.46,2.41-4.9,3.68-7.32.57-1.12,1.14-2.23,1.73-3.34Z" transform="translate(-11.09 -31.53)" fill="#7cfcff"/><rect x="385.08" y="202.46" width="46.13" height="44.66" fill="url(#b656a8ae-b549-4f4b-a44e-d2f1362afc31)"/><rect x="385.88" y="203.23" width="44.54" height="43.12" fill="#7cfcff"/><rect x="593.43" y="289.17" width="46.13" height="44.66" fill="url(#b10a0065-53c1-4d9e-b99d-b718a629214b)"/><rect x="594.23" y="289.94" width="44.54" height="43.12" fill="#7cfcff"/><rect x="806.03" y="318.75" width="46.13" height="44.66" fill="url(#bfbeeaf2-a683-44d0-8e10-e16cdf93710e)"/><rect x="806.82" y="319.52" width="44.54" height="43.12" fill="#7cfcff"/><rect x="862.99" y="347.66" width="46.13" height="44.66" fill="url(#fb4cfe3a-7af2-4b22-b7a9-00d134c7f93e)"/><rect x="863.79" y="348.43" width="44.54" height="43.12" fill="#7cfcff"/><rect x="934.43" y="270.41" width="46.13" height="44.66" fill="url(#bf81fb29-ed39-4b28-8488-01fed2cfb575)"/><rect x="935.22" y="271.18" width="44.54" height="43.12" fill="#7cfcff"/><rect x="919.97" y="333.07" width="46.13" height="44.66" fill="url(#b71406f3-4257-4384-ba99-31ba324d4435)"/><rect x="920.76" y="333.84" width="44.54" height="43.12" fill="#7cfcff"/><rect x="448.01" y="202.46" width="46.13" height="44.66" fill="url(#eb943baf-c412-4f05-8efc-9ee158cc9537)"/><rect x="448.81" y="203.23" width="44.54" height="43.12" fill="#7cfcff"/><rect x="232.47" y="310.73" width="46.13" height="44.66" fill="url(#b69c398c-54a9-47dd-afd9-5e0a5757f9a8)"/><rect x="233.26" y="311.5" width="44.54" height="43.12" fill="#ffffa5"/><rect x="418.37" y="266.84" width="46.13" height="44.66" fill="url(#e3af3aa4-a222-4e60-9637-0eaa2901e9f3)"/><rect x="419.17" y="267.61" width="44.54" height="43.12" fill="#ffffa5"/><rect x="658.81" y="240.15" width="46.13" height="44.66" fill="url(#ad37da05-9f52-438b-b0f9-c6be067943d0)"/><rect x="659.6" y="240.92" width="44.54" height="43.12" fill="#ffffa5"/><rect x="902.2" y="208.83" width="46.13" height="44.66" fill="url(#a265d039-0f6d-45fd-ab7e-3e2cd81e15a7)"/><rect x="903" y="209.6" width="44.54" height="43.12" fill="#ffffa5"/><rect x="719.67" y="202.46" width="46.13" height="44.66" fill="url(#babc5ba7-c6fe-48e2-92bf-72856f98d351)"/><rect x="720.46" y="203.23" width="44.54" height="43.12" fill="#ffffa5"/><rect x="717.05" y="289.17" width="46.13" height="44.66" fill="url(#ec9e310d-9a5b-45f6-8698-da6dc9c57588)"/><rect x="717.85" y="289.94" width="44.54" height="43.12" fill="#ffffa5"/><rect x="509.95" y="224.03" width="46.13" height="44.66" fill="url(#b3661b6d-d573-4e01-a978-b086bfcbdc08)"/><rect x="510.75" y="224.79" width="44.54" height="43.12" fill="#ffffa5"/><rect x="264.85" y="238.4" width="46.13" height="44.66" fill="url(#b8b14048-6787-4a2b-bd44-c1ec7ea7272f)"/><rect x="265.65" y="239.17" width="44.54" height="43.12" fill="#ff69b4"/><rect x="287.92" y="289.17" width="46.13" height="44.66" fill="url(#fe094bed-fd2f-41a8-9bb1-a3b86eba6c14)"/><rect x="288.71" y="289.94" width="44.54" height="43.12" fill="#ff69b4"/><rect x="479.26" y="296.42" width="46.13" height="44.66" fill="url(#b9692457-795f-4873-987a-fd1d41e3d8dd)"/><rect x="480.05" y="297.19" width="44.54" height="43.12" fill="#ff69b4"/><rect x="816.86" y="208.83" width="46.13" height="44.66" fill="url(#b4b795d7-efc6-49d3-84fc-f260d7c9dd5c)"/><rect x="817.66" y="209.6" width="44.54" height="43.12" fill="#ff69b4"/><rect x="857.68" y="270.41" width="46.13" height="44.66" fill="url(#e5745201-e903-41b8-9c5c-e2d7c4777962)"/><rect x="858.48" y="271.18" width="44.54" height="43.12" fill="#ff69b4"/><rect x="597.46" y="202.46" width="46.13" height="44.66" fill="url(#b3cc34d3-f838-4603-bb51-088152e015c9)"/><rect x="598.26" y="203.23" width="44.54" height="43.12" fill="#ff69b4"/><rect x="653.59" y="333.07" width="46.13" height="44.66" fill="url(#b3771d5f-6b05-4923-81a0-f9623be616e8)"/><rect x="654.38" y="333.84" width="44.54" height="43.12" fill="#ff69b4"/><path d="M930.21,373.5a8.83,8.83,0,0,0-3.52-5.92,35.06,35.06,0,0,0-6.12-3.54,5,5,0,0,1-1.78-1.27,15.91,15.91,0,0,1-1-1.92c-1.2-2.09-3.8-2.75-5.84-4-3.64-2.21-5.32-6.13-6.83-10.25-.1-.26-.18-.52-.28-.77-1.47-4.08-2.87-8.26-5.92-11.12a12.7,12.7,0,0,0-15.88-.85,3.74,3.74,0,0,1-2.24,1.11,4.23,4.23,0,0,1-2.15-1.16,8.77,8.77,0,0,0-5.36-1.48,51.08,51.08,0,0,1-1.51-11.15v-.1s0,0,0,0a0,0,0,0,1,0,0,0,0,0,0,1,0,0h0a.15.15,0,0,1,0-.07h0c0-.93,0-1.85,0-2.78H872l.41,0a7.15,7.15,0,0,0,2.21-.25,6,6,0,0,0,.87-.32h0c2.69-1.27,4.32-4.27,5.53-7.11.8-1.88,1.54-3.81,2.17-5.78.08-.25.15-.5.24-.76h0c.11-.4.24-.81.34-1.22,0-.13.07-.26.1-.39s.07-.25.1-.38l.09-.42.51.36h0l.09.05,1.1.77c5.16,3.53,10.58,6.86,12.82,6.94h0a1.16,1.16,0,0,0,.66-.13c1.45-.8-1.33-3.78-4.82-6.81-.29-.26-.6-.51-.91-.77-2.59-2.19-5.38-4.31-7-5.53l-1.5-1.09c2-1.83,3.16-5.11,3.68-8a62.07,62.07,0,0,0,.94-8.39v-.14a33.85,33.85,0,0,0-.81-9c-1.36-5.72-4.8-11.18-10-13.86-1.5-.78-3.21-1.39-4.69-2.23-.28-.16-.53-.33-.79-.5h0a6.94,6.94,0,0,1-1.3-1.11,4.53,4.53,0,0,1-.66-.9,2.68,2.68,0,0,1-.26-.47,6.06,6.06,0,0,0-.74-1.43c-1-1.11-2.68-.78-4.13-.6l-.48,0h-.39l-.38,0c-5.19.12-10.2-2.78-15.45-2.78-5.74,0-10.63,3.33-15.69,5.61-1,.47-2,.89-2.89,1.32-.76.36-1.47.72-2.16,1.11h0a9.21,9.21,0,0,0-.78.49h0a11.1,11.1,0,0,0-4.28,5,10.3,10.3,0,0,0-2.11,4.07,10.06,10.06,0,0,0-.27,2.09A34.67,34.67,0,0,0,811,290.37c0,.49,0,1,0,1.44v.07a34.7,34.7,0,0,0,24.69,31.76h0c.39.12.79.24,1.2.34.1.34.24.68.34,1,.21.65.41,1.29.56,1.94h0c.1.32.17.65.24,1a27.07,27.07,0,0,1,.72,6.79c0,.2,0,.39,0,.6,0,0,0,0,0,0h0s0,.05,0,.07a26.36,26.36,0,0,0-7.5,3,14.47,14.47,0,0,0-6.31,7.77,6.23,6.23,0,0,0-.2.73,20.08,20.08,0,0,0-5.71-1c-1.77-.06-3.75.13-4.92,1.47a4.44,4.44,0,0,0-.91,1.89c-.68.61-.8,1.68-1.27,2.5-1.46,2.56-5.26,1.72-8.12,2.42a5.63,5.63,0,0,0-.85.28h0c-2.71,1-5,3.4-7.88,3.42a20.13,20.13,0,0,0-3.45-.19l-.21.05c-1.19.3-2.14,1.94-1.22,2.76-1.41-.32-2.79.63-3.69,1.77s-1.45,2.5-2.42,3.57a3.74,3.74,0,0,0-3.79-1.47,13.74,13.74,0,0,0-4,1.58,5.49,5.49,0,0,1-1.77.62,7.66,7.66,0,0,1-2.13-.19,17.2,17.2,0,0,0-10.09,1.41c-2.76,1.31-5.43-1.1-8.48-1.29a4.7,4.7,0,0,1-3.1-1,1.34,1.34,0,0,1-.23-.25,4.51,4.51,0,0,1-.44-.77c-.2-.46-.33-1-.5-1.43a12.15,12.15,0,0,0-8.39-7.76l-.5-.12a8.85,8.85,0,0,0,.42-1.76s0,0,0,0a0,0,0,0,0,0,0,10.39,10.39,0,0,0-6.51-11,11,11,0,0,0-3.8-9.63,16.84,16.84,0,0,1-1.82-1.43l-.1-.08a4.64,4.64,0,0,1-.69-.91s0,0,0,0a14.07,14.07,0,0,1-1.06-2.33c-.89-2.38-1.8-4.76-2.69-7.14-1.2-.24-2.13-.74-3.27-.93,0-.24,0-.48,0-.73a23.72,23.72,0,0,0-1.23-7.17,33.1,33.1,0,0,0-3.89-7.72v0c-.25-.4-.51-.79-.78-1.18h0c-.34-.53-.71-1-1.07-1.56-2.58-3.59-5.45-7.14-9.27-9.31a36.14,36.14,0,0,0-3.95-1.82l-7-2.87a3.29,3.29,0,0,0-1.25-.34c-1.68,0-2.13,2.31-1.46,3.9a3.94,3.94,0,0,0,.29.54c2.13,3.12,6.9,4,8.23,7.53a4.81,4.81,0,0,0-1.83.39,5.3,5.3,0,0,0-3.13,3.48,2.87,2.87,0,0,1-.66,1.56c-.63.49-1.58.21-2.27.59-1.24.66-.71,2.51-.84,3.91-.12,1.25-.89,2.33-1.27,3.52a6.2,6.2,0,0,0-.15,2.84l.06.3v0a3.43,3.43,0,0,0,.09.44A9.06,9.06,0,0,0,691,319a22.43,22.43,0,0,0,4.56,4.62c1.14.94,2.3,1.89,3.52,2.75.35.24.69.47,1,.7a1.18,1.18,0,0,0-.11.19c0,.14-.11.28-.17.43h0s0,0,0,0a2.2,2.2,0,0,0-.12,1.24,2,2,0,0,0,.39.82l0,0a7.47,7.47,0,0,0,.88.9,18,18,0,0,1,5.48,9.9,6.06,6.06,0,0,1-.08,2.24h0v0a18.42,18.42,0,0,0-.89,4.54,7.14,7.14,0,0,0,.14,1.12v0a23.74,23.74,0,0,0,1.58,5.17c1.86,4.72,3.83,9.6,7.54,13a42.1,42.1,0,0,0,8.46,20.83c3.89,5,9.1,8.78,14.25,12.49a26.68,26.68,0,0,0,5.26,3.3,30.26,30.26,0,0,0,5.22,1.41,268,268,0,0,0,43.65,5.1l2,.07h.1c0,.77.07,1.54.1,2.31q.51,11.53.47,23.08v.73c0,.45,0,.89,0,1.34a11.59,11.59,0,0,1-.62,4.43,12.83,12.83,0,0,1-2.08,3c-.19.24-.4.49-.59.74-3,4-3.58,9.33-3.48,14.47v.09c0,.77,0,1.54.08,2.3A157.19,157.19,0,0,0,790,482.8c1.18,6.42.68,13.34,1.6,19.84a32,32,0,0,0,1.6,6.52q1.81,4.87,3.62,9.73a8.54,8.54,0,0,1,.72,2.87,4.8,4.8,0,0,1-.07.93h0v0c-.32,1.73-1.49,3.27-2.39,4.83a16.72,16.72,0,0,0-2.11,8.84c0,.08,0,.16,0,.25h0a1.44,1.44,0,0,0,.24.72c.39.54,1.21.49,1.86.39a74.12,74.12,0,0,1,7.85-.73h0l.28,0c-.09.11-.19.22-.28.34h0c-.3.41-.6.85-.89,1.33h0l-.14.24a30,30,0,0,0-1.73,3.54,33.47,33.47,0,0,0-2.3,6.35,5.8,5.8,0,0,0-.23,1c-.16.66-.3,1.32-.4,2a63.51,63.51,0,0,0-.72,10.4v.62c0,.22,0,.43,0,.65,0,0,0,0,0,.06v.11c-.08,1.55-.16,3.12-.25,4.64-.29,5.56-.63,10.55-1.19,12.28a10.1,10.1,0,0,0-.34,3.4V584a27.84,27.84,0,0,0,.64,4.53c.31,1.58.72,3.21,1.13,4.82l0,.16c0,.6.06,1.19.12,1.78v.08a29.36,29.36,0,0,0,1.59,7.73s0,.08,0,.12c0,.4,0,.79,0,1.19a1.34,1.34,0,0,0,0,.2v0c0,.72.09,1.45.16,2.17.22,2.11.57,4.21,1,6.31,0,.12,0,.23,0,.35q3,16.66,6.1,33.31c.12.67.25,1.33.38,2q3.36,17.82,7,35.59c.21,1,.4,2,.62,3,.11.47.21.95.33,1.42s.28,1.15.42,1.72a49.45,49.45,0,0,0,9.11,18,82.34,82.34,0,0,1,9.5,15.22c0,.15-.07.29-.11.44h0c-.22,1.06-.46,2.11-.71,3.16l-.06.24c-2.66,11.29-6.21,22.42-7.44,34-.09.83-.16,1.66-.24,2.5-.36,3.79-.71,7.6-2.2,11.08-.43,1-.95,1.95-1.4,2.94a10.69,10.69,0,0,0-1.07,3.63,2.79,2.79,0,0,0,0,.5.57.57,0,0,0,0,.13.43.43,0,0,0,0,.05s0,0,0,0a7.22,7.22,0,0,0,1,3.54l-.13.1c-.27.21-.53.41-.78.62l-.5.42c-3.45,2.74-8.07,3.3-12.34,4.41s-8.83,3.36-10.15,7.58c-.08.27-.14.54-.2.82a2.76,2.76,0,0,0-.06.4s0,0,0,0v0a7.28,7.28,0,0,0-.09,1.23v.09a1.23,1.23,0,0,0,0,.19,11.39,11.39,0,0,0,5,8.35c3.54,2.43,8,3.19,12.2,3.74s8.64,1,12.5,2.87c3.32,1.65,6.13,4.36,9.65,5.55.21.07.42.11.64.17l-.19.11c-.48.29-1,.57-1.45.83l-.78.43a36.56,36.56,0,0,1-11.65,3.71c-4.12.57-9,.84-11.13,4.42v0a.71.71,0,0,0-.08.18h0a2.38,2.38,0,0,0-.23.55l0,.08a1.17,1.17,0,0,0-.09.24,1.43,1.43,0,0,0-.09.27,1.89,1.89,0,0,1,0,.23,4.28,4.28,0,0,0-.17.79,6.62,6.62,0,0,0,.07,2.08,9.32,9.32,0,0,0,2.69,4.87c2.5,2.35,6,3.37,9.28,4.1,7.59,1.67,15.35,2.27,23.1,2.87l7.53.58c2.69.21,5.39.41,8.08.6,1.91.12,3.82.24,5.73.33s3.64.15,5.46.19h.08c.92,0,1.84,0,2.76,0h0q7,0,13.91-.59c4.47-.4,8.89-1,13.29-1.78a3,3,0,0,0,2.16-1,2,2,0,0,0,.13-.25.85.85,0,0,0,.06-.17.36.36,0,0,0,0-.09,1.29,1.29,0,0,0,0-.19,2.54,2.54,0,0,0,0-.29v-.09c0-.21,0-.42,0-.62,0-.95,0-1.89-.07-2.84,0-.17,0-.35,0-.52l0-.64-.06-1.17c-.07-1.14-.14-2.29-.24-3.43l-.12-1.36c0-.15,0-.3,0-.45,0-.34-.06-.68-.1-1,0-.19,0-.39-.07-.59l-.18-1.61c-.14-1.18-.3-2.35-.47-3.52q-.55-3.84-1.35-7.63s0,0,0-.07,0,0,0-.06c-.19-.86-.38-1.71-.56-2.56-.63-2.7-4.31,1-6.37,3.31-.27-1.29-.55-2.57-.89-3.82h0s0-.1,0-.15c.55-.25,1.09-.51,1.62-.77a5.76,5.76,0,0,0,3-2.48,4.31,4.31,0,0,0,.32-1.34,5.87,5.87,0,0,0,0-.84c0-.22,0-.44,0-.66-.3-5.94-.66-12.09-3.48-17.3a36.8,36.8,0,0,0-6.87-8.38c0-.64-.07-1.28-.1-1.92-.3-6.36-.73-12.72-1.33-19.07a278,278,0,0,0-5.31-34.47c-.71-3.07-1.43-6.14-2.32-9.17,0,0,0,0,0,0A60,60,0,0,0,872.1,703c-.67-1-1.39-2-2.12-3q-.32-5.62-1-11.26c-.6-5.16-1.4-10.3-2.25-15.39-.07-.48-.16-1-.21-1.47v-.08a4.84,4.84,0,0,1,.24-2,11.83,11.83,0,0,1,2-2.69,11.37,11.37,0,0,0,2.11-7,2.81,2.81,0,0,0,0-.29c0-2.65-.39-5.45-.57-8.08,0-.74-.07-1.47-.07-2.21h0v-.08a0,0,0,0,0,0,0h0c0-.11,0-.22,0-.33,0-.77,0-1.53.05-2.29.28-5.9,1.68-11.76,3-17.52,1.43-6,2.88-11.91,4.3-17.87h0c.57-2.32,1.13-4.65,1.67-7,.21-.83.41-1.65.6-2.48a43.88,43.88,0,0,1,2.32-7.57c1.52-3.43,3.89-6.4,5.92-9.55a53.55,53.55,0,0,0,8.35-28.43h0a.17.17,0,0,0,0-.07s0-.08,0-.12a1.34,1.34,0,0,0,0-.2c0-.68,0-1.35,0-2h0c0-.52,0-1-.09-1.58,1.24.44,2.49.89,3.72,1.37a21.08,21.08,0,0,0,.16-2.26v-.08c.1-4.63-.91-9.55-1-14.21a.66.66,0,0,1,0-.14v-.13a24.61,24.61,0,0,1,.31-4.57,18.39,18.39,0,0,1,.51-2.07c.35-.28.7-.56,1-.85l0,0a28.73,28.73,0,0,0,8.25-10.22c1.8-4,2.32-8.57,4.2-12.57,1.06-2.25,2.56-4.33,3.19-6.75a10.82,10.82,0,0,0,.33-2.26v-.12a74.36,74.36,0,0,0-.5-7.54v0c0-.4,0-.81,0-1.21.1-6.94,4.42-13.44,4.9-20.21v-.09a16.22,16.22,0,0,0-.16-3.4c-.53-3.37-2.32-6.52-2.65-9.88,0,0,0,0,0,0v0a8,8,0,0,1-.06-1.29,19.64,19.64,0,0,1,1.57-6.07c3.49-9.23,6.94-18.94,7.2-28.67a.27.27,0,0,0,0-.09v-.21a36.09,36.09,0,0,0-.61-7.95c-.46-2.55-1.21-5.07-1.41-7.63a16.36,16.36,0,0,1,0-2c.16-2.81,1.19-5.56,1.46-8.32,0,0,0,0,0,0a11.36,11.36,0,0,0,0-2.67,8.42,8.42,0,0,0-.9-2.64h0a8.37,8.37,0,0,0-.76-1.2,45.55,45.55,0,0,0,4.07-7.8,14.6,14.6,0,0,0,1-3.2,0,0,0,0,1,0,0A7.41,7.41,0,0,0,930.21,373.5ZM861.79,814.72h0l-.1-.06a12.49,12.49,0,0,0-3.33-.95c-.28,0-.57-.06-.85-.08h-.06a16.57,16.57,0,0,0,.33-2.83c0-.56,0-1.13,0-1.7,0-.26,0-.52,0-.79,0-.11,0-.21,0-.32,0-.56-.05-1.13-.09-1.69s-.11-1.22-.15-1.83h0v0a2.62,2.62,0,0,1,0-.28c.13.38.27.76.43,1.14q1.85,4.82,4,9.49Zm23.15-519.36h0s0,0,0,0Z" transform="translate(-11.09 -31.53)" fill="url(#a5464100-bfa1-4039-8123-dc9b79f8f7ac)"/><path d="M838.79,337.4c-.13,5.07-1.85,10-2.12,15.06,15,.74,29.69-6.51,44.48-4.29-4.13-2.67-6.34-7.5-7.64-12.25a50.61,50.61,0,0,1-1.46-18.82,7.59,7.59,0,0,1,.18-1c.55-2.48,2-6,1.59-7.95-.5-2.58-2.94-2.07-5.13-1.92a194.12,194.12,0,0,0-19.94,2.57c-1.72.3-18.47,4.48-18.72,4.05,2.76,4.77,5.57,9.73,7.25,14.93A29.09,29.09,0,0,1,838.79,337.4Z" transform="translate(-11.09 -31.53)" fill="#ee8e9e"/><path d="M691,321.72a21.66,21.66,0,0,0,4.57,4.6c1.13.93,2.29,1.88,3.51,2.73a15,15,0,0,0,7.47,3c3.56.24,11.12-1.85,13.33-4.9a8.82,8.82,0,0,0,1.27-5.1,23.64,23.64,0,0,0-1.22-7.14,39.71,39.71,0,0,0-5.77-10.42c-2.57-3.58-5.43-7.1-9.26-9.27a35.92,35.92,0,0,0-3.94-1.81l-7-2.86a3.51,3.51,0,0,0-1.27-.33c-1.87,0-2.21,2.87-1.15,4.41,2.12,3.11,6.89,4,8.23,7.5a5.34,5.34,0,0,0-5,3.84,2.74,2.74,0,0,1-.67,1.56c-.61.49-1.57.21-2.27.58-1.23.66-.69,2.5-.82,3.9-.12,1.24-.9,2.31-1.28,3.5A7.44,7.44,0,0,0,691,321.72Z" transform="translate(-11.09 -31.53)" fill="#ee8e9e"/><path d="M897,830.52c-1.15-1.15-3-.95-4.64-.7a172.4,172.4,0,0,1-26.07,2.11c-1.09-5.34,2.08-10.53,3.1-15.88a14,14,0,0,1,1-4c1.22-2.36,4-3.44,6.6-4,4.7-1,12-2.74,14.67,2C894.85,815.76,895.86,824.18,897,830.52Z" transform="translate(-11.09 -31.53)" fill="#65617d"/><path d="M801.49,810.36c3.54,2.42,7.94,3.17,12.2,3.72s8.64.95,12.5,2.85c3.33,1.64,6.13,4.34,9.66,5.52,3.2,1.07,6.7.78,10,.16,4-.74,8.18-2.19,10.32-5.61,1.91-3,1.7-6.89,1.44-10.47-.31-4-.6-8.1-.9-12.15a5.93,5.93,0,0,0-.75-2.94c-2.87-4.17-9.83,1.75-13.55,1.74-5.91,0-12.25-3.2-16.5-7.12a5,5,0,0,0-1.28-1c-1.69-.76-3.37.64-4.87,1.86-.16.14-.33.27-.5.4-3.45,2.74-8.07,3.29-12.33,4.4s-8.83,3.34-10.15,7.54a6,6,0,0,0-.2.81C795.82,804,798.18,808.09,801.49,810.36Z" transform="translate(-11.09 -31.53)" fill="#3f3d56"/><path d="M801.49,810.36c3.54,2.42,7.94,3.17,12.2,3.72s8.64.95,12.5,2.85c3.33,1.64,6.13,4.34,9.66,5.52,3.2,1.07,6.7.78,10,.16,4-.74,8.18-2.19,10.32-5.61,1.91-3,1.7-6.89,1.44-10.47-.31-4-.6-8.1-.9-12.15a5.93,5.93,0,0,0-.75-2.94c-2.87-4.17-9.83,1.75-13.55,1.74-5.91,0-12.25-3.2-16.5-7.12a5,5,0,0,0-1.28-1c-1.69-.76-3.37.64-4.87,1.86-.16.14-.33.27-.5.4-3.45,2.74-8.07,3.29-12.33,4.4s-8.83,3.34-10.15,7.54a6,6,0,0,0-.2.81C795.82,804,798.18,808.09,801.49,810.36Z" transform="translate(-11.09 -31.53)" opacity="0.05"/><path d="M801.49,811.72c3.54,2.42,7.94,3.17,12.2,3.72s8.64.95,12.5,2.85c3.33,1.65,6.13,4.34,9.66,5.52,3.2,1.07,6.7.78,10,.16a16.56,16.56,0,0,0,10.32-7c1.91-3,1.7-6.89,1.44-10.47-.31-4-.6-8.1-.9-12.15a5.93,5.93,0,0,0-.75-2.94c-2.87-4.17-9.83,1.75-13.55,1.74-5.91,0-12.25-3.2-16.5-7.12a5,5,0,0,0-1.28-1c-1.69-.76-3.37.64-4.87,1.86a35,35,0,0,0,4.15,8.56c3,4.39,7.72,7.75,13,8.14,2.64.19,5.35-.33,7.9.35s4.93,3.29,4,5.77-4,3-6.58,3.09c-3.61.19-7.31.37-10.73-.75-2.09-.7-4-1.85-6-2.7-8.65-3.59-19.58-1.58-26.73-7.64a15.19,15.19,0,0,0-2.18-1.67C794.72,804,798.18,809.45,801.49,811.72Z" transform="translate(-11.09 -31.53)" fill="#e8eaf2"/><path d="M801.49,811.72c3.54,2.42,7.94,3.17,12.2,3.72s8.64.95,12.5,2.85c3.33,1.65,6.13,4.34,9.66,5.52,3.2,1.07,6.7.78,10,.16a16.56,16.56,0,0,0,10.32-7c1.91-3,1.7-6.89,1.44-10.47-.31-4-.6-8.1-.9-12.15a5.93,5.93,0,0,0-.75-2.94c-2.87-4.17-9.83,1.75-13.55,1.74-5.91,0-12.25-3.2-16.5-7.12a5,5,0,0,0-1.28-1c-1.69-.76-3.37.64-4.87,1.86a35,35,0,0,0,4.15,8.56c3,4.39,7.72,7.75,13,8.14,2.64.19,5.35-.33,7.9.35s4.93,3.29,4,5.77-4,3-6.58,3.09c-3.61.19-7.31.37-10.73-.75-2.09-.7-4-1.85-6-2.7-8.65-3.59-19.58-1.58-26.73-7.64a15.19,15.19,0,0,0-2.18-1.67C794.72,804,798.18,809.45,801.49,811.72Z" transform="translate(-11.09 -31.53)" opacity="0.05"/><path d="M895.39,546.93a53.18,53.18,0,0,1-7.3,39.26c-2,3.14-4.4,6.09-5.92,9.5a43.83,43.83,0,0,0-2.32,7.54l-6.56,27.19c-1.78,7.34-3.56,14.82-3,22.35.37,5.25,1.69,11.15-1.54,15.3a11.25,11.25,0,0,0-2,2.68,6.85,6.85,0,0,0,0,3.54c3.32,19.74,5.79,40.37-.21,59.47-5.44,17.31-5.76,36.49-10.38,54-.57,2.18-1.23,4.47-2.88,6a9.39,9.39,0,0,1-4.3,2c-6.82,1.63-14-.28-20.38-3.22-4.47-2.07-9.28-5.7-8.9-10.61.19-2.34,1.55-4.39,2.48-6.54,1.81-4.22,2-8.93,2.45-13.5,1.23-11.48,4.77-22.55,7.44-33.78s4.49-22.95,2.23-34.27a299.55,299.55,0,0,0-22-67.82,8.07,8.07,0,0,0-2-3c-.9-.74-2.09-1.08-2.86-2s-1-2.32-1.3-3.55c-1-3.58-3.95-6.22-5.93-9.37-5-7.94-3.42-18.12-3.23-27.5.18-9.13-1.13-18.34.36-27.34s6.65-18.2,15.33-21c4.3-1.39,8.95-1.08,13.45-.63C849.86,534,873,538.37,895.39,546.93Z" transform="translate(-11.09 -31.53)" fill="#303d5c"/><path d="M895.39,546.93a53.18,53.18,0,0,1-7.3,39.26c-2,3.14-4.4,6.09-5.92,9.5a43.83,43.83,0,0,0-2.32,7.54l-6.56,27.19c-1.78,7.34-3.56,14.82-3,22.35.37,5.25,1.69,11.15-1.54,15.3a11.25,11.25,0,0,0-2,2.68,6.85,6.85,0,0,0,0,3.54c3.32,19.74,5.79,40.37-.21,59.47-5.44,17.31-5.76,36.49-10.38,54-.57,2.18-1.23,4.47-2.88,6a9.39,9.39,0,0,1-4.3,2c-6.82,1.63-14-.28-20.38-3.22-4.47-2.07-9.28-5.7-8.9-10.61.19-2.34,1.55-4.39,2.48-6.54,1.81-4.22,2-8.93,2.45-13.5,1.23-11.48,4.77-22.55,7.44-33.78s4.49-22.95,2.23-34.27a299.55,299.55,0,0,0-22-67.82,8.07,8.07,0,0,0-2-3c-.9-.74-2.09-1.08-2.86-2s-1-2.32-1.3-3.55c-1-3.58-3.95-6.22-5.93-9.37-5-7.94-3.42-18.12-3.23-27.5.18-9.13-1.13-18.34.36-27.34s6.65-18.2,15.33-21c4.3-1.39,8.95-1.08,13.45-.63C849.86,534,873,538.37,895.39,546.93Z" transform="translate(-11.09 -31.53)" opacity="0.05"/><path d="M798.31,604.16a57.7,57.7,0,0,0,1.2,10.54q6.3,35.35,13.43,70.54c.42,2,.83,4.07,1.38,6.07a49.31,49.31,0,0,0,9.1,17.9c19.8,24.68,21.51,60.53,32.26,90.3.72,2,1.45,4,2.22,6a147.28,147.28,0,0,0,6.63,14.79,4.2,4.2,0,0,0,1.36,1.77,4.09,4.09,0,0,0,2.16.42A63,63,0,0,0,896,816.16a5.81,5.81,0,0,0,3-2.46,6.05,6.05,0,0,0,.31-2.84c-.3-5.9-.66-12-3.47-17.2a36.9,36.9,0,0,0-6.88-8.34c-.84-18.52-2.67-37.08-6.74-55.17-2.09-9.25-4.68-18.6-10-26.42-4-5.77-9.64-11.46-8.94-18.43.31-3,1.59-6.86-.9-8.66-1.09-.79-2.7-.89-3.43-2a3.79,3.79,0,0,1-.48-1.72,42.66,42.66,0,0,1,.88-14.29c.72-3.1,1.8-6.14,2.13-9.31s-.23-6.62-2.34-9c-.13-6.36,0-13-.09-19.3-.06-3.63-.13-7.31.89-10.78.49-1.67,1.22-3.26,1.59-5,1.33-6.1-2-13.42,2-18.26,1.65-2,4.19-3,6.34-4.46,4.31-2.88,7.13-7.58,8.7-12.51s2-10.15,2.47-15.32a15.94,15.94,0,0,0,0-3.31,5.93,5.93,0,0,0-.44-1.65c-1.23-2.76-4.53-3.83-7.47-4.54a241.41,241.41,0,0,0-57-6.66c-7.1-4.84-11.1-3.11-14.11,2a53.21,53.21,0,0,0-4,9.81c-1.38,4.15-1.46,27.41-2.8,31.58C793.35,587.38,798.38,598.46,798.31,604.16Z" transform="translate(-11.09 -31.53)" fill="#303d5c"/><path d="M926.7,392.54c.53,3.66-1.23,7.26-1.43,10.95-.17,3.22.86,6.37,1.45,9.55,2.29,12.4-2.11,24.95-6.6,36.73a18.9,18.9,0,0,0-1.56,6c-.12,3.85,2.09,7.37,2.7,11.17,1.27,8-4.61,15.49-4.74,23.58,0,3.72,1.12,7.51.19,11.11-.62,2.41-2.12,4.47-3.19,6.72-1.89,4-2.39,8.49-4.2,12.5-3.25,7.26-10.25,12-16.9,16.35-3.79-1.26-7.89-2.76-10-6.17a15.19,15.19,0,0,1-1.73-5.41c-1.44-8.27-1.39-16.71-1.34-25.1A155.85,155.85,0,0,1,880.53,479c1.34-9.12,4.3-17.91,6.42-26.88,2.68-11.31,4-23,8.22-33.85,3.66-9.54,9.37-18.1,15.38-26.29,2.29-3.13,4.1-7.6,8.55-6.88A9.32,9.32,0,0,1,926.7,392.54Z" transform="translate(-11.09 -31.53)" fill="#ffc107"/><path d="M926.7,392.54c.53,3.66-1.23,7.26-1.43,10.95-.17,3.22.86,6.37,1.45,9.55,2.29,12.4-2.11,24.95-6.6,36.73a18.9,18.9,0,0,0-1.56,6c-.12,3.85,2.09,7.37,2.7,11.17,1.27,8-4.61,15.49-4.74,23.58,0,3.72,1.12,7.51.19,11.11-.62,2.41-2.12,4.47-3.19,6.72-1.89,4-2.39,8.49-4.2,12.5-3.25,7.26-10.25,12-16.9,16.35-3.79-1.26-7.89-2.76-10-6.17a15.19,15.19,0,0,1-1.73-5.41c-1.44-8.27-1.39-16.71-1.34-25.1A155.85,155.85,0,0,1,880.53,479c1.34-9.12,4.3-17.91,6.42-26.88,2.68-11.31,4-23,8.22-33.85,3.66-9.54,9.37-18.1,15.38-26.29,2.29-3.13,4.1-7.6,8.55-6.88A9.32,9.32,0,0,1,926.7,392.54Z" transform="translate(-11.09 -31.53)" opacity="0.05"/><path d="M830,312.81c2.76,4.77,5.57,9.73,7.25,14.93a34.41,34.41,0,0,0,8.23,1c10.77,0,18.4-6.13,24.73-13.87.55-2.49,4-4.8,3.58-6.76-.5-2.58-2.94-2.07-5.13-1.92a194.12,194.12,0,0,0-19.94,2.57C847,309.06,830.28,313.24,830,312.81Z" transform="translate(-11.09 -31.53)" opacity="0.1"/><circle cx="834.42" cy="261.76" r="34.51" fill="#ee8e9e"/><path d="M801.9,540.56c6-.35,12-.11,18,.13a60.54,60.54,0,0,1,11.16,1.15c4.53,1,8.77,3.09,13.24,4.38,7.16,2.09,14.72,2.18,22.13,2.91a126.53,126.53,0,0,1,14.49,2.27,5.93,5.93,0,0,0-.44-1.65c-1.23-2.76-4.53-3.83-7.47-4.54a241.41,241.41,0,0,0-57-6.66C808.91,533.71,804.91,535.44,801.9,540.56Z" transform="translate(-11.09 -31.53)" opacity="0.1"/><path d="M825.42,349.79c1.51,1.74,3.53,3.66,5.76,3.1a8.09,8.09,0,0,0,2.24-1.2c4-2.57,8.86-3.17,13.54-3.87a200,200,0,0,0,27.89-6.27,28.38,28.38,0,0,1,8.25-1.68c5.85,0,11,3.92,14.7,8.48s6.26,9.89,9.86,14.5c2.56,3.29,5.61,6.19,8,9.6,6,8.61,7.34,19.85,5.78,30.26s-5.72,20.21-9.84,29.9c-2.36,5.55-4.74,11.13-8,16.19,1.39,7.91.66,16.95-3.1,24-1.23,2.31-2.73,4.56-3.13,7.15a17.75,17.75,0,0,0,.21,5.24l1.76,12.49c.53,3.81,1.07,7.61,1.76,11.39,1.27,6.92,3,14.43-.21,20.69-3.84,7.49.19,17.1-.82,25.46a128.07,128.07,0,0,0-33.63-8c-7.42-.73-15-.82-22.13-2.9-4.47-1.3-8.7-3.36-13.24-4.4a61.33,61.33,0,0,0-11.17-1.14c-8.27-.33-16.6-.66-24.78.56-.67.1-1.47.15-1.87-.39a1.79,1.79,0,0,1-.25-1,16.45,16.45,0,0,1,2.12-8.78c1-1.84,2.49-3.65,2.45-5.76a8.66,8.66,0,0,0-.72-2.86l-3.62-9.68c-3.07-8.16-1.61-17.65-3.2-26.22a154,154,0,0,1-2.38-20.29c-.3-5.82-.11-12.13,3.4-16.78a19,19,0,0,0,2.65-3.69,11.09,11.09,0,0,0,.63-4.41q.12-17.46-1-34.91c3.07-5.5,6.26-11.13,9.32-16.63,3.56-6.4,7.18-12.93,8.62-20.11,1-4.76.92-9.65,1.6-14.45a6.25,6.25,0,0,1,1.22-3.38c1.17-1.32,3.14-1.51,4.91-1.46A21.54,21.54,0,0,1,825.42,349.79Z" transform="translate(-11.09 -31.53)" fill="#ffc107"/><path d="M699.07,329.05a15,15,0,0,0,7.47,3c3.56.24,11.12-1.85,13.33-4.9a8.82,8.82,0,0,0,1.27-5.1,6.17,6.17,0,0,0-1.48-.29c-3.87-.23-7.82-.46-11.58.47s-7.4,3.21-9,6.75Z" transform="translate(-11.09 -31.53)" opacity="0.1"/><path d="M813.9,403.7c-2.11,2.61-4.29,5.31-7.27,6.85-3.43,1.78-7.47,1.82-11.33,1.74a270.92,270.92,0,0,1-47.35-5.2,29.25,29.25,0,0,1-5.21-1.4,27.75,27.75,0,0,1-5.27-3.28c-5.13-3.69-10.34-7.45-14.25-12.43a41.83,41.83,0,0,1-8.44-20.71c-3.72-3.42-5.69-8.29-7.55-13a20.08,20.08,0,0,1-1.72-6.31c-.1-2.23,1.38-4.57,1-6.77a17.9,17.9,0,0,0-5.47-9.85,3.57,3.57,0,0,1-1.31-1.73,2.8,2.8,0,0,1,.32-1.69c1.58-3.54,5.22-5.82,9-6.75s7.71-.69,11.58-.46c1.4.09,2.42.74,3.79,1l2.7,7.11a9.22,9.22,0,0,0,1.77,3.24,17.52,17.52,0,0,0,1.91,1.5,11,11,0,0,1,3.8,9.58,10.29,10.29,0,0,1,6.09,12.7,12.14,12.14,0,0,1,8.9,7.84,5.88,5.88,0,0,0,1.16,2.44,4.76,4.76,0,0,0,3.11,1c3,.19,5.71,2.59,8.48,1.29A17.19,17.19,0,0,1,772.37,369a7.43,7.43,0,0,0,2.15.19,5.84,5.84,0,0,0,1.76-.61,14.45,14.45,0,0,1,4-1.58,3.74,3.74,0,0,1,3.79,1.47c1-1.06,1.55-2.42,2.43-3.55a3.88,3.88,0,0,1,3.68-1.76c-.92-.82,0-2.45,1.21-2.75s2.45.14,3.68.14c3.19,0,5.64-2.92,8.74-3.68,2.85-.69,6.65.14,8.11-2.41.52-.9.62-2.12,1.5-2.67a2.87,2.87,0,0,1,1.92-.23,18.93,18.93,0,0,1,5.83,1.77c3,11.69,1.42,23.83-.86,35.68C819.22,394.64,817.5,399.2,813.9,403.7Z" transform="translate(-11.09 -31.53)" fill="#ffc107"/><path d="M814,445.59l14.86,30c-1.61-2.77-5-3.85-7.67-5.62a20.32,20.32,0,0,1-7.33-9.85A60.47,60.47,0,0,1,811,447.94c-.3-1.9-.93-4.57,0-6.29C812.73,442,813.29,444.18,814,445.59Z" transform="translate(-11.09 -31.53)" opacity="0.1"/><path d="M856.75,471c3.35,3.32,7.46,5.76,11.15,8.7,8.62,6.86,14.76,16.28,20.76,25.52A40.4,40.4,0,0,1,892.9,513c-.7.61-1.75,0-2.44-.63l-11.68-10.26a26.35,26.35,0,0,1-3.89-3.94c-2-2.72-2.92-6.13-4.76-9s-4.52-5-7.09-7.23-15-12.71-12-16.75C853.21,466.27,855,469.27,856.75,471Z" transform="translate(-11.09 -31.53)" opacity="0.1"/><path d="M831.25,341.13c3.7-2.31,8.06-3.28,12.35-4.07a26,26,0,0,1,7.86-.56c2.43.3,4.76,1.24,7.21,1.37,3.43.2,6.72-1.2,10-2.1s7.15-1.26,9.94.75a4.31,4.31,0,0,0,2.16,1.15,3.76,3.76,0,0,0,2.23-1.1,12.74,12.74,0,0,1,15.87.84c6.33,5.93,5.62,17.52,13,22,2.05,1.24,4.66,1.9,5.85,4a13.88,13.88,0,0,0,1,1.91,5.14,5.14,0,0,0,1.78,1.27,34.92,34.92,0,0,1,6.12,3.51,8.76,8.76,0,0,1,3.52,5.9,11,11,0,0,1-1.09,5,46.52,46.52,0,0,1-45.22,28.92c-1.69-.08-3.52-.31-4.74-1.48a8.92,8.92,0,0,1-1.66-2.73c-3.48-7.31-10-12.71-14.19-19.66-2.48-4.14-4.07-8.77-6.65-12.85C852.75,367,846.8,362.39,841,358c-3.28-2.5-6.93-5.12-11.06-4.95-3.67.16-6.35.36-5-4.15A14.41,14.41,0,0,1,831.25,341.13Z" transform="translate(-11.09 -31.53)" fill="#ffc107"/><path d="M831.25,341.13c3.7-2.31,8.06-3.28,12.35-4.07a26,26,0,0,1,7.86-.56c2.43.3,4.76,1.24,7.21,1.37,3.43.2,6.72-1.2,10-2.1s7.15-1.26,9.94.75a4.31,4.31,0,0,0,2.16,1.15,3.76,3.76,0,0,0,2.23-1.1,12.74,12.74,0,0,1,15.87.84c6.33,5.93,5.62,17.52,13,22,2.05,1.24,4.66,1.9,5.85,4a13.88,13.88,0,0,0,1,1.91,5.14,5.14,0,0,0,1.78,1.27,34.92,34.92,0,0,1,6.12,3.51,8.76,8.76,0,0,1,3.52,5.9,11,11,0,0,1-1.09,5,46.52,46.52,0,0,1-45.22,28.92c-1.69-.08-3.52-.31-4.74-1.48a8.92,8.92,0,0,1-1.66-2.73c-3.48-7.31-10-12.71-14.19-19.66-2.48-4.14-4.07-8.77-6.65-12.85C852.75,367,846.8,362.39,841,358c-3.28-2.5-6.93-5.12-11.06-4.95-3.67.16-6.35.36-5-4.15A14.41,14.41,0,0,1,831.25,341.13Z" transform="translate(-11.09 -31.53)" opacity="0.05"/><path d="M813.29,841.35c2.5,2.33,5.94,3.35,9.27,4.08,7.59,1.66,15.35,2.25,23.09,2.85l7.54.58c7.36.55,14.73,1.12,22.12,1.15a152.17,152.17,0,0,0,27.2-2.35A2.3,2.3,0,0,0,905,844.9a131.44,131.44,0,0,0-3.34-27.31c-.86-3.68-7.46,4.57-7.75,4.92-1.83,2.08-3.22,3-6,3.18-7.59.42-16.1-4.2-22.13-8.3a27.65,27.65,0,0,0-4.1-2.54,11.81,11.81,0,0,0-3.31-1,20.05,20.05,0,0,0-11.3,2.29c-4.53,2.25-8.51,5.48-13,7.79a36.27,36.27,0,0,1-11.65,3.69c-4.11.57-9,.84-11.13,4.4a0,0,0,0,0,0,0C809.54,835,810.8,839,813.29,841.35Z" transform="translate(-11.09 -31.53)" fill="#3f3d56"/><path d="M813.29,842.71c2.5,2.33,5.94,3.35,9.27,4.08,7.59,1.66,15.35,2.25,23.09,2.85l7.54.58c7.36.55,14.73,1.12,22.12,1.15a152.17,152.17,0,0,0,27.2-2.35,3,3,0,0,0,2.16-1c.32-.5,1.69-2.49,1.68-3.08-.15-9.19-2.64-18.36-4.7-27.31-.86-3.68-7.46,4.57-7.75,4.92-1.83,2.08-3.22,3-6,3.18-7.59.42-16.1-4.2-22.13-8.3a27.65,27.65,0,0,0-4.1-2.54,11.81,11.81,0,0,0-3.31-1c1,5.46,8.81,12.06,12.85,14.07,8.18,4.06,17.9,2,27,2.51a3.71,3.71,0,0,1,1.91.47c1.1.72,1.16,2.27,1.13,3.58-.08,2.18-.36,4.73-2.24,5.84a6.38,6.38,0,0,1-3,.63,427.54,427.54,0,0,1-67.4-2.36,37.25,37.25,0,0,1-11-2.44,28.15,28.15,0,0,1-6.37-4.1C808.4,834.36,810.8,840.38,813.29,842.71Z" transform="translate(-11.09 -31.53)" fill="#e8eaf2"/><path d="M832.08,292.92c.13,3.57-2.3,10.49,4.37,8.56,4-1.16,5.1-5.87,10.15-4.82s6.21,7.27,7.92,11.34a21.69,21.69,0,0,0,15.72,12.71,9.45,9.45,0,0,0,4.33,0c3.26-.93,5.12-4.29,6.45-7.4a59.18,59.18,0,0,0,2.85-8.12,34.57,34.57,0,0,0,1-6h0a27,27,0,0,0,0-4.12c-.61-8.11-5.22-15.51-11.14-21.11s-13.09-9.63-20.18-13.62a29.38,29.38,0,0,0-7.45-3.32,24.94,24.94,0,0,0-7.86-.32,27.12,27.12,0,0,0-10,2.35,14.15,14.15,0,0,0-3.52,2.47,10.54,10.54,0,0,0-3,5.09c-1.28,5.25,2.06,10,4.78,14.11C828.91,284.42,831.9,288.33,832.08,292.92Z" transform="translate(-11.09 -31.53)" fill="#3f3d56"/><path d="M719.77,369.51c1.43-3.59,7.43-13.53,5.69-16.95a45.2,45.2,0,0,0-4.56,8.15C719.77,363.49,720.69,367.22,719.77,369.51Z" transform="translate(-11.09 -31.53)" opacity="0.1"/><path d="M826.35,280.74c-2.72-4.15-6.07-8.87-4.79-14.11a11.11,11.11,0,0,1,3.88-5.81,9.66,9.66,0,0,0-1,2.45c-1.28,5.24,2.07,10,4.79,14.11,2.41,3.68,5.4,7.59,5.58,12.18.13,3.56-2.31,10.49,4.37,8.56,4-1.15,5.1-5.87,10.15-4.81s6.2,7.26,7.91,11.33A21.73,21.73,0,0,0,873,317.35a9.45,9.45,0,0,0,4.33,0,6.47,6.47,0,0,0,2-1,8.78,8.78,0,0,1-4.94,4.36,9.45,9.45,0,0,1-4.33,0A21.73,21.73,0,0,1,854.36,308c-1.71-4.07-2.82-10.27-7.91-11.34s-6.17,3.67-10.15,4.82c-6.68,1.93-4.24-5-4.37-8.56C831.76,288.33,828.76,284.42,826.35,280.74Z" transform="translate(-11.09 -31.53)" opacity="0.1"/><path d="M824.87,273.65a31.13,31.13,0,0,0,2,2.92,35.77,35.77,0,0,0,4.72,4.89c1,.89,2.09,1.72,3.19,2.5a51.2,51.2,0,0,0,6.44,3.85c6.53,3.29,13.59,5.35,20.62,7.38l13.78,4c1.69,1.28,4.79,3.59,8.21,6a34.57,34.57,0,0,0,1-6h0a27,27,0,0,0,0-4.12c-.61-8.11-5.22-15.51-11.14-21.11s-13.09-9.63-20.18-13.62a29.38,29.38,0,0,0-7.45-3.32,24.94,24.94,0,0,0-7.86-.32,27.12,27.12,0,0,0-10,2.35,14.15,14.15,0,0,0-3.52,2.47,13.14,13.14,0,0,0-1.77,3.74C822.13,268.1,823.33,271.14,824.87,273.65Z" transform="translate(-11.09 -31.53)" opacity="0.1"/><path d="M824.87,272.72a31.13,31.13,0,0,0,2,2.92,35.77,35.77,0,0,0,4.72,4.89c1,.89,2.09,1.72,3.19,2.5a51.2,51.2,0,0,0,6.44,3.85c6.53,3.29,13.59,5.35,20.62,7.39l13.78,4c4.81,3.64,20.9,15.56,23.61,14.07,3.19-1.75-14.28-14.12-14.28-14.12l-.81.61c2.56-1.61,3.9-5.34,4.48-8.56,1-5.77,1.5-11.77.13-17.47s-4.79-11.13-10-13.8c-2.32-1.19-5.13-2-6.8-3.83a4.89,4.89,0,0,1-.66-.89,4.31,4.31,0,0,1-.26-.47,6.14,6.14,0,0,0-.73-1.42c-1-1.11-2.7-.78-4.15-.6l-.46.05q-.39,0-.78,0c-5.18.12-10.2-2.77-15.44-2.77-5.75,0-10.63,3.32-15.69,5.59-1,.46-2,.88-2.9,1.31-3.65,1.7-6.4,3.51-7.91,8.35C822.13,267.17,823.33,270.21,824.87,272.72Z" transform="translate(-11.09 -31.53)" fill="#ffc107"/><path d="M864.94,251.87a2.35,2.35,0,0,0,.54,3,4.29,4.29,0,0,0,2.18.78,15.82,15.82,0,0,0,1.69.13,4.65,4.65,0,0,0,2.24-.39,2,2,0,0,0,.39-.25,4.89,4.89,0,0,1-.66-.89c-.13.1-.26.08-.78,0a12,12,0,0,1-2.79-.48,2.74,2.74,0,0,1-2-2Z" transform="translate(-11.09 -31.53)" opacity="0.1"/><path d="M884.64,298.08a6.4,6.4,0,0,1-2.38.89,9.65,9.65,0,0,1-1.85.3A10.25,10.25,0,0,1,875.9,298Z" transform="translate(-11.09 -31.53)" opacity="0.1"/><path d="M453.3,406.32,452,403.46l-.52.14,1.36,2.85,9.8,20.65c-.21.27-3.1,3.73-3,7a4.71,4.71,0,0,0,.25,1.49c.5,1.46,1.12,2.05,1.68,2.21,0-.09,0-.17,0-.25a6.16,6.16,0,0,1,0-1l0-.19,0-.2v-.05a1,1,0,0,1,0-.17s0-.05,0-.07,0,0,0,0a1.74,1.74,0,0,0,.05-.22h0a.22.22,0,0,1,0-.08s0-.07,0-.1l.12-.43.05-.12.06-.22c.05-.14.1-.29.16-.43a1.19,1.19,0,0,1,.08-.2l.12-.28c.12-.28.26-.55.39-.82s.27-.5.41-.73a17.45,17.45,0,0,1,1.32-1.9Zm10.9,34.6-.06,0a1.24,1.24,0,0,1-.61,0h-.1a1.27,1.27,0,0,1-.18-.06,1.41,1.41,0,0,1-.41-.25l-.15-.14a3.74,3.74,0,0,1-.72-1.14,3.67,3.67,0,0,0-.22,1.17,1.87,1.87,0,0,0,.91,1.75,3.4,3.4,0,0,1,.95.94v0h0a.07.07,0,0,0,0-.06v0a.29.29,0,0,1,0-.09.17.17,0,0,1,0-.07,5.45,5.45,0,0,1,.43-1.19c.1-.19.19-.37.3-.54a1.71,1.71,0,0,1,.13-.23l.09-.14.15-.24A1.78,1.78,0,0,1,464.2,440.92Zm0,0-.06,0a1.24,1.24,0,0,1-.61,0h-.1a1.27,1.27,0,0,1-.18-.06,1.41,1.41,0,0,1-.41-.25l-.15-.14a3.74,3.74,0,0,1-.72-1.14,3.67,3.67,0,0,0-.22,1.17,1.87,1.87,0,0,0,.91,1.75,3.4,3.4,0,0,1,.95.94v0h0a.07.07,0,0,0,0-.06v0a.29.29,0,0,1,0-.09.17.17,0,0,1,0-.07,5.45,5.45,0,0,1,.43-1.19c.1-.19.19-.37.3-.54a1.71,1.71,0,0,1,.13-.23l.09-.14.15-.24A1.78,1.78,0,0,1,464.2,440.92Zm-10.9-34.6L452,403.46l-.52.14,1.36,2.85,9.8,20.65c-.21.27-3.1,3.73-3,7a4.71,4.71,0,0,0,.25,1.49c.5,1.46,1.12,2.05,1.68,2.21,0-.09,0-.17,0-.25a6.16,6.16,0,0,1,0-1,.53.53,0,0,1,0-.13s0-.09,0-.14v0a.22.22,0,0,0,0-.08h0v-.05a.25.25,0,0,1,0-.08v0a.56.56,0,0,1,0-.12s0,0,0,0a1.55,1.55,0,0,1,.05-.23.22.22,0,0,1,0-.08s0-.07,0-.1l.12-.43.05-.12.06-.22c.05-.14.1-.29.16-.43a1.19,1.19,0,0,1,.08-.2l.12-.28c.12-.28.26-.55.39-.82s.27-.5.41-.73a17.45,17.45,0,0,1,1.32-1.9Zm10.9,34.6-.06,0a1.24,1.24,0,0,1-.61,0h-.1a1.27,1.27,0,0,1-.18-.06,1.41,1.41,0,0,1-.41-.25l-.15-.14a3.74,3.74,0,0,1-.72-1.14,3.67,3.67,0,0,0-.22,1.17,1.87,1.87,0,0,0,.91,1.75,3.4,3.4,0,0,1,.95.94v0h0a.07.07,0,0,0,0-.06v0a.29.29,0,0,1,0-.09.17.17,0,0,1,0-.07,5.45,5.45,0,0,1,.43-1.19l.21-.41.09-.13a1.71,1.71,0,0,1,.13-.23l.09-.14.15-.24A1.78,1.78,0,0,1,464.2,440.92Zm-10.9-34.6L452,403.46l-.52.14,1.36,2.85,9.8,20.65c-.21.27-3.1,3.73-3,7a4.71,4.71,0,0,0,.25,1.49c.5,1.46,1.12,2.05,1.68,2.21,0-.09,0-.17,0-.25a6.16,6.16,0,0,1,0-1,.53.53,0,0,1,0-.13s0-.09,0-.14v0a.22.22,0,0,0,0-.08h0v0a.25.25,0,0,1,0-.08v0a.56.56,0,0,1,0-.12s0,0,0,0a1.55,1.55,0,0,1,.05-.23.22.22,0,0,1,0-.08s0-.07,0-.1l.12-.43.05-.12.06-.22c.05-.14.1-.29.16-.43a1.19,1.19,0,0,1,.08-.2l.12-.28c.12-.28.26-.55.39-.82s.27-.5.41-.73a17.45,17.45,0,0,1,1.32-1.9Zm10.9,34.6-.06,0a1.24,1.24,0,0,1-.61,0h-.1a1.27,1.27,0,0,1-.18-.06,1.41,1.41,0,0,1-.41-.25l-.15-.14a3.74,3.74,0,0,1-.72-1.14,3.67,3.67,0,0,0-.22,1.17,1.87,1.87,0,0,0,.91,1.75,3.4,3.4,0,0,1,.95.94v0h0a.07.07,0,0,0,0-.06v0a.25.25,0,0,1,0-.08.24.24,0,0,1,0-.08,5.45,5.45,0,0,1,.43-1.19l.21-.41.09-.13a1.71,1.71,0,0,1,.13-.23l.09-.14.15-.24A1.78,1.78,0,0,1,464.2,440.92Zm-10.9-34.6L452,403.46l-.52.14,1.36,2.85,9.8,20.65c-.21.27-3.1,3.73-3,7a4.71,4.71,0,0,0,.25,1.49c.5,1.46,1.12,2.05,1.68,2.21,0-.09,0-.17,0-.25a6.16,6.16,0,0,1,0-1,.53.53,0,0,1,0-.13s0-.09,0-.14v0a.22.22,0,0,0,0-.08h0v0a.25.25,0,0,1,0-.08v0a.56.56,0,0,1,0-.12s0,0,0,0a1.55,1.55,0,0,1,.05-.23.22.22,0,0,1,0-.08s0-.07,0-.1l.12-.43.05-.12.06-.22c.05-.14.1-.29.16-.43a1.19,1.19,0,0,1,.08-.2l.12-.28c.12-.28.26-.55.39-.82s.27-.5.41-.73a17.45,17.45,0,0,1,1.32-1.9Zm10.9,34.6-.06,0a1.24,1.24,0,0,1-.61,0h-.1a1.27,1.27,0,0,1-.18-.06,1.41,1.41,0,0,1-.41-.25l-.15-.14a3.74,3.74,0,0,1-.72-1.14,3.67,3.67,0,0,0-.22,1.17,1.87,1.87,0,0,0,.91,1.75,3.4,3.4,0,0,1,.95.94v0h0a.07.07,0,0,0,0-.06v0a.25.25,0,0,1,0-.08.24.24,0,0,1,0-.08,5.45,5.45,0,0,1,.43-1.19l.21-.41.09-.13a1.71,1.71,0,0,1,.13-.23l.09-.14.15-.24A1.78,1.78,0,0,1,464.2,440.92Zm-10.9-34.6L452,403.46l-.52.14,1.36,2.85,9.8,20.65c-.21.27-3.1,3.73-3,7a4.71,4.71,0,0,0,.25,1.49c.5,1.46,1.12,2.05,1.68,2.21,0-.09,0-.17,0-.25a6.16,6.16,0,0,1,0-1,.53.53,0,0,1,0-.13s0-.09,0-.14v0a.22.22,0,0,0,0-.08h0v0a.25.25,0,0,1,0-.08v0a.56.56,0,0,1,0-.12s0,0,0,0a1.55,1.55,0,0,1,.05-.23.22.22,0,0,1,0-.08s0-.07,0-.1l.12-.43.05-.12.06-.22c.05-.14.1-.29.16-.43a1.19,1.19,0,0,1,.08-.2l.12-.28c.12-.28.26-.55.39-.82s.27-.5.41-.73a17.45,17.45,0,0,1,1.32-1.9Zm10.9,34.6-.06,0a1.24,1.24,0,0,1-.61,0h-.1a1.27,1.27,0,0,1-.18-.06,1.41,1.41,0,0,1-.41-.25l-.15-.14a3.74,3.74,0,0,1-.72-1.14,3.67,3.67,0,0,0-.22,1.17,1.87,1.87,0,0,0,.91,1.75,3.4,3.4,0,0,1,.95.94v0h0a.07.07,0,0,0,0-.06v0a.25.25,0,0,1,0-.08.24.24,0,0,1,0-.08,5.45,5.45,0,0,1,.43-1.19l.21-.41.09-.13a1.71,1.71,0,0,1,.13-.23l.09-.14.15-.24A1.78,1.78,0,0,1,464.2,440.92Zm-10.9-34.6L452,403.46l-.52.14,1.36,2.85,9.8,20.65c-.21.27-3.1,3.73-3,7a4.71,4.71,0,0,0,.25,1.49c.5,1.46,1.12,2.05,1.68,2.21,0-.09,0-.17,0-.25a6.16,6.16,0,0,1,0-1,.53.53,0,0,1,0-.13s0-.09,0-.14v0a.22.22,0,0,0,0-.08h0v0a.25.25,0,0,1,0-.08v0a.56.56,0,0,1,0-.12s0,0,0,0a1.55,1.55,0,0,1,.05-.23.22.22,0,0,1,0-.08s0-.07,0-.1l.12-.43.05-.12.06-.22c.05-.14.1-.29.16-.43a1.19,1.19,0,0,1,.08-.2l.12-.28c.12-.28.26-.55.39-.82s.27-.5.41-.73a17.45,17.45,0,0,1,1.32-1.9Zm10.9,34.6-.06,0a1.24,1.24,0,0,1-.61,0h-.1a1.27,1.27,0,0,1-.18-.06,1.41,1.41,0,0,1-.41-.25l-.15-.14a3.74,3.74,0,0,1-.72-1.14,3.67,3.67,0,0,0-.22,1.17,1.87,1.87,0,0,0,.91,1.75,3.4,3.4,0,0,1,.95.94v0h0a.07.07,0,0,0,0-.06v0a.25.25,0,0,1,0-.08.24.24,0,0,1,0-.08,5.45,5.45,0,0,1,.43-1.19l.21-.41.09-.13a1.71,1.71,0,0,1,.13-.23l.09-.14.15-.24A1.78,1.78,0,0,1,464.2,440.92Zm-10.9-34.6L452,403.46l-.52.14,1.36,2.85,9.8,20.65c-.21.27-3.1,3.73-3,7a4.71,4.71,0,0,0,.25,1.49c.5,1.46,1.12,2.05,1.68,2.21,0-.09,0-.17,0-.25a6.16,6.16,0,0,1,0-1,.53.53,0,0,1,0-.13s0-.09,0-.14v0a.22.22,0,0,0,0-.08h0v0a.25.25,0,0,1,0-.08v0a.56.56,0,0,1,0-.12s0,0,0,0a1.55,1.55,0,0,1,.05-.23.22.22,0,0,1,0-.08s0-.07,0-.1l.12-.43.05-.12.06-.22c.05-.14.1-.29.16-.43a1.19,1.19,0,0,1,.08-.2l.12-.28c.12-.28.26-.55.39-.82s.27-.5.41-.73a17.45,17.45,0,0,1,1.32-1.9Zm10.9,34.6-.06,0a1.24,1.24,0,0,1-.61,0h-.1a1.27,1.27,0,0,1-.18-.06,1.41,1.41,0,0,1-.41-.25l-.15-.14a3.74,3.74,0,0,1-.72-1.14,3.67,3.67,0,0,0-.22,1.17,1.87,1.87,0,0,0,.91,1.75,3.4,3.4,0,0,1,.95.94v0h0a.07.07,0,0,0,0-.06v0a.25.25,0,0,1,0-.08.24.24,0,0,1,0-.08,5.45,5.45,0,0,1,.43-1.19l.21-.41.09-.13a1.71,1.71,0,0,1,.13-.23l.09-.14.15-.24A1.78,1.78,0,0,1,464.2,440.92Zm-10.9-34.6L452,403.46l-.52.14,1.36,2.85,9.8,20.65c-.21.27-3.1,3.73-3,7a4.71,4.71,0,0,0,.25,1.49c.5,1.46,1.12,2.05,1.68,2.21,0-.09,0-.17,0-.25a6.16,6.16,0,0,1,0-1,.53.53,0,0,1,0-.13s0-.09,0-.14v0a.22.22,0,0,0,0-.08h0v0a.25.25,0,0,1,0-.08v0a.56.56,0,0,1,0-.12s0,0,0,0a1.55,1.55,0,0,1,.05-.23.22.22,0,0,1,0-.08s0-.07,0-.1l.12-.43.05-.12.06-.22c.05-.14.1-.29.16-.43a1.19,1.19,0,0,1,.08-.2l.12-.28c.12-.28.26-.55.39-.82s.27-.5.41-.73a17.45,17.45,0,0,1,1.32-1.9Zm10.9,34.6-.06,0a1.24,1.24,0,0,1-.61,0h-.1a1.27,1.27,0,0,1-.18-.06,1.41,1.41,0,0,1-.41-.25l-.15-.14a3.74,3.74,0,0,1-.72-1.14,3.67,3.67,0,0,0-.22,1.17,1.87,1.87,0,0,0,.91,1.75,3.4,3.4,0,0,1,.95.94v0h0a.07.07,0,0,0,0-.06v0a.25.25,0,0,1,0-.08.24.24,0,0,1,0-.08,5.45,5.45,0,0,1,.43-1.19l.21-.41.09-.13a1.71,1.71,0,0,1,.13-.23l.09-.14.15-.24A1.78,1.78,0,0,1,464.2,440.92Zm-10.9-34.6L452,403.46l-.52.14,1.36,2.85,9.8,20.65c-.21.27-3.1,3.73-3,7a4.71,4.71,0,0,0,.25,1.49c.5,1.46,1.12,2.05,1.68,2.21,0-.09,0-.17,0-.25a6.16,6.16,0,0,1,0-1,.53.53,0,0,1,0-.13s0-.09,0-.14v0a.22.22,0,0,0,0-.08h0v0a.25.25,0,0,1,0-.08v0a.56.56,0,0,1,0-.12s0,0,0,0a1.55,1.55,0,0,1,.05-.23.22.22,0,0,1,0-.08s0-.07,0-.1l.12-.43.05-.12.06-.22c.05-.14.1-.29.16-.43a1.19,1.19,0,0,1,.08-.2l.12-.28c.12-.28.26-.55.39-.82s.27-.5.41-.73a17.45,17.45,0,0,1,1.32-1.9Zm10.9,34.6-.06,0a1.24,1.24,0,0,1-.61,0h-.1a1.27,1.27,0,0,1-.18-.06,1.41,1.41,0,0,1-.41-.25l-.15-.14a3.74,3.74,0,0,1-.72-1.14,3.67,3.67,0,0,0-.22,1.17,1.87,1.87,0,0,0,.91,1.75,3.4,3.4,0,0,1,.95.94v0h0a.07.07,0,0,0,0-.06v0a.25.25,0,0,1,0-.08.24.24,0,0,1,0-.08,5.45,5.45,0,0,1,.43-1.19l.21-.41.09-.13a1.71,1.71,0,0,1,.13-.23l.09-.14.15-.24A1.78,1.78,0,0,1,464.2,440.92Zm-10.9-34.6L452,403.46l-.52.14,1.36,2.85,9.8,20.65c-.21.27-3.1,3.73-3,7a4.71,4.71,0,0,0,.25,1.49c.5,1.46,1.12,2.05,1.68,2.21,0-.09,0-.17,0-.25a6.16,6.16,0,0,1,0-1,.53.53,0,0,1,0-.13s0-.09,0-.14v0a.22.22,0,0,0,0-.08h0v-.05a.25.25,0,0,1,0-.08v0a.56.56,0,0,1,0-.12s0,0,0,0a1.55,1.55,0,0,1,.05-.23.22.22,0,0,1,0-.08s0-.07,0-.1l.12-.43.05-.12.06-.22c.05-.14.1-.29.16-.43a1.19,1.19,0,0,1,.08-.2l.12-.28c.12-.28.26-.55.39-.82s.27-.5.41-.73a17.45,17.45,0,0,1,1.32-1.9Zm10.9,34.6-.06,0a1.24,1.24,0,0,1-.61,0h-.1a.64.64,0,0,1-.18-.06,1.41,1.41,0,0,1-.41-.25l-.15-.14a3.74,3.74,0,0,1-.72-1.14,3.67,3.67,0,0,0-.22,1.17,1.87,1.87,0,0,0,.91,1.75,3.4,3.4,0,0,1,.95.94v0h0a.41.41,0,0,1,0-.16.24.24,0,0,1,0-.08,5.45,5.45,0,0,1,.43-1.19l.21-.41.22-.36.09-.14.15-.24A1.78,1.78,0,0,1,464.2,440.92ZM462,434.71c.05-.14.1-.29.16-.43s.05-.14.08-.2a1.39,1.39,0,0,1,.12-.28c.12-.28.26-.55.39-.82s.27-.5.41-.73a17.45,17.45,0,0,1,1.32-1.9l-11.13-24L452,403.46l-.52.14,1.36,2.85,9.8,20.65c-.21.27-3.1,3.73-3,7a4.71,4.71,0,0,0,.25,1.49c.5,1.46,1.12,2.05,1.68,2.21,0-.09,0-.17,0-.25a6.16,6.16,0,0,1,0-1,.62.62,0,0,1,0-.13s0-.09,0-.14a2.17,2.17,0,0,1,0-.25v0l.06-.3,0-.14,0-.11.12-.43C461.87,434.94,461.91,434.83,462,434.71ZM612.51,294.54a8.46,8.46,0,0,0-4.76-3.05,7.14,7.14,0,0,0-5.47,1.26c.45-.49,2.93-3.19,5-5.86,2.46-3.13,4.41-6.23,2-5.72-4.65,1-13.24,11.39-13.24,11.39l-1.76,3.14v0l-5.1,9.11-.54,1a27.43,27.43,0,0,0-5.11.63l-.58.77c-.87,1.19-2.43,3.5-2.6,4.93-.24,2-8.59,5.69-12,7.67s-6.62,8.42-6.62,8.42-11.29,1-14.48,4c-2.23,2.08-7.68,2.1-10.77,1.92h0l-.79-.05c-.88-.06-1.43-.13-1.43-.13s-3.19-3.47-5.64-3.72a24.52,24.52,0,0,0-4.66,0s-1.29-.43-3.16-1l-.52-.15c-.44-.12-.91-.25-1.41-.37l-.38-.1A6,6,0,0,0,519,328a5.91,5.91,0,0,0,.67-1.23h0a5,5,0,0,0,.31-2.62,7.54,7.54,0,0,0-1.05-2.64c-.31-.49-.63-1-.93-1.47a23.07,23.07,0,0,1-3.08-8.7s0,0,0,0A23.66,23.66,0,0,1,517.18,297a34.32,34.32,0,0,1,2-3.33l1.13-1.59.71-1,.79-1.11h0l.76-1.07a28.07,28.07,0,0,0,2.89-5.05c.16-.35.28-.71.42-1.07,0-.12.07-.25.11-.37s.16-.49.22-.73.08-.29.11-.44a5.58,5.58,0,0,0,.16-.68c0-.16.07-.32.1-.47s.08-.45.11-.67,0-.32.07-.49l.06-.67a3.75,3.75,0,0,0,0-.47s0,0,0,0v0q0-.35,0-.69v-.45c0-.37,0-.74,0-1.11,0-.15,0-.31,0-.47s0-.44-.07-.67,0-.37-.07-.56-.06-.38-.08-.57l-.12-.58c0-.18-.07-.36-.11-.53l-.15-.6c0-.17-.09-.34-.13-.5s-.13-.41-.19-.6a4.59,4.59,0,0,0-.17-.48c-.07-.2-.13-.4-.22-.6s-.12-.29-.17-.43a18.35,18.35,0,0,0-2.1-3.71l-1.46-1.82h0l-.39-.49a2.15,2.15,0,0,0-.14-.26c-.09-.17-.18-.34-.26-.52-.74-1.46-1.34-3-1.95-4.53-.17-.47-.37-.93-.56-1.4,0-.1-.08-.2-.11-.3-.3-.72-.61-1.42-.94-2.12-.25-.52-.52-1-.79-1.54-.09-.16-.18-.31-.26-.47l-.63-1-.31-.5-.67-1-.3-.43c-.32-.45-.64-.89-1-1.33l0,0c-.35-.46-.73-.91-1.09-1.36l-.3-.34-.87-1-.34-.38-.91-1-.31-.32c-1.42-1.47-2.92-2.89-4.45-4.28l-.79-.71h0l-2.78-2.47-1-.83c-.29-.26-.61-.52-.91-.77a25,25,0,0,0-7-4.52,22.33,22.33,0,0,0-10.34-1.06A35.19,35.19,0,0,0,466.62,234c-.38.24-.74.5-1.11.77A29.25,29.25,0,0,0,459.9,240c-.28.33-.54.67-.8,1s-.44.61-.66.93c-2.46,3.63-4,7.79-5.59,11.9-5.43,14.39-10.94,29.25-11.71,44.48,0,.26,0,.51-.05.77-.08,1.92-.08,3.85,0,5.79v0a.76.76,0,0,0,0,.15c0,.38,0,.75.06,1.13.36,5.74,1.5,11.48,2.36,17.2l-.59.21c-7,2.66-8.3,8-8.3,8a.12.12,0,0,1,0,.05v0a8.54,8.54,0,0,1,.1,1.33,18.63,18.63,0,0,1-2.61,9.24l-.44.74,0,0c-2.19,3.6-2.61,6-2.56,7.49a4.19,4.19,0,0,0,.34,1.66h0v0l0,.09a1.21,1.21,0,0,0,0,.18l0,.09,0,0a20,20,0,0,1-3.55,6.3c-2.45,2.73-9.08,29.72-9.08,29.72a5.21,5.21,0,0,1,.44,2.16v0a4.23,4.23,0,0,1-.41,1.72h0s0,0,0,0a3.09,3.09,0,0,0,.36,2.77v0a10.4,10.4,0,0,0,1.6,2.16s1.48-.49-1,2.23l-.15.18h0a2.87,2.87,0,0,0,.19,3.59,9.72,9.72,0,0,0,2.19,2.18s20.11,34.65,24.28,38.37,8.34,13.37,8.34,13.37.42-.67,1.11-1.71c.32-.52.74-1.13,1.17-1.79l1.28,1.67h0l2.59,3.39-1,1.95h0a45.57,45.57,0,0,0-2.67,6,1.49,1.49,0,0,0-.07.55,2.18,2.18,0,0,0,.66,1.42c-5,6.56-16.9,24.8-16,47.26h0v.57c0,.06,0,.13,0,.19a60.24,60.24,0,0,0,5.82,22.62,48.37,48.37,0,0,1,.5,6.79v0a3.07,3.07,0,0,1-.26,1.34,7.17,7.17,0,0,0,.09,2.76h0c.66,4.93,2.87,14.55,2.87,14.55s0,.93,0,2.48v.05c0,.72,0,1.58,0,2.54.11,8.59.29,25.45-.07,29.1-.21,2.1-.42,3.79-.59,5-.24,1.72-.39,2.63-.39,2.63s-.09.63-.23,1.77c0,.41-.11.88-.17,1.42-.82,6.76-2.71,23.17-3.83,38.55,0,.67-.1,1.34-.14,2-.57,8.2-.88,16-.66,21.64,0,.17,0,.34,0,.5s0,.23,0,.35c.06,1.44.17,2.73.32,3.84.5,3.6.94,7.83,1.3,12.22,0,.47.08.95.13,1.42.64,8,1.11,16.4,1.39,22.46,0,.16,0,.31,0,.46l0,.72a1.1,1.1,0,0,0,0,.26.37.37,0,0,0,0,.11c0,.35,0,.69,0,1,0,.06,0,.13,0,.19s0,.32,0,.47,0,.51,0,.75,0,.72,0,1a0,0,0,0,0,0,0l0,.56v.1c0,.63,0,1.21.06,1.73,0,.82.06,1.27.06,1.27v.14h0a.17.17,0,0,1,0,.07v.12l.84,7L451.11,764l1.32,11.13,2.82,24.07,10.1-1.91.1,1.1.34,3.73h0l2.82-.27c0,.36-.05.72-.07,1.08-.48,8.36-.32,16.82-.32,16.82l.11,0c3.09.57,6.07,1,9,1.26v8.72H482l-.61-7.49-.08-.91h.09a98.68,98.68,0,0,0,18.65-.66l.56-.07.75.86,7.14,8.18s14,.74,26.25-2c9.23-2,18.87-11.09,19.21-14.51h0c.12-1.12-.78-1.63-3-1.08-6.6,1.62-17.86,0-23.51-1-1.25-2.88-4.85-11.15-7.65-17.74l-.43-1c4.13-3.12,7.3-7.1,7.72-9.18.27-1.24-.44-1.8-2.5-1.09a28.84,28.84,0,0,1-7.57,1.24h0l-1,0a1.27,1.27,0,0,0,.13-.19c2-2.76,2.35-6.55,2.12-10.11a34.41,34.41,0,0,0-.48-3.84v0c0-.07,0-.14,0-.21a45.64,45.64,0,0,0-1.2-4.92c0-.11-.06-.22-.09-.31-.19-.57-.31-.89-.31-.89s2.79-19.52,3.7-33.49a77.26,77.26,0,0,0,.16-10.87h0a.13.13,0,0,0,0-.06,6,6,0,0,0-.66-2.62,5.42,5.42,0,0,1-.83-2,.17.17,0,0,0,0-.07c-1.24-5.54,1.55-17,3-20a25.69,25.69,0,0,0,1.21-3c1.39-4,2.73-9.46,2.73-12.15a30.86,30.86,0,0,1,1.47-7.92c4.55-6.54,5.85-15.65,6.16-21.9a60.14,60.14,0,0,0,0-7.08,273.9,273.9,0,0,1,1.52-31.23c.22-2,.48-4,.77-6.06.45-3.14,1-6.26,1.64-9.26,1.94-9,1.12-25.13-.4-40.48,0-.45-.09-.89-.13-1.33a.38.38,0,0,1,0-.1c-1.52-14.9-3.67-28.8-4.55-34.32v0c-.27-1.59-.42-2.49-.42-2.49a47.15,47.15,0,0,0,1.76-10.74v0a0,0,0,0,0,0,0,9.78,9.78,0,0,0-.91-4.81,4.41,4.41,0,0,1-.55-1.47v0a1.15,1.15,0,0,1,0-.19,24,24,0,0,1-.2-5.59h0c0-.66.09-1.32.16-2v-.1s0-.07,0-.1l.12-1.2c.09-.7.16-1.39.26-2.08a8.39,8.39,0,0,0,.85-.42,6.6,6.6,0,0,0,1.33-.93c4.45-4,5-14.25,4.31-24.66a.38.38,0,0,1,0-.1c0-.1,0-.19,0-.29a197.78,197.78,0,0,0-4-26s0,0,0,0a1.7,1.7,0,0,0,0-.22c-.16-.54-.25-.89-.25-.89s0-7.32-.43-14.36a.49.49,0,0,1,0-.12c0-.06,0-.12,0-.18-.37-5.8-1-11.32-2.25-12.33-.72-.6-1.16-2.27-1.42-4.41,0,0,0-.05,0-.07a1,1,0,0,1,0-.17,99.59,99.59,0,0,1,0-14.67,29,29,0,0,0,3.85-12.63v0a20.52,20.52,0,0,0-.07-2.41c0-.16,0-.32-.06-.47a6.2,6.2,0,0,0-.11-.77,13.9,13.9,0,0,0-.68-2.69q1.26-.22,2.67-.57l.79-.2h0c13.1-3.36,33.64-13,37.76-14.41,5.65-2,7.36-10.15,7.36-10.15s.52-.44,1.38-1.24a68,68,0,0,0,11.33-13.77v0a40.74,40.74,0,0,0,3.79-7.9h0a29.34,29.34,0,0,0,1.15-4.3,13.59,13.59,0,0,0,.2-1.43v0c0-.06,0-.12,0-.18l.95-.85h0l0,0c4.4-4,10.74-10.34,12.43-15.11C613.5,297.21,613.49,295.67,612.51,294.54ZM482.26,657.12c-.08,2.29-.24,4.41-.38,6.22v0h0c-.31,3.57-.64,5.92-.64,5.92a4.1,4.1,0,0,0-.71.77,9.82,9.82,0,0,0-1.09,2.18l-.24-5.93S480.73,662.47,482.26,657.12Zm-34.8-252.69c-.07-.23-.15-.45-.22-.68h0l1.1-.22h0c.93-.18,1.83-.41,2.75-.67l.35.74,1.36,2.85,9.8,20.65c-.21.27-3.1,3.73-3,7a4.71,4.71,0,0,0,.25,1.49c.5,1.46,1.12,2.05,1.68,2.21h0a1.66,1.66,0,0,0,1.44-.34,8.39,8.39,0,0,0-1,1.86h0s0,0,0,0a3.67,3.67,0,0,0-.22,1.17,1.87,1.87,0,0,0,.91,1.75,3.4,3.4,0,0,1,.95.94h0a4.32,4.32,0,0,1,.66,1.94h0s0,0,0,.07h0a5.24,5.24,0,0,1,0,.55c0,.12,0,.22,0,.32l-1.31-.39-2.89-.86a3.54,3.54,0,0,1,1.56-1.12l-8.92-19.6s-1.89-8.44-4.36-16.78Zm20,394.64-.19-1-.05-.3.39-.07a3,3,0,0,0,0,.31C467.5,798.34,467.46,798.7,467.43,799.07ZM453.3,406.32,452,403.46l-.52.14,1.36,2.85,9.8,20.65c-.21.27-3.1,3.73-3,7a4.71,4.71,0,0,0,.25,1.49c.5,1.46,1.12,2.05,1.68,2.21,0-.09,0-.17,0-.25a6.16,6.16,0,0,1,0-1,.53.53,0,0,1,0-.13s0-.09,0-.14v0a.22.22,0,0,0,0-.08h0a.09.09,0,0,1,0-.05.25.25,0,0,1,0-.08v0a.56.56,0,0,1,0-.12s0,0,0,0a.88.88,0,0,0,0-.16l0-.14h0s0-.07,0-.1l.12-.43.05-.12.06-.22c.05-.14.1-.29.16-.43s.05-.14.08-.2a1.39,1.39,0,0,1,.12-.28c.12-.28.26-.55.39-.82s.27-.5.41-.73a17.45,17.45,0,0,1,1.32-1.9Zm10.9,34.6-.06,0a1.24,1.24,0,0,1-.61,0h-.1a1.27,1.27,0,0,1-.18-.06,1.41,1.41,0,0,1-.41-.25l-.15-.14a3.74,3.74,0,0,1-.72-1.14,3.67,3.67,0,0,0-.22,1.17,1.87,1.87,0,0,0,.91,1.75,3.4,3.4,0,0,1,.95.94v0h0a.41.41,0,0,1,0-.16.24.24,0,0,1,0-.08,5.45,5.45,0,0,1,.43-1.19l.21-.41.09-.13a1.71,1.71,0,0,1,.13-.23l.09-.14.15-.24A1.78,1.78,0,0,1,464.2,440.92Zm-10.9-34.6L452,403.46l-.52.14,1.36,2.85,9.8,20.65c-.21.27-3.1,3.73-3,7a4.71,4.71,0,0,0,.25,1.49c.5,1.46,1.12,2.05,1.68,2.21,0-.09,0-.17,0-.25a6.16,6.16,0,0,1,0-1,.53.53,0,0,1,0-.13s0-.09,0-.14v0a.22.22,0,0,0,0-.08h0v0a.25.25,0,0,1,0-.08v0a.56.56,0,0,1,0-.12s0,0,0,0a1.55,1.55,0,0,1,.05-.23.22.22,0,0,1,0-.08s0-.07,0-.1l.12-.43.05-.12.06-.22c.05-.14.1-.29.16-.43a1.19,1.19,0,0,1,.08-.2l.12-.28c.12-.28.26-.55.39-.82s.27-.5.41-.73a17.45,17.45,0,0,1,1.32-1.9Zm10.9,34.6-.06,0a1.24,1.24,0,0,1-.61,0h-.1a1.27,1.27,0,0,1-.18-.06,1.41,1.41,0,0,1-.41-.25l-.15-.14a3.74,3.74,0,0,1-.72-1.14,3.67,3.67,0,0,0-.22,1.17,1.87,1.87,0,0,0,.91,1.75,3.4,3.4,0,0,1,.95.94v0h0a.07.07,0,0,0,0-.06v0a.25.25,0,0,1,0-.08.24.24,0,0,1,0-.08,5.45,5.45,0,0,1,.43-1.19l.21-.41.09-.13a1.71,1.71,0,0,1,.13-.23l.09-.14.15-.24A1.78,1.78,0,0,1,464.2,440.92Zm-10.9-34.6L452,403.46l-.52.14,1.36,2.85,9.8,20.65c-.21.27-3.1,3.73-3,7a4.71,4.71,0,0,0,.25,1.49c.5,1.46,1.12,2.05,1.68,2.21,0-.09,0-.17,0-.25a6.16,6.16,0,0,1,0-1,.53.53,0,0,1,0-.13s0-.09,0-.14v0a.22.22,0,0,0,0-.08h0v0a.25.25,0,0,1,0-.08v0a.56.56,0,0,1,0-.12s0,0,0,0a1.55,1.55,0,0,1,.05-.23.22.22,0,0,1,0-.08s0-.07,0-.1l.12-.43.05-.12.06-.22c.05-.14.1-.29.16-.43a1.19,1.19,0,0,1,.08-.2l.12-.28c.12-.28.26-.55.39-.82s.27-.5.41-.73a17.45,17.45,0,0,1,1.32-1.9Zm10.9,34.6-.06,0a1.24,1.24,0,0,1-.61,0h-.1a1.27,1.27,0,0,1-.18-.06,1.41,1.41,0,0,1-.41-.25l-.15-.14a3.74,3.74,0,0,1-.72-1.14,3.67,3.67,0,0,0-.22,1.17,1.87,1.87,0,0,0,.91,1.75,3.4,3.4,0,0,1,.95.94v0h0a.07.07,0,0,0,0-.06v0a.25.25,0,0,1,0-.08.24.24,0,0,1,0-.08,5.45,5.45,0,0,1,.43-1.19l.21-.41.09-.13a1.71,1.71,0,0,1,.13-.23l.09-.14.15-.24A1.78,1.78,0,0,1,464.2,440.92Zm-10.9-34.6L452,403.46l-.52.14,1.36,2.85,9.8,20.65c-.21.27-3.1,3.73-3,7a4.71,4.71,0,0,0,.25,1.49c.5,1.46,1.12,2.05,1.68,2.21,0-.09,0-.17,0-.25a6.16,6.16,0,0,1,0-1,.53.53,0,0,1,0-.13s0-.09,0-.14v0a.22.22,0,0,0,0-.08h0v0a.25.25,0,0,1,0-.08v0a.56.56,0,0,1,0-.12s0,0,0,0a1.55,1.55,0,0,1,.05-.23.22.22,0,0,1,0-.08s0-.07,0-.1l.12-.43.05-.12.06-.22c.05-.14.1-.29.16-.43a1.19,1.19,0,0,1,.08-.2l.12-.28c.12-.28.26-.55.39-.82s.27-.5.41-.73a17.45,17.45,0,0,1,1.32-1.9Zm10.9,34.6-.06,0a1.24,1.24,0,0,1-.61,0h-.1a1.27,1.27,0,0,1-.18-.06,1.41,1.41,0,0,1-.41-.25l-.15-.14a3.74,3.74,0,0,1-.72-1.14,3.67,3.67,0,0,0-.22,1.17,1.87,1.87,0,0,0,.91,1.75,3.4,3.4,0,0,1,.95.94v0h0a.07.07,0,0,0,0-.06v0a.25.25,0,0,1,0-.08.24.24,0,0,1,0-.08,5.45,5.45,0,0,1,.43-1.19l.21-.41.09-.13a1.71,1.71,0,0,1,.13-.23l.09-.14.15-.24A1.78,1.78,0,0,1,464.2,440.92Zm-10.9-34.6L452,403.46l-.52.14,1.36,2.85,9.8,20.65c-.21.27-3.1,3.73-3,7a4.71,4.71,0,0,0,.25,1.49c.5,1.46,1.12,2.05,1.68,2.21,0-.09,0-.17,0-.25a6.16,6.16,0,0,1,0-1,.53.53,0,0,1,0-.13s0-.09,0-.14v0a.22.22,0,0,0,0-.08h0v0a.25.25,0,0,1,0-.08v0a.56.56,0,0,1,0-.12s0,0,0,0a1.55,1.55,0,0,1,.05-.23.22.22,0,0,1,0-.08s0-.07,0-.1l.12-.43.05-.12.06-.22c.05-.14.1-.29.16-.43a1.19,1.19,0,0,1,.08-.2l.12-.28c.12-.28.26-.55.39-.82s.27-.5.41-.73a17.45,17.45,0,0,1,1.32-1.9Zm10.9,34.6-.06,0a1.24,1.24,0,0,1-.61,0h-.1a1.27,1.27,0,0,1-.18-.06,1.41,1.41,0,0,1-.41-.25l-.15-.14a3.74,3.74,0,0,1-.72-1.14,3.67,3.67,0,0,0-.22,1.17,1.87,1.87,0,0,0,.91,1.75,3.4,3.4,0,0,1,.95.94v0h0a.07.07,0,0,0,0-.06v0a.25.25,0,0,1,0-.08.24.24,0,0,1,0-.08,5.45,5.45,0,0,1,.43-1.19l.21-.41.09-.13a1.71,1.71,0,0,1,.13-.23l.09-.14.15-.24A1.78,1.78,0,0,1,464.2,440.92Zm-10.9-34.6L452,403.46l-.52.14,1.36,2.85,9.8,20.65c-.21.27-3.1,3.73-3,7a4.71,4.71,0,0,0,.25,1.49c.5,1.46,1.12,2.05,1.68,2.21,0-.09,0-.17,0-.25a6.16,6.16,0,0,1,0-1,.53.53,0,0,1,0-.13s0-.09,0-.14v0a.22.22,0,0,0,0-.08h0v0a.25.25,0,0,1,0-.08v0a.56.56,0,0,1,0-.12s0,0,0,0a1.55,1.55,0,0,1,.05-.23.22.22,0,0,1,0-.08s0-.07,0-.1l.12-.43.05-.12.06-.22c.05-.14.1-.29.16-.43a1.19,1.19,0,0,1,.08-.2l.12-.28c.12-.28.26-.55.39-.82s.27-.5.41-.73a17.45,17.45,0,0,1,1.32-1.9Zm10.9,34.6-.06,0a1.24,1.24,0,0,1-.61,0h-.1a1.27,1.27,0,0,1-.18-.06,1.41,1.41,0,0,1-.41-.25l-.15-.14a3.74,3.74,0,0,1-.72-1.14,3.67,3.67,0,0,0-.22,1.17,1.87,1.87,0,0,0,.91,1.75,3.4,3.4,0,0,1,.95.94v0h0a.07.07,0,0,0,0-.06v0a.25.25,0,0,1,0-.08.24.24,0,0,1,0-.08,5.45,5.45,0,0,1,.43-1.19l.21-.41.09-.13a1.71,1.71,0,0,1,.13-.23l.09-.14.15-.24A1.78,1.78,0,0,1,464.2,440.92Zm-10.9-34.6L452,403.46l-.52.14,1.36,2.85,9.8,20.65c-.21.27-3.1,3.73-3,7a4.71,4.71,0,0,0,.25,1.49c.5,1.46,1.12,2.05,1.68,2.21,0-.09,0-.17,0-.25a6.16,6.16,0,0,1,0-1,.53.53,0,0,1,0-.13s0-.09,0-.14v0a.22.22,0,0,0,0-.08h0v0a.25.25,0,0,1,0-.08v0a.56.56,0,0,1,0-.12s0,0,0,0a1.55,1.55,0,0,1,.05-.23.22.22,0,0,1,0-.08s0-.07,0-.1l.12-.43.05-.12.06-.22c.05-.14.1-.29.16-.43a1.19,1.19,0,0,1,.08-.2l.12-.28c.12-.28.26-.55.39-.82s.27-.5.41-.73a17.45,17.45,0,0,1,1.32-1.9Zm10.9,34.6-.06,0a1.24,1.24,0,0,1-.61,0h-.1a1.27,1.27,0,0,1-.18-.06,1.41,1.41,0,0,1-.41-.25l-.15-.14a3.74,3.74,0,0,1-.72-1.14,3.67,3.67,0,0,0-.22,1.17,1.87,1.87,0,0,0,.91,1.75,3.4,3.4,0,0,1,.95.94v0h0a.07.07,0,0,0,0-.06v0a.25.25,0,0,1,0-.08.24.24,0,0,1,0-.08,5.45,5.45,0,0,1,.43-1.19l.21-.41.09-.13a1.71,1.71,0,0,1,.13-.23l.09-.14.15-.24A1.78,1.78,0,0,1,464.2,440.92Zm-10.9-34.6L452,403.46l-.52.14,1.36,2.85,9.8,20.65c-.21.27-3.1,3.73-3,7a4.71,4.71,0,0,0,.25,1.49c.5,1.46,1.12,2.05,1.68,2.21,0-.09,0-.17,0-.25a6.16,6.16,0,0,1,0-1,.53.53,0,0,1,0-.13s0-.09,0-.14v0a.22.22,0,0,0,0-.08h0v0a.25.25,0,0,1,0-.08v0a.56.56,0,0,1,0-.12s0,0,0,0a1.55,1.55,0,0,1,.05-.23.22.22,0,0,1,0-.08s0-.07,0-.1l.12-.43.05-.12.06-.22c.05-.14.1-.29.16-.43a1.19,1.19,0,0,1,.08-.2l.12-.28c.12-.28.26-.55.39-.82s.27-.5.41-.73a17.45,17.45,0,0,1,1.32-1.9Zm10.9,34.6-.06,0a1.24,1.24,0,0,1-.61,0h-.1a1.27,1.27,0,0,1-.18-.06,1.41,1.41,0,0,1-.41-.25l-.15-.14a3.74,3.74,0,0,1-.72-1.14,3.67,3.67,0,0,0-.22,1.17,1.87,1.87,0,0,0,.91,1.75,3.4,3.4,0,0,1,.95.94v0h0a.07.07,0,0,0,0-.06v0a.25.25,0,0,1,0-.08.24.24,0,0,1,0-.08,5.45,5.45,0,0,1,.43-1.19l.21-.41.09-.13a1.71,1.71,0,0,1,.13-.23l.09-.14.15-.24A1.78,1.78,0,0,1,464.2,440.92Zm-10.9-34.6L452,403.46l-.52.14,1.36,2.85,9.8,20.65c-.21.27-3.1,3.73-3,7a4.71,4.71,0,0,0,.25,1.49c.5,1.46,1.12,2.05,1.68,2.21,0-.09,0-.17,0-.25a6.16,6.16,0,0,1,0-1,.53.53,0,0,1,0-.13s0-.09,0-.14v0a.22.22,0,0,0,0-.08h0v0a.25.25,0,0,1,0-.08v0a.56.56,0,0,1,0-.12s0,0,0,0a1.55,1.55,0,0,1,.05-.23.22.22,0,0,1,0-.08s0-.07,0-.1l.12-.43.05-.12.06-.22c.05-.14.1-.29.16-.43a1.19,1.19,0,0,1,.08-.2l.12-.28c.12-.28.26-.55.39-.82s.27-.5.41-.73a17.45,17.45,0,0,1,1.32-1.9Zm10.9,34.6-.06,0a1.24,1.24,0,0,1-.61,0h-.1a1.27,1.27,0,0,1-.18-.06,1.41,1.41,0,0,1-.41-.25l-.15-.14a3.74,3.74,0,0,1-.72-1.14,3.67,3.67,0,0,0-.22,1.17,1.87,1.87,0,0,0,.91,1.75,3.4,3.4,0,0,1,.95.94v0h0a.07.07,0,0,0,0-.06v0a.29.29,0,0,1,0-.09.17.17,0,0,1,0-.07,5.45,5.45,0,0,1,.43-1.19c.1-.19.19-.37.3-.54a1.71,1.71,0,0,1,.13-.23l.09-.14.15-.24A1.78,1.78,0,0,1,464.2,440.92Zm-10.9-34.6L452,403.46l-.52.14,1.36,2.85,9.8,20.65c-.21.27-3.1,3.73-3,7a4.71,4.71,0,0,0,.25,1.49c.5,1.46,1.12,2.05,1.68,2.21,0-.09,0-.17,0-.25a6.16,6.16,0,0,1,0-1,.53.53,0,0,1,0-.13s0-.09,0-.14v0a.22.22,0,0,0,0-.08h0v-.05a.25.25,0,0,1,0-.08v0a.56.56,0,0,1,0-.12s0,0,0,0a1.55,1.55,0,0,1,.05-.23.22.22,0,0,1,0-.08s0-.07,0-.1l.12-.43.05-.12.06-.22c.05-.14.1-.29.16-.43a1.19,1.19,0,0,1,.08-.2l.12-.28c.12-.28.26-.55.39-.82s.27-.5.41-.73a17.45,17.45,0,0,1,1.32-1.9Zm10.9,34.6-.06,0a1.24,1.24,0,0,1-.61,0h-.1a1.27,1.27,0,0,1-.18-.06,1.41,1.41,0,0,1-.41-.25l-.15-.14a3.74,3.74,0,0,1-.72-1.14,3.67,3.67,0,0,0-.22,1.17,1.87,1.87,0,0,0,.91,1.75,3.4,3.4,0,0,1,.95.94v0h0a.07.07,0,0,0,0-.06v0a.29.29,0,0,1,0-.09.17.17,0,0,1,0-.07,5.45,5.45,0,0,1,.43-1.19c.1-.19.19-.37.3-.54a1.71,1.71,0,0,1,.13-.23l.09-.14.15-.24A1.78,1.78,0,0,1,464.2,440.92Z" transform="translate(-11.09 -31.53)" fill="url(#f7a9ddad-0622-4a2a-ab1d-dd2f922ca980)"/><path d="M502.6,783.86s15,1.84,22.23-.66-2.24,10.75-12.07,13.89a93.88,93.88,0,0,1-21.34,3.62l-11.56-10.87-12.27.94,2.14,12-3.81.36-1.48-15.74Z" transform="translate(-11.09 -31.53)" fill="#444053"/><path d="M502.6,783.86s15,1.84,22.23-.66-2.24,10.75-12.07,13.89a93.88,93.88,0,0,1-21.34,3.62l-11.56-10.87-12.27.94,2.14,12-3.81.36-1.48-15.74Z" transform="translate(-11.09 -31.53)" opacity="0.1"/><path d="M524.21,811.34s17.95,3.93,27,1.72-3.93,12.79-16.23,15.49-26.32,2-26.32,2L495.93,816l-15-.25,1.23,14.85h-4.67V811.34Z" transform="translate(-11.09 -31.53)" fill="#444053"/><path d="M524.21,811.34s17.95,3.93,27,1.72-3.93,12.79-16.23,15.49-26.32,2-26.32,2L495.93,816l-15-.25,1.23,14.85h-4.67V811.34Z" transform="translate(-11.09 -31.53)" opacity="0.1"/><path d="M457.81,469.75s-30.74,34.18-12.3,72.79c0,0,1,6.89.25,8.12s2.95,17.21,2.95,17.21.5,29,0,33.94-1,7.62-1,7.62S440.84,663,443.05,679s3.2,44.51,3.2,44.51l9.1,76.73,47.22-8.85-21.4-105.26-.74-18.69s8.86-22.87,4.92-34.43,1-158.87,1-158.87Z" transform="translate(-11.09 -31.53)" fill="#303d5c"/><path d="M457.81,469.75s-30.74,34.18-12.3,72.79c0,0,1,6.89.25,8.12s2.95,17.21,2.95,17.21.5,29,0,33.94-1,7.62-1,7.62S440.84,663,443.05,679s3.2,44.51,3.2,44.51l9.1,76.73,47.22-8.85-21.4-105.26-.74-18.69s8.86-22.87,4.92-34.43,1-158.87,1-158.87Z" transform="translate(-11.09 -31.53)" opacity="0.05"/><path d="M480.43,635c5.41,10.33,2,35.41,2,35.41-7.13,6.15-3.2,59.76-3.2,59.76s-4.92,52.88-8.11,59-2.71,31.48-2.71,31.48c36.15,6.64,59.76-7.62,59.76-7.62s-11.56-26.32-11.8-27.54c-.14-.69-1.67,1.18-2.13,1.72.24-.33.87-1.19,2.13-3,4.92-6.89,0-20.17,0-20.17s6.15-42.79,3.2-46.73.49-18.44,2.21-21.88,3.93-11.56,3.93-15a30.28,30.28,0,0,1,1.48-7.86c7.62-10.83,6.15-28.78,6.15-28.78s-.49-25.82,3.93-46.23-5.52-78.21-5.52-78.21,3.31-11.31.85-15.49c-1.11-1.88-1-6.31-.48-10.6.6-5.25,1.71-10.3,1.71-10.3l-67.09-11.91c-1.41,2.35-2.7,4.63-3.89,6.82-22.19,41-7.23,56.24-7.23,56.24L469.86,578S475,624.68,480.43,635Z" transform="translate(-11.09 -31.53)" fill="#303d5c"/><path d="M586.92,314.07l9.59,8.14s1.88-1.5,4.4-3.75c6-5.42,15.72-15.23,12.08-19.39-5-5.68-10-2-10.31-1.74.54-.57,11.67-12.5,7.11-11.54s-13.28,11.32-13.28,11.32l-6.89,12.17Z" transform="translate(-11.09 -31.53)" fill="#efb7b9"/><polygon points="447.21 415.35 458.52 418.79 449.92 433.79 440.08 421 447.21 415.35" fill="#efb7b9"/><circle cx="473.77" cy="242.21" r="32.22" fill="#efb7b9"/><path d="M503.8,285.55S474.53,332,502.32,336s-37.38,32.22-37.38,32.22l-24.35-24.59s25.33-43.78,21.4-60.5S503.8,285.55,503.8,285.55Z" transform="translate(-11.09 -31.53)" fill="#efb7b9"/><path d="M462.82,477.94a152.29,152.29,0,0,0,19.83,4.59s36.24,16.09,49.44,10.8c.6-5.25,1.71-10.3,1.71-10.3l-67.09-11.91C465.3,473.47,464,475.75,462.82,477.94Z" transform="translate(-11.09 -31.53)" opacity="0.1"/><path d="M429.53,356.37l6.55,13.55,7.4,15.26,1,2.18,8.77,19,11.15,24.08s-3.94,4.67-2.71,8.36c1.15,3.45,2.95,1.95,3.18,1.74-.21.29-2.59,3.49-.47,4.9s1.47,4.67,1.47,4.67-9.1,15-10.82,20.41,27.55,10.09,27.55,10.09,41.56,18.44,51.89,9.34,0-51.89,0-51.89,0-24.59-2.71-26.8S530.36,392,530.36,392c7.13-13,2.21-20.41,2.21-20.41l2-33.44s-3.2-3.45-5.66-3.69a24.6,24.6,0,0,0-4.67,0s-1.3-.44-3.17-1c-3.94-1.12-10.48-2.67-12.82-1.5-3.44,1.72-25.57-2.71-25.57-2.71a270.7,270.7,0,0,0-28.78-2.7,28.48,28.48,0,0,0-9.76,1.06c-8,2.47-9.42,8.28-9.42,8.28s1,4.92-2.95,11.31S429.53,356.37,429.53,356.37Z" transform="translate(-11.09 -31.53)" fill="#ffc107"/><path d="M586.92,314.07l9.59,8.14s1.88-1.5,4.4-3.75c.76-8.3-6.31-9.4-11.29-9.18Z" transform="translate(-11.09 -31.53)" opacity="0.1"/><path d="M530.36,337.93l4.18.25s9.83,1.22,13-1.73,14.51-3.93,14.51-3.93,3.2-6.4,6.64-8.36,11.81-5.66,12-7.63,3.2-5.65,3.2-5.65,18.44-4.43,15.74,10.08S582,348,582,348s-1.72,8.12-7.38,10.09-42.3,19.18-48.2,14.75S530.36,337.93,530.36,337.93Z" transform="translate(-11.09 -31.53)" fill="#ffc107"/><path d="M431.74,347.19c3.93-6.39,2.95-11.31,2.95-11.31s1.42-5.81,9.42-8.28a24.33,24.33,0,0,1,4.79-.94c-7.88,2.5-9.29,8.24-9.29,8.24s1,4.92-2.95,11.31-2.22,9.1-2.22,9.1L441,368.86l7.39,15.25,1.06,2.19,8.77,18.95,11.15,24.08s-3.94,4.68-2.71,8.37c1.15,3.45,2.95,1.94,3.18,1.74-.21.28-2.59,3.49-.47,4.9s1.47,4.67,1.47,4.67-9.1,15-10.82,20.41,27.55,10.08,27.55,10.08,28.86,12.81,44.46,11.81c-13.26,5.2-49.38-10.82-49.38-10.82s-29.27-4.68-27.55-10.09S465.92,450,465.92,450s.74-3.2-1.47-4.67.26-4.61.47-4.9c-.23.21-2,1.71-3.18-1.74-1.23-3.69,2.71-8.36,2.71-8.36L453.3,406.24l-8.77-19-1-2.18-7.4-15.26-6.55-13.55S427.8,353.59,431.74,347.19Z" transform="translate(-11.09 -31.53)" opacity="0.1"/><path d="M434,352.68l-4.42,3.69a20.31,20.31,0,0,1-3.69,6.64c-2.46,2.71-9.1,29.51-9.1,29.51a4.78,4.78,0,0,1,0,3.94c-1,2,2,4.92,2,4.92s1.47-.49-1,2.21,2.22,5.92,2.22,5.92,20.16,34.41,24.34,38.1,8.36,13.28,8.36,13.28,8.76-13.74,10.82-14l-8.6-19.42s-5.91-27.06-10.33-32,2.21-21.9,2.21-21.9Z" transform="translate(-11.09 -31.53)" fill="#ffc107"/><path d="M431.12,402.85c3.7,4.44,10.19,5.38,15.93,4.73.84-.1,1.69-.23,2.52-.39a36.68,36.68,0,0,0,3.73-.87,38.88,38.88,0,0,0,12.22-6,8.4,8.4,0,0,1,2.74-1.58c2.3-.58,4.58,1.13,5.83,3.13s1.84,4.36,3.12,6.34c2.52,3.93,7.4,5.82,12.08,5.93s9.22-1.29,13.68-2.68c-3.61-4.44-7.31-9.06-8.78-14.59a34.55,34.55,0,0,1-.69-11c1.06-17.4,7.1-35.74,21.29-45.88,2.46-1.75,5.43-3.82,6.25-6.48-3.94-1.12-10.48-2.67-12.82-1.5-3.44,1.72-25.57-2.71-25.57-2.71a270.7,270.7,0,0,0-28.78-2.7,28.48,28.48,0,0,0-9.76,1.06c1.21,7.39,2.26,14.74.81,22a49.27,49.27,0,0,1-4.87,12.95c-1.26,2.45-2.62,4.86-4,7.28-3.74,6.73-7.31,13.48-8,21C427.76,395.14,428.44,399.63,431.12,402.85Z" transform="translate(-11.09 -31.53)" opacity="0.1"/><path d="M479.75,437.45c-1.92-.25-3.86-.9-5.76-.5a10.6,10.6,0,0,0-4.31,2.51l12.64.07c3.25,0,8.15.2,10.64-2.1C490.68,435.17,483,437.87,479.75,437.45Z" transform="translate(-11.09 -31.53)" opacity="0.1"/><path d="M523.56,270a19.09,19.09,0,0,1,2.19,18.52c-2,4.75-5.93,8.47-8.32,13.05a23.52,23.52,0,0,0,.8,22.78,11.5,11.5,0,0,1,2,4.09c.57,3.75-3.31,6.44-6.4,8.65-14.2,10.12-20.23,28.47-21.29,45.88a34.5,34.5,0,0,0,.68,11c1.47,5.53,5.18,10.15,8.79,14.59-4.46,1.39-9,2.79-13.69,2.68s-9.55-2-12.08-5.93c-1.28-2-1.88-4.34-3.12-6.34s-3.53-3.7-5.81-3.13a8.12,8.12,0,0,0-2.75,1.57,38.91,38.91,0,0,1-18.48,7.27c-5.74.66-12.23-.29-15.92-4.73-2.68-3.23-3.37-7.71-3-11.89,1.28-14.89,13.89-26.6,16.81-41.26,2.36-11.88-1.92-24-2.7-36.06-1.17-17.87,5.32-35.26,11.71-52a55.19,55.19,0,0,1,5.6-11.82c5.35-7.84,14.6-12.54,24-13.48a22.47,22.47,0,0,1,10.37,1c3.36,1.3,6.16,3.72,8.89,6.09,6.1,5.29,12.37,10.8,15.88,18.08,1.43,3,2.37,6.17,4,9.06Z" transform="translate(-11.09 -31.53)" fill="#3f3d56"/><g opacity="0.1"><path d="M517.76,263.47c-1.6-2.89-2.53-6.09-4-9.06a36.31,36.31,0,0,0-5.1-7.69,43.17,43.17,0,0,1,9,11.89c1.39,2.88,2.32,6,3.83,8.81l-1.94-1.64a16.35,16.35,0,0,1,1.36,2.13A22,22,0,0,1,517.76,263.47Z" transform="translate(-11.09 -31.53)"/><path d="M442.12,400.42a38.75,38.75,0,0,0,18.48-7.26,8.32,8.32,0,0,1,2.75-1.57c2.29-.58,4.57,1.13,5.82,3.13.26.42.49.87.71,1.32a4,4,0,0,0-2.59-.25,8.12,8.12,0,0,0-2.75,1.57,38.91,38.91,0,0,1-18.48,7.27c-5.74.66-12.23-.29-15.92-4.73a12.39,12.39,0,0,1-1.22-1.83C432.64,400.46,437.61,400.94,442.12,400.42Z" transform="translate(-11.09 -31.53)"/><path d="M484.37,407c4.67.11,9.22-1.29,13.68-2.68-3.61-4.44-7.31-9.06-8.78-14.59a34.51,34.51,0,0,1-.69-11c1.06-17.41,7.1-35.76,21.3-45.88,3.09-2.21,7-4.9,6.4-8.66a11.71,11.71,0,0,0-2-4.08,23.52,23.52,0,0,1-.81-22.78c2.4-4.58,6.3-8.3,8.33-13.06a19.16,19.16,0,0,0-.84-16.38,22.94,22.94,0,0,0,2.16,2,22,22,0,0,0,1.78,2.18,19.15,19.15,0,0,1,.83,16.39c-2,4.75-5.93,8.47-8.32,13.05a23.52,23.52,0,0,0,.8,22.78,11.5,11.5,0,0,1,2,4.09c.57,3.75-3.31,6.44-6.4,8.65-14.2,10.12-20.23,28.47-21.29,45.88a34.5,34.5,0,0,0,.68,11c1.47,5.53,5.18,10.15,8.79,14.59-4.46,1.39-9,2.79-13.69,2.68s-9.55-2-12.08-5.93c-.17-.26-.32-.53-.47-.8A16.77,16.77,0,0,0,484.37,407Z" transform="translate(-11.09 -31.53)"/></g><path d="M336.37,179.57v21H245.19q4.17-5.78,8.52-11.4c.4-.52.8-1,1.22-1.55l4.27-5.37h0l.59-.73h0l1.55-1.89Z" transform="translate(-11.09 -31.53)" fill="#ffc107" opacity="0.2"/><rect x="418.13" y="148.04" width="95.81" height="20.98" fill="#ffc107" opacity="0.2"/><rect x="638.18" y="148.04" width="95.81" height="20.98" fill="#ffc107" opacity="0.2"/><rect x="824.29" y="148.04" width="95.81" height="20.98" fill="#ffc107" opacity="0.2"/></svg>