<?xml version="1.0" encoding="utf-8"?>
<!-- Generator: Adobe Illustrator 22.1.0, SVG Export Plug-In . SVG Version: 6.00 Build 0)  -->
<svg version="1.1" id="_x34_4583e6e-3c87-4cd0-878b-9f64620e8dae"
	 xmlns="http://www.w3.org/2000/svg" xmlns:xlink="http://www.w3.org/1999/xlink" x="0px" y="0px" viewBox="0 0 303.5 602.4"
	 style="enable-background:new 0 0 303.5 602.4;" xml:space="preserve">
<style type="text/css">
	.st0{fill:#F1F6FA;}
	.st1{fill:#FFFFFF;}
	.st2{fill:#E6E8EC;}
	.st3{clip-path:url(#SVGID_2_);}
	.st4{fill:url(#SVGID_3_);}
	.st5{fill:url(#SVGID_4_);}
</style>
<title>order confirmed</title>
<path class="st0" d="M296.9,136.7h4.3c1.3,0,2.3,1,2.3,2.3v68.4c0,1.3-1,2.3-2.3,2.3h-4.3c-1.3,0-2.3-1-2.3-2.3v-68.4
	C294.6,137.7,295.6,136.7,296.9,136.7z"/>
<path class="st0" d="M2.5,79.4h0.4c1.3,0,2.3,1,2.3,2.3v19.5c0,1.3-1,2.3-2.3,2.3H2.5c-1.3,0-2.3-1-2.3-2.3V81.7
	C0.2,80.5,1.2,79.4,2.5,79.4z"/>
<path class="st0" d="M2.3,123.5h1c1.3,0,2.3,1,2.3,2.3V163c0,1.3-1,2.3-2.3,2.3h-1c-1.3,0-2.3-1-2.3-2.3v-37.3
	C0,124.5,1,123.5,2.3,123.5z"/>
<path class="st0" d="M2.4,179.9h0.7c1.3,0,2.3,1,2.3,2.3v37.6c0,1.3-1,2.3-2.3,2.3H2.4c-1.3,0-2.3-1-2.3-2.3v-37.6
	C0.1,181,1.1,179.9,2.4,179.9z"/>
<path class="st0" d="M42,0h218.4c21.5,0,39,17.5,39,39v524.4c0,21.5-17.5,39-39,39H42c-21.5,0-39-17.5-39-39V39C3,17.5,20.4,0,42,0z
	"/>
<path class="st1" d="M257.6,15.7h-34v4.1c0,10.7-8.7,19.4-19.4,19.4c0,0,0,0,0,0H96.1c-10.7,0-19.4-8.7-19.4-19.4c0,0,0,0,0,0v-4.1
	H44.8c-13,0-23.5,10.5-23.5,23.5v0v524c0,13,10.5,23.5,23.5,23.5h212.7c13,0,23.5-10.5,23.5-23.5V39.2
	C281.1,26.2,270.6,15.7,257.6,15.7C257.6,15.7,257.6,15.7,257.6,15.7z"/>
<path class="st2" d="M126.5,18h33.6c2.1,0,3.9,1.7,3.9,3.9v0.7c0,2.1-1.7,3.9-3.9,3.9h-33.6c-2.1,0-3.9-1.7-3.9-3.9v-0.7
	C122.6,19.7,124.3,18,126.5,18z"/>
<circle class="st2" cx="175" cy="22.2" r="4.8"/>
<g>
	<defs>
		<path id="SVGID_1_" d="M257.6,15.7h-34v4.1c0,10.7-8.7,19.4-19.4,19.4c0,0,0,0,0,0H96.1c-10.7,0-19.4-8.7-19.4-19.4c0,0,0,0,0,0
			v-4.1H44.8c-13,0-23.5,10.5-23.5,23.5v0v524c0,13,10.5,23.5,23.5,23.5h212.7c13,0,23.5-10.5,23.5-23.5V39.3
			C281.1,26.2,270.6,15.7,257.6,15.7C257.6,15.7,257.6,15.7,257.6,15.7z"/>
	</defs>
	<clipPath id="SVGID_2_">
		<use xlink:href="#SVGID_1_"  style="overflow:visible;"/>
	</clipPath>
	<g class="st3">
		
			<linearGradient id="SVGID_3_" gradientUnits="userSpaceOnUse" x1="911.597" y1="442.6239" x2="1342.8478" y2="364.7794" gradientTransform="matrix(0.985 -0.1728 -0.1728 -0.985 -997.9031 1050.0632)">
			<stop  offset="0" style="stop-color:#6A72E4"/>
			<stop  offset="1" style="stop-color:#9199EE"/>
		</linearGradient>
		<path class="st4" d="M-124.5,396.4c0,0,100.4-29.4,183.4-122.4s152.9-39.2,158.4,1.3c3.7,27.1-43.3,153.8-1.7,232.6
			s92.5,130.7,94,155.9c1.5,24.5,11.8,62.9-205.5-19.3s-255.3-138.5-268.5-163.2C-173,465.2-182.8,425.5-124.5,396.4z"/>
		
			<linearGradient id="SVGID_4_" gradientUnits="userSpaceOnUse" x1="1156.6725" y1="441.0629" x2="1723.9946" y2="385.2614" gradientTransform="matrix(1 0 0 -1 -1089.4399 806.88)">
			<stop  offset="0" style="stop-color:#74D1FB"/>
			<stop  offset="1" style="stop-color:#329EF7"/>
		</linearGradient>
		<path class="st5" d="M66.7,512.1c0,0,54.6-102.1,45.4-239.8S199.6,121,235.8,148c24.2,18.1,88,153.4,182.6,181.5
			c94.5,28.1,175,28.2,196.1,46.5c20.5,17.8,58.9,39.4-174.5,147.5s-307.3,94.5-337,85.9C83.5,603.7,44.6,580.7,66.7,512.1z"/>
	</g>
</g>
</svg>
