<svg id="407adc5a-50c7-4961-ae02-650159b1080d" data-name="Layer 1" xmlns="http://www.w3.org/2000/svg" xmlns:xlink="http://www.w3.org/1999/xlink" width="1084.77" height="805.94" viewBox="0 0 1084.77 805.94"><defs><linearGradient id="179ebb31-13d7-4782-b976-217ca552d475" x1="822.82" y1="797.01" x2="822.82" y2="304.35" gradientUnits="userSpaceOnUse"><stop offset="0" stop-color="gray" stop-opacity="0.25"/><stop offset="0.54" stop-color="gray" stop-opacity="0.12"/><stop offset="1" stop-color="gray" stop-opacity="0.1"/></linearGradient><linearGradient id="311db79b-9222-4ebe-ab0a-c40379daabe1" x1="258.73" y1="794.35" x2="258.73" y2="303.01" xlink:href="#179ebb31-13d7-4782-b976-217ca552d475"/><linearGradient id="571fb74e-e46f-49c9-b145-15df7cc27286" x1="255.59" y1="323.37" x2="255.59" y2="322.54" xlink:href="#179ebb31-13d7-4782-b976-217ca552d475"/><linearGradient id="4e344a4a-eba6-41b7-9977-dd5bf10ac472" x1="253.51" y1="322.46" x2="253.51" y2="321.18" xlink:href="#179ebb31-13d7-4782-b976-217ca552d475"/></defs><title>smiley face</title><path d="M656.59,158.43c-64.72-2.24-126.36-23.14-185.22-46S354.21,64.25,291,52.13c-40.63-7.79-87.1-8.89-119.83,12.9-31.51,21-41.69,57.14-47.16,90.72-4.12,25.26-6.54,51.85,4.74,75.5,7.84,16.42,21.75,30.22,31.36,45.94,33.47,54.73,9.81,122.2-26.45,175.64-17,25.06-36.75,49-49.88,75.65S64.62,585.73,76.11,613c11.38,27,38.51,47.24,67.9,61.49,59.69,28.95,130,37.23,198.61,41.93,151.83,10.38,304.46,5.89,456.69,1.38,56.34-1.67,112.92-3.35,168.34-12.07,30.78-4.83,62.55-12.51,84.9-31,28.36-23.53,35.39-63.37,16.38-92.88-31.88-49.49-120-61.78-142.31-114.89-12.26-29.24.33-61.8,18.16-88.91,38.24-58.17,102.33-109.2,105.71-175.68,2.31-45.66-28.5-91.39-76.14-113-49.93-22.64-119.18-19.79-156,17.69C780.4,145.56,713.74,160.42,656.59,158.43Z" transform="translate(-57.62 -47.03)" fill="#ffc107" opacity="0.1"/><path d="M161.56,731.1s21-3.36,33.6,11.48c0,0-9.24,7.28-29.12-2.8Z" transform="translate(-57.62 -47.03)" fill="#ffc107"/><path d="M159.31,730.78s-13.39,16.52-6.82,34.84c0,0,10.92-4.37,12.11-26.63Z" transform="translate(-57.62 -47.03)" fill="#ffc107"/><path d="M147.28,703.66s8.4-15.4,42,6.16c0,0-4.48,10.36-19.32,9.52S151.2,711.78,147.28,703.66Z" transform="translate(-57.62 -47.03)" fill="#ffc107"/><path d="M145.11,702.55s-17.43-2-19.12,37.9c0,0,11,2.3,18.9-10.32S149.5,710.43,145.11,702.55Z" transform="translate(-57.62 -47.03)" fill="#ffc107"/><path d="M135,670.73s9.8-27.17,45.36-7.84c0,0-8.12,24.92-41.72,17.08Z" transform="translate(-57.62 -47.03)" fill="#ffc107"/><path d="M124,630.12s18.49-27.44,51.25-2c0,0-11.48,25.77-48.45,11.76Z" transform="translate(-57.62 -47.03)" fill="#ffc107"/><path d="M120.11,591.48s21.57-25.2,54.05,0c0,0-20.44,22.12-54,6.44Z" transform="translate(-57.62 -47.03)" fill="#ffc107"/><path d="M116.75,554s21.85-26.32,52.93-1.4c0,0-24.64,23.24-52.93,7.56Z" transform="translate(-57.62 -47.03)" fill="#ffc107"/><path d="M118.71,520.64s23-33.89,52.09-10.93c0,0-24.64,29.13-52.09,17.37Z" transform="translate(-57.62 -47.03)" fill="#ffc107"/><path d="M124,481.71s24.37-33.6,52.65-7.84c0,0-28.84,29.12-52.65,14Z" transform="translate(-57.62 -47.03)" fill="#ffc107"/><path d="M132.16,446.92s28.84-31.57,54-19c0,0-30.06,33.53-55.26,27.37Z" transform="translate(-57.62 -47.03)" fill="#ffc107"/><path d="M142.24,414s33.32-38.65,52.64-25.76c0,0-24.52,30-55,33Z" transform="translate(-57.62 -47.03)" fill="#ffc107"/><path d="M156.79,375.69S185.92,344.11,207.2,352c0,0-24.92,32.77-54.32,33.61Z" transform="translate(-57.62 -47.03)" fill="#ffc107"/><path d="M170,339.91s32.2-30.24,46.2-24.92c0,0-23.24,33.6-47.6,31.64Z" transform="translate(-57.62 -47.03)" fill="#ffc107"/><path d="M182.84,306.87s27.72-36.12,42.84-33.32c0,0-16.8,32.2-42.84,37Z" transform="translate(-57.62 -47.03)" fill="#ffc107"/><path d="M196.82,262.33s24.5-27.7,37.73-27.63c0,0-19.34,37-38.74,36.66Z" transform="translate(-57.62 -47.03)" fill="#ffc107"/><path d="M205.1,232.67,228.76,175s1.19,52.14-26.67,68.39Z" transform="translate(-57.62 -47.03)" fill="#ffc107"/><path d="M214.71,169.05s3.92-48.16,1.4-52.08c0,0,16.92,40-1.57,73.36Z" transform="translate(-57.62 -47.03)" fill="#ffc107"/><path d="M134,670.08s-24.54-15.21-40.43,22c0,0,21.84,14.49,43.31-12.51Z" transform="translate(-57.62 -47.03)" fill="#ffc107"/><path d="M123.25,628.58s-30.1-13.74-44.71,25.12c0,0,23.26,15.95,47.45-15.31Z" transform="translate(-57.62 -47.03)" fill="#ffc107"/><path d="M118.71,593.79s-21.56-25.2-54,0c0,0,20.44,22.12,54,6.44Z" transform="translate(-57.62 -47.03)" fill="#ffc107"/><path d="M116,554s-21.84-26.32-52.93-1.4c0,0,24.65,23.24,52.93,7.56Z" transform="translate(-57.62 -47.03)" fill="#ffc107"/><path d="M118.71,521.59s-15.32-38-48.62-21.63c0,0,18,33.66,47.27,27.93Z" transform="translate(-57.62 -47.03)" fill="#ffc107"/><path d="M126,481.52s-15.22-38.61-49-20.7c0,0,20.68,35.38,47.5,26.67Z" transform="translate(-57.62 -47.03)" fill="#ffc107"/><path d="M135.4,447.12s-6-42.33-33.95-46.12c0,0,5.93,44.64,30.22,53.75Z" transform="translate(-57.62 -47.03)" fill="#ffc107"/><path d="M143,414s-2.34-51-25.49-52.77c0,0,.78,38.71,22.88,60Z" transform="translate(-57.62 -47.03)" fill="#ffc107"/><path d="M159.19,374.24s-6.91-42.41-29-47.6c0,0,2.74,41.08,26.82,58Z" transform="translate(-57.62 -47.03)" fill="#ffc107"/><path d="M172.58,340.22s-.24-44.18-13.73-50.67c0,0-8.38,40,9.82,56.31Z" transform="translate(-57.62 -47.03)" fill="#ffc107"/><path d="M183.87,306.38S182,260.88,168,254.47c0,0-4.79,36,13.77,54.89Z" transform="translate(-57.62 -47.03)" fill="#ffc107"/><path d="M198.77,266s-.09-37-10.06-45.67c0,0-9.93,40.53,4.85,53.11Z" transform="translate(-57.62 -47.03)" fill="#ffc107"/><path d="M203.92,230.84l-9.7-61.58S181,219.72,204.39,242Z" transform="translate(-57.62 -47.03)" fill="#ffc107"/><path d="M205.82,169.64s-24.92-41.4-24.41-46c0,0,2.65,43.39,34,65Z" transform="translate(-57.62 -47.03)" fill="#ffc107"/><path d="M208.74,157.41s-23.52-58.8-34.16-63.57c0,0,33.6,17.09,36.12,61.89Z" transform="translate(-57.62 -47.03)" fill="#ffc107"/><path d="M195.68,271.71l-1.6-.5c19.85-64.73,24.8-106,13.94-116.34l1.16-1.22C220.69,164.56,216,205.39,195.68,271.71Z" transform="translate(-57.62 -47.03)" fill="#444053"/><path d="M141,423.22l-2.38-.84c2.1-5.93,4.38-11.95,6.76-17.89,20.72-51.63,38.35-99.67,49.67-136.55l2.06-1c-11.33,37-28.65,86.83-49.39,138.53C145.38,411.34,143.12,417.32,141,423.22Z" transform="translate(-57.62 -47.03)" fill="#444053"/><path d="M191.11,779.55c-.32-.36-32.5-36.58-54.92-98.44a364.42,364.42,0,0,1-21.7-112.77c-1.53-48.13,8.56-101.88,25.87-150.69l1.88,2.2c-38.84,109.56-23.41,203.45-2.94,260,22.19,61.29,54,97.13,54.31,97.48Z" transform="translate(-57.62 -47.03)" fill="#444053"/><ellipse cx="529.83" cy="734.49" rx="446.98" ry="41.12" fill="#ffc107" opacity="0.1"/><circle cx="503.74" cy="449.31" r="308.5" fill="#ffc107"/><ellipse cx="421.09" cy="389.51" rx="31.99" ry="41.9" fill="#444053"/><ellipse cx="586.39" cy="389.51" rx="31.99" ry="41.9" fill="#444053"/><path d="M760.17,568.33c0,60.15-100.48,161.48-201.86,161.48s-198-103.61-198-163.77,94.57-5.14,196-5.14S760.17,508.17,760.17,568.33Z" transform="translate(-57.62 -47.03)" fill="#444053"/><path d="M392.21,578.61s182.24,40.56,335.35,1.14c0,0,18.74,0,5.94,21.66a34.49,34.49,0,0,1-14,13.13C690,629.62,580.71,674.19,406,617.35a34.36,34.36,0,0,1-22.68-23.23C381.3,586.68,382.18,579.64,392.21,578.61Z" transform="translate(-57.62 -47.03)" fill="#f6f8fb"/><path d="M409.77,266.68S316.84,326.1,317.6,419,409.77,266.68,409.77,266.68Z" transform="translate(-57.62 -47.03)" opacity="0.05"/><path d="M976.61,775.16c-1.6-6.37-5.48-6.48-5.48-6.48l-.06-.64-1.43-15.73a.88.88,0,0,1-.2.21l-.08-2a10.54,10.54,0,0,0-.1-1.13,13.12,13.12,0,0,0,4.81-6.71c-.59-.75-.15-.6-.15-.6s-9.71-9.94-8.74-15.12-7.31-10.81-7.31-10.81-3-9.26-3-12.07-11.34-21.26-11.34-21.26-10-23.47-18.78-33.55-8-15.57-8-15.57a18.75,18.75,0,0,1-1.95-3.41,21.83,21.83,0,0,1-1-2.56c1.8-.23,3-.27,3-.27s7.19-1.23,7.51-2.71a9.39,9.39,0,0,1,2.45-4.42c1.37-1.47-3.9-29.47-1.1-36.71s-3.59-40.46-3.59-40.46a7.37,7.37,0,0,1,3.17-5l4.24-1.67h0l2.15-.52.29-.07.44-.11,1-.25.29-.08.62-.17.23-.06,1-.31.33-.11.47-.16.36-.14.48-.19.53-.25.31-.16.33-.19.26-.17a4.08,4.08,0,0,0,.39-.31l.2-.2a2.85,2.85,0,0,0,.23-.26,1.37,1.37,0,0,0,.13-.2l.06-.08v0a2.16,2.16,0,0,0-.21-2.24,17.07,17.07,0,0,0-3.8-3.91l-2.31-3.55a.15.15,0,0,1,0-.07c0-.18.07-.38.12-.58a6.7,6.7,0,0,0,.11-2.28v0a.53.53,0,0,0,0-.13,5.81,5.81,0,0,0,.05-.72v-.31c0-.23,0-.46-.05-.69s0-.23,0-.35-.08-.44-.13-.66-.06-.26-.1-.39-.11-.41-.18-.62l-.15-.41c-.07-.19-.15-.39-.23-.58s-.12-.29-.19-.43-.16-.36-.25-.54-.15-.29-.22-.43-.18-.34-.28-.51l-.24-.42-.28-.46-.27-.42-.27-.41-.27-.39c-.09-.12-.18-.25-.27-.36l-.26-.36-.24-.31-.25-.32-.21-.26-.22-.27-.17-.19-.18-.21-.12-.14-.13-.14-.07-.08-.07-.07v-.12c0-.06,0-.13,0-.22v-.1c0-.09,0-.19,0-.31l0-.11c0-.14,0-.3-.06-.47v-.06a30.36,30.36,0,0,1-.25-3.13v0a8.22,8.22,0,0,1,.72-3.16,1.5,1.5,0,0,0-.07-1.57,2,2,0,0,1,.1-.21c.69-1.33-.62-2.47-2.26-3.32,0-2.44-1-7.39-9.08-8.28,0,0-4.73-3.19-.16-8.92s-2.69-20.39-2.69-20.39-2.31-6-1.07-8.48-1.44-24.54-1.44-24.54,0-20.35-4.5-29-7.57-24.18-12.76-26.48-9.3-7.86-9.3-7.86l-2.42.78c-.42-.62-.84-1.24-1.24-1.86h0a4.3,4.3,0,0,0,.57-.2,5.55,5.55,0,0,0,2.61-2.43,6.63,6.63,0,0,0,.43-.94h0a10.55,10.55,0,0,0,.58-3.66,18.48,18.48,0,0,1,.11-3.72c.41-2,1.79-3.6,3-5.27a24.34,24.34,0,0,0,4.49-11.29,17.09,17.09,0,0,0-2.85-11.66c-1.18-1.66-2.71-3.13-3.45-5-.34-.86-.49-1.78-.75-2.66a13.22,13.22,0,0,0-11.28-9.08c-4.25-.39-8.44,1.23-12.7,1.18-4.94-.06-10-2.32-14.63-.6a14.39,14.39,0,0,0-5.35,4,42,42,0,0,0-3.14,3.91h0c-.57.8-1.11,1.61-1.62,2.45l0,.07c-.52.85-1,1.72-1.46,2.61a.89.89,0,0,0-.07.66,1.2,1.2,0,0,0,.6.57,6.88,6.88,0,0,1,2.22,1.28,7.65,7.65,0,0,0,.81.8c-.14.17-.29.33-.43.51A25.32,25.32,0,0,0,849,360.74l.51,1.12a47.31,47.31,0,0,1,2.41,6.56l-2.18.2a2.74,2.74,0,0,1-2.58,2.63c-2.55.27-10.66,3.27-10.66,3.27s-12.19,6.21-19.54,8.18-10.61.29-10.61.29-.83,5.34-9.15,2.4-9.42.16-9.42.16-23.44-.64-40.51,1.64-24.51.68-24.51.68-.08.9-.17,2.36l-1.73-1c-11.34-6.06-32.25-15.46-35.23-4C681.47,401.16,718,407.93,718,407.93l2.7-.29,1.77-.19c.34,4.42,1.12,8,2.75,8.39.59.15,18.07.11,22.67,2.26s14.51-1,14.51-1,2.55-.56,6.4,1.72,24.77,2.29,24.77,2.29,1.49.32,6.84,1.89,14.79.21,14.79.21l22.07,2.85s1.57,15.47-.16,21.09-.34,33.27-.34,33.27,5,33.65,3.63,37.64c-1.08,3.09,8.5-.35,12.88-2.06.23.91.52,2,.85,3.23,0,.11.15.18.32.22l.36.24c.16.66.32,1.3.47,1.9l-1.19.32,1.57,1.05a17.37,17.37,0,0,0,.63,1.87c1.3,3-8.19,8.49-8.19,8.49s-26.21,14.33-34.08,21c0,0-6.15,2-6.63,3.91s-6,1.25-6,1.25-.78,2.07-1.41,4.15-4,5.29-4,5.29-7.79,1.22-8.89,5.36A85.39,85.39,0,0,0,785.3,584l-8.75,15.92s-23.86,17.78-26.36,24.58L733.3,635.82s-2.78,6.2-7.71,6.42-13.44,9-13.44,9,2.5,1,6.17,2.7c-.22.34-.43.68-.61,1a16.05,16.05,0,0,0-1.49,4.07s-11,6.68-19.18,3.88c-4.62-1.58-13.73-4.31-20.32-4.64-5.07-.25-8.67.92-7.62,5.13,1.79,7.27,19.84,25.57,28.74,34.25a48.22,48.22,0,0,0,4.47,3.85,45.81,45.81,0,0,0,6.59,4.22,44.76,44.76,0,0,0,4.16,1.92,34,34,0,0,0,4.69,1.51c3.14.73,6,.7,7.61-1,5.16-5.28,3-9,3-9l.58-.43,14.22-10.64,3.22-2.75.89-.76a19.08,19.08,0,0,1-4.81,10.48,67.29,67.29,0,0,1,11.13-5.18c5-1.56,8.08-11,8.08-11s2.73-2.78,7.58-7.76S775,653.36,775,653.36s24.89-15.84,35-34.11c0,0,1.83-2.5,5-6.17s3.28-9.76,3.28-9.76.47-1.77,4.72-6.31,3.7-7.38,3.7-7.38,2-2.79,9.44-2.23,24.92-8.26,24.92-8.26,0,.81.16,2.21c-1.52,3.5-2.52,5.93-2.52,5.93s15.24,60.83,9.13,70.39c-3.17,5,5.57,1.2,14.73-3.57.47.57,1,1.17,1.58,1.81a78,78,0,0,0,6.92,6.6l.3.26s18.56,28.64,21.5,32,1,13.24,1,13.24,5.18,34.53,12.26,40.58a16.88,16.88,0,0,0,4.88,2.57c-.12,4.3,3.77,7.83,3.77,7.83s-.08,11.44-6.06,16.28c-3.38,2.75-9.75,8.33-13.1,13.14-2.57,3.71-3.37,7,.33,8.16,6.39,2.07,28.83-2.93,39.64-5.56a41.41,41.41,0,0,0,14.77-6.78C974.09,781.48,977.35,778.15,976.61,775.16ZM730.44,660.72c.62.41,1.23.83,1.84,1.26l-1,.8-.41.32c0-.21-.06-.44-.1-.67C730.66,661.88,730.56,661.31,730.44,660.72Z" transform="translate(-57.62 -47.03)" fill="url(#179ebb31-13d7-4782-b976-217ca552d475)"/><path d="M733.27,409,722,410.19l-2.66.29s-36-6.71-31.9-22.45c2.94-11.39,23.56-2.07,34.75,4,4.28,2.31,7.17,4.13,7.17,4.13Z" transform="translate(-57.62 -47.03)" fill="#d17483"/><polygon points="702.13 628.05 689.79 638.66 686.61 641.39 679.21 643.63 660.88 627.45 674.5 616.59 674.9 616.26 685.92 607.48 702.13 628.05" fill="#dce6f2"/><path d="M955.78,739.75l-17.42.81,4.78,21.29,6.53,2.25,18.19-1.52-.49-12.22A11.08,11.08,0,0,0,955.78,739.75Z" transform="translate(-57.62 -47.03)" fill="#dce6f2"/><path d="M732,663a97.85,97.85,0,0,0-12.87-7.4,9.08,9.08,0,0,1,6-5C729.07,649.77,731.08,657.4,732,663Z" transform="translate(-57.62 -47.03)" opacity="0.1"/><path d="M747.4,685.69c.75-8.89-6.71-16.64-14.88-22.39l11-8.79,16.2,20.57Z" transform="translate(-57.62 -47.03)" opacity="0.1"/><path d="M972,742.58c-5.11,16.87-40.26,11.8-47.24,5.8s-12.1-40.26-12.1-40.26,1.92-9.85-1-13.14-21.2-31.7-21.2-31.7-.2-.17-.3-.25a77,77,0,0,1-6.83-6.55c-5.63-6.17-5.75-9.15-5.75-9.15s-2-11.68-8.89-27.54c-5-11.7-7.07-27.6-7.78-35.15-.25-2.69-.34-4.32-.34-4.32s-17.22,8.74-24.58,8.19-9.32,2.22-9.32,2.22.55,2.81-3.64,7.32-4.66,6.26-4.66,6.26-.09,6.05-3.24,9.68-4.95,6.12-4.95,6.12c-10,18.13-34.54,33.84-34.54,33.84s-.91,12.66-5.71,17.6-7.48,7.7-7.48,7.7-3.08,9.39-8,10.94a65.51,65.51,0,0,0-11,5.14c20.25-24.31-29.87-43.47-29.87-43.47s8.38-8.72,13.25-8.94,7.61-6.37,7.61-6.37l16.66-11.25c2.46-6.75,26-24.38,26-24.38l8.63-15.79a84.47,84.47,0,0,1,1.77-9.56c1.08-4.1,8.77-5.32,8.77-5.32s3.29-3.2,3.9-5.25,1.39-4.11,1.39-4.11,5.44.68,5.91-1.24,6.54-3.88,6.54-3.88c7.77-6.67,33.62-20.88,33.62-20.88s9.36-5.46,8.08-8.43a16.09,16.09,0,0,1-.63-1.85c0-.06,0-.11,0-.16q-.17-.57-.33-1.2c-1.18-4.57-2.48-11.58-2.48-11.58s45.49-26.45,60.42-19.74c4.36,1.95,6.9,6.87,8.23,13.15,2.13,10.05,1.16,23.57-.47,33.95a97.56,97.56,0,0,1-2.73,12.65c-3.56,11.45-4.25,28.38-4.25,28.38s-.47,32.27-1.62,40.21a19.64,19.64,0,0,0,1.7,10.82,18.64,18.64,0,0,0,1.93,3.38s-.82,5.44,7.88,15.45,18.52,33.27,18.52,33.27,11.23,18.29,11.19,21.1,2.92,12,2.92,12,8.17,5.56,7.21,10.71,8.62,15,8.62,15S971.42,741.83,972,742.58Z" transform="translate(-57.62 -47.03)" fill="#bdd2e8"/><path d="M855.67,534.71s9.8,4.71,10.6,10.33S855.67,534.71,855.67,534.71Z" transform="translate(-57.62 -47.03)" opacity="0.1"/><polygon points="760.59 520 765.95 526.27 763.17 514.88 757.28 514.5 760.59 520" opacity="0.1"/><path d="M812,580.35c.58.45,7.15,15.14,8.91,15.31S812,580.35,812,580.35Z" transform="translate(-57.62 -47.03)" opacity="0.1"/><path d="M920.49,539a97.56,97.56,0,0,1-2.73,12.65c-3.56,11.45-4.25,28.38-4.25,28.38s-.47,32.27-1.62,40.21a19.64,19.64,0,0,0,1.7,10.82c-3,.29-8.57,1.16-12.37,3.61-5.35,3.46-2.25,12.94-2.25,12.94s-7.71,4.64-15.61,8.84c-5.63-6.17-5.75-9.15-5.75-9.15s-2-11.68-8.89-27.54c-5-11.7-7.07-27.6-7.78-35.15,3-7,7.95-17.78,11.28-22.43,3.53-4.93-.68-19.85-3.62-28.58l-.81-.55h0l-9.67-6.49h0l-2.94-2-1.54-1,1.17-.32L921,505.08C923.09,515.13,922.12,528.65,920.49,539Z" transform="translate(-57.62 -47.03)" opacity="0.1"/><path d="M853.66,520.92l4.48,3h0l9.66,6.49h0l.82.55c2.94,8.73,7.15,23.65,3.61,28.58-5.11,7.15-14,28.84-14,28.84s15,60.34,9,69.83S899,645,899,645s-3.09-9.48,2.26-12.94,14.35-3.77,14.35-3.77,7.09-1.22,7.41-2.69a9.2,9.2,0,0,1,2.42-4.38c1.34-1.46-3.85-29.24-1.09-36.42s-3.55-40.14-3.55-40.14a7.32,7.32,0,0,1,3.14-5,9.25,9.25,0,0,1,2.58-1.24l.57-.16c.34-.1.7-.19,1-.26h0c4.3-1.07,9-2,10-4l-1-1.52-5.27-8.14h0a6.06,6.06,0,0,1,.15-2.38c0-.16.06-.33.08-.49v0c.77-5.19-5.21-11.49-5.21-11.49a30,30,0,0,1-.46-4.48v-.05a11.15,11.15,0,0,1,.64-4.68Z" transform="translate(-57.62 -47.03)" fill="#653c5b"/><path d="M870.51,532.42c-.52-.11,32.26,1.06,42.39,14C912.9,546.45,913.26,541.74,870.51,532.42Z" transform="translate(-57.62 -47.03)" opacity="0.1"/><path d="M896.35,554s6.54,47,5.09,55.19,7.62,2.91,7.62,2.91S918.31,543.88,896.35,554Z" transform="translate(-57.62 -47.03)" opacity="0.1"/><path d="M938.16,534a4.19,4.19,0,0,0-.24-.47c-2.21-3.7-6.77-4.47-6-9.19h0c0-.19.07-.4.12-.61a6.58,6.58,0,0,0,.11-2.26v0c-.53-4.76-5.24-9.72-5.24-9.72a29.36,29.36,0,0,1-.43-6.25,0,0,0,0,1,0-.05,8.15,8.15,0,0,1,.71-3.13,1.46,1.46,0,0,0-.07-1.55c-1.22-2.07-6.63-3.41-6.63-3.41l-36.65,5.81c-4.33,1.48-8.46,3-12.23,4.45-11.31,4.32-19.33,7.91-19.33,7.91l.27,1.07c.24,1,.64,2.55,1.13,4.34.16.62,3.19-.11,3.38.55l1.12,2.46,8.09,2.24s.66,1.65,1.57,4.25c0,.15.11.31.16.47h0l.66.09c15.29,1.88,36.47,4.87,55.3,8.68Z" transform="translate(-57.62 -47.03)" opacity="0.1"/><path d="M927.09,538.26l-.57.16c-19.71-4.12-42.5-7.33-58.52-9.29h0c-1-2.87-1.72-4.71-1.72-4.71l-12.06-3.34-.33-1.16c-.58-2.09-1.06-4-1.34-5.1l-.27-1.07s8-3.59,19.33-7.9c3.77-1.45,7.91-3,12.24-4.46l36.64-5.8a24.09,24.09,0,0,1,3.9,1.37c1.87.87,3.57,2.11,2.8,3.59-1.51,2.92-.27,9.42-.27,9.42s6.38,6.72,5.13,12,3.59,5.95,5.89,9.81S933,536.72,927.09,538.26Z" transform="translate(-57.62 -47.03)" fill="#653c5b"/><path d="M893.44,379.79s-48.1,3.86-42.58-.48c2.76-2.17.86-8.63-1.74-14.54a105.4,105.4,0,0,0-5.85-11.21S879.83,343,875.91,349c-1.16,1.77-.11,5.18,2,9.11C882.8,367.49,893.44,379.79,893.44,379.79Z" transform="translate(-57.62 -47.03)" fill="#d17483"/><path d="M877.88,358.14c-1,1.19-3.59-.23-4.84.75-4.37,3.42-8.51,7.95-14.48,7.86a25.09,25.09,0,0,1-9.44-2,105.4,105.4,0,0,0-5.85-11.21S879.83,343,875.91,349C874.75,350.8,875.8,354.21,877.88,358.14Z" transform="translate(-57.62 -47.03)" opacity="0.1"/><path d="M884.13,341a25.2,25.2,0,1,1-24.83-25.56A25.11,25.11,0,0,1,884.13,341Z" transform="translate(-57.62 -47.03)" fill="#d17483"/><path d="M924.83,501.24A50.5,50.5,0,0,1,913.05,500c-6.17-1.42-11.4,4.11-11.4,4.11s-12,4.69-17.45,3.73-29.35,11.65-29.35,11.65l-1,.39c-.58-2.09-1.06-4-1.34-5.1l-.27-1.07s8-3.59,19.33-7.9c3.77-1.45,7.91-3,12.24-4.46l36.64-5.8a24.09,24.09,0,0,1,3.9,1.37A8.32,8.32,0,0,1,924.83,501.24Z" transform="translate(-57.62 -47.03)" opacity="0.1"/><path d="M733.27,409,722,410.19a140.9,140.9,0,0,1,.19-18.21c4.28,2.31,7.17,4.13,7.17,4.13Z" transform="translate(-57.62 -47.03)" opacity="0.1"/><path d="M884.53,364.33s-7.11,2.25-11.11,3.82-24.07,3.33-24.07,3.33a2.71,2.71,0,0,1-2.54,2.62c-2.51.25-10.51,3.23-10.51,3.23s-12,6.16-19.28,8.12-10.47.29-10.47.29-.81,5.29-9,2.37-9.29.16-9.29.16-23.13-.63-40,1.63-24.18.68-24.18.68-2.19,26.52,2.4,27.74c.58.16,17.83.11,22.36,2.24s14.31-1,14.31-1,2.52-.55,6.32,1.72,24.43,2.27,24.43,2.27,1.47.31,6.75,1.87,14.58.21,14.58.21L837,428.48s1.55,15.35-.15,20.92-.34,33-.34,33,5,33.38,3.59,37.34,14.77-2.88,14.77-2.88,23.92-12.62,29.35-11.66,17.45-3.72,17.45-3.72,5.24-5.53,11.41-4.11a50.06,50.06,0,0,0,11.77,1.2s1.74-8.37-8.85-9.56c0,0-4.67-3.16-.17-8.84S913.2,460,913.2,460s-2.27-5.93-1.06-8.42-1.41-24.33-1.41-24.33,0-20.19-4.44-28.81-7.47-24-12.59-26.26S884.53,364.33,884.53,364.33Z" transform="translate(-57.62 -47.03)" fill="#dce6f2"/><path d="M857.75,432s31.19,13.87,39.57,25.05S857.75,432,857.75,432Z" transform="translate(-57.62 -47.03)" opacity="0.1"/><path d="M870.08,455.78s37.7,21.92,35.12,27.48S870.08,455.78,870.08,455.78Z" transform="translate(-57.62 -47.03)" opacity="0.1"/><path d="M876.24,477.83s13.63,5.51,16.09,8.64S876.24,477.83,876.24,477.83Z" transform="translate(-57.62 -47.03)" opacity="0.1"/><path d="M813.82,392.33s28.81,15.45,23.86,21.72S813.82,392.33,813.82,392.33Z" transform="translate(-57.62 -47.03)" opacity="0.1"/><path d="M802.32,403.22s4.7,11,4.82,12.89S798.46,404.78,802.32,403.22Z" transform="translate(-57.62 -47.03)" opacity="0.1"/><path d="M783,406.18c0,.59,15,9.79,8.81,12.21S783,406.18,783,406.18Z" transform="translate(-57.62 -47.03)" opacity="0.1"/><path d="M794.41,591.59c.44.59,2,6.36,6.8,8.94S794.41,591.59,794.41,591.59Z" transform="translate(-57.62 -47.03)" opacity="0.1"/><path d="M749.42,635.29c-.07,4.86-.89,20.33,3.07,22S749.42,635.29,749.42,635.29Z" transform="translate(-57.62 -47.03)" opacity="0.1"/><path d="M760.42,649s9.06,15.31,5.93,17.92-6.73-3.64-6.73-3.64Z" transform="translate(-57.62 -47.03)" opacity="0.1"/><path d="M921.75,682.31a50.87,50.87,0,0,0,11.18.9C939,683,921.75,682.31,921.75,682.31Z" transform="translate(-57.62 -47.03)" opacity="0.1"/><path d="M917,674.87s11.17,2.08,15.18-.07S917,674.87,917,674.87Z" transform="translate(-57.62 -47.03)" opacity="0.1"/><path d="M912.6,663s11.18.9,13.45-2.9S912.6,663,912.6,663Z" transform="translate(-57.62 -47.03)" opacity="0.1"/><path d="M909.45,656.78s10.73,1.78,12.53-.7S909.45,656.78,909.45,656.78Z" transform="translate(-57.62 -47.03)" opacity="0.1"/><path d="M899,634.23s11.56,5.47,12.84,8.59S899,634.23,899,634.23Z" transform="translate(-57.62 -47.03)" opacity="0.1"/><path d="M884.13,341a25.11,25.11,0,0,1-9.69,19.49c-.07-.13-.13-.26-.19-.39-1.1-2.35-1.38-5-2.4-7.34a3.55,3.55,0,0,0-1.78-2.05c-1.62-.63-3.23.85-4.3,2.18s-2.66,2.83-4.29,2.24a4.07,4.07,0,0,1-2-2.11c-1.67-3-3.4-6.17-3.51-9.59a42.74,42.74,0,0,0,.06-5.06c-.43-2.94-2.64-5.41-5.18-7.07a64.71,64.71,0,0,0-8.25-4,12.25,12.25,0,0,1-3.5-2.24,25.2,25.2,0,0,1,45,15.94Z" transform="translate(-57.62 -47.03)" opacity="0.1"/><path d="M836,321.32c-.61,1.42,1.71,1.29,2.72,2.49a11.18,11.18,0,0,0,3.89,2.64,66.81,66.81,0,0,1,8.25,4c2.55,1.67,4.75,4.13,5.18,7.08a44.81,44.81,0,0,1-.05,5.05c.11,3.43,1.83,6.58,3.5,9.6a4.19,4.19,0,0,0,2,2.11c1.64.58,3.21-.91,4.29-2.24s2.69-2.81,4.31-2.19a3.56,3.56,0,0,1,1.77,2.05c1,2.37,1.3,5,2.4,7.35s3.46,4.47,6.1,4.12a5.25,5.25,0,0,0,3.73-2.74,9.28,9.28,0,0,0,1-4.55,18.16,18.16,0,0,1,.11-3.69c.41-2,1.76-3.58,2.92-5.23A24.22,24.22,0,0,0,892.53,336a17.07,17.07,0,0,0-2.81-11.56c-1.16-1.65-2.68-3.11-3.41-5-.33-.85-.48-1.76-.74-2.64a13.05,13.05,0,0,0-11.13-9c-4.18-.39-8.32,1.22-12.52,1.17-4.87-.05-9.9-2.3-14.44-.59a14.12,14.12,0,0,0-5.27,4,40.48,40.48,0,0,0-6.18,9" transform="translate(-57.62 -47.03)" fill="#653c5b"/><path d="M730.2,699l-.58.43s2.16,3.72-2.93,9c-2.39,2.45-7.44,1.33-12.13-.54a46,46,0,0,1-15-9.91c-8.77-8.61-26.58-26.76-28.35-34-1-4.18,2.52-5.34,7.52-5.09,6.5.33,15.48,3,20,4.61,8.06,2.77,18.91-3.85,18.91-3.85a16.32,16.32,0,0,1,1.47-4,9.08,9.08,0,0,1,6-5c3.9-.79,5.91,6.84,6.84,12.39,0,.22.07.45.11.67.44,2.77.61,4.88.61,4.88,6.93-.48,9.88,9.58,9.51,14.73s2,5.19,2,5.19Z" transform="translate(-57.62 -47.03)" fill="#ffd6db"/><path d="M729.62,699.4s2.16,3.72-2.93,9c-2.39,2.45-7.44,1.34-12.13-.54a45.85,45.85,0,0,1-15-9.91c-8.78-8.61-26.58-26.76-28.35-34-1-4.18,2.52-5.34,7.52-5.09.43,4.22,1.51,10,4.15,13.07,4.5,5.22,17.35,22.8,33.42,23a25,25,0,0,1,13.92,4Z" transform="translate(-57.62 -47.03)" fill="#c8a9b4"/><path d="M700.54,682.77s15.5-11.86,28.53-6.51C729.07,676.26,717.59,675.35,700.54,682.77Z" transform="translate(-57.62 -47.03)" opacity="0.1"/><path d="M718.11,679.93s14.82,4.64,17.77,4.68S720.64,678.79,718.11,679.93Z" transform="translate(-57.62 -47.03)" opacity="0.1"/><path d="M934.53,715.48s17.79.37,18.36,4.41-6.64,3.8-6.64,3.8Z" transform="translate(-57.62 -47.03)" opacity="0.1"/><path d="M969.05,767.71l.06.64s3.83.12,5.4,6.43c.74,3-2.48,6.27-6.12,9a40.89,40.89,0,0,1-14.57,6.73c-10.66,2.6-32.8,7.56-39.1,5.52-3.65-1.19-2.86-4.42-.32-8.1,3.3-4.78,9.58-10.31,12.92-13,5.89-4.8,6-16.15,6-16.15s-5.23-4.76-3.32-9.93,17.15,2.7,17.15,2.7c2.9-5.48,11.91-3,15.64-.28s4.87.94,4.87.94Z" transform="translate(-57.62 -47.03)" fill="#ffd6db"/><path d="M969.11,768.35s3.83.12,5.4,6.43c.74,3-2.48,6.27-6.12,9a40.89,40.89,0,0,1-14.57,6.73c-10.66,2.6-32.8,7.56-39.1,5.52-3.65-1.19-2.86-4.42-.32-8.1,3.4,1.65,8.28,3.55,11.86,3,6.07-1,25.45-2.44,33.18-14.51a22.35,22.35,0,0,1,9.61-8.66Z" transform="translate(-57.62 -47.03)" fill="#c8a9b4"/><path d="M942.81,782.59s-1.7-17.33,8.49-24.71C951.3,757.88,945.21,766.17,942.81,782.59Z" transform="translate(-57.62 -47.03)" opacity="0.1"/><path d="M948.93,767.92s10.48-9,11.9-11.27S949.25,765.47,948.93,767.92Z" transform="translate(-57.62 -47.03)" opacity="0.1"/><path d="M925.73,510.09s-13.51,7-23.34,4.23S925.73,510.09,925.73,510.09Z" transform="translate(-57.62 -47.03)" opacity="0.1"/><path d="M930.54,524.16s-2.12,3.8-15.37,2.87S930.54,524.16,930.54,524.16Z" transform="translate(-57.62 -47.03)" opacity="0.1"/><g opacity="0.1"><path d="M887.54,348l.56-.78c.41-.59.8-1.2,1.16-1.82A24.35,24.35,0,0,0,887.54,348Z" transform="translate(-57.62 -47.03)"/><path d="M881.94,361c-2.63.35-5-1.78-6.1-4.12s-1.38-5-2.4-7.35a3.56,3.56,0,0,0-1.77-2.05c-1.62-.62-3.23.86-4.31,2.19s-2.65,2.82-4.29,2.24a4.13,4.13,0,0,1-2-2.11c-1.68-3-3.4-6.17-3.51-9.59a45,45,0,0,0,0-5.06c-.42-2.95-2.63-5.41-5.18-7.07s-5.48-2.7-8.25-4a11.14,11.14,0,0,1-3.88-2.64c-1-1.2-3.34-1.07-2.72-2.49.46-.92,1-1.81,1.5-2.69a41.44,41.44,0,0,0-3.09,5.1c-.61,1.42,1.71,1.29,2.72,2.49a11.18,11.18,0,0,0,3.89,2.64,66.81,66.81,0,0,1,8.25,4c2.55,1.67,4.75,4.13,5.18,7.08a44.81,44.81,0,0,1-.05,5.05c.11,3.43,1.83,6.58,3.5,9.6a4.19,4.19,0,0,0,2,2.11c1.64.58,3.21-.91,4.29-2.24s2.69-2.81,4.31-2.19a3.56,3.56,0,0,1,1.77,2.05c1,2.37,1.3,5,2.4,7.35s3.46,4.47,6.1,4.12a5.25,5.25,0,0,0,3.73-2.74,7.78,7.78,0,0,0,.42-.93A4.91,4.91,0,0,1,881.94,361Z" transform="translate(-57.62 -47.03)"/></g><path d="M848.73,373.39s11.51-.57,19.17-.31,19-5.92,19-5.92" transform="translate(-57.62 -47.03)" opacity="0.1"/><path d="M372.78,453.51c-1.16-5.9-12.07-4.95-20-3.43-.67.13-1.32.26-1.94.4l.57-2.37-3.73-1.54a98.15,98.15,0,0,0-22.84-6.33c-11.48-1.72-29.68-5.41-40.87-12.56-10.17-6.5-14.25-8.38-17.09-10.13,0-.52,0-1,0-1.53,0-2.9-.17-5.56-.39-7.93a33.43,33.43,0,0,0-1.26-6.43c-2.38-7.89-7.74-10.42-13.11-15.36a49.16,49.16,0,0,0-11.83-8.24,31.66,31.66,0,0,1,2.28-7.58c.15-.37.31-.73.46-1.1,0-.05,0-.09.07-.14.16-.37.32-.74.48-1.09a24.64,24.64,0,0,0,12.87-21.56,24.37,24.37,0,0,0-7.24-17.33q-.58-.57-1.2-1.11l1.16-.38c2.47-.88,5.16-3.3,4.44-5.36l-.36,0a2.07,2.07,0,0,0-.1-.43,5,5,0,0,1-3-1.13c-1.15-1.42-1.5-3.55-3.61-5.54a9.85,9.85,0,0,0-1.57-1.36,13.86,13.86,0,0,0-5.09-2.11c.15.1.31.18.46.29l.31.24c-4.19-1-8.92-.85-12.9-2.56A18.69,18.69,0,0,1,225,308.3l.52.14c-2.15-1.24-4.08-2.83-6.31-4a17.41,17.41,0,0,0-3.89-1.41l1,.59A23.26,23.26,0,0,0,199,306.4c-6.15,3.62-10.51,9.43-13.75,15.54a66.27,66.27,0,0,0-7.7,33.37c.2,5.6,1.1,11.41-1,16.67-1.74,4.4-5.39,7.9-7.57,12.12-8.41,16.32,7.08,37.52-2.41,53.3-3.43,5.71-9.57,9.49-13.75,14.74s-5.69,13.74-.12,17.68c4,2.84,9.69,1.92,14.46,3.36a23,23,0,0,1-6.81,12.88l-.78-.15c-.18.17-.35.35-.54.51l.74.19-.28.27a76.66,76.66,0,0,0,16,2.84c4.81.34,9.9.16,14.08-2.12a19,19,0,0,0,5.5-4.7c0,1,.07,1.88.13,2.79a54.21,54.21,0,0,0,1.56,10.91c4.63,16.79-10,29.95-10,29.95a48.33,48.33,0,0,0-4.9,23.5h0a48.93,48.93,0,0,0,3,14.38c.14.37.27.73.41,1.08.27.7.56,1.38.84,2,.43,1,.86,1.87,1.29,2.69.28.56.56,1.08.83,1.56a36.24,36.24,0,0,0,3.22,4.93q2.22-1.51,4.44-2.85c0,.57,0,1.17,0,1.79.08,6.19-.54,14-.54,14s-4.64,16.57-5.1,21.34S188,645.24,188,645.24s-6.26,19.07-17.84,30.64-9,44.71-9,44.71-8.11,27.91-5.33,29.27a2.83,2.83,0,0,0,1.39.08v1.13c-5,3.47-8.8,6.28-8.8,6.28s-1.39,22.92-3.25,27.35,2.32,9.65,2.32,9.65,41.25-1.14,44.84-1.37c1.65-.1,7.15-1.89,12.84-4.42,4.89-1.09,19.65-6.84,25-12.19a7.83,7.83,0,0,0,1.88-2.54c2.55-6.36-20.51-1.59-26.77-1.59s-6.95-4.77-9.85-8.4-.81-9.64-.81-9.64l-.6-17,2.75-1.11s3.71-14.53,9.73-21.56,16.69-33.82,16.92-35.18.46-3.86,4.86-10S237,650.09,237,650.09s10-31.32,17.61-47.43c4.67-9.85,7.27-27.3,8.58-39.4a39.47,39.47,0,0,1,4.24,1.42s2.14-13.71,3-29.36a167.54,167.54,0,0,0-.19-24c-1.22-13-8.81-38.17-8.36-61.59,1.83,1.18,3.61,2.3,5.21,3.3,0-.59.07-1.17.11-1.76,4.1,2.55,7.06,4.3,7.06,4.3s24.56,13.61,46.11,13.84,25.26,2.72,25.26,2.72l1.36-5.62,1.93-.36C358,464.41,374.11,460.28,372.78,453.51Z" transform="translate(-57.62 -47.03)" fill="url(#311db79b-9222-4ebe-ab0a-c40379daabe1)"/><path d="M256.15,323.37l-1.12-.83a2.39,2.39,0,0,1,.46.79Z" transform="translate(-57.62 -47.03)" fill="url(#571fb74e-e46f-49c9-b145-15df7cc27286)"/><path d="M253.63,322.41l.67,0-.63-.47h.17l-1.12-.82a2.39,2.39,0,0,1,.45.78h.25A2.2,2.2,0,0,1,253.63,322.41Z" transform="translate(-57.62 -47.03)" fill="url(#4e344a4a-eba6-41b7-9977-dd5bf10ac472)"/><rect x="147.39" y="316.42" width="17.83" height="27.83" fill="#965d7b"/><rect x="147.39" y="316.42" width="17.83" height="27.83" opacity="0.1"/><rect x="160.01" y="736.66" width="16.21" height="21.84" transform="translate(278.62 1448.13) rotate(-180)" fill="#e8f4ff"/><path d="M207,363.87c4.35,1.66,9.25,10.45,9.49,17.79.1,3.31-3.79,8.93-3.79,8.93l4-.47c2.05-.27,4.71-.63,7.53-1.05,2.36-.36,4.83-.76,7.15-1.19,6.37-1.18,11.58-2.59,10.15-3.89-.69-.63-.87-1.84-.69-3.38a32.44,32.44,0,0,1,2.22-7.52c.31-.79.65-1.57,1-2.31,1.47-3.36,2.89-6,2.89-6s-13.61-1-25-1.47c-3.89-.17-7.53-.28-10.31-.29h-1.09C207.1,363,205.44,363.28,207,363.87Z" transform="translate(-57.62 -47.03)" fill="#ffc1c7"/><path d="M264.18,551.21s-2,36.25-9.45,52.23-17.11,47.06-17.11,47.06-4.28,13.06-8.56,19.14-4.5,8.56-4.73,9.91-10.58,27.92-16.44,34.9-9.45,21.39-9.45,21.39-25.67,10.8-28.37,9.45,5.18-29,5.18-29-2.48-32.88,8.78-44.36,17.34-30.39,17.34-30.39,1.8-29.28,2.25-34,4.95-21.17,4.95-21.17,1.35-17.34-.22-20.71S264.18,551.21,264.18,551.21Z" transform="translate(-57.62 -47.03)" fill="#575a89"/><path d="M264.18,551.21s-2,36.25-9.45,52.23-17.11,47.06-17.11,47.06-4.28,13.06-8.56,19.14-4.5,8.56-4.73,9.91-10.58,27.92-16.44,34.9-9.45,21.39-9.45,21.39-25.67,10.8-28.37,9.45,5.18-29,5.18-29-2.48-32.88,8.78-44.36,17.34-30.39,17.34-30.39,1.8-29.28,2.25-34,4.95-21.17,4.95-21.17,1.35-17.34-.22-20.71S264.18,551.21,264.18,551.21Z" transform="translate(-57.62 -47.03)" opacity="0.05"/><path d="M195.51,734.49l.68,19.47s-2,6,.78,9.57,3.49,8.33,9.57,8.33,28.49-4.73,26,1.58-23.53,14.41-27,14.63S162,789.42,162,789.42s-4.05-5.17-2.25-9.56,3.15-27.14,3.15-27.14S194.16,729,195.51,734.49Z" transform="translate(-57.62 -47.03)" fill="#444053"/><path d="M195.68,734.32l.67,19.48s-2,6,.79,9.56,3.49,8.34,9.57,8.34,28.48-4.73,26,1.57-23.53,14.41-27,14.64-43.57,1.35-43.57,1.35-4-5.18-2.25-9.57S163,752.56,163,752.56,194.33,728.8,195.68,734.32Z" transform="translate(-57.62 -47.03)" opacity="0.05"/><path d="M158.66,749.5C161.36,750.85,187,740,187,740s3.6-14.41,9.46-21.39,16.21-33.55,16.43-34.9.45-3.83,4.73-9.91,8.56-19.14,8.56-19.14,9.68-31.07,17.11-47.05c5.16-11.1,7.71-32,8.8-43.69.47-5.16.66-8.55.66-8.55s-57.42,11-55.84,14.41c.52,1.12.72,3.77.75,6.83.08,6.14-.53,13.88-.53,13.88s-4.5,16.44-4.95,21.17-2.25,34-2.25,34-6.08,18.91-17.34,30.39-8.78,44.36-8.78,44.36S156,748.15,158.66,749.5Z" transform="translate(-57.62 -47.03)" fill="#575a89"/><path d="M219,593.91s-11.71-3.15-15.76.45S219,593.91,219,593.91Z" transform="translate(-57.62 -47.03)" opacity="0.1"/><path d="M218.78,608.77s-18.47-4-18.69,1.8S218.78,608.77,218.78,608.77Z" transform="translate(-57.62 -47.03)" opacity="0.1"/><path d="M211.35,625S205,630.39,201,628.59,211.35,625,211.35,625Z" transform="translate(-57.62 -47.03)" opacity="0.1"/><path d="M194.24,654.25s12.83,4.73,9.9,9.69-5.18,5.63-6.3,4.27S194.24,654.25,194.24,654.25Z" transform="translate(-57.62 -47.03)" opacity="0.1"/><path d="M184.1,738.69l.68,19.48s-2,6,.79,9.56,3.49,8.34,9.57,8.34,28.48-4.73,26,1.57-23.53,14.41-27,14.64-43.57,1.35-43.57,1.35-4.05-5.18-2.25-9.57,3.15-27.13,3.15-27.13S182.75,733.17,184.1,738.69Z" transform="translate(-57.62 -47.03)" fill="#444053"/><path d="M177.57,764.81s-.56,3.83-12.61.11S177.57,764.81,177.57,764.81Z" transform="translate(-57.62 -47.03)" opacity="0.1"/><path d="M155.62,767.62s-2.7,3.72,6.87,5.41S155.62,767.62,155.62,767.62Z" transform="translate(-57.62 -47.03)" opacity="0.1"/><path d="M158.21,764.69s9.46,8.22,12.38,8.22" transform="translate(-57.62 -47.03)" opacity="0.1"/><path d="M210.47,363c4.18,7.58,11.84,6.27,21.52,12.72,3.3,2.21,7.74-.94,11.06-2.64,1.75-4.36,3.87-8.32,3.87-8.32S220.74,362.91,210.47,363Z" transform="translate(-57.62 -47.03)" opacity="0.1"/><path d="M207.45,349.39A24.54,24.54,0,1,0,232,324.85,24.43,24.43,0,0,0,207.45,349.39Z" transform="translate(-57.62 -47.03)" fill="#ffc1c7"/><path d="M196.94,569.82c.52,1.12.72,3.77.75,6.83,21.56-13.38,41.49-14.29,54.43-12.69.47-5.16.66-8.55.66-8.55S195.36,566.44,196.94,569.82Z" transform="translate(-57.62 -47.03)" opacity="0.1"/><path d="M184.07,551.25a49.36,49.36,0,0,0,9.26,26.45c39-27,73.86-11.93,73.86-11.93s2.07-13.6,2.88-29.13a172.6,172.6,0,0,0-.18-23.79c-1.27-13.71-9.53-41.09-7.95-65.52.7-10.75,4.87-20.77,4.72-29.06,0-2.87-.16-5.51-.37-7.86a33.51,33.51,0,0,0-1.23-6.38c-2.3-7.84-7.52-10.34-12.73-15.24a47.66,47.66,0,0,0-11.5-8.18c-8.46-4.13-17-4.13-24.34,1.05a28.74,28.74,0,0,0-3.84,3.27,36.36,36.36,0,0,0-4.09,5c-.21.29-.4.59-.59.88-1.08,1.69-2.08,4.75-3,8.54-3.39,14.25-5.36,38.74-5.36,38.74s-3.83,29.59-2.64,49.29a55.23,55.23,0,0,0,1.51,10.83c4.51,16.66-9.68,29.72-9.68,29.72A48.73,48.73,0,0,0,184.07,551.25Z" transform="translate(-57.62 -47.03)" fill="#ff6584"/><path d="M340.59,469.05s2.37-.34,5.74-1c8.81-1.76,24.51-5.86,23.21-12.57-1.12-5.85-11.72-4.91-19.43-3.4-4.55.88-8.09,2-8.09,2Z" transform="translate(-57.62 -47.03)" fill="#ffc1c7"/><path d="M224,422.64c4.73,3.6,16.44,13.51,25.44,20.49,5.07,3.93,12.14,8.57,17.35,11.89.7-10.76,1.19-21,1.05-29.25-3.54-2.86-4.72-6.58-10.06-12.81-9.46-11-26.35-14.86-26.35-14.86C220.2,395.62,219.3,419,224,422.64Z" transform="translate(-57.62 -47.03)" opacity="0.1"/><path d="M340.59,469.05s2.37-.34,5.74-1l3.78-16c-4.55.88-8.09,2-8.09,2Z" transform="translate(-57.62 -47.03)" opacity="0.1"/><path d="M231.46,396.3s16.89,3.82,26.35,14.86,6,6,25.44,18.69c10.87,7.09,28.55,10.75,39.71,12.45a94.3,94.3,0,0,1,22.19,6.29l3.62,1.52L343.14,474s-3.6-2.48-24.54-2.7-44.81-13.74-44.81-13.74-15.31-9.23-24.32-16.21S228.76,424.44,224,420.84,220.2,393.82,231.46,396.3Z" transform="translate(-57.62 -47.03)" fill="#e8f4ff"/><path d="M205,401.16c3.28,2,7.25,1.18,12-4.71,12.78-15.94,34-.06,48.08,9.38-2.3-7.83-7.52-10.34-12.73-15.24-15.1-14.19-32-15.94-43.77,1.15-.21.29-.4.59-.59.88C206.89,394.31,205.89,397.37,205,401.16Z" transform="translate(-57.62 -47.03)" opacity="0.1"/><path d="M205,399.36c3.28,2,7.25,1.18,12-4.71a5.54,5.54,0,0,1,.37-.45,17.46,17.46,0,0,1,6.87-5.13,17,17,0,0,1,7.15-1.19c11.27.36,24.14,9.74,33.69,16.15-2.3-7.84-7.52-10.34-12.73-15.24a47.66,47.66,0,0,0-11.5-8.18c-8.46-4.13-17-4.13-24.34,1.05a28.74,28.74,0,0,0-3.84,3.27,36.36,36.36,0,0,0-4.09,5c-.21.29-.4.59-.59.88C206.89,392.51,205.89,395.57,205,399.36Z" transform="translate(-57.62 -47.03)" fill="#ff6584"/><path d="M184.07,549.45a49.36,49.36,0,0,0,9.26,26.45c39-27,73.86-11.93,73.86-11.93s2.07-13.6,2.88-29.13c-14.85-.13-57.14.22-71.33,8A94.14,94.14,0,0,1,184.07,549.45Z" transform="translate(-57.62 -47.03)" opacity="0.1"/><path d="M184.07,551.25a49.36,49.36,0,0,0,9.26,26.45c39-27,73.86-11.93,73.86-11.93s2.07-13.6,2.88-29.13c-14.85-.13-57.14.22-71.33,8A94.14,94.14,0,0,1,184.07,551.25Z" transform="translate(-57.62 -47.03)" fill="#e8f4ff"/><path d="M256.23,326.35l-1.09-.82a2.39,2.39,0,0,1,.45.78Z" transform="translate(-57.62 -47.03)" opacity="0.1"/><path d="M197,487.39a29.51,29.51,0,0,0,3.59-4.45c9.42-13.92,11.35-31.74,7.7-48-.81-3.61-1.87-7.43-.57-10.91,1.78-4.78,7.38-7.27,9.93-11.71,3.11-5.43.95-12-.3-18.14,0-.25-.09-.48-.14-.72-.22-1.11-.39-2.24-.52-3.36a46.63,46.63,0,0,1,2.08-20.05c.11-.33.22-.66.34-1a30.38,30.38,0,0,1,2.76-5.79c2.3-3.71,5.52-6.79,9.78-7.88a7.72,7.72,0,0,0,3.37-1.26c2.53-2.21-.35-6-.92-9.26-.7-3.82,2.28-7.46,5.8-9.36,3-1.61,6.35-2.33,9.6-3.34A24.55,24.55,0,0,0,211.56,363h-1.09c-3.37,0-5,.27-3.47.86,4.35,1.66,5.41,13.72,5.65,21.06a36.36,36.36,0,0,0-4.09,5c-.21.29-.4.59-.59.88-1.08,1.69-2.08,4.75-3,8.54-3.39,14.25-5.36,38.74-5.36,38.74S195.81,467.69,197,487.39Z" transform="translate(-57.62 -47.03)" opacity="0.1"/><path d="M253.34,324.63c1.83,2.17-1.16,5.1-3.88,6.08-3.77,1.37-7.84,2-11.36,3.93s-6.49,5.54-5.81,9.36c.59,3.25,3.46,7,.93,9.26a7.86,7.86,0,0,1-3.37,1.27c-6.36,1.62-10.39,7.67-12.54,13.66a46.36,46.36,0,0,0-1.9,24.39c1.21,6.33,3.67,13.22.44,18.86-2.55,4.45-8.15,6.93-9.93,11.71-1.3,3.48-.24,7.3.57,10.91,3.65,16.24,1.72,34.06-7.7,48a22.1,22.1,0,0,1-7.26,7.26c-4.06,2.25-9,2.43-13.68,2.1a73.38,73.38,0,0,1-15.56-2.83A23,23,0,0,0,169.75,475c-4.64-1.44-10.15-.52-14.05-3.34-5.41-3.9-3.95-12.33.11-17.54s10-9,13.37-14.62c9.21-15.66-5.84-36.7,2.33-52.88,2.12-4.2,5.67-7.67,7.36-12,2-5.22,1.15-11,.95-16.54a66.94,66.94,0,0,1,7.49-33.11c3.14-6.06,7.38-11.82,13.35-15.41s13.91-4.68,20.1-1.46c2.74,1.42,5,3.58,7.85,4.82,5.46,2.39,12.38,1.1,17.18,4.55s2.61,7.88,8.64,8" transform="translate(-57.62 -47.03)" fill="#965d7b"/><path d="M228.72,495c-2.34,1.17-7,11.72-17.58,19.34S228.72,495,228.72,495Z" transform="translate(-57.62 -47.03)" opacity="0.1"/><path d="M233.41,473.9s-13.48,28.13-29.3,32.23S233.41,473.9,233.41,473.9Z" transform="translate(-57.62 -47.03)" opacity="0.1"/><path d="M258.33,542.2s-4.5,14.11-3.6,15.31S258.33,542.2,258.33,542.2Z" transform="translate(-57.62 -47.03)" opacity="0.1"/><path d="M249.62,542.8s-4.5,14.11-3.6,15.31S249.62,542.8,249.62,542.8Z" transform="translate(-57.62 -47.03)" opacity="0.1"/><path d="M239.72,542.5s-4.51,14.11-3.61,15.31S239.72,542.5,239.72,542.5Z" transform="translate(-57.62 -47.03)" opacity="0.1"/><path d="M191.63,553.67s2.89,14.52,4.26,15.14S191.63,553.67,191.63,553.67Z" transform="translate(-57.62 -47.03)" opacity="0.1"/><path d="M208.44,547.36s2.89,14.53,4.26,15.14S208.44,547.36,208.44,547.36Z" transform="translate(-57.62 -47.03)" opacity="0.1"/><path d="M198.84,551.57s2.89,14.52,4.26,15.14S198.84,551.57,198.84,551.57Z" transform="translate(-57.62 -47.03)" opacity="0.1"/><path d="M283.85,437.58c-.75.15,2.25,7.35-6.31,7.8S283.85,437.58,283.85,437.58Z" transform="translate(-57.62 -47.03)" opacity="0.1"/><path d="M341.34,455.74s-3.3,6.9-8.71,8.25S341.34,455.74,341.34,455.74Z" transform="translate(-57.62 -47.03)" opacity="0.1"/><path d="M315.37,451.39s7.21,7.5-2.85,9.15S315.37,451.39,315.37,451.39Z" transform="translate(-57.62 -47.03)" opacity="0.1"/><path d="M258.18,422.57s-14.71-4.51-17-1.21S258.18,422.57,258.18,422.57Z" transform="translate(-57.62 -47.03)" opacity="0.1"/><path d="M232.43,441c-2.35,1.17-7,11.72-17.59,19.34S232.43,441,232.43,441Z" transform="translate(-57.62 -47.03)" opacity="0.1"/><g opacity="0.1"><path d="M223.66,310.63c-2.58-1.13-4.71-3-7.13-4.42a16.53,16.53,0,0,1,3.78,1.4c2.16,1.12,4.05,2.7,6.13,3.93A16.74,16.74,0,0,1,223.66,310.63Z" transform="translate(-57.62 -47.03)"/><path d="M254,325l-.65-.05a2.42,2.42,0,0,0-.44-.77Z" transform="translate(-57.62 -47.03)"/><path d="M164.8,472.74c-.05.31-.13.62-.19.94-3.33-.37-6.68-.57-9.31-2.44C158.38,471.86,161.77,471.8,164.8,472.74Z" transform="translate(-57.62 -47.03)"/><path d="M172.9,489.14c4.67.34,9.62.16,13.68-2.1a22.07,22.07,0,0,0,7.26-7.25c9.42-13.93,11.35-31.75,7.7-48-.81-3.61-1.87-7.44-.58-10.91,1.79-4.78,7.39-7.27,9.94-11.71,3.23-5.64.77-12.53-.45-18.86a46.45,46.45,0,0,1,1.9-24.39c2.15-6,6.18-12,12.55-13.67a7.9,7.9,0,0,0,3.37-1.26c2.52-2.22-.35-6-.93-9.26-.69-3.82,2.29-7.47,5.8-9.36s7.59-2.56,11.36-3.93c2.41-.87,5-3.27,4.33-5.31l.64.05-1.08-.82a2.39,2.39,0,0,1,.44.77c-5.2-.45-3.35-4.63-8-8l-.45-.29a13.58,13.58,0,0,1,5,2.09c4.64,3.34,2.79,7.53,8,8,.7,2-1.92,4.44-4.32,5.31-3.77,1.37-7.84,2-11.36,3.93s-6.49,5.54-5.81,9.36c.59,3.25,3.46,7,.93,9.26a7.86,7.86,0,0,1-3.37,1.27c-6.36,1.62-10.39,7.67-12.54,13.66A46.46,46.46,0,0,0,215,392.13c1.22,6.33,3.68,13.22.45,18.86-2.55,4.45-8.15,6.93-9.93,11.71-1.3,3.48-.24,7.3.57,10.91,3.65,16.24,1.72,34.06-7.7,48a22.19,22.19,0,0,1-7.26,7.26c-4.06,2.25-9,2.43-13.68,2.1a73.38,73.38,0,0,1-15.56-2.83c.19-.16.35-.34.53-.51A71.64,71.64,0,0,0,172.9,489.14Z" transform="translate(-57.62 -47.03)"/></g><path d="M869.73,110.78s-84.19-5.07-74.27,53.93c0,0-2,10.43,7.48,15.16,0,0,.15-4.37,8.64-2.89a38.87,38.87,0,0,0,9.14.44,19,19,0,0,0,11.19-4.62h0s23.67-9.77,32.87-48.46c0,0,6.81-8.43,6.54-10.6l-14.21,6.06s4.86,10.26,1,18.77c0,0-.46-18.39-3.19-18-.56.09-7.39,3.55-7.39,3.55s8.36,17.86,2,30.84c0,0,2.4-22-4.65-29.55l-10,5.84s9.77,18.45,3.15,33.49c0,0,1.7-23.08-5.25-32.06l-9.06,7.07S833,158,827.38,170.44c0,0-.73-26.87-5.55-28.9,0,0-7.92,7-9.13,9.87,0,0,6.28,13.19,2.38,20.16,0,0-2.39-17.91-4.35-18,0,0-7.9,11.86-8.72,20,0,0,.34-12.09,6.81-21.13,0,0-7.64,1.31-12.1,6.27,0,0,1.23-8.39,14-9.12,0,0,6.52-9,8.27-9.54,0,0-12.75-1.07-20.48,2.36,0,0,6.81-7.91,22.82-4.32l9-7.3s-16.79-2.3-23.9.24c0,0,8.19-7,26.31-1.9l9.74-5.83s-14.31-3.08-22.83-2c0,0,9-4.85,25.68.41l7-3.13s-10.48-2.06-13.55-2.38-3.24-1.17-3.24-1.17a36.27,36.27,0,0,1,19.7,2.19S870,111.72,869.73,110.78Z" transform="translate(-57.62 -47.03)" fill="#ffc107"/><path d="M783.37,84.55s-38-2.3-33.56,24.36c0,0-.89,4.71,3.38,6.85,0,0,.07-2,3.9-1.3a17.59,17.59,0,0,0,4.14.2,8.63,8.63,0,0,0,5-2.09h0s10.69-4.42,14.85-21.9c0,0,3.08-3.81,3-4.79l-6.42,2.74s2.19,4.64.47,8.48c0,0-.21-8.31-1.44-8.11-.26,0-3.34,1.6-3.34,1.6s3.77,8.07.93,13.93c0,0,1.08-9.94-2.11-13.34l-4.52,2.63s4.41,8.34,1.42,15.14c0,0,.77-10.43-2.37-14.49l-4.09,3.19s4.14,8.21,1.61,13.85c0,0-.33-12.14-2.5-13,0,0-3.58,3.15-4.13,4.45,0,0,2.84,6,1.08,9.11,0,0-1.08-8.09-2-8.12,0,0-3.57,5.36-3.94,9a19.43,19.43,0,0,1,3.08-9.55,10.72,10.72,0,0,0-5.47,2.83s.56-3.79,6.35-4.12c0,0,2.95-4.06,3.74-4.31,0,0-5.76-.48-9.26,1.07,0,0,3.08-3.58,10.31-2l4.05-3.3s-7.59-1-10.8.11c0,0,3.7-3.17,11.88-.86l4.41-2.64s-6.47-1.39-10.32-.89c0,0,4.06-2.19,11.61.19l3.14-1.42s-4.73-.93-6.12-1.07-1.46-.53-1.46-.53a16.39,16.39,0,0,1,8.9,1S783.49,85,783.37,84.55Z" transform="translate(-57.62 -47.03)" fill="#ffc107"/><ellipse cx="1057.84" cy="719.99" rx="26.93" ry="4.55" fill="#ffc107" opacity="0.1"/><ellipse cx="31.52" cy="795.68" rx="26.93" ry="4.55" fill="#ffc107" opacity="0.1"/><ellipse cx="187.85" cy="801.38" rx="26.93" ry="4.55" fill="#ffc107" opacity="0.1"/><ellipse cx="998.9" cy="768.75" rx="40.21" ry="6.8" fill="#ffc107"/><path d="M1073.14,804.66a11.72,11.72,0,0,0,3.83-5.78c.5-2.3-.48-5.06-2.68-5.9-2.46-.94-5.09.77-7.08,2.49s-4.28,3.69-6.89,3.32a10.48,10.48,0,0,0,3.25-9.81,4.13,4.13,0,0,0-.91-2c-1.36-1.46-3.84-.83-5.47.32-5.2,3.65-6.65,10.72-6.68,17.07-.52-2.29-.08-4.68-.1-7s-.65-5-2.64-6.22a8,8,0,0,0-4-1c-2.34-.09-4.94.15-6.53,1.86-2,2.12-1.47,5.68.25,8s4.35,3.81,6.77,5.42a15,15,0,0,1,4.83,4.61,4.16,4.16,0,0,1,.36.83h14.66A41.24,41.24,0,0,0,1073.14,804.66Z" transform="translate(-57.62 -47.03)" fill="#ffc107"/><path d="M101.7,720.81s5.49,7.18-2.53,18-14.65,20-12,26.76c0,0,12.12-20.14,22-20.42S112.55,732.92,101.7,720.81Z" transform="translate(-57.62 -47.03)" fill="#ffc107"/><path d="M101.7,720.81a8.63,8.63,0,0,1,1.12,2.25c9.62,11.3,14.75,21.85,5.5,22.12-8.61.24-18.95,15.65-21.42,19.54.08.29.18.59.29.88,0,0,12.12-20.14,22-20.42S112.55,732.92,101.7,720.81Z" transform="translate(-57.62 -47.03)" opacity="0.1"/><path d="M111.91,730c0,2.53-.28,4.58-.63,4.58s-.63-2-.63-4.58.35-1.33.7-1.33S111.91,727.43,111.91,730Z" transform="translate(-57.62 -47.03)" fill="#ffd037"/><path d="M115.42,733c-2.22,1.21-4.16,1.94-4.33,1.64s1.5-1.54,3.72-2.75,1.35-.33,1.51,0S117.64,731.77,115.42,733Z" transform="translate(-57.62 -47.03)" fill="#ffd037"/><path d="M72.68,720.81s-5.49,7.18,2.54,18,14.65,20,12,26.76c0,0-12.11-20.14-22-20.42S61.84,732.92,72.68,720.81Z" transform="translate(-57.62 -47.03)" fill="#ffc107"/><path d="M72.68,720.81a9,9,0,0,0-1.12,2.25c-9.62,11.3-14.74,21.85-5.5,22.12,8.62.24,19,15.65,21.43,19.54-.09.29-.18.59-.3.88,0,0-12.11-20.14-22-20.42S61.84,732.92,72.68,720.81Z" transform="translate(-57.62 -47.03)" opacity="0.1"/><path d="M62.47,730c0,2.53.28,4.58.64,4.58s.63-2,.63-4.58-.36-1.33-.71-1.33S62.47,727.43,62.47,730Z" transform="translate(-57.62 -47.03)" fill="#ffd037"/><path d="M59,733c2.22,1.21,4.15,1.94,4.32,1.64s-1.5-1.54-3.72-2.75-1.34-.33-1.51,0S56.75,731.77,59,733Z" transform="translate(-57.62 -47.03)" fill="#ffd037"/><path d="M64.22,764.66s15.36-.47,20-3.77S107.84,753.66,109,759s23.09,26.29,5.74,26.43-40.29-2.7-44.91-5.52S64.22,764.66,64.22,764.66Z" transform="translate(-57.62 -47.03)" fill="#a8a8a8"/><path d="M115,783.54c-17.34.14-40.29-2.7-44.91-5.52-3.52-2.14-4.92-9.83-5.39-13.38l-.51,0s1,12.39,5.59,15.2,27.57,5.66,44.91,5.52c5,0,6.74-1.82,6.64-4.46C120.67,782.51,118.76,783.51,115,783.54Z" transform="translate(-57.62 -47.03)" opacity="0.2"/></svg>