<?xml version="1.0" encoding="utf-8"?>
<!-- Generator: Adobe Illustrator 14.0.0, SVG Export Plug-In . SVG Version: 6.00 Build 43363)  -->
<!DOCTYPE svg PUBLIC "-//W3C//DTD SVG 1.1//EN" "http://www.w3.org/Graphics/SVG/1.1/DTD/svg11.dtd">
<svg version="1.1" id="Ebene_1" xmlns="http://www.w3.org/2000/svg" xmlns:xlink="http://www.w3.org/1999/xlink" x="0px" y="0px"
	 width="183.122px" height="48.105px" viewBox="0 0 183.122 48.105" enable-background="new 0 0 183.122 48.105"
	 xml:space="preserve">
<polygon fill="transparent" points="3.701,4.24 49.274,4.24 49.274,44.571 3.701,44.571 "/>
<path fill="#7D7D7D" d="M32.428,4.24l16.846,40.331V4.24H32.428z M3.701,4.24v40.331L20.56,4.24H3.701z M19.128,36.459h7.855
	l3.21,8.112h7.034L26.495,19.103L19.128,36.459z"/>
<path fill="#7D7D7D" d="M73.332,4.134l-9.12,40.438h5.52l2.4-11.159h8.4l2.34,11.159h5.58l-8.58-40.438H73.332z M72.792,28.912l1.92-9.659
	c0.54-2.58,1.14-6.3,1.56-9.239h0.24c0.42,2.88,0.96,6.479,1.5,9.239l1.86,9.659H72.792z M109.521,3.054h-5.64v15.179h-0.12
	c-1.02-2.22-2.88-3.3-5.22-3.3c-4.619,0-9,4.858-9,15.179c0,9.06,3.3,14.939,8.7,14.939c2.938,0,5.159-1.98,6.119-4.021h0.181
	l0.359,3.54h4.859c-0.12-2.04-0.24-5.279-0.24-7.499L109.521,3.054L109.521,3.054z M103.881,34.313c0,0.659-0.061,1.38-0.18,1.858
	c-0.96,3.479-2.641,4.141-3.9,4.141c-3,0-4.56-4.199-4.56-10.199c0-5.4,1.199-10.32,4.739-10.32c2.04,0,3.54,2.28,3.84,4.92
	c0.061,0.601,0.061,1.261,0.061,1.801V34.313z M123.254,14.933c-5.339,0-10.319,4.5-10.319,15.119c0,10.021,4.2,15,10.021,15h0.061
	c4.439,0,10.14-3.54,10.14-15.119C133.154,20.094,129.014,14.933,123.254,14.933z M123.135,40.611h-0.061
	c-3.659,0-4.5-5.76-4.5-10.619c0-4.38,0.721-10.62,4.439-10.62c3.6,0,4.38,6.24,4.38,10.62
	C127.395,34.433,126.614,40.611,123.135,40.611z M148.432,14.933c-2.579,0-4.619,1.14-6.119,3.779h-0.12V3.054h-5.64v34.019
	c0,2.22-0.12,5.521-0.24,7.499h4.86l0.3-3.659h0.239c1.261,2.58,2.88,4.141,5.76,4.141c4.8,0,9.061-5.102,9.061-15.54
	C156.531,20.573,153.411,14.933,148.432,14.933z M146.212,40.312c-1.141,0-2.88-0.721-3.78-4.26
	c-0.18-0.479-0.239-1.141-0.239-1.801v-8.158c0-0.602,0.061-1.381,0.181-1.98c0.42-2.1,1.92-4.32,3.778-4.32
	c3.36,0,4.682,4.5,4.682,10.08C150.832,35.872,149.571,40.312,146.212,40.312z M169.773,14.933c-6.061,0-10.439,5.88-10.439,15.418
	c0,9,3.841,14.52,11.16,14.52c2.579,0,5.22-0.479,6.96-1.379l-0.841-4.08c-1.261,0.601-3,1.079-5.039,1.079
	c-3.421,0-6.66-1.859-6.721-9.358l13.68,0.061c0.061-0.78,0.119-1.681,0.119-3.12C178.652,20.753,175.833,14.933,169.773,14.933z
	 M164.913,27.112c0.181-3.66,1.5-7.92,4.439-7.92c2.22,0,4.021,2.76,3.96,7.92H164.913z M178.405,16.201V16.19
	c0.155-0.046,0.282-0.162,0.282-0.353c0-0.139-0.046-0.236-0.133-0.3c-0.086-0.063-0.229-0.109-0.449-0.109
	c-0.173,0-0.288,0.018-0.409,0.034v1.448h0.23v-0.623h0.161c0.185,0,0.276,0.069,0.312,0.254c0.028,0.19,0.063,0.323,0.1,0.369h0.24
	c-0.021-0.046-0.058-0.133-0.092-0.357C178.618,16.339,178.532,16.224,178.405,16.201z M178.094,16.108h-0.167v-0.49
	c0.04-0.005,0.092-0.011,0.167-0.011c0.26,0,0.352,0.126,0.352,0.253C178.445,16.04,178.284,16.108,178.094,16.108z M178.175,14.857
	h-0.006c-0.709,0-1.286,0.577-1.286,1.298c0,0.732,0.577,1.303,1.286,1.303c0.715,0,1.28-0.57,1.28-1.303
	C179.449,15.434,178.884,14.857,178.175,14.857z M178.175,17.256c-0.577,0-1.044-0.483-1.044-1.101c0-0.605,0.467-1.096,1.038-1.096
	h0.006c0.576,0,1.037,0.49,1.037,1.102C179.212,16.771,178.751,17.262,178.175,17.256z M51.496,4.24H51.49
	c-0.71,0-1.286,0.577-1.286,1.297c0,0.732,0.576,1.303,1.286,1.303c0.715,0,1.279-0.57,1.279-1.303
	C52.77,4.817,52.205,4.24,51.496,4.24z M51.496,6.639c-0.577,0-1.043-0.484-1.043-1.102c0-0.604,0.467-1.096,1.038-1.096h0.006
	c0.577,0,1.038,0.49,1.038,1.101C52.533,6.155,52.072,6.645,51.496,6.639z M51.727,5.584V5.572c0.155-0.046,0.282-0.162,0.282-0.352
	c0-0.139-0.046-0.237-0.132-0.301c-0.086-0.063-0.231-0.108-0.45-0.108c-0.172,0-0.288,0.017-0.409,0.035v1.446h0.231V5.67h0.161
	c0.185,0,0.276,0.069,0.312,0.254c0.028,0.19,0.063,0.322,0.098,0.369h0.243C52.04,6.247,52.005,6.16,51.97,5.936
	C51.94,5.722,51.854,5.607,51.727,5.584z M51.415,5.491h-0.167v-0.49c0.04-0.005,0.092-0.012,0.167-0.012
	c0.259,0,0.352,0.127,0.352,0.254C51.767,5.422,51.605,5.491,51.415,5.491z"/>
</svg>
