<?xml version="1.0" encoding="UTF-8" standalone="no"?>
<svg
   xmlns:dc="http://purl.org/dc/elements/1.1/"
   xmlns:cc="http://creativecommons.org/ns#"
   xmlns:rdf="http://www.w3.org/1999/02/22-rdf-syntax-ns#"
   xmlns:svg="http://www.w3.org/2000/svg"
   xmlns="http://www.w3.org/2000/svg"
   version="1.1"
   id="svg4419"
   width="300"
   height="198.51317"
   viewBox="0 0 300 198.51317">
  <metadata
     id="metadata4431">
    <rdf:RDF>
      <cc:Work
         rdf:about="">
        <dc:format>image/svg+xml</dc:format>
        <dc:type
           rdf:resource="http://purl.org/dc/dcmitype/StillImage" />
        <dc:title></dc:title>
      </cc:Work>
    </rdf:RDF>
  </metadata>
  <defs
     id="defs4429" />
  <g
     id="g4421"
     fill="#7D7D7D">
    <path
       id="path4423"
       d="M88.79854 84.35368v48.12215H73.47991v-60.4873l31.62545.0314c13.43261 0 18.00847 9.47252 18.00847 18.07669v42.37928h-15.29098v-42.3c0-3.60428-1.86574-5.82215-6.36602-5.82215H88.79854zm104.16449-.7227c-5.23588 0-9.28815 2.69169-10.9806 6.34574-1.00293 2.19391-1.34768 3.87529-1.46567 6.56144h23.56698c-.30235-6.56144-3.27795-12.90718-11.12071-12.90718m-12.44627 23.33285c0 7.83538 4.87084 13.60222 13.56719 13.60222 6.76608 0 10.12884-1.87496 14.041-5.76684l9.46146 9.03373c-6.05813 5.98071-12.41493 9.61264-23.61492 9.61264-14.66415 0-28.69778-7.99578-28.69778-31.29913 0-19.91109 12.2527-31.18297 28.35302-31.18297 16.31972 0 25.74799 13.19662 25.74799 30.4824v5.51795h-38.85796m-28.17419 25.43641c-12.47946 0-17.77434-8.68713-17.77434-17.26733V55.50842h15.29467v16.48011h11.52999v12.36515H149.8629v29.82054c0 3.51394 1.65926 5.46449 5.30778 5.46449h6.22221v12.76153h-9.05032M59.85003 63.62956H44.42632V48.97832h15.42371v14.65124zm.0388 69.48232c-11.55027-1.10986-15.47902-8.11561-15.47902-16.19988l.0167-44.92347h15.46244v61.12335zm183.82912-1.29238c-11.52631-1.1117-15.43662-8.10639-15.43662-16.1796V46.89318h15.43662v84.92632zm53.96458-74.99105C283.69314-11.37625 151.29731-15.694 65.95986 36.25734v5.7355c85.2508-43.81176 206.15719-43.55366 217.17282 19.26582 3.68539 20.77206-8.01975 42.42906-28.92455 54.87717v16.28654c25.16172-9.20519 50.96686-39.05523 43.47439-75.59392M142.55855 176.16037c-58.89626 5.44421-120.27034-3.10465-128.85792-49.1269-4.20345-22.68758 6.13188-46.73759 19.84288-61.67644v-7.9884C8.86113 79.01272-4.53461 106.41443 3.17725 138.79207c9.84309 41.51829 62.51713 65.04656 142.91552 57.2333 31.80981-3.10465 73.44426-13.33305 102.38908-29.21952v-22.56957c-26.2642 15.63941-69.72568 28.57239-105.9233 31.92409" />
    <path
       id="path4425"
       d="M261.56171 51.45816c0-.74851-.43694-.98633-1.43618-.98633h-.96421v2.11831c.14011 0 .84069.0258.96421.0258.99924 0 1.43618-.33369 1.43618-1.03427v-.12344zm1.50439 5.25247h-1.14304c-.10324 0-.19358-.0646-.23783-.15117l-1.5597-2.64375c-.0277-.0534-.16224-.118-.2157-.118h-.70058v2.62163c0 .14012-.0959.29129-.28023.29129h-1.03427c-.12905 0-.2581-.15117-.2581-.29129v-6.6315c0-.38347.14933-.54386.47381-.59364.36503-.0479 1.3569-.0811 1.89155-.0811 1.89893 0 3.0475.56046 3.0475 2.34508v.12345c0 1.10433-.5494 1.68691-1.40115 1.97267l1.61686 2.73409c.0103.0553.0479.13097.0479.19542 0 .10693-.0646.22677-.24705.22677m-2.7138-8.79406c-2.81337 0-5.08839 2.32296-5.08839 5.11973 0 2.80045 2.27502 5.08654 5.08839 5.08654 2.79861 0 5.09576-2.28609 5.09576-5.08654 0-2.79677-2.29715-5.11973-5.09576-5.11973m0 11.26082c-3.41807 0-6.14479-2.75805-6.14479-6.14109 0-3.37751 2.72672-6.14294 6.14479-6.14294 3.3812 0 6.15953 2.76543 6.15953 6.14294 0 3.38304-2.77833 6.14109-6.15953 6.14109" />
  </g>
</svg>
