<?xml version="1.0" encoding="utf-8"?>
<!-- Generator: Adobe Illustrator 22.1.0, SVG Export Plug-In . SVG Version: 6.00 Build 0)  -->
<svg version="1.1" id="Layer_1" xmlns="http://www.w3.org/2000/svg" xmlns:xlink="http://www.w3.org/1999/xlink" x="0px" y="0px"
	 viewBox="0 0 350 350" style="enable-background:new 0 0 350 350;" xml:space="preserve">
<style type="text/css">
	.st0{fill:#7D7D7D;}
</style>
<g>
	<path class="st0" d="M234.9,279.7c-4.6,0-9.8,3.4-9.8,14.3c0.1,6,0.5,16,9.9,15.9c9.7-0.1,10.5-10,10.5-16.4
		C245.5,285.9,241.8,279.7,234.9,279.7z"/>
	<path class="st0" d="M119.3,305.9c0,3.3,2.1,6.3,5.8,6.3c4,0,8-1.7,11.9-5.1v-11.5C125,297,119.3,300.1,119.3,305.9z"/>
	<ellipse class="st0" cx="43.1" cy="296.1" rx="11.3" ry="14.9"/>
	<path class="st0" d="M288.4,279.2c-5.8,0-9.4,3.8-9.9,10.3h19.7C298.2,283,294.5,279.2,288.4,279.2z"/>
	<path class="st0" d="M0,0v350h350V0H0z M43.1,321.8c-12.7,0-24.1-8.1-24.1-25.7c0-17.6,11.4-25.7,24.1-25.7
		c12.7,0,24.1,8.1,24.1,25.7C67.2,313.7,55.8,321.8,43.1,321.8z M103.3,282.8h-0.6c-5.6,0-11.7,0.9-13.6,5.2v32.4H76v-48.7h12.2v5.7
		c2.3-3.1,8.1-6.7,13.4-6.7c0.5,0,1.1,0,1.7,0.1V282.8z M149.8,320.4h-11.4l-1.1-4.3c-5,3.3-10.3,4.8-16.1,4.8
		c-9.1,0-14.5-6-14.5-14.2c0-10.9,10-16.7,30.7-19V285c0-3.5-2.7-5.6-7.6-5.6c-5,0-9,2-11.9,5.6l-8.6-4.9c4.5-6.4,11.5-9.5,20.7-9.5
		c12.7,0,19.8,5.5,19.8,14.5C149.8,285.1,149.8,320.3,149.8,320.4z M203.6,320.3h-12.8v-31.7c0-6-1.5-8.6-6.2-8.6
		c-3.8,0-7.6,1.7-12,5.4v34.9h-12.7v-47.4l10.6-1.5l1.2,5.8c6-4.4,10.7-6.7,16.7-6.7c10,0,15.2,5.3,15.2,15.9V320.3z M257.9,317.6
		c0,8.1-0.6,21.6-23.8,21.7c-9.6,0.1-18.5-3.8-20.2-12.1l12.6-2c0.5,2.4,2,4.8,9.2,4.8c6.6,0,9.8-3.2,9.8-10.8v-5.7l-0.2-0.2
		c-2,3.7-5.1,7.1-12.6,7.1c-11.4,0-20.3-7.9-20.3-24.3c0-16.3,9.2-25.4,19.6-25.4c9.3,0,13,4,14.1,6.4l1-5.5l10.8-0.1V317.6z
		 M310.6,297.8h-32.4c0.1,9.2,3.9,13.9,11.5,13.9c4.8,0,8.1-2,11.1-6.2l9.4,5.2c-4.2,6.9-11.7,10.5-21.7,10.5
		c-14.4,0-22.9-9.2-22.9-25.3c0-16.2,8.7-25.4,22.7-25.4s22.4,9,22.4,24.8C310.7,296.1,310.6,297,310.6,297.8z M315.7,255.3h-5v14
		H308v-14h-5v-2.1v0h12.7V255.3z M336.8,269.3h-2.7v-13.4H334l-5.2,13.4h-1.7l-5.3-13.4h-0.1v13.4H319v-16.1h4.2l4.8,12.2l4.7-12.2
		l4.1,0V269.3z"/>
</g>
</svg>
