<?xml version="1.0" encoding="utf-8"?>
<!-- Generator: Adobe Illustrator 21.0.0, SVG Export Plug-In . SVG Version: 6.00 Build 0)  -->
<svg version="1.1"
	 id="svg24499" inkscape:version="0.44" sodipodi:docbase="R:\Logos" sodipodi:docname="Panasonic-Logo.svg" sodipodi:version="0.32" xmlns:cc="http://web.resource.org/cc/" xmlns:dc="http://purl.org/dc/elements/1.1/" xmlns:inkscape="http://www.inkscape.org/namespaces/inkscape" xmlns:rdf="http://www.w3.org/1999/02/22-rdf-syntax-ns#" xmlns:sodipodi="http://sodipodi.sourceforge.net/DTD/sodipodi-0.dtd" xmlns:svg="http://www.w3.org/2000/svg"
	 xmlns="http://www.w3.org/2000/svg" xmlns:xlink="http://www.w3.org/1999/xlink" x="0px" y="0px" viewBox="0 0 752.7 132.9"
	 style="enable-background:new 0 0 752.7 132.9;" xml:space="preserve">
<style type="text/css">
	.st0{fill:#7D7D7D;}
</style>
<sodipodi:namedview  bordercolor="#666666" borderopacity="1.0" height="37.5mm" id="base" inkscape:current-layer="layer1" inkscape:cx="350" inkscape:cy="520" inkscape:document-units="px" inkscape:pageopacity="0.0" inkscape:pageshadow="2" inkscape:window-height="574" inkscape:window-width="925" inkscape:window-x="242" inkscape:window-y="242" inkscape:zoom="0.35" pagecolor="#ffffff" units="mm" width="212.42809mm">
	</sodipodi:namedview>
<g id="layer1" transform="translate(374.9204,-408.833)" inkscape:groupmode="layer" inkscape:label="Ebene 1">
	<g id="g24516" transform="translate(-1.494141e-6,7.088289)">
		<path id="path23367" class="st0" d="M-374.9,525V409.6h48.4c16.3,0.2,32.1,1,43,15.7c3.1,4.1,7.3,11.7,7.3,24.5
			c0,16.1-7,25.7-11.8,30.2c-8.6,8.6-20.1,9.5-31.5,10h-21.1V525H-374.9z M-327.6,463.3c5.7-0.1,12.1-0.5,16.2-4.6
			c1.2-1.2,3.1-3.7,3.1-7.7c-0.1-4-1.9-6.5-2.9-7.7c-5-5.4-13-4.8-19.5-4.8h-9.5v24.7H-327.6"/>
		<path id="path23369" class="st0" d="M-220.7,525.1l-1.3-7.7c-4.4,3.4-12.4,10.1-26.8,10.1c-2.5,0-13.3-0.3-20.7-6.5
			c-3.2-2.8-8.7-9.5-8.7-20.6c0-2.6,0.7-7.1,5-12.6c6-8,13.1-10.2,22.3-12.3l15.4-1.9c1.7-0.5,3.6-1,5.7-1.3
			c0.4-0.2,2.9-0.5,4.2-1.5c1.3-1,2.3-4.7,2.3-6.5c0-3.3-4.2-5.9-10.8-5.9c-5.8,0-8.6,2.1-10.1,4.2c-0.7,1.1-1,2.1-1.2,4.7
			l-29.3-0.2c1.3-6.7,2.6-12.1,7.4-17.6c6-6.7,15.4-10.9,34-10.9c3.5,0,17.8-1.5,28.3,5.6c4.2,2.8,7,6.1,8.9,10.5
			c3.2,6.9,2.3,15.2,2.3,22.4v23c-0.1,14.4,0.9,17,3.5,25.2H-220.7z M-223.8,488c-4.2,1.5-8.6,2.8-13,4.3l-3.2,1
			c-1.6,0.3-6.6,1.4-6.6,7.6c0,2.8,1.6,7.8,8,7.8c0.9,0,4.8-0.4,6.8-1c5.8-1.6,6.3-5.4,7.9-7.1V488"/>
		<path id="path23371" class="st0" d="M-132.6,525.2v-40.9c0,4.9,1.3-16-3.1-18c-1.5-0.7-4.2-2.1-7.6-2.1c-3.8,0.1-8,1.9-9.5,5.3
			c-1.6,4.1-2.2,7.9-2,16.4v39.2h-31.5v-84.6h29.7l0.4,9.8c4.1-5,8.9-11.5,26.4-11.5c12.8,0,22.6,4.5,26.5,17.5
			c0.9,3.3,1.3,6.5,1.6,13.2v55.5H-132.6"/>
		<path id="path23373" class="st0" d="M42.3,465.1c-0.6-3.2-2.9-8.6-10.9-8.6c-3.5,0-6.1,0.9-7.4,1.8c-0.7,0.3-1.9,2.4-1.9,4.8
			c0,0.6,0.6,2.6,2.5,3.7c1.2,0.7,3.9,1.5,7.1,1.8l12.4,3.2c8.7,2.2,16.3,3.8,22.4,9.9c3.1,2.9,4.7,6.7,5.1,8.2
			c1.5,4.4,0.7,7.8,0.7,9.3c0,10-4.8,16-7.6,18.6c-6,5.5-15.4,9.6-32.8,9.6c-14.4,0-23.5-3.8-28.9-6.9c-11.5-6.7-12.1-19-12.8-22.8
			l30-0.1c0.3,2.9,0.7,5.1,3.1,7.2c1.9,1.8,3.9,3,9.3,3c6.4,0,10.1-3.1,10.2-5.9c0.1-0.3,0.1-2.6-0.7-3.7c-1.5-2.4-5.4-3.4-11.1-4.9
			c0,0-17.5-3.8-18.8-4.4c-3.9-1.8-19.8-5.4-19.8-23.1c0-10,5.1-15.3,8-18c5.4-4.7,14.3-9,30.2-9c3.5,0,18.4-0.2,29.4,7.4
			c3.1,2.1,5.5,4.7,7.4,7.7c2.6,4.3,3.1,9.5,3.4,11.3H42.3"/>
		<path id="path23381" class="st0" d="M150.6,515.5c-5.1,5.2-15.6,12-32.9,12c-5.5,0-20.8-0.3-32.1-13.6c-4.7-5.7-10.3-15-10.3-31.9
			c0-2.9,0-9.5,2.8-16.8c6.3-18.4,23.3-26.8,41.2-26.7c4.8,0,19.8,0.5,30.6,11.5c5.4,5.5,12.2,15.5,12.1,33.3
			C162,487.7,161.7,504.2,150.6,515.5z M127.3,464.4c-2.8-2.6-7-3.1-8.5-3.1c-3.6,0-6.3,2.1-7.1,2.8c-3.8,3.1-6.6,7.8-6.6,18.3
			c0,8.2,1.9,22,13.6,22c3.4,0,6.6-0.9,8.6-3.3c2.8-3.1,5.7-8.6,5.5-18.3C132.8,482.3,133,470.2,127.3,464.4"/>
		<path id="path23383" class="st0" d="M257.4,440.3h30.9v85h-30.9V440.3z M257.4,408.8h30.9v22.1h-30.9V408.8z"/>
		<path id="path23385" class="st0" d="M347.8,472.8c-2.3-10.2-7.3-10.7-12.8-10.7c-4.5,0-6,1.5-7.4,2.8c-3.9,3.4-5.2,7.5-5.2,17.9
			c0,0.8-0.4,14.6,7.1,19.9c2.2,1.4,3.2,1.5,5.8,1.5c0.9,0,3.5,0.1,5.8-1c3.1-1.4,6.3-4.1,6.8-11.2l29.9-0.2
			c-0.3,1.9-1.5,8.7-4.4,14.3c-7.4,14.8-22.6,21-37.9,21c-6.3,0-10.6-0.9-13.3-1.4c-12.1-3-22.7-11.5-27.4-23.6
			c-1.3-3.7-3.1-9.2-3.1-18.5c0-3.8,0.1-13.7,5.5-23.6c0.7-1.6,3.2-5.6,6.7-9.2c11.4-11.2,28.3-11.5,32.4-11.5
			c15.7,0,25.5,5.9,30.3,10.4c1.5,1.4,4.4,5.3,6.7,10.6c1.9,4.3,2.9,8.1,3.6,12.8H347.8"/>
		<path id="path23387" class="st0" d="M-12.6,500.4v-23c0-7.2,0-16.8-3.1-23.7c-2-4.4-3.5-6.9-7.7-9.6c-10.5-7-25.9-5.7-29.4-5.7
			c-18.5,0-28,4.9-34,11.6c-4.8,5.6-5.8,11-7.1,17.7h29.3c0.1-2.6,0.6-3.6,1.2-4.8c1.6-2.1,3.9-4.8,9.8-4.8c6.6,0,10.8,3.3,10.8,6.6
			c0,1.8-0.1,4.7-1.5,5.7c-1.3,1-4.7,2.2-5.2,2.3c-1.5,0.2-3.4,0.7-5.7,1.3l-15.3,1.9c-9.2,2.1-16.3,4-22.3,12
			c-4.4,5.6-4.4,10.6-4.4,13.2c0,11.1,4.8,17.5,8,20.3c7.4,6.2,18.1,6,20.7,6c14.4,0,22-6.3,26.5-9.8l1.3,8h31.6
			C-10.9,520.2-12.8,517.3-12.6,500.4z M-51.3,508.2c-2,0.7-5.5,0.5-6.4,0.5c-5.2-0.3-8-5.1-8-7.9c0-6.2,5-7.2,6.6-7.5l3.4-0.9
			c4.2-1.5,8.6-2.7,12.8-4.2l0.1,10.8C-44.1,501.3-45.6,506.5-51.3,508.2"/>
		<path id="path23389" class="st0" d="M220.1,525v-41.1c0,4.9,1.5-15.7-2.9-17.8c-1.5-0.7-4.2-2.1-7.4-2c-3.8,0.1-8.2,1.9-9.5,5.3
			c-1.7,4.1-2.6,6.9-2.5,15.4l-0.3,40.4l-30.7-0.1v-84.6h29.6l0.4,9.8c4.1-5,8.9-11.5,26.5-11.5c12.7,0,22.4,5.4,26.4,18.4
			c0.9,3.3,1,5.4,1.5,12.2V525L220.1,525"/>
	</g>
</g>
</svg>
