<?xml version="1.0" encoding="utf-8"?>
<!-- Generator: Adobe Illustrator 16.0.0, SVG Export Plug-In . SVG Version: 6.00 Build 0)  -->
<!DOCTYPE svg PUBLIC "-//W3C//DTD SVG 1.1//EN" "http://www.w3.org/Graphics/SVG/1.1/DTD/svg11.dtd">
<svg version="1.1" xmlns="http://www.w3.org/2000/svg" xmlns:xlink="http://www.w3.org/1999/xlink" x="0px" y="0px"
	 width="91.026px" height="30.223px" viewBox="0 0 91.026 30.223" enable-background="new 0 0 91.026 30.223" xml:space="preserve">
<g>
	<g>
		<g>
			<path fill="#7D7D7D" d="M90.969,7.196c1.24,7.106-18.105,16.412-43.213,20.785c-25.105,4.373-46.462,2.154-47.7-4.955
				c-1.237-7.107,18.113-16.41,43.218-20.782C68.38-2.131,89.733,0.088,90.969,7.196z"/>
		</g>
		<g>
			<g>
				<polygon fill="#FFFFFF" points="67.34,17.745 67.211,10.356 69.541,10.356 69.541,19.669 66.191,19.669 63.866,12.026
					63.816,12.026 63.945,19.669 61.63,19.669 61.63,10.356 65.125,10.356 67.288,17.745 				"/>
				<polygon fill="#FFFFFF" points="24.987,11.228 23.698,19.767 21.157,19.767 22.902,10.356 27.088,10.356 28.825,19.767
					26.294,19.767 25.04,11.228 				"/>
				<polygon fill="#FFFFFF" points="35.962,17.55 37.125,10.356 40.963,10.356 41.167,19.767 38.815,19.767 38.753,11.306
					38.704,11.306 37.131,19.767 34.743,19.767 33.169,11.306 33.118,11.306 33.059,19.767 30.702,19.767 30.91,10.356
					34.75,10.356 35.912,17.55 				"/>
				<path fill="#FFFFFF" d="M17.194,17.112c0.092,0.228,0.064,0.521,0.021,0.698c-0.079,0.313-0.291,0.632-0.917,0.632
					c-0.59,0-0.948-0.338-0.948-0.855v-0.911h-2.524l-0.002,0.729c0,2.098,1.652,2.731,3.422,2.731c1.702,0,3.104-0.582,3.327-2.15
					c0.114-0.813,0.029-1.345-0.01-1.546c-0.397-1.97-3.969-2.558-4.235-3.66c-0.045-0.189-0.032-0.389-0.01-0.496
					c0.065-0.3,0.271-0.631,0.86-0.631c0.55,0,0.875,0.34,0.875,0.854c0,0.173,0,0.581,0,0.581h2.347v-0.661
					c0-2.05-1.84-2.37-3.173-2.37c-1.674,0-3.042,0.553-3.292,2.085c-0.068,0.423-0.078,0.8,0.021,1.272
					C13.367,15.337,16.71,15.894,17.194,17.112z"/>
				<path fill="#FFFFFF" d="M47.796,17.095c0.093,0.226,0.063,0.511,0.021,0.688c-0.077,0.312-0.287,0.626-0.909,0.626
					c-0.582,0-0.937-0.338-0.937-0.843l-0.002-0.903h-2.498l-0.003,0.719c0,2.077,1.637,2.704,3.389,2.704
					c1.684,0,3.073-0.574,3.292-2.128c0.114-0.807,0.033-1.332-0.008-1.529c-0.395-1.952-3.931-2.534-4.194-3.625
					c-0.045-0.188-0.032-0.386-0.009-0.487c0.067-0.302,0.269-0.625,0.852-0.625c0.545,0,0.863,0.332,0.863,0.842
					c0,0.171,0,0.575,0,0.575h2.329v-0.654c0-2.028-1.825-2.346-3.145-2.346c-1.655,0-3.012,0.546-3.257,2.067
					c-0.068,0.417-0.075,0.787,0.022,1.257C44.007,15.336,47.317,15.889,47.796,17.095z"/>
				<path fill="#FFFFFF" d="M55.701,18.359c0.653,0,0.857-0.452,0.902-0.683c0.019-0.102,0.024-0.238,0.022-0.36v-6.964h2.38v6.751
					c0.005,0.173-0.012,0.529-0.02,0.618c-0.167,1.757-1.556,2.327-3.285,2.327c-1.731,0-3.121-0.57-3.286-2.327
					c-0.008-0.089-0.025-0.445-0.02-0.618v-6.751h2.378v6.964c0,0.122,0.004,0.259,0.022,0.36
					C54.845,17.907,55.043,18.359,55.701,18.359z"/>
				<path fill="#FFFFFF" d="M75.333,18.26c0.682,0,0.92-0.431,0.964-0.682c0.017-0.108,0.022-0.239,0.021-0.358v-1.366h-0.966V14.48
					h3.337v2.526c-0.002,0.176-0.006,0.306-0.034,0.62c-0.157,1.712-1.642,2.323-3.31,2.323c-1.671,0-3.154-0.611-3.313-2.323
					c-0.027-0.314-0.031-0.444-0.034-0.62L72,13.043c0-0.167,0.021-0.463,0.039-0.62c0.209-1.759,1.635-2.325,3.306-2.325
					c1.669,0,3.13,0.563,3.303,2.325c0.031,0.3,0.021,0.62,0.021,0.62v0.314h-2.373v-0.527c0.002,0.001-0.003-0.224-0.031-0.358
					c-0.04-0.208-0.221-0.686-0.938-0.686c-0.686,0-0.887,0.452-0.937,0.686c-0.029,0.124-0.04,0.292-0.04,0.444v4.304
					c-0.002,0.119,0.005,0.25,0.024,0.358C74.415,17.83,74.652,18.26,75.333,18.26z"/>
			</g>
		</g>
	</g>
</g>
</svg>
