<?xml version="1.0" encoding="utf-8"?>
<!-- Generator: Adobe Illustrator 21.0.0, SVG Export Plug-In . SVG Version: 6.00 Build 0)  -->
<svg version="1.1" id="Layer_3" xmlns="http://www.w3.org/2000/svg" xmlns:xlink="http://www.w3.org/1999/xlink" x="0px" y="0px"
	 viewBox="0 0 1345.7 853.8" style="enable-background:new 0 0 1345.7 853.8;" xml:space="preserve">
<style type="text/css">
	.st0{fill:url(#SVGID_1_);}
	.st1{fill:#FFFFFF;fill-opacity:0.1;}
</style>
<title>11</title>
<linearGradient id="SVGID_1_" gradientUnits="userSpaceOnUse" x1="1760.9349" y1="9329.1582" x2="1813.1128" y2="8300.5068" gradientTransform="matrix(8.000000e-02 1.38 -1.2 7.000000e-02 11114.291 -2656.2302)">
	<stop  offset="0" style="stop-color:#FFE1A3"/>
	<stop  offset="1" style="stop-color:#FFC672"/>
</linearGradient>
<path class="st0" d="M0,853.8V0h1345.7v853.8H0z"/>
<circle class="st1" cx="218.3" cy="801.5" r="17.3"/>
<path class="st1" d="M16.9,322.5c0,0,203.2-59.4,371.4-247.8S698-4.7,709,77.2c7.4,54.8-87.7,311.4-3.4,470.9S893,812.8,896,863.8
	c3,49.6,23.9,127.4-416-39.1s-517-280.5-543.7-330.4C-81.2,461.7-101.1,381.4,16.9,322.5z"/>
<path class="st1" d="M724.8,407.2c0,0,69-129,57.4-303.1S892.7-87.2,938.5-53c30.6,22.9,111.3,193.9,230.8,229.4
	c119.5,35.5,221.2,35.6,247.8,58.7c25.9,22.5,74.4,49.8-220.5,186.4S808.1,541,770.5,530.1C746,522.9,696.8,493.9,724.8,407.2z"/>
</svg>
