<svg id="Layer_2" data-name="Layer 2" xmlns="http://www.w3.org/2000/svg" xmlns:xlink="http://www.w3.org/1999/xlink" viewBox="0 0 1067.71 1056.34"><defs><style>.cls-1{fill:url(#linear-gradient);}.cls-2{fill:url(#linear-gradient-2);}</style><linearGradient id="linear-gradient" x1="1109.58" y1="65.32" x2="1907.99" y2="209.44" gradientTransform="translate(-25.09 287.84) rotate(-9.95)" gradientUnits="userSpaceOnUse"><stop offset="0" stop-color="#6a72e4"/><stop offset="1" stop-color="#9199ee"/></linearGradient><linearGradient id="linear-gradient-2" x1="1114.98" y1="322.21" x2="2165.31" y2="425.52" gradientUnits="userSpaceOnUse"><stop offset="0" stop-color="#74d1fb"/><stop offset="1" stop-color="#329ef7"/></linearGradient></defs><title>1</title><path class="cls-1" d="M1175.33,48.88s185.81-54.34,339.6-226.55,283.1-72.52,293.21,2.33c6.76,50.11-80.18,284.75-3.08,430.55s171.24,242,174,288.6c2.74,45.39,21.82,116.49-380.39-35.79S1126,251.53,1101.55,205.93C1085.6,176.18,1067.46,102.73,1175.33,48.88Z" transform="translate(-1089.44 272.83)"/><path class="cls-2" d="M1114,593s101-189,84-444,162-280,229-230c44.86,33.48,163,284,338,336s324,52.15,363,86c38,33,109,73-323,273s-569,175-624,159C1145.12,762.56,1073,720,1114,593Z" transform="translate(-1089.44 272.83)"/></svg>