<?xml version="1.0" encoding="utf-8"?>
<!-- Generator: Adobe Illustrator 22.1.0, SVG Export Plug-In . SVG Version: 6.00 Build 0)  -->
<svg version="1.1" id="Ebene_1" xmlns="http://www.w3.org/2000/svg" xmlns:xlink="http://www.w3.org/1999/xlink" x="0px" y="0px"
	 viewBox="0 0 183.1 62" style="enable-background:new 0 0 183.1 62;" xml:space="preserve">
<style type="text/css">
	.st0{fill:#7D7D7D;}
</style>
<g>
	<polygon class="st0" points="3.7,10.9 3.7,51.2 20.6,10.9 	"/>
	<polygon class="st0" points="32.4,10.9 49.3,51.2 49.3,10.9 	"/>
	<polygon class="st0" points="19.1,43.1 27,43.1 30.2,51.2 37.2,51.2 26.5,25.7 	"/>
</g>
<path class="st0" d="M73.3,10.7l-9.1,40.4h5.5L72.1,40h8.4l2.3,11.2h5.6l-8.6-40.4C79.9,10.7,73.3,10.7,73.3,10.7z M72.8,35.5
	l1.9-9.7c0.5-2.6,1.1-6.3,1.6-9.2h0.2c0.4,2.9,1,6.5,1.5,9.2l1.9,9.7H72.8z M109.5,9.7h-5.6v15.2h-0.1c-1-2.2-2.9-3.3-5.2-3.3
	c-4.6,0-9,4.9-9,15.2c0,9.1,3.3,14.9,8.7,14.9c2.9,0,5.2-2,6.1-4h0.2l0.4,3.5h4.9c-0.1-2-0.2-5.3-0.2-7.5L109.5,9.7L109.5,9.7z
	 M103.9,40.9c0,0.7-0.1,1.4-0.2,1.9c-1,3.5-2.6,4.1-3.9,4.1c-3,0-4.6-4.2-4.6-10.2c0-5.4,1.2-10.3,4.7-10.3c2,0,3.5,2.3,3.8,4.9
	c0.1,0.6,0.1,1.3,0.1,1.8C103.9,33.1,103.9,40.9,103.9,40.9z M123.3,21.5c-5.3,0-10.3,4.5-10.3,15.1c0,10,4.2,15,10,15h0.1
	c4.4,0,10.1-3.5,10.1-15.1C133.2,26.7,129,21.5,123.3,21.5z M123.1,47.2L123.1,47.2c-3.7,0-4.6-5.8-4.6-10.6
	c0-4.4,0.7-10.6,4.4-10.6c3.6,0,4.4,6.2,4.4,10.6C127.4,41,126.6,47.2,123.1,47.2z M148.4,21.5c-2.6,0-4.6,1.1-6.1,3.8h-0.1V9.7
	h-5.6v34c0,2.2-0.1,5.5-0.2,7.5h4.9l0.3-3.7h0.2c1.3,2.6,2.9,4.1,5.8,4.1c4.8,0,9.1-5.1,9.1-15.5C156.5,27.2,153.4,21.5,148.4,21.5z
	 M146.2,46.9c-1.1,0-2.9-0.7-3.8-4.3c-0.2-0.5-0.2-1.1-0.2-1.8v-8.2c0-0.6,0.1-1.4,0.2-2c0.4-2.1,1.9-4.3,3.8-4.3
	c3.4,0,4.7,4.5,4.7,10.1C150.8,42.5,149.6,46.9,146.2,46.9z M169.8,21.5c-6.1,0-10.4,5.9-10.4,15.4c0,9,3.8,14.5,11.2,14.5
	c2.6,0,5.2-0.5,7-1.4l-0.8-4.1c-1.3,0.6-3,1.1-5,1.1c-3.4,0-6.7-1.9-6.7-9.4l13.7,0.1c0.1-0.8,0.1-1.7,0.1-3.1
	C178.7,27.4,175.8,21.5,169.8,21.5z M164.9,33.7c0.2-3.7,1.5-7.9,4.4-7.9c2.2,0,4,2.8,4,7.9H164.9z M178.4,22.8L178.4,22.8
	c0.2-0.1,0.3-0.2,0.3-0.4c0-0.1,0-0.2-0.1-0.3c-0.1-0.1-0.2-0.1-0.4-0.1c-0.2,0-0.3,0-0.4,0v1.4h0.2v-0.6h0.2c0.2,0,0.3,0.1,0.3,0.3
	c0,0.2,0.1,0.3,0.1,0.4h0.2c0,0-0.1-0.1-0.1-0.4C178.6,22.9,178.5,22.8,178.4,22.8z M178.1,22.7h-0.2v-0.5c0,0,0.1,0,0.2,0
	c0.3,0,0.4,0.1,0.4,0.3C178.4,22.6,178.3,22.7,178.1,22.7z M178.2,21.5L178.2,21.5c-0.7,0-1.3,0.6-1.3,1.3c0,0.7,0.6,1.3,1.3,1.3
	c0.7,0,1.3-0.6,1.3-1.3C179.4,22,178.9,21.5,178.2,21.5z M178.2,23.9c-0.6,0-1-0.5-1-1.1c0-0.6,0.5-1.1,1-1.1h0c0.6,0,1,0.5,1,1.1
	C179.2,23.4,178.8,23.9,178.2,23.9z M51.5,10.8L51.5,10.8c-0.7,0-1.3,0.6-1.3,1.3c0,0.7,0.6,1.3,1.3,1.3c0.7,0,1.3-0.6,1.3-1.3
	C52.8,11.4,52.2,10.8,51.5,10.8z M51.5,13.2c-0.6,0-1-0.5-1-1.1c0-0.6,0.5-1.1,1-1.1h0c0.6,0,1,0.5,1,1.1
	C52.5,12.8,52.1,13.3,51.5,13.2z M51.7,12.2L51.7,12.2c0.2-0.1,0.3-0.2,0.3-0.4c0-0.1,0-0.2-0.1-0.3c-0.1-0.1-0.2-0.1-0.5-0.1
	c-0.2,0-0.3,0-0.4,0v1.4h0.2v-0.6h0.2c0.2,0,0.3,0.1,0.3,0.3c0,0.2,0.1,0.3,0.1,0.4h0.2c0,0-0.1-0.1-0.1-0.4
	C51.9,12.3,51.9,12.2,51.7,12.2z M51.4,12.1h-0.2v-0.5c0,0,0.1,0,0.2,0c0.3,0,0.4,0.1,0.4,0.3C51.8,12,51.6,12.1,51.4,12.1z"/>
</svg>
