<?xml version="1.0" encoding="utf-8"?>
<!-- Generator: Adobe Illustrator 22.1.0, SVG Export Plug-In . SVG Version: 6.00 Build 0)  -->
<svg version="1.1"
	 id="svg1936" inkscape:version="0.91 r13725" sodipodi:docname="Amazon.com-Logo.svg" xmlns:cc="http://creativecommons.org/ns#" xmlns:dc="http://purl.org/dc/elements/1.1/" xmlns:inkscape="http://www.inkscape.org/namespaces/inkscape" xmlns:rdf="http://www.w3.org/1999/02/22-rdf-syntax-ns#" xmlns:sodipodi="http://sodipodi.sourceforge.net/DTD/sodipodi-0.dtd" xmlns:svg="http://www.w3.org/2000/svg"
	 xmlns="http://www.w3.org/2000/svg" xmlns:xlink="http://www.w3.org/1999/xlink" x="0px" y="0px" viewBox="0 0 928.4 266.8"
	 style="enable-background:new 0 0 928.4 266.8;" xml:space="preserve">
<style type="text/css">
	.st0{fill:#7D7D7D;}
</style>
<sodipodi:namedview  bordercolor="#666666" borderopacity="1" gridtolerance="10" guidetolerance="10" id="namedview19" inkscape:current-layer="svg1936" inkscape:cx="515.8293" inkscape:cy="60.382118" inkscape:pageopacity="0" inkscape:pageshadow="2" inkscape:window-height="706" inkscape:window-maximized="1" inkscape:window-width="1280" inkscape:window-x="-8" inkscape:window-y="-8" inkscape:zoom="0.72245926" objecttolerance="10" pagecolor="#ffffff" showgrid="false">
	</sodipodi:namedview>
<g id="layer1" transform="translate(164.07345,-644.18026)">
	<g id="g1967" transform="translate(7.081691,7.081144)">
		<path id="path8" inkscape:connector-curvature="0" class="st0" d="M202.5,864.3c-35,25.8-85.7,39.6-129.4,39.6
			c-61.2,0-116.4-22.7-158.1-60.3c-3.3-3-0.3-7,3.6-4.7c45,26.2,100.7,41.9,158.2,41.9c38.8,0,81.4-8,120.6-24.7
			C203.3,853.6,208.3,860,202.5,864.3"/>
		<path id="path10" inkscape:connector-curvature="0" class="st0" d="M217,847.7c-4.5-5.7-29.6-2.7-40.8-1.4c-3.4,0.4-4-2.6-0.9-4.7
			c20-14.1,52.8-10,56.7-5.3c3.8,4.7-1,37.6-19.8,53.4c-2.9,2.4-5.6,1.1-4.4-2.1C212.1,877.1,221.5,853.4,217,847.7"/>
		<path id="path12" inkscape:connector-curvature="0" class="st0" d="M177,742.2v-13.7c0-2.1,1.6-3.5,3.5-3.5h61.3
			c2,0,3.5,1.4,3.5,3.5v11.7c0,2-1.7,4.5-4.6,8.6l-31.7,45.3c11.8-0.3,24.3,1.5,34.9,7.5c2.4,1.4,3.1,3.4,3.3,5.3v14.6
			c0,2-2.2,4.3-4.5,3.1c-18.8-9.9-43.9-11-64.7,0.1c-2.1,1.2-4.4-1.2-4.4-3.1v-13.9c0-2.2,0-6,2.3-9.4l36.8-52.7h-32
			C178.6,745.7,177,744.3,177,742.2"/>
		<path id="path14" inkscape:connector-curvature="0" class="st0" d="M-46.5,827.6h-18.6c-1.8-0.1-3.2-1.5-3.3-3.2v-95.7
			c0-1.9,1.6-3.4,3.6-3.4h17.4c1.8,0.1,3.3,1.5,3.4,3.2V741h0.3c4.5-12.1,13.1-17.7,24.5-17.7c11.7,0,19,5.6,24.2,17.7
			c4.5-12.1,14.8-17.7,25.7-17.7c7.8,0,16.4,3.2,21.6,10.5c5.9,8,4.7,19.7,4.7,30l0,60.4c0,1.9-1.6,3.5-3.6,3.5H34.7
			c-1.9-0.1-3.4-1.6-3.4-3.5v-50.7c0-4,0.4-14.1-0.5-17.9c-1.4-6.4-5.6-8.2-11-8.2c-4.5,0-9.2,3-11.1,7.8S7,768,7,773.5v50.7
			c0,1.9-1.6,3.5-3.6,3.5h-18.6c-1.9-0.1-3.4-1.6-3.4-3.5l0-50.7c0-10.7,1.8-26.4-11.5-26.4c-13.4,0-12.9,15.3-12.9,26.4v50.7
			C-42.9,826.1-44.5,827.6-46.5,827.6"/>
		<path id="path16" inkscape:connector-curvature="0" class="st0" d="M298,723.3c27.7,0,42.6,23.8,42.6,54
			c0,29.2-16.5,52.3-42.6,52.3c-27.2,0-41.9-23.8-41.9-53.4C256,746.5,271,723.3,298,723.3 M298.2,742.9
			c-13.7,0-14.6,18.7-14.6,30.4c0,11.7-0.2,36.7,14.4,36.7c14.4,0,15.1-20.1,15.1-32.4c0-8.1-0.3-17.7-2.8-25.4
			C308.2,745.5,304.1,742.9,298.2,742.9"/>
		<path id="path18" inkscape:connector-curvature="0" class="st0" d="M376.5,827.6h-18.6c-1.9-0.1-3.4-1.6-3.4-3.5l0-95.7
			c0.2-1.8,1.7-3.1,3.6-3.1h17.3c1.6,0.1,3,1.2,3.3,2.7v14.6h0.3c5.2-13.1,12.5-19.3,25.4-19.3c8.4,0,16.5,3,21.8,11.3
			c4.9,7.7,4.9,20.5,4.9,29.8v60.2c-0.2,1.7-1.8,3-3.6,3h-18.7c-1.7-0.1-3.1-1.4-3.3-3v-52c0-10.5,1.2-25.8-11.7-25.8
			c-4.5,0-8.7,3-10.8,7.7c-2.6,5.8-3,11.7-3,18.1v51.5C380.1,826.1,378.5,827.6,376.5,827.6"/>
		<path id="path20" inkscape:connector-curvature="0" class="st0" d="M442.8,820c0-4.8,4.1-8.7,9.2-8.7s9.2,3.9,9.2,8.7
			c0,4.8-4.1,8.7-9.2,8.7C446.9,828.7,442.8,824.8,442.8,820"/>
		<path id="path22" inkscape:connector-curvature="0" class="st0" d="M640.3,827.6c-1.9-0.1-3.5-1.6-3.5-3.5v-95.7
			c0.1-1.7,1.5-3,3.3-3.1h6.8c1.9,0,3.4,1.4,3.6,3.1v13.9c4.9-11.1,13.9-19.7,25.4-19.7h0.7h0.7c12.2,0,21.1,9,24.4,22
			c5.2-12.9,14.9-22,27.7-22h0.7h0.8c9,0,17.7,5.8,22.3,14.7c4.4,8.5,4.2,19.7,4.2,29.2l0,57.5c0,1.8-1.5,3.3-3.3,3.5h-8.2
			c-1.8-0.1-3.2-1.3-3.5-3v-58c0-6.8,0.3-14.1-2.4-20.3c-2.8-6.4-8.3-10.4-14.1-10.6c-6.5,0.3-12.5,5.1-16.4,11.5
			c-5,8.3-4.9,15.7-4.9,25.4v52.3c-0.2,1.6-1.6,2.8-3.3,2.9h-8.1c-1.9-0.1-3.5-1.6-3.5-3.5l-0.1-61.4c0-5.6-0.3-12.3-2.9-17.3
			c-3-5.8-8.4-9.5-14.1-9.8c-5.9,0.3-11.8,4.8-15.3,10c-4.5,6.7-5.4,14.9-5.4,23.4v55.1c0,1.8-1.5,3.3-3.4,3.5H640.3"/>
		<path id="path24" inkscape:connector-curvature="0" class="st0" d="M584.1,829.6c-26.5,0-38.3-27-38.3-54
			c0-28.4,13.9-52.9,40.6-52.9h0.7h0.7c25.9,0,38.8,26.2,38.8,53.1c0,28.6-14.3,53.7-41.1,53.7h-0.7L584.1,829.6 M586.1,816.6
			c8.7-0.3,15.6-5.7,19.6-14.7c3.6-8.1,4.4-17.3,4.4-26.2c0-9.6-1-19.7-5.6-28c-4.1-7.2-11-11.8-18.4-12.1
			c-8.2,0.3-15.6,5.9-19.3,14.5c-3.3,7.4-4.4,17.3-4.4,25.6c0,9.3,1.2,20,5,28C571.1,811.3,578.3,816.3,586.1,816.6"/>
		<path id="path26" inkscape:connector-curvature="0" class="st0" d="M501.5,816.1c11.9-0.4,18.1-9.9,20.7-22.2
			c0.5-1.5,1.7-2.7,3.4-2.7l7.8,0c1.9,0.1,3.6,1.5,3.4,3.2c-3.6,21-16.3,35.2-34.3,35.2h-0.7h-0.7c-26.3,0-37.6-26.4-37.6-53.1
			c0-26.6,11.5-53.7,37.8-53.7h0.7h0.7c18.2,0,31.3,14.1,34.1,35.1c0,1.6-1.5,2.9-3.2,3.1l-8.2-0.1c-1.7-0.2-2.9-1.7-3.1-3.4
			c-2-11.7-8.7-21.1-19.9-21.4c-17.9,0.6-22.9,22.5-22.9,39.5C479.4,791.8,483.6,815.6,501.5,816.1"/>
		<path class="st0" d="M161.3,810.1c-3.4-4.7-7-8.5-7-17.3v-29c0-12.3,0.9-23.6-8.2-32.1c-7.2-6.9-19-9.3-28.1-9.3
			c-17.7,0-37.5,6.6-41.7,28.5c-0.4,2.3,1.3,3.6,2.8,3.9l18.1,1.9c1.7-0.1,2.9-1.7,3.3-3.4c1.5-7.6,7.9-11.2,15-11.2
			c3.9,0,8.2,1.4,10.5,4.9c2.6,3.8,2.3,9.1,2.3,13.5v2.4c-10.8,1.2-24.9,2-35.1,6.5c-11.7,5-19.9,15.3-19.9,30.5
			c0,19.4,12.2,29,27.9,29c13.2,0,20.5-3.1,30.7-13.6c3.4,4.9,4.5,7.3,10.7,12.4c1.4,0.7,3.2,0.7,4.4-0.4v0h0l0,0l0,0.1
			c3.7-3.3,10.5-9.2,14.3-12.4C162.8,813.8,162.5,811.8,161.3,810.1z M124.6,801.7c-3,5.2-7.7,8.5-12.9,8.5
			c-7.2,0-11.4-5.5-11.4-13.5c0-15.9,14.2-18.8,27.7-18.8v4C128.1,789.2,128.3,795.2,124.6,801.7z"/>
		<path class="st0" d="M-83,810.1c-3.4-4.7-7-8.5-7-17.3v-29c0-12.3,0.9-23.6-8.2-32.1c-7.2-6.9-19-9.3-28.1-9.3
			c-17.7,0-37.5,6.6-41.7,28.5c-0.4,2.3,1.3,3.6,2.8,3.9l18.1,1.9c1.7-0.1,2.9-1.7,3.2-3.4c1.5-7.6,7.9-11.2,15-11.2
			c3.8,0,8.2,1.4,10.5,4.9c2.6,3.8,2.3,9.1,2.3,13.5v2.4c-10.8,1.2-24.9,2-35.1,6.5c-11.7,5-19.9,15.3-19.9,30.5
			c0,19.4,12.2,29,27.9,29c13.3,0,20.5-3.1,30.7-13.6c3.4,4.9,4.5,7.3,10.7,12.4c1.4,0.7,3.2,0.7,4.4-0.4l0.1,0.1
			c3.7-3.3,10.5-9.2,14.3-12.4C-81.6,813.8-81.8,811.8-83,810.1z M-119.7,801.7c-3,5.2-7.7,8.5-12.9,8.5c-7.2,0-11.3-5.5-11.3-13.5
			c0-15.9,14.2-18.8,27.7-18.8v4l0,0C-116.2,789.2-116,795.2-119.7,801.7z"/>
	</g>
</g>
</svg>
