<?xml version="1.0" encoding="utf-8"?>
<!-- Generator: Adobe Illustrator 21.0.0, SVG Export Plug-In . SVG Version: 6.00 Build 0)  -->
<svg version="1.1"
	 id="svg3358" xmlns:cc="http://creativecommons.org/ns#" xmlns:dc="http://purl.org/dc/elements/1.1/" xmlns:rdf="http://www.w3.org/1999/02/22-rdf-syntax-ns#" xmlns:svg="http://www.w3.org/2000/svg"
	 xmlns="http://www.w3.org/2000/svg" xmlns:xlink="http://www.w3.org/1999/xlink" x="0px" y="0px" viewBox="0 0 800 450"
	 style="enable-background:new 0 0 800 450;" xml:space="preserve">
<style type="text/css">
	.st0{fill:#7D7D7D;}
	.st1{clip-path:url(#SVGID_2_);}
</style>
<g id="layer1" transform="translate(0,-602.36218)">
	<path id="path268" class="st0" d="M271,1021.2h-32.6V891.9H271V1021.2z"/>
	<g id="g270" transform="matrix(10.337276,0,0,-10.337276,-861.34511,8446.2018)">
		<g>
			<defs>
				<polygon id="SVGID_1_" points="84.5,713.6 161.6,713.6 161.6,757.6 84.5,757.6 84.5,713.6 				"/>
			</defs>
			<clipPath id="SVGID_2_">
				<use xlink:href="#SVGID_1_"  style="overflow:visible;"/>
			</clipPath>
			<g id="g272" class="st1">
				<g id="g278" transform="translate(134.9958,727.2001)">
					<path id="path280" class="st0" d="M0,0c-0.1,0.1-1.1,0.7-2.7,0.7c-2,0-3.5-1.4-3.5-3.3C-6.1-4.5-4.8-6-2.7-6
						C-1.2-6-0.1-5.4,0-5.3v-3.4c-0.4-0.1-1.5-0.4-2.9-0.4c-3.6,0-6.7,2.4-6.7,6.5c0,3.7,2.8,6.5,6.7,6.5c1.5,0,2.6-0.4,2.9-0.4L0,0
						z"/>
				</g>
				<g id="g282" transform="translate(102.0426,727.2001)">
					<path id="path284" class="st0" d="M0,0c-0.1,0.1-1.1,0.7-2.7,0.7c-2,0-3.5-1.4-3.5-3.3C-6.1-4.5-4.8-6-2.7-6
						C-1.2-6-0.1-5.4,0-5.3v-3.4c-0.4-0.1-1.5-0.4-2.9-0.4c-3.5,0-6.7,2.4-6.7,6.5c0,3.7,2.8,6.5,6.7,6.5c1.5,0,2.6-0.4,2.9-0.4L0,0
						z"/>
				</g>
				<g id="g286" transform="translate(144.9274,727.8212)">
					<path id="path288" class="st0" d="M0,0c-1.9,0-3.3-1.5-3.3-3.3c0-1.8,1.4-3.3,3.3-3.3c1.9,0,3.3,1.5,3.3,3.3C3.3-1.5,1.9,0,0,0
						 M6.6-3.3c0-3.6-2.8-6.5-6.6-6.5s-6.6,2.9-6.6,6.5c0,3.6,2.8,6.5,6.6,6.5S6.6,0.3,6.6-3.3"/>
				</g>
				<g id="g290" transform="translate(121.5124,727.9413)">
					<path id="path292" class="st0" d="M0,0c0,0-1.4,0.4-2.5,0.4c-1.3,0-2-0.4-2-1c0-0.8,0.9-1,1.4-1.2l0.9-0.3c2-0.7,3-2.1,3-3.6
						c0-3.1-2.8-4.2-5.2-4.2c-1.7,0-3.3,0.3-3.4,0.3v2.9c0.3-0.1,1.6-0.5,3-0.5c1.6,0,2.3,0.5,2.3,1.2c0,0.6-0.6,1-1.4,1.2
						C-4-4.7-4.3-4.6-4.5-4.5c-1.8,0.6-3.2,1.6-3.2,3.7c0,2.3,1.8,3.9,4.7,3.9c1.5,0,3-0.4,3.1-0.4L0,0z"/>
				</g>
				<g id="g294" transform="translate(89.154,744.2304)">
					<path id="path296" class="st0" d="M0,0c0,0.9-0.7,1.6-1.6,1.6S-3.1,0.9-3.1,0v-3.3c0-0.9,0.7-1.6,1.6-1.6S0-4.2,0-3.3V0z"/>
				</g>
				<g id="g298" transform="translate(97.7633,748.5409)">
					<path id="path300" class="st0" d="M0,0c0,0.9-0.7,1.6-1.6,1.6c-0.9,0-1.6-0.7-1.6-1.6v-7.6c0-0.9,0.7-1.6,1.6-1.6
						C-0.7-9.2,0-8.5,0-7.6V0z"/>
				</g>
				<g id="g302" transform="translate(106.3727,754.4384)">
					<path id="path304" class="st0" d="M0,0c0,0.9-0.7,1.6-1.6,1.6c-0.9,0-1.6-0.7-1.6-1.6v-16.6c0-0.9,0.7-1.6,1.6-1.6
						c0.9,0,1.6,0.7,1.6,1.6V0z"/>
				</g>
				<g id="g306" transform="translate(114.9821,748.5409)">
					<path id="path308" class="st0" d="M0,0c0,0.9-0.7,1.6-1.6,1.6c-0.9,0-1.6-0.7-1.6-1.6v-7.6c0-0.9,0.7-1.6,1.6-1.6
						C-0.7-9.2,0-8.5,0-7.6V0z"/>
				</g>
				<g id="g310" transform="translate(123.5817,744.2304)">
					<path id="path312" class="st0" d="M0,0c0,0.9-0.7,1.6-1.6,1.6c-0.9,0-1.6-0.7-1.6-1.6v-3.3c0-0.9,0.7-1.6,1.6-1.6
						C-0.7-4.9,0-4.2,0-3.3V0z"/>
				</g>
				<g id="g314" transform="translate(132.195,748.5409)">
					<path id="path316" class="st0" d="M0,0c0,0.9-0.7,1.6-1.6,1.6c-0.9,0-1.6-0.7-1.6-1.6v-7.6c0-0.9,0.7-1.6,1.6-1.6
						C-0.7-9.2,0-8.5,0-7.6V0z"/>
				</g>
				<g id="g318" transform="translate(140.8102,754.4384)">
					<path id="path320" class="st0" d="M0,0c0,0.9-0.7,1.6-1.6,1.6c-0.9,0-1.6-0.7-1.6-1.6v-16.6c0-0.9,0.7-1.6,1.6-1.6
						c0.9,0,1.6,0.7,1.6,1.6V0z"/>
				</g>
				<g id="g322" transform="translate(149.4235,748.5409)">
					<path id="path324" class="st0" d="M0,0c0,0.9-0.7,1.6-1.6,1.6c-0.9,0-1.6-0.7-1.6-1.6v-7.6c0-0.9,0.7-1.6,1.6-1.6
						C-0.7-9.2,0-8.5,0-7.6V0z"/>
				</g>
				<g id="g326" transform="translate(158.0192,744.2304)">
					<path id="path328" class="st0" d="M0,0c0,0.9-0.7,1.6-1.6,1.6c-0.9,0-1.6-0.7-1.6-1.6v-3.3c0-0.9,0.7-1.6,1.6-1.6
						C-0.7-4.9,0-4.2,0-3.3L0,0z"/>
				</g>
				<g id="g330" transform="translate(156.2126,719.9218)">
					<path id="path332" class="st0" d="M0,0v-0.2h-0.6v-1.5h-0.2v1.5h-0.6V0L0,0z"/>
				</g>
				<g id="g334" transform="translate(156.3297,719.9218)">
					<path id="path336" class="st0" d="M0,0h0.4l0.5-1.4h0L1.3,0h0.4v-1.6H1.5v1.4h0L0.9-1.6H0.7L0.2-0.3h0v-1.4H0L0,0z"/>
				</g>
			</g>
		</g>
	</g>
</g>
</svg>
