<?xml version="1.0" encoding="utf-8"?>
<!-- Generator: Adobe Illustrator 21.0.0, SVG Export Plug-In . SVG Version: 6.00 Build 0)  -->
<svg version="1.1" id="Layer_1" xmlns="http://www.w3.org/2000/svg" xmlns:xlink="http://www.w3.org/1999/xlink" x="0px" y="0px"
	 viewBox="0 0 350 350" style="enable-background:new 0 0 350 350;" xml:space="preserve">
<style type="text/css">
	.st0{fill:#7D7D7D;}
	.st1{fill:#FFFFFF;}
</style>
<path id="background" class="st0" d="M350,350H0V0h350V350z"/>
<path id="letter_o" class="st1" d="M43.1,321.8c-12.7,0-24.1-8.1-24.1-25.7c0-17.6,11.4-25.7,24.1-25.7s24.1,8.1,24.1,25.7
	S55.8,321.8,43.1,321.8 M43.1,281.2c-9.6,0-11.3,8.6-11.3,14.9c0,6.2,1.7,14.9,11.3,14.9s11.3-8.6,11.3-14.9
	C54.4,289.8,52.7,281.2,43.1,281.2"/>
<path id="letter_r" class="st1" d="M76,271.7h12.2v5.7c2.3-3.1,8.1-6.7,13.4-6.7c0.5,0,1.1,0,1.7,0.1v12h-0.6
	c-5.6,0-11.7,0.9-13.6,5.2v32.4H76V271.7L76,271.7z"/>
<path id="letter_a" class="st1" d="M137.3,316.1c-5,3.3-10.3,4.8-16.1,4.8c-9.1,0-14.5-6-14.5-14.2c0-10.9,10-16.7,30.7-19v-2.7
	c0-3.5-2.7-5.6-7.6-5.6c-5,0-9,2-11.9,5.6l-8.6-4.9c4.5-6.4,11.5-9.5,20.7-9.5c12.7,0,19.8,5.5,19.8,14.5c0,0,0,35.2,0,35.3h-11.4
	L137.3,316.1L137.3,316.1z M119.3,305.9c0,3.3,2.1,6.3,5.8,6.3c4,0,8-1.7,11.9-5.1v-11.5C125,297,119.3,300.1,119.3,305.9"/>
<path id="letter_n" class="st1" d="M159.9,272.9l10.6-1.5l1.2,5.8c6-4.4,10.7-6.7,16.7-6.7c10,0,15.2,5.3,15.2,15.9v33.9h-12.8
	v-31.7c0-6-1.5-8.6-6.2-8.6c-3.8,0-7.6,1.7-12,5.4v34.9h-12.7L159.9,272.9L159.9,272.9z"/>
<path id="letter_g" class="st1" d="M235,309.9c9.7-0.1,10.5-10,10.5-16.4c0-7.6-3.7-13.8-10.6-13.8c-4.6,0-9.8,3.4-9.8,14.3
	C225.2,300,225.6,310,235,309.9 M257.9,271.5v46.1c0,8.1-0.6,21.6-23.8,21.7c-9.6,0.1-18.5-3.8-20.2-12.1l12.6-2
	c0.5,2.4,2,4.8,9.2,4.8c6.6,0,9.8-3.2,9.8-10.8v-5.7l-0.2-0.2c-2,3.7-5.1,7.1-12.6,7.1c-11.4,0-20.3-7.9-20.3-24.3
	c0-16.3,9.2-25.4,19.6-25.4c9.7,0,13.3,4.4,14.2,6.7l-0.2,0l1.1-5.8L257.9,271.5L257.9,271.5z"/>
<path id="letter_e" class="st1" d="M288.5,321.2c-14.4,0-22.9-9.2-22.9-25.3c0-16.2,8.7-25.4,22.7-25.4s22.4,9,22.4,24.8
	c0,0.8-0.1,1.7-0.1,2.5h-32.4c0.1,9.2,3.9,13.9,11.5,13.9c4.8,0,8.1-2,11.1-6.2l9.4,5.2C306,317.6,298.5,321.2,288.5,321.2
	 M298.2,289.5c0-6.5-3.7-10.3-9.8-10.3c-5.8,0-9.4,3.8-9.9,10.3H298.2L298.2,289.5z"/>
<path id="letter_TM" class="st1" d="M332.7,253.2l-4.7,12.2l-4.8-12.2H319v16.1h2.7v-13.4h0.1l5.3,13.4h1.7l5.2-13.4h0.1v13.4h2.7
	v-16.1L332.7,253.2L332.7,253.2z M303,253.2v2.1h5v14h2.7v-14h5v-2.1H303L303,253.2z"/>
</svg>
