<?xml version="1.0" encoding="utf-8"?>
<!-- Generator: Adobe Illustrator 22.1.0, SVG Export Plug-In . SVG Version: 6.00 Build 0)  -->
<svg version="1.1"
	 id="svg3671" inkscape:version="0.48.5 r10040" sodipodi:docname="New document 4" xmlns:cc="http://creativecommons.org/ns#" xmlns:dc="http://purl.org/dc/elements/1.1/" xmlns:inkscape="http://www.inkscape.org/namespaces/inkscape" xmlns:rdf="http://www.w3.org/1999/02/22-rdf-syntax-ns#" xmlns:sodipodi="http://sodipodi.sourceforge.net/DTD/sodipodi-0.dtd" xmlns:svg="http://www.w3.org/2000/svg"
	 xmlns="http://www.w3.org/2000/svg" xmlns:xlink="http://www.w3.org/1999/xlink" x="0px" y="0px" viewBox="0 0 1000 700.2"
	 style="enable-background:new 0 0 1000 700.2;" xml:space="preserve">
<style type="text/css">
	.st0{fill:#7D7D7D;}
</style>
<sodipodi:namedview  bordercolor="#666666" borderopacity="1.0" fit-margin-bottom="0.5" fit-margin-left="0.5" fit-margin-right="0.5" fit-margin-top="0.5" id="base" inkscape:current-layer="layer1" inkscape:cx="621.35281" inkscape:cy="283.29076" inkscape:document-units="px" inkscape:pageopacity="0.0" inkscape:pageshadow="2" inkscape:window-height="1041" inkscape:window-maximized="0" inkscape:window-width="1256" inkscape:window-x="657" inkscape:window-y="-21" inkscape:zoom="0.57695313" pagecolor="#ffffff" showgrid="false">
	</sodipodi:namedview>
<g>
	<path class="st0" d="M395.1,296.5c-7.1,0-12.8,4.3-17.1,8.5c-1.4,4.3-2.8,8.5-4.3,14.2H415c-1.4-5.7-1.4-10-4.3-14.2
		C407.9,300.7,402.2,296.5,395.1,296.5z"/>
	<path class="st0" d="M627.2,297.4c-7.1,0-12.8,2.8-15.7,8.5c-4.3,5.7-5.7,12.8-5.7,22.8s1.4,17.1,4.3,22.8c4.3,5.7,10,8.5,17.1,8.5
		c8.5,0,14.2-2.8,17.1-8.5c4.3-5.7,5.7-12.8,5.7-22.8s-1.4-17.1-5.7-22.8C641.5,300.3,635.8,297.4,627.2,297.4z"/>
	<path class="st0" d="M250,335.8c-4.3,2.8-5.7,5.7-5.7,11.4c0,2.8,0,5.7,1.4,7.1c0,0,0,1.4,2.8,2.8c0,0,5.7,4.3,18.5,4.3
		c8.5,0,15.7-1.4,15.7-1.4v-27c0,0-7.1-1.4-15.7-1.4C254.3,331.5,250,335.8,250,335.8z"/>
	<path class="st0" d="M858.8,296.5c-7.1,0-12.8,4.3-17.1,8.5c-1.4,4.3-2.8,8.5-4.3,14.2h41.3c-1.4-5.7-1.4-10-4.3-14.2
		S866,296.5,858.8,296.5z"/>
	<path class="st0" d="M783.4,95.3c-31.3,0-59.8,7.1-86.8,18.5c-29.9-54.1-88.2-91.1-153.7-91.1c-49.8,0-93.9,19.9-126.7,54.1
		C380.6,29.8,325.1-0.1,264,1.3C157.2,1.3,70.4,88.1,70.4,194.9c0,27,5.7,52.7,15.7,76.8c-49.8,29.9-84,84-84,146.6
		c0,92.5,74,167.9,166.5,167.9c11.4,0,22.8-1.4,34.2-4.3c24.2,69.7,91.1,118.1,167.9,118.1c74,0,138-45.5,165.1-108.2
		c19.9,10,44.1,15.7,68.3,15.7c59.8,0,111-32.7,138-81.1c14.2,2.8,28.5,4.3,42.7,4.3c118.1,0,214.9-98.2,214.9-217.7
		C999.7,192,902.9,95.3,783.4,95.3z M180.8,375.9c-10,0-19.9-1.4-29.9-7.1c-1.4,0-4.3-1.4-5.7-2.8c0-1.4,0-1.4,0-2.8l4.3-11.4
		c1.4-2.8,2.8-1.4,2.8-1.4c1.4,1.4,1.4,1.4,2.8,2.8c12.8,7.1,24.2,7.1,27,7.1c8.5,0,14.2-5.7,14.2-11.4c0-7.1-8.5-8.5-15.7-12.8
		h-2.8c-14.2-4.3-28.5-10-28.5-27c0-15.7,12.8-27,31.3-27h1.4c10,0,21.3,2.8,28.5,8.5c1.4,1.4,1.4,1.4,1.4,2.8s-4.3,10-4.3,11.4
		c-1.4,1.4-2.8,0-2.8,0c-5.7-4.3-17.1-7.1-25.6-7.1c-7.1,0-12.8,4.3-12.8,10s8.5,8.5,18.5,12.8c14.2,4.3,28.5,11.4,28.5,27
		C213.5,364.5,200.7,375.9,180.8,375.9z M299.8,368.5c0,0,0,1.4-1.4,1.4c0,0-2.8,1.4-4.3,1.4s-8.5,1.4-14.2,2.8
		c-5.7,1.4-11.4,1.4-17.1,1.4s-11.4,0-15.7-1.4c-5.7-1.4-8.5-2.8-12.8-5.7c-2.8-1.4-5.7-5.7-7.1-10c-1.4-2.8-2.8-7.1-2.8-12.8
		c0-4.3,0-8.5,2.8-12.8c2.8-4.3,5.7-7.1,8.5-10c4.3-2.8,8.5-4.3,12.8-5.7c4.3-1.4,10-1.4,14.2-1.4c2.8,0,5.7,0,8.5,0
		c0,0,4.3,1.4,8.5,1.4v-1.4c0-8.5-1.4-11.4-4.3-14.2s-8.5-4.3-14.2-4.3c0,0-12.8,0-24.2,7.1c-1.4,0-1.4,0-1.4,0s-1.4,0-1.4-1.4
		l-4.3-10c-1.4-1.4,0-2.8,0-2.8c5.7-4.3,18.5-7.1,18.5-7.1c4.3-1.4,11.4-1.4,15.7-1.4c11.4,0,19.9,2.8,27,8.5
		c5.7,5.7,8.5,14.2,8.5,25.6V368.5z M337.2,371.8c0,1.4,0,1.4-1.4,1.4h-15.7c-1.4,0-1.4-1.4-1.4-1.4V248c0-1.4,0-1.4,1.4-1.4h15.7
		c1.4,0,1.4,0,1.4,1.4V371.8z M433.5,332c0,1.4-1.4,1.4-1.4,1.4h-58.3c0,8.5,2.8,15.7,5.7,18.5c4.3,4.3,11.4,7.1,19.9,7.1
		c14.2,0,19.9-2.8,24.2-4.3c0,0,2.8,0,2.8,1.4l2.8,11.4c1.4,1.4,0,2.8,0,2.8c-2.8,1.4-11.4,5.7-28.5,5.7c-8.5,0-15.7-1.4-21.3-4.3
		c-5.7-2.8-10-5.7-14.2-10s-7.1-8.5-8.5-14.2s-2.8-11.4-2.8-18.5c0-7.1,1.4-12.8,2.8-18.5s4.3-11.4,7.1-15.7
		c4.3-4.3,8.5-7.1,14.2-8.5c4.3-2.8,11.4-4.3,18.5-4.3c5.7,0,11.4,1.4,17.1,2.8c2.8,1.4,7.1,4.3,10,7.1c1.4,2.8,5.7,8.5,7.1,14.2
		C435,320.7,433.5,332,433.5,332z M450.9,368.8c-1.4,0-4.3-1.4-5.7-2.8c0-1.4,0-1.4,0-2.8l4.3-11.4c1.4-2.8,2.8-1.4,2.8-1.4
		c1.4,1.4,1.4,1.4,2.8,2.8c12.8,7.1,24.2,7.1,27,7.1c8.5,0,14.2-5.7,14.2-11.4c0-7.1-8.5-8.5-15.7-12.8h-2.8
		c-14.2-4.3-28.5-10-28.5-27c0-15.7,12.8-27,31.3-27h1.4c10,0,21.3,2.8,28.5,8.5c1.4,1.4,1.4,1.4,1.4,2.8s-4.3,10-4.3,11.4
		c-1.4,1.4-2.8,0-2.8,0c-5.7-4.3-17.1-7.1-25.6-7.1c-7.1,0-12.8,4.3-12.8,10s8.5,8.5,18.5,12.8c14.2,4.3,28.5,11.4,28.5,27
		c0,17.1-12.8,28.5-32.7,28.5C470.8,375.9,460.8,374.5,450.9,368.8z M568.8,273.6c-1.4,5.7-2.8,12.8-2.8,12.8h18.5
		c1.4,0,1.4,0,1.4,1.4l-2.8,11.4c0,1.4-1.4,1.4-1.4,1.4h-18.5l-12.8,74c-1.4,8.5-4.3,14.2-5.7,19.9c-1.4,5.7-4.3,8.5-7.1,12.8
		c-4.3,2.8-7.1,5.7-11.4,7.1c-4.3,1.4-8.5,2.8-14.2,2.8c-2.8,0-5.7,0-8.5-1.4c-2.8,0-4.3-1.4-5.7-1.4c-1.4-1.4-1.4-1.4-1.4-2.8
		s4.3-10,4.3-11.4c0-1.4,1.4-1.4,1.4-1.4c1.4,1.4,1.4,1.4,2.8,1.4s2.8,0,4.3,0c2.8,0,5.7-1.4,7.1-1.4c2.8-1.4,4.3-2.8,5.7-4.3
		c1.4-2.8,2.8-5.7,5.7-10c0-4.3,1.4-8.5,2.8-14.2l12.8-72.6h-12.8c-1.4,0-1.4,0-1.4-1.4l2.8-11.4c0-1.4,1.4-1.4,1.4-1.4h12.8v-4.3
		c1.4-11.4,5.7-19.9,11.4-25.6c5.7-5.7,14.2-8.5,24.2-8.5c4.3,0,5.7,0,8.5,0c2.8,0,4.3,1.4,5.7,1.4c0,0,1.4,0,0,1.4l-4.3,12.8
		c0,1.4-1.4,1.4-2.8,1.4c0-1.4-1.4-1.4-2.8-1.4c-1.4,0-2.8,0-4.3,0c-1.4,0-4.3,0-5.7,0c-1.4,1.4-2.8,1.4-4.3,2.8
		C570.3,266.5,567.4,267.9,568.8,273.6z M665.6,347.2c-1.4,5.7-4.3,10-7.1,14.2s-7.1,7.1-12.8,10c-5.7,2.8-11.4,4.3-18.5,4.3
		c-5.7,0-12.8-1.4-17.1-4.3c-5.7-1.4-10-5.7-14.2-10c-2.8-4.3-5.7-8.5-7.1-14.2s-2.8-11.4-2.8-18.5s1.4-12.8,2.8-18.5
		s4.3-10,8.5-14.2c2.8-4.3,7.1-7.1,12.8-10c4.3-2.8,11.4-4.3,17.1-4.3c7.1,0,12.8,1.4,18.5,4.3c5.7,1.4,10,5.7,14.2,10
		c2.8,4.3,5.7,8.5,7.1,14.2s2.8,11.4,2.8,18.5S668.5,341.5,665.6,347.2z M733,299.4c0,1.4,0,1.4-1.4,1.4c0,0-2.8-1.4-5.7-1.4
		c-1.4,0-5.7,0-7.1,1.4c-2.8,0-5.7,1.4-8.5,4.3c-1.4,1.4-2.8,4.3-4.3,8.5s-1.4,10-1.4,15.7V372c0,0,0,1.4-1.4,1.4h-15.7
		c0,0-1.4,0-1.4-1.4v-86.8c0,0,0-1.4,1.4-1.4h14.2c1.4,0,1.4,0,1.4,1.4v7.1c2.8-2.8,7.1-5.7,10-5.7c2.8-1.4,7.1-2.8,14.2-2.8
		c4.3,0,8.5,1.4,10,1.4s1.4,0,1.4,1.4S735.8,296.6,733,299.4z M810.4,371.7c-7.1,2.8-15.7,4.3-24.2,4.3c-14.2,0-25.6-4.3-32.7-12.8
		c-7.1-8.5-11.4-19.9-11.4-34.2c0-7.1,0-12.8,2.8-19.9c1.4-5.7,4.3-10,8.5-14.2s8.5-7.1,14.2-10c4.3-2.8,11.4-4.3,18.5-4.3
		c4.3,0,8.5,1.4,12.8,1.4c2.8,1.4,8.5,2.8,10,4.3c1.4,0,1.4,0,1.4,1.4c-1.4,4.3-2.8,7.1-4.3,11.4c0,1.4-1.4,1.4-1.4,1.4
		c-5.7-1.4-11.4-2.8-18.5-2.8c-8.5,0-14.2,2.8-18.5,8.5c-4.3,5.7-7.1,12.8-7.1,22.8s2.8,18.5,7.1,22.8c5.7,4.3,11.4,7.1,19.9,7.1
		c4.3,0,7.1,0,10,0s5.7-1.4,7.1-2.8c0,0,2.8,0,2.8,1.4l2.8,12.8C811.8,371.7,810.4,371.7,810.4,371.7z M897.3,332
		c0,1.4-1.4,1.4-1.4,1.4h-58.3c0,8.5,2.8,15.7,5.7,18.5c4.3,4.3,11.4,7.1,19.9,7.1c14.2,0,19.9-2.8,24.2-4.3c0,0,2.8,0,2.8,1.4
		l2.8,11.4c1.4,1.4,0,2.8,0,2.8c-2.8,1.4-11.4,5.7-28.5,5.7c-8.5,0-15.7-1.4-21.3-4.3c-5.7-2.8-10-5.7-14.2-10s-7.1-8.5-8.5-14.2
		c-1.4-5.7-2.8-11.4-2.8-18.5c0-7.1,1.4-12.8,2.8-18.5c1.4-5.7,4.3-11.4,7.1-15.7c4.3-4.3,8.5-7.1,14.2-8.5
		c4.3-2.8,11.4-4.3,18.5-4.3c5.7,0,11.4,1.4,17.1,2.8c2.8,1.4,7.1,4.3,10,7.1c1.4,2.8,5.7,8.5,7.1,14.2
		C898.7,320.7,897.3,332,897.3,332z"/>
</g>
</svg>
