<?xml version="1.0" encoding="utf-8"?>
<!-- Generator: Adobe Illustrator 22.1.0, SVG Export Plug-In . SVG Version: 6.00 Build 0)  -->
<svg version="1.1" id="Layer_1" xmlns="http://www.w3.org/2000/svg" xmlns:xlink="http://www.w3.org/1999/xlink" x="0px" y="0px"
	 viewBox="0 0 91 30.2" style="enable-background:new 0 0 91 30.2;" xml:space="preserve">
<style type="text/css">
	.st0{fill:#7D7D7D;}
</style>
<g>
	<path class="st0" d="M78.7,17.6c-0.1,0.8-0.4,1.3-1,1.7c8.8-4,13.9-8.4,13.3-12.1c-1.2-7.1-22.6-9.3-47.7-5
		c-11,1.9-20.9,4.8-28.4,8c0.4-0.1,0.9-0.2,1.3-0.2c1.3,0,3.2,0.3,3.2,2.4v0.7h-2.3c0,0,0-0.4,0-0.6c0-0.5-0.3-0.9-0.9-0.9
		c-0.6,0-0.8,0.3-0.9,0.6c0,0.1,0,0.3,0,0.5c0.3,1.1,3.8,1.7,4.2,3.7c0,0.2,0.1,0.7,0,1.5c-0.2,1.6-1.6,2.1-3.3,2.1
		c-1.8,0-3.4-0.6-3.4-2.7l0-0.7h2.5v0.9c0,0.5,0.4,0.9,0.9,0.9c0.6,0,0.8-0.3,0.9-0.6c0-0.2,0.1-0.5,0-0.7c-0.5-1.2-3.8-1.8-4.2-3.7
		c-0.1-0.5-0.1-0.8,0-1.3c0.1-0.7,0.4-1.1,0.9-1.5C4.8,14.7-0.6,19.2,0.1,23c1.2,7.1,22.6,9.3,47.7,5C59,26,69,23.1,76.6,19.8
		c-0.4,0.1-0.8,0.1-1.3,0.1c-1.7,0-3.2-0.6-3.3-2.3c0-0.3,0-0.4,0-0.6l0-4c0-0.2,0-0.5,0-0.6c0.2-1.8,1.6-2.3,3.3-2.3
		c1.7,0,3.1,0.6,3.3,2.3c0,0.3,0,0.6,0,0.6v0.3h-2.4v-0.5c0,0,0-0.2,0-0.4c0-0.2-0.2-0.7-0.9-0.7c-0.7,0-0.9,0.5-0.9,0.7
		c0,0.1,0,0.3,0,0.4v4.3c0,0.1,0,0.2,0,0.4c0,0.3,0.3,0.7,1,0.7c0.7,0,0.9-0.4,1-0.7c0-0.1,0-0.2,0-0.4v-1.4h-1v-1.4h3.3V17
		C78.7,17.2,78.7,17.3,78.7,17.6z M26.3,19.8L25,11.2H25l-1.3,8.5h-2.5l1.7-9.4h4.2l1.7,9.4H26.3z M38.8,19.8l-0.1-8.5h0l-1.6,8.5
		h-2.4l-1.6-8.5h-0.1l-0.1,8.5h-2.4l0.2-9.4h3.8l1.2,7.2h0l1.2-7.2H41l0.2,9.4H38.8z M50.1,18c-0.2,1.6-1.6,2.1-3.3,2.1
		c-1.8,0-3.4-0.6-3.4-2.7l0-0.7H46l0,0.9c0,0.5,0.4,0.8,0.9,0.8c0.6,0,0.8-0.3,0.9-0.6c0-0.2,0.1-0.5,0-0.7
		c-0.5-1.2-3.8-1.8-4.2-3.7c-0.1-0.5-0.1-0.8,0-1.3c0.2-1.5,1.6-2.1,3.3-2.1c1.3,0,3.1,0.3,3.1,2.3v0.7h-2.3c0,0,0-0.4,0-0.6
		c0-0.5-0.3-0.8-0.9-0.8c-0.6,0-0.8,0.3-0.9,0.6c0,0.1,0,0.3,0,0.5c0.3,1.1,3.8,1.7,4.2,3.6C50.2,16.6,50.3,17.2,50.1,18z M59,17.7
		c-0.2,1.8-1.6,2.3-3.3,2.3c-1.7,0-3.1-0.6-3.3-2.3c0-0.1,0-0.4,0-0.6v-6.8h2.4v7c0,0.1,0,0.3,0,0.4c0.1,0.2,0.2,0.7,0.9,0.7
		c0.7,0,0.9-0.5,0.9-0.7c0-0.1,0-0.2,0-0.4v-7H59v6.8C59,17.3,59,17.6,59,17.7z M69.5,19.7h-3.4L63.9,12h-0.1l0.1,7.6h-2.3v-9.3h3.5
		l2.2,7.4h0.1l-0.1-7.4h2.3V19.7z"/>
</g>
</svg>
